<?xml version="1.0" encoding="UTF-8"?>
<svg width="231px" height="70px" viewBox="0 0 231 70" version="1.1" xmlns="http://www.w3.org/2000/svg" xmlns:xlink="http://www.w3.org/1999/xlink">
    <title>Phab wordmark</title>
    <defs>
        <filter x="0.0%" y="0.0%" width="100.0%" height="100.0%" filterUnits="objectBoundingBox" id="filter-1">
            <feGaussianBlur stdDeviation="0" in="SourceGraphic"></feGaussianBlur>
        </filter>
    </defs>
    <g id="solo-present" stroke="none" stroke-width="1" fill="none" fill-rule="evenodd">
        <g id="iPhone-8-Copy-31" transform="translate(-70.000000, -33.000000)" fill-rule="nonzero">
            <g id="Phab-wordmark" transform="translate(70.062000, 33.214000)">
                <path d="M18.058,68.34 C22.1913333,68.34 25.4773333,66.79 27.916,63.69 L27.792,63.876 C29.032,62.7186667 29.7346667,61.7266667 29.9,60.9 L29.838,60.962 L30.024,60.218 C30.148,59.846 30.334,59.102 30.582,57.986 C30.6646667,56.8286667 30.706,55.816 30.706,54.948 C30.706,53.956 30.6646667,53.2533333 30.582,52.84 C30.21,50.9386667 29.8586667,49.616 29.528,48.872 L28.784,43.602 C28.784,42.61 28.9803333,41.928 29.373,41.556 C29.7656667,41.184 30.4786667,40.936 31.512,40.812 L31.388,40.812 L35.666,40.626 C38.2286667,40.502 40.6673333,40.0266667 42.982,39.2 C47.198,37.6706667 49.8846667,36.2446667 51.042,34.922 C54.1006667,31.4086667 55.63,27.0893333 55.63,21.964 C55.63,20.848 55.568,19.7526667 55.444,18.678 C55.0306667,15.1646667 53.1706667,12.106 49.864,9.502 C48.4586667,7.68333333 46.5986667,6.07133333 44.284,4.666 C40.3986667,2.31 36.5753333,1.132 32.814,1.132 L32.008,1.132 C29.5693333,1.132 27.6886667,1.008 26.366,0.76 C10.742,1.42133333 2.434,10.494 1.442,27.978 C1.27666667,30.706 1.09066667,33.434 0.884,36.162 L0.884,36.1 C0.801333333,36.844 0.76,37.4433333 0.76,37.898 L0.76,38.58 C0.76,39.2 0.863333333,40.9566667 1.07,43.85 L1.318,47.322 C1.442,49.2646667 1.83466667,52.406 2.496,56.746 C2.62,57.4486667 2.76466667,57.986 2.93,58.358 L2.93,58.296 C3.71533333,60.032 4.99666667,61.52 6.774,62.76 C9.41933333,66.48 13.1806667,68.34 18.058,68.34 Z M14.958,64 C12.726,64 10.5973333,63.4626667 8.572,62.388 C6.38133333,61.2306667 4.87266667,59.7013333 4.046,57.8 C3.922,57.552 3.63266667,56.0433333 3.178,53.274 C3.13666667,53.0673333 3.07466667,52.5093333 2.992,51.6 L2.744,49.306 C2.744,49.306 2.70266667,48.7273333 2.62,47.57 L2.124,40.564 C2.04133333,39.4066667 2,38.7453333 2,38.58 C2,37.092 2.08266667,35.3353333 2.248,33.31 L2.682,28.04 C4.046,11.3413333 11.8993333,2.66133333 26.242,2 C27.8126667,2.28933333 29.7346667,2.41333333 32.008,2.372 C35.9346667,2.28933333 39.82,3.40533333 43.664,5.72 C48.1693333,8.448 50.6493333,11.7753333 51.104,15.702 C51.228,16.7766667 51.29,17.8306667 51.29,18.864 C51.29,23.7 49.864,27.7506667 47.012,31.016 C46.02,32.1733333 43.4986667,33.4753333 39.448,34.922 C37.216,35.7073333 34.9013333,36.162 32.504,36.286 L28.226,36.472 C25.7046667,36.596 24.444,37.9393333 24.444,40.502 C24.444,40.5212889 24.4451941,40.5476504 24.4475822,40.5810844 L24.4583289,40.7026044 C24.5204207,41.3211348 24.7843111,43.1349333 25.25,46.144 C25.3326667,46.3506667 25.6633333,47.5493333 26.242,49.74 C26.3246667,50.2773333 26.366,50.98 26.366,51.848 C26.366,52.6746667 26.3246667,53.6666667 26.242,54.824 C26.118,55.2373333 25.8906667,56.1466667 25.56,57.552 C25.436,58.0893333 24.8573333,58.854 23.824,59.846 C21.6746667,62.6153333 18.7193333,64 14.958,64 Z M24.63,25.312 C24.754,25.312 25.808,24.9606667 27.792,24.258 C28.4533333,23.2246667 28.784,21.84 28.784,20.104 C28.784,17.2106667 27.6266667,15.8673333 25.312,16.074 C24.1133333,16.1566667 23.142,16.7766667 22.398,17.934 L21.84,19.298 C21.1786667,20.91 20.848,21.7573333 20.848,21.84 C20.848,22.6666667 21.2716667,23.452 22.119,24.196 C22.9663333,24.94 23.8033333,25.312 24.63,25.312 Z M25.746,23.7 C26.0766667,23.0386667 26.366,22.336 26.614,21.592 C26.862,21.22 27.172,20.9306667 27.544,20.724 C27.5026667,21.7573333 27.296,22.6046667 26.924,23.266 C26.7586667,23.3486667 26.614,23.4106667 26.49,23.452 L25.746,23.7 Z M76.586,68.216 C80.802,68.216 84.1293333,66.4386667 86.568,62.884 C87.56,61.4373333 88.0973333,60.032 88.18,58.668 L88.18,58.73 C88.2213333,58.5233333 88.242,58.3166667 88.242,58.11 L88.242,57.428 C88.242,55.568 87.8493333,53.15 87.064,50.174 L87.064,50.236 C86.8986667,49.5746667 86.816,48.8926667 86.816,48.19 C86.816,46.1233333 87.5393333,45.09 88.986,45.09 C89.5233333,45.09 90.102,45.276 90.722,45.648 C90.7633333,45.772 90.8873333,46.02 91.094,46.392 L92.52,49.12 C92.6026667,49.368 92.7473333,49.7193333 92.954,50.174 L94.504,53.584 C95.248,55.196 96.5293333,56.6426667 98.348,57.924 C99.216,59.2466667 100.394,60.3833333 101.882,61.334 C102.708667,61.8713333 103.762667,62.14 105.044,62.14 C106.821333,62.14 108.660667,61.8713333 110.562,61.334 C111.306,61.21 112.401333,60.9 113.848,60.404 C114.302667,60.1146667 114.819333,59.7633333 115.398,59.35 L115.336,59.412 C116.617333,58.544 117.485333,57.614 117.94,56.622 L117.94,56.684 C119.056,54.328 119.614,51.6413333 119.614,48.624 C119.614,44.9453333 118.746,40.44 117.01,35.108 L116.886,34.488 C116.844667,34.24 116.7,33.6613333 116.452,32.752 L114.964,29.9 C114.798667,29.652 114.447333,29.0526667 113.91,28.102 L112.36,26.49 C112.029333,26.1593333 111.554,25.746 110.934,25.25 C110.851333,25.1673333 110.81,25.0846667 110.81,25.002 C109.611333,23.7206667 108.557333,22.708 107.648,21.964 L107.338,21.964 C107.214,21.9226667 107.110667,21.902 107.028,21.902 C103.68,19.05 99.4226667,17.624 94.256,17.624 C93.4706667,17.624 92.892,17.6653333 92.52,17.748 L88.428,18.678 C86.7746667,19.05 85.4106667,19.236 84.336,19.236 C83.716,19.236 83.1993333,19.174 82.786,19.05 L82.786,18.988 C82.4553333,17.5413333 82.29,15.6813333 82.29,13.408 C81.794,12.3333333 81.3393333,11.4653333 80.926,10.804 C80.4713333,8.90266667 79.19,7.24933333 77.082,5.844 C76.338,4.64533333 75.2633333,3.59133333 73.858,2.682 C71.75,1.318 69.704,0.636 67.72,0.636 C65.116,0.636 62.6566667,1.91733333 60.342,4.48 C57.3246667,7.828 55.816,11.6306667 55.816,15.888 L55.816,16.57 C55.816,17.7273333 55.878,19.1326667 56.002,20.786 L56.312,24.94 C56.4773333,26.8826667 56.7253333,28.8666667 57.056,30.892 L57.068574,30.9827125 C57.1026286,31.2336689 57.1696901,31.7596819 57.2697583,32.5607515 L57.3146655,32.9209072 C57.5414842,34.7430542 57.9099291,37.7454184 58.42,41.928 C58.9573333,46.4333333 59.6806667,50.0086667 60.59,52.654 C60.7553333,53.1086667 61.0653333,53.9766667 61.52,55.258 L62.202,57.242 C62.946,59.4326667 64.3926667,61.272 66.542,62.76 C67.534,64.2066667 68.9186667,65.4776667 70.696,66.573 C72.4733333,67.6683333 74.1886667,68.216 75.842,68.216 L76.586,68.216 Z M73.486,63.876 L72.866,63.876 C71.0473333,63.876 69.2803333,63.2663333 67.565,62.047 C65.8496667,60.8276667 64.558,59.3706667 63.69,57.676 C62.4913333,54.1213333 61.6853333,51.6206667 61.272,50.174 C60.5693333,47.4873333 60.094,44.8626667 59.846,42.3 C59.6806667,40.3573333 59.35,37.402 58.854,33.434 C58.482,31.3673333 58.048,28.4946667 57.552,24.816 C57.4693333,23.3693333 57.304,20.6 57.056,16.508 C56.8493333,12.292 58.2546667,8.55133333 61.272,5.286 C63.38,3.01266667 65.5293333,1.876 67.72,1.876 C69.58,1.876 71.44,2.48566667 73.3,3.705 C75.16,4.92433333 76.276,6.402 76.648,8.138 C76.9373333,8.55133333 77.3713333,9.378 77.95,10.618 C77.95,12.3953333 78.0533333,13.8626667 78.26,15.02 C78.26,15.144 78.322,15.4953333 78.446,16.074 C78.6113333,16.9833333 78.818,17.6033333 79.066,17.934 C80.2646667,19.6286667 82.0213333,20.476 84.336,20.476 C85.328,20.476 86.7953333,20.2486667 88.738,19.794 C91.3833333,19.174 93.2226667,18.864 94.256,18.864 C99.1746667,18.864 103.225333,20.228 106.408,22.956 C106.573333,23.0386667 106.821333,23.1006667 107.152,23.142 C107.689333,23.5553333 108.578,24.4233333 109.818,25.746 C110.314,26.5726667 111.12,28.0606667 112.236,30.21 C112.36,30.6646667 112.504667,31.326 112.67,32.194 C114.406,37.4846667 115.274,41.928 115.274,45.524 C115.274,48.376 114.757333,50.8766667 113.724,53.026 C113.434667,53.6046667 112.742333,54.328 111.647,55.196 C110.551667,56.064 109.694,56.56 109.074,56.684 C105.602,57.428 103.225333,57.8 101.944,57.8 C100.621333,57.8 99.2986667,57.2213333 97.976,56.064 C96.9013333,55.1546667 96.116,54.142 95.62,53.026 C95.3306667,52.2406667 94.69,50.794 93.698,48.686 L92.272,45.958 C91.776,44.6766667 90.9286667,43.5193333 89.73,42.486 C88.4073333,41.3286667 87.126,40.75 85.886,40.75 C83.8193333,40.75 82.7033333,42.0313333 82.538,44.594 C82.4553333,45.5446667 82.538,46.4746667 82.786,47.384 C83.654,50.6906667 84.0053333,53.3773333 83.84,55.444 C83.6333333,58.1306667 82.0213333,60.4246667 79.004,62.326 C77.3506667,63.3593333 75.5113333,63.876 73.486,63.876 Z M149.374,68.154 C152.598,68.154 156.566,67.472 161.278,66.108 L161.216,66.108 C166.258667,64.5373333 170.02,62.6773333 172.5,60.528 C176.84,56.7666667 179.94,52.0753333 181.8,46.454 C182.296,44.966 182.544,43.0646667 182.544,40.75 C182.544,39.4686667 182.502667,38.58 182.42,38.084 L182.42,36.162 C182.378667,35.9553333 182.358,35.8106667 182.358,35.728 C182.358,30.8506667 181.593333,26.2833333 180.064,22.026 C178.328,17.1486667 175.786,13.346 172.438,10.618 C169.875333,7.43533333 166.692667,5.286 162.89,4.17 L162.084,3.55 C157.702667,2.02066667 153.052667,1.256 148.134,1.256 C147.555333,1.256 146.697667,1.163 145.561,0.977 C144.424333,0.791 143.566667,0.698 142.988,0.698 L142.616,0.698 C138.276,1.11133333 135.072667,2.124 133.006,3.736 C132.138,4.43866667 131.352667,4.99666667 130.65,5.41 C128.79,7.55933333 127.612,9.812 127.116,12.168 L127.116,12.106 C127.074667,12.3126667 127.054,12.4986667 127.054,12.664 L127.054,13.098 C127.054,16.3633333 128.376667,18.678 131.022,20.042 C131.104667,20.2486667 131.290667,20.5586667 131.58,20.972 C132.406667,22.1706667 133.832667,23.142 135.858,23.886 C135.940667,23.9273333 136.498667,24.0926667 137.532,24.382 C132.861333,25.126 129.534,26.49 127.55,28.474 C125.938,30.086 124.842667,31.326 124.264,32.194 C123.685333,33.3513333 122.9,35.1493333 121.908,37.588 L121.97,37.34 C120.936667,39.2826667 120.151333,41.2046667 119.614,43.106 C119.614,43.5193333 119.696667,44.1393333 119.862,44.966 L119.862,45.09 C119.862,47.9006667 121.04,50.98 123.396,54.328 C124.718667,56.2293333 126.144667,57.7793333 127.674,58.978 C129.906,61.4166667 132.220667,63.256 134.618,64.496 C139.288667,66.9346667 144.207333,68.154 149.374,68.154 Z M146.274,63.814 C136.932667,63.814 129.72,60.5073333 124.636,53.894 C122.197333,50.7113333 121.019333,47.694 121.102,44.842 C121.019333,44.5113333 120.936667,43.9533333 120.854,43.168 C121.267333,41.6386667 122.011333,39.9026667 123.086,37.96 C123.458,36.844 124.202,35.1493333 125.318,32.876 C125.896667,32.008 126.93,30.83 128.418,29.342 C129.41,28.35 130.443333,27.6266667 131.518,27.172 C133.791333,26.18 137.552667,25.56 142.802,25.312 C148.051333,25.064 151.626667,24.5473333 153.528,23.762 C154.189333,23.4726667 154.582,22.5633333 154.706,21.034 C154.747333,20.3726667 154.685333,19.6286667 154.52,18.802 C154.148,17.7686667 153.156,17.0866667 151.544,16.756 C151.172,16.6733333 150.738,16.6526667 150.242,16.694 C148.712667,16.818 147.059333,17.252 145.282,17.996 L139.95,20.228 C139.412667,20.3933333 138.71,20.476 137.842,20.476 C133.832667,20.476 131.042667,19.3186667 129.472,17.004 C128.686667,15.888 128.294,14.586 128.294,13.098 C128.294,12.7673333 128.314667,12.54 128.356,12.416 C128.810667,10.2253333 129.844,8.2 131.456,6.34 L133.75,4.728 C135.692667,3.364 138.689333,2.434 142.74,1.938 C143.401333,1.85533333 144.341667,1.92766667 145.561,2.155 C146.780333,2.38233333 147.638,2.496 148.134,2.496 C152.97,2.496 157.434,3.21933333 161.526,4.666 L162.27,5.224 C167.808667,6.79466667 171.983333,10.6593333 174.794,16.818 C176.943333,21.53 178.018,26.8 178.018,32.628 C178.018,33.2066667 178.059333,34.2193333 178.142,35.666 C178.224667,37.0713333 178.224667,38.2906667 178.142,39.324 C177.894,42.4653333 176.84,45.6273333 174.98,48.81 C173.326667,51.7033333 171.198,54.266 168.594,56.498 C167.478,57.4486667 165.762667,58.482 163.448,59.598 C161.381333,60.59 159.500667,61.334 157.806,61.83 C153.218,63.1526667 149.374,63.814 146.274,63.814 Z M144.972,23.886 L148.878,22.212 L148.878,22.274 C150.862,21.4473333 152.35,21.034 153.342,21.034 L153.466,21.034 C153.383333,21.4473333 153.342,21.716 153.342,21.84 L153.094,22.584 C151.482,23.204 148.774667,23.638 144.972,23.886 Z M152.66,46.516 C154.685333,46.516 156.318,45.4 157.558,43.168 C158.591333,41.308 159.108,39.2826667 159.108,37.092 C159.066667,34.8186667 156.834667,33.434 152.412,32.938 C152.370667,32.938 151.337333,33.062 149.312,33.31 C148.196,33.434 146.966333,34.1986667 145.623,35.604 C144.279667,37.0093333 143.546,38.27 143.422,39.386 C143.174,41.2873333 144.083333,43.0233333 146.15,44.594 C147.720667,45.7926667 149.188,46.392 150.552,46.392 C150.841333,46.392 151.130667,46.3713333 151.42,46.33 C151.833333,46.454 152.246667,46.516 152.66,46.516 Z M152.66,45.276 C152.246667,45.276 151.833333,45.214 151.42,45.09 C151.254667,45.1313333 150.965333,45.152 150.552,45.152 C149.725333,45.152 148.857333,44.8833333 147.948,44.346 C147.782667,44.0153333 147.7,43.602 147.7,43.106 L147.7,42.796 C147.741333,42.672 147.762,42.5686667 147.762,42.486 C147.886,41.742 148.537,40.7706667 149.715,39.572 C150.893,38.3733333 151.833333,37.7326667 152.536,37.65 C154.106667,37.4846667 155.057333,37.3606667 155.388,37.278 C155.925333,37.3606667 156.752,37.5053333 157.868,37.712 C157.785333,39.448 157.330667,41.06 156.504,42.548 C155.512,44.3666667 154.230667,45.276 152.66,45.276 Z M207.964,68.34 C210.402667,68.34 212.676,67.968 214.784,67.224 L214.722,67.224 C218.524667,65.9013333 221.893333,63.6073333 224.828,60.342 C228.010667,56.746 229.602,53.088 229.602,49.368 L229.664,49.182 L229.668,49.112 L229.729796,48.9732245 C229.851265,48.669551 229.912,48.3051429 229.912,47.88 L229.912,47.074 C229.912,39.5926667 228.114,34.86 224.518,32.876 C222.699333,29.652 218.648667,27.8333333 212.366,27.42 C211.622,27.3786667 210.981333,27.3166667 210.444,27.234 L210.506,27.234 C210.340667,27.234 210.216667,27.2133333 210.134,27.172 L211.374,15.082 C211.374,13.842 211.167333,12.6433333 210.754,11.486 C210.506,8.386 209.7,6.402 208.336,5.534 C208.170667,5.41 207.695333,5.14133333 206.91,4.728 C206.496667,3.65333333 205.938667,2.88866667 205.236,2.434 C203.5,1.27666667 201.578,0.698 199.47,0.698 L198.85,0.698 C198.519333,0.698 197.816667,0.811666667 196.742,1.039 C195.667333,1.26633333 195.047333,1.442 194.882,1.566 C194.220667,2.062 193.518,3.13666667 192.774,4.79 C192.195333,6.526 191.554667,7.74533333 190.852,8.448 C189.157333,15.516 187.669333,22.832 186.388,30.396 C185.809333,33.8266667 185.292667,37.4846667 184.838,41.37 C184.59,43.5193333 184.466,44.8833333 184.466,45.462 L184.466,45.834 C184.755333,48.1486667 185.065333,50.2153333 185.396,52.034 C185.933333,54.9273333 187.752,57.7173333 190.852,60.404 C190.934667,60.4866667 191.1,60.6313333 191.348,60.838 L192.34,61.954 C196.142667,66.2113333 201.350667,68.34 207.964,68.34 Z M205.112,48.314 C208.584,47.1566667 210.32,45.5446667 210.32,43.478 C210.32,42.1966667 209.927333,40.8946667 209.142,39.572 C208.274,38.0426667 207.240667,37.278 206.042,37.278 C205.504667,37.278 204.781333,37.5053333 203.872,37.96 C203.748,38.1253333 203.541333,38.332 203.252,38.58 C202.962667,38.6213333 202.508,38.7246667 201.888,38.89 C200.937333,40.2126667 200.462,41.7006667 200.462,43.354 C200.462,46.7433333 202.012,48.3966667 205.112,48.314 Z M204.926,47.074 L204.802,47.074 L204.802,46.454 C204.802,45.2966667 205.112,44.1806667 205.732,43.106 C205.897333,43.106 206.104,43.0646667 206.352,42.982 L206.538,42.982 C206.703333,42.8993333 207.116667,42.5893333 207.778,42.052 C207.860667,42.0106667 208.191333,41.8866667 208.77,41.68 C208.976667,42.3826667 209.08,42.982 209.08,43.478 C209.08,44.8833333 207.695333,46.082 204.926,47.074 Z M212.18,28.66 C212.510667,28.66 213.130667,28.7013333 214.04,28.784 C219.248,29.3626667 222.534,31.2226667 223.898,34.364 C225.262,37.5053333 225.799333,41.1426667 225.51,45.276 C225.51,45.4 225.468667,45.5653333 225.386,45.772 C225.303333,45.9786667 225.262,46.144 225.262,46.268 C225.262,49.74 223.732667,53.15 220.674,56.498 C217.904667,59.598 214.763333,61.7473333 211.25,62.946 C209.183333,63.6486667 207.054667,64 204.864,64 C199.366667,64 194.82,62.3466667 191.224,59.04 C189.157333,57.1386667 187.752,55.1133333 187.008,52.964 C186.512,51.5173333 186.078,49.0993333 185.706,45.71 C185.664667,45.2966667 185.788667,43.8913333 186.078,41.494 C187.318,31.2846667 189.281333,20.476 191.968,9.068 C192.588,8.448 193.249333,7.12533333 193.952,5.1 C194.530667,3.81866667 195.047333,3.01266667 195.502,2.682 C195.708667,2.59933333 196.721333,2.372 198.54,2 C198.746667,1.95866667 199.056667,1.938 199.47,1.938 C201.288667,1.938 202.983333,2.45466667 204.554,3.488 C205.628667,4.19066667 206.248667,5.906 206.414,8.634 C206.868667,9.54333333 207.075333,10.6593333 207.034,11.982 C207.034,12.1886667 206.724,15.1646667 206.104,20.91 C205.875077,23.0466154 205.751811,24.1266627 205.734201,24.150142 L205.732,24.148 L205.73603,24.3423587 C205.84081,27.0192862 207.9888,28.4585 212.18,28.66 Z" id="Phab-outlines" fill="#AE84D5" filter="url(#filter-1)"></path>
                <g id="Phab-fills" transform="translate(2.000000, 1.000000)" fill="#FFFFFF">
                    <path d="M197.47,0.938 C199.288667,0.938 200.983333,1.45466667 202.554,2.488 C203.628667,3.19066667 204.248667,4.906 204.414,7.634 C204.868667,8.54333333 205.075333,9.65933333 205.034,10.982 C205.034,11.1886667 204.724,14.1646667 204.104,19.91 C203.875077,22.0466154 203.751811,23.1266627 203.734201,23.150142 L203.732,23.148 L203.73603,23.3423587 C203.84081,26.0192862 205.9888,27.4585 210.18,27.66 C210.510667,27.66 211.130667,27.7013333 212.04,27.784 C217.248,28.3626667 220.534,30.2226667 221.898,33.364 C223.262,36.5053333 223.799333,40.1426667 223.51,44.276 C223.51,44.4 223.468667,44.5653333 223.386,44.772 C223.303333,44.9786667 223.262,45.144 223.262,45.268 C223.262,48.74 221.732667,52.15 218.674,55.498 C215.904667,58.598 212.763333,60.7473333 209.25,61.946 C207.183333,62.6486667 205.054667,63 202.864,63 C197.366667,63 192.82,61.3466667 189.224,58.04 C187.157333,56.1386667 185.752,54.1133333 185.008,51.964 C184.512,50.5173333 184.078,48.0993333 183.706,44.71 C183.664667,44.2966667 183.788667,42.8913333 184.078,40.494 C185.318,30.2846667 187.281333,19.476 189.968,8.068 C190.588,7.448 191.249333,6.12533333 191.952,4.1 C192.530667,2.81866667 193.047333,2.01266667 193.502,1.682 C193.708667,1.59933333 194.721333,1.372 196.54,1 C196.746667,0.958666667 197.056667,0.938 197.47,0.938 Z M204.042,36.278 C203.504667,36.278 202.781333,36.5053333 201.872,36.96 C201.748,37.1253333 201.541333,37.332 201.252,37.58 C200.962667,37.6213333 200.508,37.7246667 199.888,37.89 C198.937333,39.2126667 198.462,40.7006667 198.462,42.354 C198.462,45.7433333 200.012,47.3966667 203.112,47.314 C206.584,46.1566667 208.32,44.5446667 208.32,42.478 C208.32,41.1966667 207.927333,39.8946667 207.142,38.572 C206.274,37.0426667 205.240667,36.278 204.042,36.278 Z" id="B"></path>
                    <path d="M143.561,1.155 C144.780333,1.38233333 145.638,1.496 146.134,1.496 C150.97,1.496 155.434,2.21933333 159.526,3.666 L160.27,4.224 C165.808667,5.79466667 169.983333,9.65933333 172.794,15.818 C174.943333,20.53 176.018,25.8 176.018,31.628 C176.018,32.2066667 176.059333,33.2193333 176.142,34.666 C176.224667,36.0713333 176.224667,37.2906667 176.142,38.324 C175.894,41.4653333 174.84,44.6273333 172.98,47.81 C171.326667,50.7033333 169.198,53.266 166.594,55.498 C165.478,56.4486667 163.762667,57.482 161.448,58.598 C159.381333,59.59 157.500667,60.334 155.806,60.83 C151.218,62.1526667 147.374,62.814 144.274,62.814 C134.932667,62.814 127.72,59.5073333 122.636,52.894 C120.197333,49.7113333 119.019333,46.694 119.102,43.842 C119.019333,43.5113333 118.936667,42.9533333 118.854,42.168 C119.267333,40.6386667 120.011333,38.9026667 121.086,36.96 C121.458,35.844 122.202,34.1493333 123.318,31.876 C123.896667,31.008 124.93,29.83 126.418,28.342 C127.41,27.35 128.443333,26.6266667 129.518,26.172 C131.791333,25.18 135.552667,24.56 140.802,24.312 C146.051333,24.064 149.626667,23.5473333 151.528,22.762 C152.189333,22.4726667 152.582,21.5633333 152.706,20.034 C152.747333,19.3726667 152.685333,18.6286667 152.52,17.802 C152.148,16.7686667 151.156,16.0866667 149.544,15.756 C149.172,15.6733333 148.738,15.6526667 148.242,15.694 C146.712667,15.818 145.059333,16.252 143.282,16.996 L137.95,19.228 C137.412667,19.3933333 136.71,19.476 135.842,19.476 C131.832667,19.476 129.042667,18.3186667 127.472,16.004 C126.686667,14.888 126.294,13.586 126.294,12.098 C126.294,11.7673333 126.314667,11.54 126.356,11.416 C126.810667,9.22533333 127.844,7.2 129.456,5.34 L131.75,3.728 C133.692667,2.364 136.689333,1.434 140.74,0.938 C141.401333,0.855333333 142.341667,0.927666667 143.561,1.155 Z M150.412,31.938 C150.370667,31.938 149.337333,32.062 147.312,32.31 C146.196,32.434 144.966333,33.1986667 143.623,34.604 C142.279667,36.0093333 141.546,37.27 141.422,38.386 C141.174,40.2873333 142.083333,42.0233333 144.15,43.594 C145.720667,44.7926667 147.188,45.392 148.552,45.392 C148.841333,45.392 149.130667,45.3713333 149.42,45.33 C149.833333,45.454 150.246667,45.516 150.66,45.516 C152.685333,45.516 154.318,44.4 155.558,42.168 C156.591333,40.308 157.108,38.2826667 157.108,36.092 C157.066667,33.8186667 154.834667,32.434 150.412,31.938 Z" id="A"></path>
                    <path d="M71.486,62.876 L70.866,62.876 C69.0473333,62.876 67.2803333,62.2663333 65.565,61.047 C63.8496667,59.8276667 62.558,58.3706667 61.69,56.676 C60.4913333,53.1213333 59.6853333,50.6206667 59.272,49.174 C58.5693333,46.4873333 58.094,43.8626667 57.846,41.3 C57.6806667,39.3573333 57.35,36.402 56.854,32.434 C56.482,30.3673333 56.048,27.4946667 55.552,23.816 C55.4693333,22.3693333 55.304,19.6 55.056,15.508 C54.8493333,11.292 56.2546667,7.55133333 59.272,4.286 C61.38,2.01266667 63.5293333,0.876 65.72,0.876 C67.58,0.876 69.44,1.48566667 71.3,2.705 C73.16,3.92433333 74.276,5.402 74.648,7.138 C74.9373333,7.55133333 75.3713333,8.378 75.95,9.618 C75.95,11.3953333 76.0533333,12.8626667 76.26,14.02 C76.26,14.144 76.322,14.4953333 76.446,15.074 C76.6113333,15.9833333 76.818,16.6033333 77.066,16.934 C78.2646667,18.6286667 80.0213333,19.476 82.336,19.476 C83.328,19.476 84.7953333,19.2486667 86.738,18.794 C89.3833333,18.174 91.2226667,17.864 92.256,17.864 C97.1746667,17.864 101.225333,19.228 104.408,21.956 C104.573333,22.0386667 104.821333,22.1006667 105.152,22.142 C105.689333,22.5553333 106.578,23.4233333 107.818,24.746 C108.314,25.5726667 109.12,27.0606667 110.236,29.21 C110.36,29.6646667 110.504667,30.326 110.67,31.194 C112.406,36.4846667 113.274,40.928 113.274,44.524 C113.274,47.376 112.757333,49.8766667 111.724,52.026 C111.434667,52.6046667 110.742333,53.328 109.647,54.196 C108.551667,55.064 107.694,55.56 107.074,55.684 C103.602,56.428 101.225333,56.8 99.944,56.8 C98.6213333,56.8 97.2986667,56.2213333 95.976,55.064 C94.9013333,54.1546667 94.116,53.142 93.62,52.026 C93.3306667,51.2406667 92.69,49.794 91.698,47.686 L90.272,44.958 C89.776,43.6766667 88.9286667,42.5193333 87.73,41.486 C86.4073333,40.3286667 85.126,39.75 83.886,39.75 C81.8193333,39.75 80.7033333,41.0313333 80.538,43.594 C80.4553333,44.5446667 80.538,45.4746667 80.786,46.384 C81.654,49.6906667 82.0053333,52.3773333 81.84,54.444 C81.6333333,57.1306667 80.0213333,59.4246667 77.004,61.326 C75.3506667,62.3593333 73.5113333,62.876 71.486,62.876 Z" id="H"></path>
                    <path d="M24.242,1 C25.8126667,1.28933333 27.7346667,1.41333333 30.008,1.372 C33.9346667,1.28933333 37.82,2.40533333 41.664,4.72 C46.1693333,7.448 48.6493333,10.7753333 49.104,14.702 C49.228,15.7766667 49.29,16.8306667 49.29,17.864 C49.29,22.7 47.864,26.7506667 45.012,30.016 C44.02,31.1733333 41.4986667,32.4753333 37.448,33.922 C35.216,34.7073333 32.9013333,35.162 30.504,35.286 L26.226,35.472 C23.7046667,35.596 22.444,36.9393333 22.444,39.502 C22.444,39.5212889 22.4451941,39.5476504 22.4475822,39.5810844 L22.4583289,39.7026044 C22.5204207,40.3211348 22.7843111,42.1349333 23.25,45.144 C23.3326667,45.3506667 23.6633333,46.5493333 24.242,48.74 C24.3246667,49.2773333 24.366,49.98 24.366,50.848 C24.366,51.6746667 24.3246667,52.6666667 24.242,53.824 C24.118,54.2373333 23.8906667,55.1466667 23.56,56.552 C23.436,57.0893333 22.8573333,57.854 21.824,58.846 C19.6746667,61.6153333 16.7193333,63 12.958,63 C10.726,63 8.59733333,62.4626667 6.572,61.388 C4.38133333,60.2306667 2.87266667,58.7013333 2.046,56.8 C1.922,56.552 1.63266667,55.0433333 1.178,52.274 C1.13666667,52.0673333 1.07466667,51.5093333 0.992,50.6 L0.744,48.306 C0.744,48.306 0.702666667,47.7273333 0.62,46.57 L0.124,39.564 C0.0413333333,38.4066667 -2.13162821e-14,37.7453333 -2.13162821e-14,37.58 C-2.13162821e-14,36.092 0.0826666667,34.3353333 0.248,32.31 L0.682,27.04 C2.046,10.3413333 9.89933333,1.66133333 24.242,1 Z M23.312,15.074 C22.1133333,15.1566667 21.142,15.7766667 20.398,16.934 L19.84,18.298 C19.1786667,19.91 18.848,20.7573333 18.848,20.84 C18.848,21.6666667 19.2716667,22.452 20.119,23.196 C20.9663333,23.94 21.8033333,24.312 22.63,24.312 C22.754,24.312 23.808,23.9606667 25.792,23.258 C26.4533333,22.2246667 26.784,20.84 26.784,19.104 C26.784,16.2106667 25.6266667,14.8673333 23.312,15.074 Z" id="P"></path>
                </g>
            </g>
        </g>
    </g>
</svg>