<svg id="Layer_1" data-name="Layer 1" xmlns="http://www.w3.org/2000/svg" viewBox="0 0 287 300.67"><defs><style>.cls-1{fill:none;}.cls-2{font-size:15px;font-family:Bubblegums, bubblegums;}</style></defs><rect class="cls-1" x="-44" y="-30.33" width="375" height="375"/><text class="cls-2" transform="translate(39.46 58.09) rotate(-43.6)">d</text><text class="cls-2" transform="translate(49.42 48.54) rotate(-37.87)">o</text><text class="cls-2" transform="matrix(0.85, -0.52, 0.52, 0.85, 61.25, 39.23)">n</text><text class="cls-2" transform="translate(76.13 30.27) rotate(-25.44)">t</text><text class="cls-2" transform="translate(87.57 24.92) rotate(-21.44)"> </text><text class="cls-2" transform="matrix(0.95, -0.3, 0.3, 0.95, 94.34, 22.15)">P</text><text class="cls-2" transform="matrix(0.98, -0.21, 0.21, 0.98, 106.84, 18.26)">r</text><text class="cls-2" transform="translate(118.65 15.61) rotate(-6.85)">e</text><text class="cls-2" transform="translate(133.54 13.9) rotate(-1.63)">s</text><text class="cls-2" transform="translate(144.92 13.56) rotate(2.83)">s</text><text class="cls-2" transform="translate(156.31 14.19) rotate(6.54)"> </text><text class="cls-2" transform="translate(163.61 14.94) rotate(10.38)">J</text><text class="cls-2" transform="translate(175.17 16.96) rotate(15.77)">u</text><text class="cls-2" transform="matrix(0.93, 0.36, -0.36, 0.93, 189.69, 21.14)">s</text><text class="cls-2" transform="translate(200.31 25.2) rotate(25.89)">t</text><text class="cls-2" transform="matrix(0.87, 0.5, -0.5, 0.87, 211.65, 30.8)"> </text><text class="cls-2" transform="translate(218.05 34.34) rotate(34.01)">Y</text><text class="cls-2" transform="translate(229.08 41.72) rotate(39.62)">e</text><text class="cls-2" transform="translate(240.59 51.31) rotate(45.09)">t</text></svg>