<svg id="Layer_1" data-name="Layer 1" xmlns="http://www.w3.org/2000/svg" viewBox="0 0 287 300.68"><defs><style>.cls-1{fill:none;}.cls-2{font-size:15px;font-family:Bubblegums, bubblegums;}</style></defs><rect class="cls-1" x="-44" y="-30.32" width="375" height="375"/><text class="cls-2" transform="matrix(0.8, -0.6, 0.6, 0.8, 52.87, 45.77)">l</text><text class="cls-2" transform="matrix(0.85, -0.52, 0.52, 0.85, 61.82, 38.93)">e</text><text class="cls-2" transform="matrix(0.9, -0.44, 0.44, 0.9, 74.6, 31.11)">t</text><text class="cls-2" transform="translate(85.91 25.57) rotate(-21.33)">s</text><text class="cls-2" transform="translate(96.57 21.48) rotate(-17.57)"> </text><text class="cls-2" transform="translate(103.51 19.2) rotate(-13.8)">s</text><text class="cls-2" transform="translate(114.56 16.45) rotate(-8.99)">t</text><text class="cls-2" transform="matrix(1, -0.06, 0.06, 1, 126.95, 14.41)">a</text><text class="cls-2" transform="translate(142.34 13.55) rotate(1.97)">r</text><text class="cls-2" transform="translate(154.48 13.95) rotate(6.87)">t</text><text class="cls-2" transform="matrix(0.98, 0.19, -0.19, 0.98, 167.01, 15.55)"> </text><text class="cls-2" transform="translate(174.22 16.75) rotate(15.43)">a</text><text class="cls-2" transform="translate(189.05 20.89) rotate(21.17)">g</text><text class="cls-2" transform="matrix(0.89, 0.45, -0.45, 0.89, 201.33, 25.57)">a</text><text class="cls-2" transform="translate(215.04 32.7) rotate(31.51)">i</text><text class="cls-2" transform="matrix(0.8, 0.59, -0.59, 0.8, 221.65, 36.48)">n</text></svg>