<svg id="Layer_1" data-name="Layer 1" xmlns="http://www.w3.org/2000/svg" viewBox="0 0 375 375"><defs><style>.cls-1{fill:none;}.cls-2{fill:#ae84d5;}.cls-3{fill:#fff;}</style></defs><rect class="cls-1" width="375" height="375"/><path class="cls-2" d="M153.81,191.24a11.24,11.24,0,0,1-.73,2.81,5.58,5.58,0,0,1-1.83,2.19l-1.15.83a4,4,0,0,1-1.77.83,16.35,16.35,0,0,1-1.87.18,7.15,7.15,0,0,1-2.27-.36,32,32,0,0,1-6.44-2.92c-1.68-1.17-2.94-2.1-3.78-2.77a6.81,6.81,0,0,0-2.66-1.4h0c-.22,0-.4.29-.54.86a2.71,2.71,0,0,0,0,.47v.43a19.62,19.62,0,0,0,.15,2q.18,1.66.18,2,0,3.83-3.89,5h0a12.14,12.14,0,0,1-3,.76,3.6,3.6,0,0,1-.72-.11,3.78,3.78,0,0,0-.73-.11,7,7,0,0,1-3.16-.83,8.36,8.36,0,0,0-.65-.54l.07,0a7.87,7.87,0,0,1-2.73-2.41,9.53,9.53,0,0,1-3.35-5.73v-1.8c0-.21,0-.25,0-.1V190c0-.58,0-.83,0-.76v-2.59c0-1.61,0-3.23.1-4.86q.25-5.73.26-6.09v-.43a18.37,18.37,0,0,1,.11-1.87c.59-2.23.94-3.46,1-3.67l0,0a8.59,8.59,0,0,1,2.2-3.34c.62-.58,1.92-.89,3.89-.94a13.32,13.32,0,0,1,1.87.36l0,0a10.51,10.51,0,0,1,5.08,3.24q4.32,4.65,4.64,5a4.7,4.7,0,0,0,2.81,1,2.45,2.45,0,0,0,.79-.43l-.07,0a16.54,16.54,0,0,0,.83-2.73q1.26-4.89,2.63-6.27a9.75,9.75,0,0,1,2.77-1.76,7.72,7.72,0,0,1,3.1-.86H145c1.44,0,2.81.84,4.13,2.52a1.24,1.24,0,0,1,.15.21,9.43,9.43,0,0,1,3.67,5.65,30.66,30.66,0,0,1,.65,4.54l0,.5c.24,2.64.42,4.34.54,5.08v6.8A17.35,17.35,0,0,1,153.81,191.24Zm-2.16-11.45-.58-5.58c-.22-2.06-.4-3.43-.54-4.1a10.73,10.73,0,0,0-1.91-4.11,5.1,5.1,0,0,0-3.71-2.26,6.18,6.18,0,0,0-2.86.73,9.19,9.19,0,0,0-2.61,1.68c-.82.81-1.63,2.79-2.45,5.94a10.82,10.82,0,0,1-1,3.09,2.39,2.39,0,0,1-1.19.58,5.71,5.71,0,0,1-4.28-2.09q-2.74-3.06-3.67-4.14a8.9,8.9,0,0,0-4.72-3c-1-.21-1.55-.32-1.69-.32q-2.7.08-3.39.72a8.33,8.33,0,0,0-2,3.1c-.46,1.48-.78,2.61-1,3.38,0,1.13-.09,1.9-.11,2.3l-.26,6.12c-.09,2.31-.13,4.35-.1,6.12s0,3.34,0,4.4a7.91,7.91,0,0,0,3.92,5.83,5.27,5.27,0,0,1,.61.5,8,8,0,0,0,2.77.72,3.59,3.59,0,0,1,.69.11,3.64,3.64,0,0,0,.68.11,14.35,14.35,0,0,0,2.88-.72c2.26-.79,3.39-2.25,3.39-4.36a5.11,5.11,0,0,0,0-.75l-.14-1.16a16,16,0,0,1-.15-2v-.47a2.71,2.71,0,0,1,.36-1.33c.29-.52.65-.75,1.08-.68a8.5,8.5,0,0,1,3,1.55l3.78,2.73a32.29,32.29,0,0,0,6.62,3,8.58,8.58,0,0,0,3.43,0,4.09,4.09,0,0,0,1.36-.61q.36-.22,1.23-.9a5.35,5.35,0,0,0,1.8-2.41,15.85,15.85,0,0,0,.83-5Z"/><path class="cls-2" d="M190.74,192.43q0,5.07-5.8,7.7a33.38,33.38,0,0,1-8.92,2l-.67-.11c-.4-.07-.51-.11-.34-.11l-.65-.07-1.87-.14a15.46,15.46,0,0,1-2.48-.4l-1.12-.32-1.73-.44-2.09-1.08a11.63,11.63,0,0,1-3.88-3.09q-4-3.21-5.8-10.62v-.36q0-.47-.09-1.44t-.09-1.44a16.92,16.92,0,0,1,1-5.58,33,33,0,0,1,1.34-3.17c.23-.53.75-1.55,1.54-3.06a11.48,11.48,0,0,1,4.18-4.57h0a16.88,16.88,0,0,1,4.72-1.87l5-1.05-.07,0a7.1,7.1,0,0,1,2.3-.29c.19,0,1.15.2,2.88.61l0,0a8,8,0,0,1,5.14,3.24,8.12,8.12,0,0,1,3.21,4.5,17.78,17.78,0,0,1,.86,5.61,19.42,19.42,0,0,1-.11,2.09,6,6,0,0,1-1.22,2.84,7.9,7.9,0,0,1-2.2,2.16c.72.32,1.19.53,1.41.65a8.08,8.08,0,0,1,2.48,2.23A6.66,6.66,0,0,1,190.74,192.43ZM185,185.34a7,7,0,0,0-3.78-1.05,13,13,0,0,0-4,.94,13.19,13.19,0,0,1-4,.93,6.17,6.17,0,0,1-2.88-.68,1.08,1.08,0,0,1-.14-.5c.22-.36.41-.57.58-.62a58.94,58.94,0,0,0,9.14-1.87,7.55,7.55,0,0,0,3.85-3.17,5.52,5.52,0,0,0,.9-2.23c.08-.84.11-1.5.11-2a14.47,14.47,0,0,0-1.44-6.8,7.71,7.71,0,0,0-5.4-4l-2.7-.58a9.77,9.77,0,0,0-2.09.25c-2.37.51-4,.84-4.82,1q-6.09,1.26-8.57,6.08a53,53,0,0,0-2.84,6.12,15.41,15.41,0,0,0-1,6.05c.07,1.13.11,2,.14,2.52q2.13,8.69,7.49,11.31c.84.4,1.53.76,2.09,1.08l3.59.9,4,.39a1.73,1.73,0,0,1,.45.11,1.57,1.57,0,0,0,.45.11,34.14,34.14,0,0,0,8.85-2q5.15-2.39,5.15-7A6,6,0,0,0,185,185.34Zm-11.67-8.82c-1.11,1-1.89,1.64-2.35,2a2.26,2.26,0,0,1-.69.1,2.63,2.63,0,0,1-1.87-.82,2.57,2.57,0,0,1-.85-1.84,3,3,0,0,1,.08-.54,10.39,10.39,0,0,1,1-1.91l.45-.41c.21-.18.36-.32.46-.42.91.36,1.7.7,2.35,1a2.29,2.29,0,0,1,1.52,1.91C173.51,176.11,173.47,176.42,173.35,176.52Zm-.65-.58v-.11a.15.15,0,0,1-.1,0l-1.12-.51-.43.43a7.47,7.47,0,0,0-.94,1.95v.21h.18a1.48,1.48,0,0,0,.36,0c.36-.29.66-.54.9-.76l1.19-1S172.7,176,172.7,175.94Zm-2.55,1.55,0-.15A.28.28,0,0,0,170.15,177.49Z"/><path class="cls-2" d="M228.83,187.21a5.57,5.57,0,0,1,1.26,3.42,7.87,7.87,0,0,1-1.59,4.61v0A7.15,7.15,0,0,1,225,198a2.55,2.55,0,0,1-1.22.22A10.85,10.85,0,0,1,217.6,196c-.92-.84-1.55-1.43-1.91-1.77-.72-.67-1.23-1-1.51-1h0q-.9.18-2,1.8c-1.25,1.68-2.12,2.83-2.63,3.45a21.62,21.62,0,0,1-1.73,2.09v0a4.75,4.75,0,0,1-3.42,1.59h-.18a6.33,6.33,0,0,1-2.62-.61l.1,0a13.22,13.22,0,0,1-4.71-3.42,10.12,10.12,0,0,1-2.16-2.27,4.09,4.09,0,0,1-.72-2.52,7.87,7.87,0,0,1,1-3.88l1.44-2.6c.6-1,1.13-2,1.58-2.95v0a1,1,0,0,0,.11-.47,1.87,1.87,0,0,0-.54-1.08l-2.55-2.48a15.72,15.72,0,0,1-2.24-2.42,8.26,8.26,0,0,1-1-3.85,14.7,14.7,0,0,1,.25-2.79,5.25,5.25,0,0,1,1.59-2.64,4.14,4.14,0,0,1,2.62-1.41,4.58,4.58,0,0,1,1.34-.21,12,12,0,0,1,3.16,1.29,9.35,9.35,0,0,1,1.55,1.12c.7.65,1.27,1.2,1.73,1.65,1,1,1.78,1.79,2.3,2.34,1.35-.67,2.43-1.26,3.24-1.76a6.28,6.28,0,0,0,1.84-2.2,25.76,25.76,0,0,1,1.62-2.62,13.13,13.13,0,0,1,3.46-3,3.74,3.74,0,0,1,1.94-.47h.11a3.53,3.53,0,0,1,2.81,1.69l.32.47a5.65,5.65,0,0,1,1.73,1.66c.17.24.56.95,1.19,2.12a10.49,10.49,0,0,1,1.44,4.82,13.34,13.34,0,0,1-1.12,5v0c-.17.38-.3.66-.4.83l0,0-.25.58a5,5,0,0,0-.33,1.22v.36a3.84,3.84,0,0,0,0,.61c.84.77,1.58,1.49,2.23,2.16C227.81,186.08,228.66,187,228.83,187.21Zm-6.66-5.55a2.29,2.29,0,0,1-.69-2.12,4.53,4.53,0,0,1,.4-1.51c.6-1.44,1-2.43,1.15-2.95a10.45,10.45,0,0,0,.51-3.14,9.65,9.65,0,0,0-1.37-4.46,25,25,0,0,0-1.37-2.38,2.74,2.74,0,0,0-2.3-1.4,3.17,3.17,0,0,0-1.62.36,14.3,14.3,0,0,0-3.28,2.84c-.1.12-.61,1-1.55,2.52a7.64,7.64,0,0,1-2.05,2.45,26.82,26.82,0,0,1-3.67,1.95,15.24,15.24,0,0,1-2.85-2.67,11.66,11.66,0,0,0-3-2.59,14.25,14.25,0,0,0-2.88-1.22,3.18,3.18,0,0,0-1.15.21,2.85,2.85,0,0,0-2.14,1.1,6.36,6.36,0,0,0-1.46,2.32,10,10,0,0,0-.29,2.7,7,7,0,0,0,1,3.49,20.38,20.38,0,0,0,3.17,3.21c1.49,1.32,2.23,2.36,2.23,3.13a1.55,1.55,0,0,1-.14.68q-.69,1.38-1.62,3.06c-1,1.71-1.49,2.68-1.59,2.92a7.58,7.58,0,0,0-.75,3.2,3.5,3.5,0,0,0,.57,2.09,10.06,10.06,0,0,0,4.72,3.64,5.21,5.21,0,0,0,2.3.54,6.91,6.91,0,0,0,1.25-.15,4.18,4.18,0,0,0,1.92-1.29,12.07,12.07,0,0,0,1.55-1.87,14.53,14.53,0,0,1,1.3-1.68,16.3,16.3,0,0,0,1.33-1.74,4,4,0,0,1,2.45-2.16q.93-.18,4.1,3a9.88,9.88,0,0,0,5.69,2,2.65,2.65,0,0,0,1-.14,5.86,5.86,0,0,0,3.24-2.7,7.47,7.47,0,0,0,1.37-4.07,4.49,4.49,0,0,0-.61-2.27A19.2,19.2,0,0,0,222.17,181.66Z"/><path class="cls-2" d="M260.54,195.24a13,13,0,0,0-.36,1.26,6.05,6.05,0,0,1-1.62,2.66h0a8.62,8.62,0,0,1-1.84,1.51,11.65,11.65,0,0,1-5.4,1.48h-.61a18.77,18.77,0,0,1-8.31-1.8c-.22-.22-.47-.45-.76-.69l-.29-.28a8,8,0,0,1-1.22-1.3,2,2,0,0,1-.29-.22l-.29-.28a8.19,8.19,0,0,1-2.91-6.66,11.18,11.18,0,0,1,.07-1.12,1.48,1.48,0,0,1,0-.36v-.32A7.28,7.28,0,0,0,236,189a3.69,3.69,0,0,1-3-2q-2.34-1-2.34-5a8.15,8.15,0,0,1,.11-1.3,5.55,5.55,0,0,0,.51-.75l0,0a5.73,5.73,0,0,1,5-3.17,4.47,4.47,0,0,0,.14-1.15,10.63,10.63,0,0,0-.28-2.12l0,0a9.09,9.09,0,0,1-.25-2.3,20.35,20.35,0,0,1,.22-3c.21-.43.38-.75.5-1v.14a6.48,6.48,0,0,1,1.84-3.24,4.63,4.63,0,0,1,3.28-1.29c.43,0,.76,0,1,0a5.59,5.59,0,0,1,3.65,2.45,8.6,8.6,0,0,1,1.9,2,5.8,5.8,0,0,1,.82,2v0a7.3,7.3,0,0,1,.4,2.2,14.75,14.75,0,0,1-.36,3.88,1.13,1.13,0,0,0-.07.33,1.48,1.48,0,0,0,.36,0,3.78,3.78,0,0,1,3.38,2.2,3.42,3.42,0,0,1,2.12,3.49,8.43,8.43,0,0,1-.28,2,4.6,4.6,0,0,1,3.2,2.31c2,1.29,3,3.48,3,6.55a6.07,6.07,0,0,1-.11,1.33C260.71,194.06,260.64,194.61,260.54,195.24Zm-2.19-4.79a8.67,8.67,0,0,0-1-4.21A3.73,3.73,0,0,0,254,184a1.2,1.2,0,0,0-.54.11,3.66,3.66,0,0,0-2,1.26c-.12.17-.3.45-.54.86-.75,1.27-1.41,1.91-2,1.91a1.07,1.07,0,0,1-.58-.18c-1.1-.67-1.61-1.3-1.51-1.87a1.47,1.47,0,0,1,.72-1c1.29-.58,2.12-1,2.48-1.16a4.48,4.48,0,0,0,2.41-4.39q0-2.84-3.06-3.17c-.79-.09-1.3-.16-1.54-.21a1.61,1.61,0,0,1-1.16-.9,3.07,3.07,0,0,1,0-2,14.74,14.74,0,0,0,.33-3.7,8,8,0,0,0-.34-2,5.24,5.24,0,0,0-.74-1.73,6.15,6.15,0,0,0-2.34-2.09,6.59,6.59,0,0,0-2.77-.18,3.76,3.76,0,0,0-2.25,1.39,5.7,5.7,0,0,0-1.28,2.5l-.25.5a2.64,2.64,0,0,0-.18.4,19.13,19.13,0,0,0-.22,2.73,13.83,13.83,0,0,0,.25,2.22,13.84,13.84,0,0,1,.25,2.21,4.76,4.76,0,0,1-.32,1.84,5.22,5.22,0,0,0-4.93,2.81,4.26,4.26,0,0,1-.43.68,8.24,8.24,0,0,0,0,2.52c.27,1.8,1.19,2.8,2.77,3a14.31,14.31,0,0,1,2.24.36,1.7,1.7,0,0,1,1,1.8c0,.26,0,.64-.07,1.13s-.07.87-.07,1.14a7.55,7.55,0,0,0,2.66,6.12c.29.24.61.54,1,.9a17.82,17.82,0,0,0,4.9,1.44,15.68,15.68,0,0,0,4.1.21,12.46,12.46,0,0,0,4.61-1.37,7.12,7.12,0,0,0,1.58-1.29,4.55,4.55,0,0,0,1.16-1.51c.31-1,.52-1.73.64-2.09.1-.67.17-1.24.22-1.69A5.6,5.6,0,0,0,258.35,190.45Z"/><path class="cls-3" d="M151.65,179.79l-.58-5.58c-.22-2.06-.4-3.43-.54-4.1a10.73,10.73,0,0,0-1.91-4.11,5.1,5.1,0,0,0-3.71-2.26,6.18,6.18,0,0,0-2.86.73,9.19,9.19,0,0,0-2.61,1.68c-.82.81-1.63,2.79-2.45,5.94a10.82,10.82,0,0,1-1,3.09,2.39,2.39,0,0,1-1.19.58,5.71,5.71,0,0,1-4.28-2.09q-2.74-3.06-3.67-4.14a8.9,8.9,0,0,0-4.72-3c-1-.21-1.55-.32-1.69-.32q-2.7.08-3.39.72a8.33,8.33,0,0,0-2,3.1c-.46,1.48-.78,2.61-1,3.38,0,1.13-.09,1.9-.11,2.3l-.26,6.12c-.09,2.31-.13,4.35-.1,6.12s0,3.34,0,4.4a7.91,7.91,0,0,0,3.92,5.83,5.27,5.27,0,0,1,.61.5,8,8,0,0,0,2.77.72,3.59,3.59,0,0,1,.69.11,3.64,3.64,0,0,0,.68.11,14.35,14.35,0,0,0,2.88-.72c2.26-.79,3.39-2.25,3.39-4.36a5.11,5.11,0,0,0,0-.75l-.14-1.16a16,16,0,0,1-.15-2v-.47a2.71,2.71,0,0,1,.36-1.33c.29-.52.65-.75,1.08-.68a8.5,8.5,0,0,1,3,1.55l3.78,2.73a32.29,32.29,0,0,0,6.62,3,8.58,8.58,0,0,0,3.43,0,4.09,4.09,0,0,0,1.36-.61q.36-.22,1.23-.9a5.35,5.35,0,0,0,1.8-2.41,15.85,15.85,0,0,0,.83-5Z"/><path class="cls-3" d="M185,185.34a7,7,0,0,0-3.78-1.05,13,13,0,0,0-4,.94,13.19,13.19,0,0,1-4,.93,6.17,6.17,0,0,1-2.88-.68,1.08,1.08,0,0,1-.14-.5c.22-.36.41-.57.58-.62a58.94,58.94,0,0,0,9.14-1.87,7.55,7.55,0,0,0,3.85-3.17,5.52,5.52,0,0,0,.9-2.23c.08-.84.11-1.5.11-2a14.47,14.47,0,0,0-1.44-6.8,7.71,7.71,0,0,0-5.4-4l-2.7-.58a9.77,9.77,0,0,0-2.09.25c-2.37.51-4,.84-4.82,1q-6.09,1.26-8.57,6.08a53,53,0,0,0-2.84,6.12,15.41,15.41,0,0,0-1,6.05c.07,1.13.11,2,.14,2.52q2.13,8.69,7.49,11.31c.84.4,1.53.76,2.09,1.08l3.59.9,4,.39a1.73,1.73,0,0,1,.45.11,1.57,1.57,0,0,0,.45.11,34.14,34.14,0,0,0,8.85-2q5.15-2.39,5.15-7A6,6,0,0,0,185,185.34Zm-11.67-8.82c-1.11,1-1.89,1.64-2.35,2a2.26,2.26,0,0,1-.69.1,2.63,2.63,0,0,1-1.87-.82,2.57,2.57,0,0,1-.85-1.84,3,3,0,0,1,.08-.54,10.39,10.39,0,0,1,1-1.91l.45-.41c.21-.18.36-.32.46-.42.91.36,1.7.7,2.35,1a2.29,2.29,0,0,1,1.52,1.91C173.51,176.11,173.47,176.42,173.35,176.52Z"/><path class="cls-3" d="M222.17,181.66a2.29,2.29,0,0,1-.69-2.12,4.53,4.53,0,0,1,.4-1.51c.6-1.44,1-2.43,1.15-2.95a10.45,10.45,0,0,0,.51-3.14,9.65,9.65,0,0,0-1.37-4.46,25,25,0,0,0-1.37-2.38,2.74,2.74,0,0,0-2.3-1.4,3.17,3.17,0,0,0-1.62.36,14.3,14.3,0,0,0-3.28,2.84c-.1.12-.61,1-1.55,2.52a7.64,7.64,0,0,1-2.05,2.45,26.82,26.82,0,0,1-3.67,1.95,15.24,15.24,0,0,1-2.85-2.67,11.66,11.66,0,0,0-3-2.59,14.25,14.25,0,0,0-2.88-1.22,3.18,3.18,0,0,0-1.15.21,2.85,2.85,0,0,0-2.14,1.1,6.36,6.36,0,0,0-1.46,2.32,10,10,0,0,0-.29,2.7,7,7,0,0,0,1,3.49,20.38,20.38,0,0,0,3.17,3.21c1.49,1.32,2.23,2.36,2.23,3.13a1.55,1.55,0,0,1-.14.68q-.69,1.38-1.62,3.06c-1,1.71-1.49,2.68-1.59,2.92a7.58,7.58,0,0,0-.75,3.2,3.5,3.5,0,0,0,.57,2.09,10.06,10.06,0,0,0,4.72,3.64,5.21,5.21,0,0,0,2.3.54,6.91,6.91,0,0,0,1.25-.15,4.18,4.18,0,0,0,1.92-1.29,12.07,12.07,0,0,0,1.55-1.87,14.53,14.53,0,0,1,1.3-1.68,16.3,16.3,0,0,0,1.33-1.74,4,4,0,0,1,2.45-2.16q.93-.18,4.1,3a9.88,9.88,0,0,0,5.69,2,2.65,2.65,0,0,0,1-.14,5.86,5.86,0,0,0,3.24-2.7,7.47,7.47,0,0,0,1.37-4.07,4.49,4.49,0,0,0-.61-2.27A19.2,19.2,0,0,0,222.17,181.66Z"/><path class="cls-3" d="M258.35,190.45a8.67,8.67,0,0,0-1-4.21A3.73,3.73,0,0,0,254,184a1.2,1.2,0,0,0-.54.11,3.66,3.66,0,0,0-2,1.26c-.12.17-.3.45-.54.86-.75,1.27-1.41,1.91-2,1.91a1.07,1.07,0,0,1-.58-.18c-1.1-.67-1.61-1.3-1.51-1.87a1.47,1.47,0,0,1,.72-1c1.29-.58,2.12-1,2.48-1.16a4.48,4.48,0,0,0,2.41-4.39q0-2.84-3.06-3.17c-.79-.09-1.3-.16-1.54-.21a1.61,1.61,0,0,1-1.16-.9,3.07,3.07,0,0,1,0-2,14.74,14.74,0,0,0,.33-3.7,8,8,0,0,0-.34-2,5.24,5.24,0,0,0-.74-1.73,6.15,6.15,0,0,0-2.34-2.09,6.59,6.59,0,0,0-2.77-.18,3.76,3.76,0,0,0-2.25,1.39,5.7,5.7,0,0,0-1.28,2.5l-.25.5a2.64,2.64,0,0,0-.18.4,19.13,19.13,0,0,0-.22,2.73,13.83,13.83,0,0,0,.25,2.22,13.84,13.84,0,0,1,.25,2.21,4.76,4.76,0,0,1-.32,1.84,5.22,5.22,0,0,0-4.93,2.81,4.26,4.26,0,0,1-.43.68,8.24,8.24,0,0,0,0,2.52c.27,1.8,1.19,2.8,2.77,3a14.31,14.31,0,0,1,2.24.36,1.7,1.7,0,0,1,1,1.8c0,.26,0,.64-.07,1.13s-.07.87-.07,1.14a7.55,7.55,0,0,0,2.66,6.12c.29.24.61.54,1,.9a17.82,17.82,0,0,0,4.9,1.44,15.68,15.68,0,0,0,4.1.21,12.46,12.46,0,0,0,4.61-1.37,7.12,7.12,0,0,0,1.58-1.29,4.55,4.55,0,0,0,1.16-1.51c.31-1,.52-1.73.64-2.09.1-.67.17-1.24.22-1.69A5.6,5.6,0,0,0,258.35,190.45Z"/></svg>