<svg xmlns="http://www.w3.org/2000/svg" viewBox="0 0 375 375"><defs><style>.cls-1{fill:none;}.cls-2{fill:#ae84d5;}.cls-3{fill:#fff;}</style></defs><g id="Layer_2" data-name="Layer 2"><rect class="cls-1" width="375" height="375"/><g id="OUTLINES-FILL"><path class="cls-2" d="M136.6,45.33a4.69,4.69,0,0,1,.15,3.33,5.24,5.24,0,0,1-1.43,1.69,6,6,0,0,1-1.51,1l-.94.43h0a.88.88,0,0,0-.41.36.64.64,0,0,0,0,.51l.64,1.12a4.52,4.52,0,0,1,.6.79A2.5,2.5,0,0,1,134,55c.08.2.16.43.25.69s.07.46.07.56l0,.18v0a1.49,1.49,0,0,1-.21.86l0,0a2.9,2.9,0,0,1-1.79,1.93,3.15,3.15,0,0,1-3-.23,2.61,2.61,0,0,1-1.27-.65h0a1.69,1.69,0,0,1-.25-.32q-.81-1.37-1.11-2l-.37-.75c-.31-.63-.5-1-.55-1.16l-.06-.15a2.73,2.73,0,0,1-.14-.41h0c-.2-.63-.41-1.26-.62-1.89q-2-6,3.12-8.36a7.69,7.69,0,0,0,1.3-.43l.18-.07a5.43,5.43,0,0,1,2.9-.25,5,5,0,0,1,1.69.58,3.31,3.31,0,0,1,2.08,1.55A5.93,5.93,0,0,1,136.6,45.33Zm-4.16-2.56a5.21,5.21,0,0,0-2.91.31,7.06,7.06,0,0,1-1.33.44q-4.74,2.17-2.93,8l.38,1.22c.15.47.29.87.43,1.2,0,0,.08.18.2.44l.75,1.52.18.38.27.49a3.88,3.88,0,0,0,.19.36c.36.58.56.89.61.94a2.28,2.28,0,0,0,1.43.62,3.38,3.38,0,0,0,1.58-.22,2.57,2.57,0,0,0,1.61-1.74,1.43,1.43,0,0,0,.18-.67c-.05-.34-.08-.57-.09-.67-.09-.27-.17-.49-.25-.68a3,3,0,0,0-.21-.46l-.55-.72c-.44-.73-.67-1.13-.7-1.19a.86.86,0,0,1,.49-1.25l.94-.43a5.68,5.68,0,0,0,1.43-.93,5,5,0,0,0,1.35-1.56,4.39,4.39,0,0,0-.14-3.12q-.15-.35-.33-.69A3.34,3.34,0,0,0,132.44,42.77Zm-2.5,6.13a1,1,0,0,1-.67,0,.77.77,0,0,1-.5-.42s0-.23,0-.66v-.35a.91.91,0,0,1,.49-.69c.5-.25.89-.06,1.15.59a1.77,1.77,0,0,1,.15,1A7.63,7.63,0,0,1,129.94,48.9Zm.34-.67a1.5,1.5,0,0,0-.09-.63.56.56,0,0,0-.13.28,3.35,3.35,0,0,1,0,.55l.15-.12Zm-.07.06,0,0Z"/><path class="cls-2" d="M137,43.87q-.06-.19,0-.21Zm11.89-1.48a3,3,0,0,1-.62,1.41l-.54.49a2.06,2.06,0,0,1-.78.52h0a4.48,4.48,0,0,1-1.48,0,3.6,3.6,0,0,0-.61-.11,2.07,2.07,0,0,0-.71.09,1.66,1.66,0,0,0-.77.45h0a1.22,1.22,0,0,0-.28,1.23,1.69,1.69,0,0,0,.24.46h0l1.16,1.1a11.13,11.13,0,0,1,1.11,1.17,14.45,14.45,0,0,1,.73,1.38l0,.08a1.37,1.37,0,0,1,.17.37,2.27,2.27,0,0,1-.3,2,4.25,4.25,0,0,1-2.32,1.82,2.2,2.2,0,0,1-2.29-.42,2.48,2.48,0,0,1-1.16-.73.88.88,0,0,1-.18-.33c0-.06,0-.15-.07-.27a2.07,2.07,0,0,0-.06-.26l0-.08s0,0,0-.07a12.39,12.39,0,0,1-.72-1.27l.06,0-.07-.06-.1-.07c-.13-.35-.22-.61-.28-.76l-.58-1.42a13.92,13.92,0,0,1-.54-1.44l-.05-.17s0,0,0-.05c-.15-.27-.22-.42-.24-.46l-.06-.22c0-.1-.09-.4-.17-.9s-.08-.57-.09-.62a6.07,6.07,0,0,1-.19-1.34c0-.19.06-.34.08-.44v0a4.5,4.5,0,0,1,1-2.41,6.77,6.77,0,0,1,1.56-1.52c.46-.23.92-.47,1.36-.72l0,0a9.47,9.47,0,0,1,1.09-.58l.31-.08.18,0,.71-.09.57-.13a3.72,3.72,0,0,1,.75,0,3.15,3.15,0,0,1,1.09.55,5.23,5.23,0,0,1,1.51.94l.34.2,0,0a.25.25,0,0,1,.09.09c.16.23.31.43.43.59a4,4,0,0,1,.67,1.23,2.93,2.93,0,0,1,.12.86Zm-1.34-1.26A3.9,3.9,0,0,0,147,40l-.41-.58-.43-.26a3.86,3.86,0,0,0-1.52-.93,1.57,1.57,0,0,0-.68,0l-.57.12-.58.08-.52.08-2.43,1.28a6.54,6.54,0,0,0-1.45,1.43,4.29,4.29,0,0,0-1,2.25c0,.18-.06.31-.08.4a5.71,5.71,0,0,0,.18,1.24c0,.16.07.41.11.75a4.9,4.9,0,0,0,.15.78l.06.2s0,.12.07.19a.66.66,0,0,0,.1.17.66.66,0,0,1,.1.17,7.78,7.78,0,0,0,.25.77c.45,1.14.84,2.11,1.17,2.9l.1.09a10.45,10.45,0,0,0,.74,1.35,4,4,0,0,1,.15.5,1.37,1.37,0,0,0,.17.44,2,2,0,0,0,.89.62,2.48,2.48,0,0,0,1.32-.06A3.9,3.9,0,0,0,145,52.3a2,2,0,0,0,.27-1.73,5.43,5.43,0,0,0-.24-.54l-.22-.46a4,4,0,0,0-.43-.75,11.41,11.41,0,0,0-1.28-1.3L143,47.4a11.34,11.34,0,0,1-.84-.82,1.84,1.84,0,0,1-.28-.56,1.51,1.51,0,0,1,.34-1.52,1.91,1.91,0,0,1,.9-.54,2.66,2.66,0,0,1,.84-.11,5.17,5.17,0,0,1,.68.13A3.26,3.26,0,0,0,146,44a1.9,1.9,0,0,0,.63-.41l.56-.53a2.67,2.67,0,0,0,.55-1.19A2.79,2.79,0,0,0,147.58,41.13ZM138,44.37a1.7,1.7,0,0,1,0-.22S137.93,44.24,138,44.37Z"/><path class="cls-2" d="M165.18,45.41q.42,2.07-1.73,3.63A13.73,13.73,0,0,1,160,50.6h-.28c-.16,0-.22,0-.15,0l-.27,0-.77.1a5.7,5.7,0,0,1-1.05,0l-.48,0-.74,0-.95-.27a4.8,4.8,0,0,1-1.84-.94,7.7,7.7,0,0,1-3.25-3.85l0-.15c0-.13-.08-.32-.15-.58a5,5,0,0,1-.16-.58,6.92,6.92,0,0,1,0-2.37,14.25,14.25,0,0,1,.28-1.4c.06-.24.18-.7.38-1.38A4.72,4.72,0,0,1,151.8,37h0a7,7,0,0,1,1.77-1.15l2-.85,0,0a3.15,3.15,0,0,1,.91-.31c.08,0,.49,0,1.23,0h0a3.35,3.35,0,0,1,2.37.9,3.37,3.37,0,0,1,1.69,1.57,7.43,7.43,0,0,1,.81,2.22,7,7,0,0,1,.13.85,2.42,2.42,0,0,1-.24,1.24,3.27,3.27,0,0,1-.74,1.1l.63.15a3.39,3.39,0,0,1,1.2.7A2.76,2.76,0,0,1,165.18,45.41ZM162.25,43a2.9,2.9,0,0,0-1.63-.11,5.55,5.55,0,0,0-1.55.71,5.65,5.65,0,0,1-1.55.72,2.72,2.72,0,0,1-1.24,0,.42.42,0,0,1-.1-.2.57.57,0,0,1,.19-.3,25.14,25.14,0,0,0,3.57-1.52,3.07,3.07,0,0,0,1.31-1.61,2.63,2.63,0,0,0,.19-1q-.06-.52-.12-.81a6,6,0,0,0-1.16-2.66,3.19,3.19,0,0,0-2.54-1.2h-1.15a4.18,4.18,0,0,0-.83.27l-1.88.82a4.84,4.84,0,0,0-3,3.19,22.08,22.08,0,0,0-.65,2.74,6.46,6.46,0,0,0,.1,2.55c.13.45.22.79.27,1q1.59,3.38,4,4c.37.09.69.18.94.26l1.54.07,1.68-.17a.47.47,0,0,1,.2,0H159a14,14,0,0,0,3.44-1.57A3.14,3.14,0,0,0,164,44.89,2.51,2.51,0,0,0,162.25,43Zm-5.49-2.63c-.37.49-.64.83-.8,1a.79.79,0,0,1-.27.1,1.07,1.07,0,0,1-.83-.18,1,1,0,0,1-.5-.68,1.13,1.13,0,0,1,0-.23,4.51,4.51,0,0,1,.26-.86l.15-.21.15-.2c.4.07.75.14,1,.21a1,1,0,0,1,.79.66Q156.82,40.28,156.76,40.36Zm-1.23.66v0Zm.92-.84v0h-.05l-.5-.12-.14.22a1.82,1.82,0,0,0-.11.33,1.79,1.79,0,0,0-.11.54l0,.09.07,0,.15,0,.3-.39.4-.52S156.45,40.21,156.45,40.18Z"/><path class="cls-2" d="M175.06,36.76a1.66,1.66,0,0,1-.82.78,6.27,6.27,0,0,1-1.19.31,2,2,0,0,1-.69-.09,2.7,2.7,0,0,0-.67-.09.48.48,0,0,0-.17,0,.23.23,0,0,0-.15.23.87.87,0,0,0,.11.32,2.54,2.54,0,0,1,1.05.31,8.94,8.94,0,0,1,1,.79,14.09,14.09,0,0,1,1.65,1.57v0a4.16,4.16,0,0,1,.92,2.09,6.6,6.6,0,0,1,0,1.53q-.12.32-.15.42l0,.1v0a4.23,4.23,0,0,1-1,1.8,9.6,9.6,0,0,1-1.62,1.27,6,6,0,0,1-2,.73c-.22,0-.49.08-.81.12a6,6,0,0,1-.9,0A3.39,3.39,0,0,1,167,47.89a2.46,2.46,0,0,1-1.27-1.37,2.78,2.78,0,0,1-.27-.46l0-.19a3.89,3.89,0,0,1,.78-2.5.88.88,0,0,0,.2-.08,1.76,1.76,0,0,1,1-.35l.62,0,.25.1.36.11h0a2.88,2.88,0,0,0,.75,0,.93.93,0,0,0,.73-.54l-.25,0h0l-.41,0-.23,0a3.79,3.79,0,0,1-2.44-1.21,3.87,3.87,0,0,1-.83-.68,4.06,4.06,0,0,1-.71-2.17v-.17a.38.38,0,0,1,0-.15v0a6.36,6.36,0,0,1,.23-1.64v0a7,7,0,0,1,1-1.83l0,.05a3.7,3.7,0,0,1,.47-.73,7.16,7.16,0,0,1,1.83-.94c.42-.15,1-.33,1.9-.56l.11.6a.27.27,0,0,0,.18-.1l.06-.22.08-.16a.24.24,0,0,1,.25-.14,4.55,4.55,0,0,1,1.91.24,1.94,1.94,0,0,1,.74.64h0c.19,0,.55.31,1.06,1a6.94,6.94,0,0,1,.4,1.33l0,.18A2,2,0,0,1,175.06,36.76Zm-.82-1.9a3.35,3.35,0,0,0-.13-.43l-.21-.58A2.73,2.73,0,0,0,173,33a4,4,0,0,0-1.79-.22c-.56,0-.77,0-.62,0-.92.24-1.54.42-1.87.53a6.24,6.24,0,0,0-1.73.89,2.59,2.59,0,0,0-.4.63,7.39,7.39,0,0,0-.93,1.73,5.92,5.92,0,0,0-.22,1.55,5.89,5.89,0,0,0,.21,1.24,2.48,2.48,0,0,0,.43,1,3.6,3.6,0,0,0,.38.35,3.43,3.43,0,0,0,1.61.75l.9.11c.87.11,1.33.44,1.39,1a2.6,2.6,0,0,1-.7.76,2.55,2.55,0,0,1-1.2,0,2.88,2.88,0,0,1-.58-.18,4.39,4.39,0,0,0-.54,0,1.34,1.34,0,0,0-.81.3l-.16.06a3.33,3.33,0,0,0-.68,2.37,1.42,1.42,0,0,0,.22.37,2.41,2.41,0,0,0,1.52,1.45,4.76,4.76,0,0,0,2.15.2c.25,0,.49-.06.74-.11a5.46,5.46,0,0,0,1.92-.69A9.74,9.74,0,0,0,173.85,46a4.25,4.25,0,0,0,1-1.69,2.76,2.76,0,0,1,.18-.52,5.85,5.85,0,0,0,0-1.39q-.21-1.91-2.64-3.56a2.38,2.38,0,0,0-.92-.28,1.41,1.41,0,0,1-.75-.47,1.33,1.33,0,0,1-.44-.75.46.46,0,0,1,.15-.41.69.69,0,0,1,.43-.2,2,2,0,0,1,.69.09,1.93,1.93,0,0,0,.67.09,9.41,9.41,0,0,0,1.13-.3A1.37,1.37,0,0,0,174,36a1.48,1.48,0,0,0,.32-.81A2.24,2.24,0,0,0,174.24,34.86Z"/><path class="cls-2" d="M187,36.28a1.73,1.73,0,0,1-.88.72,7.73,7.73,0,0,1-1.21.22,2.53,2.53,0,0,1-.69-.15,2.07,2.07,0,0,0-.66-.14.57.57,0,0,0-.18,0c-.1.06-.16.13-.15.22a.73.73,0,0,0,.08.33,2.77,2.77,0,0,1,1,.38,11.63,11.63,0,0,1,.95.88,14.33,14.33,0,0,1,1.53,1.69h0a4.08,4.08,0,0,1,.75,2.15,6.36,6.36,0,0,1-.15,1.52l-.18.41,0,.09h0a4.31,4.31,0,0,1-1.15,1.71,9.61,9.61,0,0,1-1.72,1.13,6,6,0,0,1-2.09.58l-.81,0a6.36,6.36,0,0,1-.9,0,3.37,3.37,0,0,1-2.45-1.32A2.4,2.4,0,0,1,177,45.28a5.27,5.27,0,0,1-.24-.48v-.19a3.84,3.84,0,0,1,1-2.43l.21-.07a1.73,1.73,0,0,1,1-.27h.62l.24.12.35.14,0,0a2.83,2.83,0,0,0,.76.1.92.92,0,0,0,.76-.47l-.24-.07h0l-.41-.08-.23,0a3.79,3.79,0,0,1-2.34-1.4,3.9,3.9,0,0,1-.77-.74,4,4,0,0,1-.53-2.22V37a.66.66,0,0,1,0-.15v0a6.77,6.77,0,0,1,.36-1.61h0a7.51,7.51,0,0,1,1.12-1.74l0,0a3.34,3.34,0,0,1,.53-.69,7,7,0,0,1,1.9-.79c.42-.11,1.07-.25,1.94-.4l.06.6a.26.26,0,0,0,.18-.09l.08-.21.09-.15a.25.25,0,0,1,.26-.13,4.76,4.76,0,0,1,1.89.39,2,2,0,0,1,.68.7l0,0c.19,0,.51.35,1,1.06a7.67,7.67,0,0,1,.3,1.36v.18A2,2,0,0,1,187,36.28Zm-.68-2a2,2,0,0,0-.09-.43l-.16-.59a2.7,2.7,0,0,0-.8-.91,3.84,3.84,0,0,0-1.76-.37c-.56,0-.77,0-.62,0-.94.16-1.57.29-1.91.38a6.22,6.22,0,0,0-1.79.75,2.23,2.23,0,0,0-.45.6,7.09,7.09,0,0,0-1.06,1.65,5.87,5.87,0,0,0-.35,1.52,5.73,5.73,0,0,0,.12,1.26,2.54,2.54,0,0,0,.34,1,3.79,3.79,0,0,0,.36.38,3.33,3.33,0,0,0,1.54.87c.44.1.73.16.89.18.86.18,1.3.55,1.31,1.12a2.54,2.54,0,0,1-.76.7,2.6,2.6,0,0,1-1.2-.07,4.25,4.25,0,0,1-.56-.22,5.25,5.25,0,0,0-.54,0,1.27,1.27,0,0,0-.84.24l-.16,0a3.32,3.32,0,0,0-.86,2.3,1.76,1.76,0,0,0,.19.39,2.43,2.43,0,0,0,1.4,1.56,4.67,4.67,0,0,0,2.13.37,6.3,6.3,0,0,0,.75,0,5.22,5.22,0,0,0,2-.54,9.09,9.09,0,0,0,1.66-1.08,4.16,4.16,0,0,0,1.08-1.61,2.69,2.69,0,0,1,.23-.5,6.37,6.37,0,0,0,.12-1.39q-.06-1.92-2.35-3.75a2.05,2.05,0,0,0-.9-.35,1.49,1.49,0,0,1-.7-.53,1.41,1.41,0,0,1-.39-.79.5.5,0,0,1,.19-.4.74.74,0,0,1,.44-.16,2.31,2.31,0,0,1,.68.14,2.16,2.16,0,0,0,.67.15,8.83,8.83,0,0,0,1.15-.21,1.45,1.45,0,0,0,.66-.53,1.48,1.48,0,0,0,.39-.78A2.13,2.13,0,0,0,186.36,34.32Z"/><path class="cls-2" d="M210.22,46.85a1.69,1.69,0,0,1-.7.6h0l-.41.21a5.71,5.71,0,0,1-.81.14,5.14,5.14,0,0,1-1.35,0,1.37,1.37,0,0,1-.74-.28,2.79,2.79,0,0,1-.75-.91,2.6,2.6,0,0,1-.81-1.15l-.28-.86a2.19,2.19,0,0,1-.08-.27l-.27-.69-.07-.19a.75.75,0,0,0-.4-.18c-.35,0-.55.19-.6.68a2.09,2.09,0,0,0,0,.5h0a7.15,7.15,0,0,1,.09,1.77l0,.17,0,.15v0a2,2,0,0,1-.5,1,2.76,2.76,0,0,1-2.55,1l-.17,0a2.36,2.36,0,0,1-1.2-.53,3.27,3.27,0,0,1-.89-1,2.67,2.67,0,0,1-.9-1.44l-.11-.5c-.07-.32-.12-.54-.15-.65a12.33,12.33,0,0,1-.23-2.64c0-1.65,0-2.55,0-2.69,0-.49,0-1,0-1.45l0-1a8.71,8.71,0,0,1,.07-1v-.17a4,4,0,0,1,1.4-2.62,2.43,2.43,0,0,1,1.88-.72,2.72,2.72,0,0,1,1.42.65,2.59,2.59,0,0,1,.69.85,2.06,2.06,0,0,1,.79,1.3,6.07,6.07,0,0,1,.26.66,5.87,5.87,0,0,0,0,1.36h0a1.54,1.54,0,0,0,.37.09,4.38,4.38,0,0,0,1,0l1-.11a2.27,2.27,0,0,1,.42,0,4.55,4.55,0,0,1,2.95,1.37l.08,0h.07a8.44,8.44,0,0,1,.68.82.14.14,0,0,0,0,.06,3.84,3.84,0,0,1,.31.34l.33.43a5,5,0,0,0,.21.46l.28.72c0,.23.05.37.06.43v.16a11,11,0,0,1,.26,3.32,4.54,4.54,0,0,1-.62,1.89Zm-.34-2.74a10.46,10.46,0,0,0-.27-3.27,3.73,3.73,0,0,0-.05-.49c-.21-.55-.36-.93-.46-1.14a7.05,7.05,0,0,0-.57-.7l-.17-.06a4.35,4.35,0,0,0-2.81-1.31,6.62,6.62,0,0,0-1.36.07,4.6,4.6,0,0,1-1.07,0,1.45,1.45,0,0,1-1.2-.75,1.21,1.21,0,0,1-.1-.46c0-.14,0-.23,0-.26a7.15,7.15,0,0,1,0-1.07,5.33,5.33,0,0,0-.25-.63,1.74,1.74,0,0,0-.68-1.16,2.5,2.5,0,0,0-1.3-.59A2.18,2.18,0,0,0,198,33a3.58,3.58,0,0,0-1.31,2.58c-.06,1-.09,1.67-.11,2,0,.89.05,1.6.08,2.1q0,1.45,0,2.16a11.67,11.67,0,0,0,.13,1.93c.06.36.19,1,.38,1.87A2.92,2.92,0,0,0,198,46.8a2.19,2.19,0,0,0,1.23.58l.15,0a2.48,2.48,0,0,0,1.37-.23,2.17,2.17,0,0,0,1.34-1.52,6,6,0,0,0,0-2,2,2,0,0,1,0-.68c.11-.61.42-.88.91-.83a1.45,1.45,0,0,1,.88.52,2.15,2.15,0,0,1,.52.91l.27.69c.18.53.29.9.34,1.1a2,2,0,0,0,.49.79,1.44,1.44,0,0,0,.9.52,9.87,9.87,0,0,0,1.75-.07,1.69,1.69,0,0,0,.66-.29,1.71,1.71,0,0,0,.55-.47A4.07,4.07,0,0,0,209.88,44.11Z"/><path class="cls-2" d="M226.06,43.48c-.11.88-.24,1.62-.37,2.24a9.52,9.52,0,0,1-1,2.68,2.06,2.06,0,0,1-.15.46c-1,1.5-2.84,2.34-5.51,2.54a5.72,5.72,0,0,1-1.67-.13,7.53,7.53,0,0,1-2-.77c-.48-.27-.81-.47-1-.59a5.31,5.31,0,0,1-1.95-2.1,5.28,5.28,0,0,1-1.15-2.52,6.45,6.45,0,0,1-.08-2.78l0-.07A21.06,21.06,0,0,1,213,37.89v0a2.52,2.52,0,0,1,.75-.8h0a6.78,6.78,0,0,0,.79-.72,4.62,4.62,0,0,1,4-1.61l.27.06c1.07.24,1.76.4,2,.5a4.82,4.82,0,0,1,1.83,1l.23.13.16.08a4.54,4.54,0,0,1,1.42,1.6,4.17,4.17,0,0,1,.5.81l.42.84c.15.28.22.44.24.48a12.22,12.22,0,0,1,.24,2.32,3.94,3.94,0,0,1,.13.79Zm-1-1.72a10,10,0,0,0-.27-2.34.69.69,0,0,0-.1-.22l-.1-.16A4,4,0,0,0,223,36.82l-.24-.11a.76.76,0,0,1-.18-.09,4.21,4.21,0,0,0-1.92-1q-1.86-.48-2.1-.51a4.28,4.28,0,0,0-3.79,1.51c-.1.11-.36.34-.8.72a2.54,2.54,0,0,0-.68.71,22.39,22.39,0,0,0-1.79,4.47,5.83,5.83,0,0,0,.08,2.77A5.58,5.58,0,0,0,213,48a9.79,9.79,0,0,0,2,1.37,7.19,7.19,0,0,0,1.92.73,5.28,5.28,0,0,0,1.59.13c2.56-.19,4.31-1,5.26-2.38a3.59,3.59,0,0,0,.14-.45,8.62,8.62,0,0,0,1-2.62c0-.13.07-.36.13-.7l.24-1.52A3.75,3.75,0,0,0,225.07,41.76Zm-5.65,2.81a2.39,2.39,0,0,1-1.58.38,6.08,6.08,0,0,1-1.13-.45,1.76,1.76,0,0,1-.74-2.14,1.94,1.94,0,0,1,.33-.8,2.67,2.67,0,0,1,1.58-1.12,6.27,6.27,0,0,1,1.24.09,1.72,1.72,0,0,1,1.22.93,3.19,3.19,0,0,1,.21.88,2.1,2.1,0,0,1,0,1A2.47,2.47,0,0,1,219.42,44.57Zm-.15-.27a2.25,2.25,0,0,0,1-1v0a2.3,2.3,0,0,0,0-.83c0-.21-.06-.36-.08-.43a2,2,0,0,0-.54-.23,1.26,1.26,0,0,0-.3,0l-.08,0a6.19,6.19,0,0,0-.81,0,2.43,2.43,0,0,0-1.34,1,1.58,1.58,0,0,0-.27.68,3.44,3.44,0,0,0-.1.87.36.36,0,0,0,.13.05,6.81,6.81,0,0,0,1,.42A2.16,2.16,0,0,0,219.27,44.3Zm-.83-2.65h0Z"/><path class="cls-2" d="M236.19,51.11a4.11,4.11,0,0,1-.18,1.17,4.47,4.47,0,0,1-.77,1.41q-1.63,2.12-5.65.82c-.33-.1-.71-.24-1.13-.4a4.1,4.1,0,0,1-2.72-2.42,2.61,2.61,0,0,1-.5-1v0a.28.28,0,0,1,0-.15c0-.4,0-.7,0-.88a14.64,14.64,0,0,1,.57-2.72l.06-.18a20.1,20.1,0,0,1,1-2.33c.5-1,.88-1.75,1.12-2.25v0a1.43,1.43,0,0,0,.1-.25l1.12-2.81a3.46,3.46,0,0,0,.48-.71.79.79,0,0,1,.38,0,.09.09,0,0,1,.06,0,2.53,2.53,0,0,1,2.1-.19,2.81,2.81,0,0,1,1.11.68A2.11,2.11,0,0,1,234,40a3.19,3.19,0,0,1,.39.64,4.34,4.34,0,0,1,.05,2.51v0a3.19,3.19,0,0,1-.14.6,21.4,21.4,0,0,1-1.1,2.52l0,.11a6.77,6.77,0,0,0-.22,1.13h0c.24.08.54.18.87.31a6.08,6.08,0,0,1,1,.74,3.26,3.26,0,0,1,.58.83l.49,1v0a4.05,4.05,0,0,1,.32.7Zm-1.07-1.6a3,3,0,0,0-.52-.75,5.57,5.57,0,0,0-1-.69c-.33-.14-.54-.22-.64-.25a4.19,4.19,0,0,0-.49-.14.75.75,0,0,1-.33-.35c0-.06-.07-.21-.13-.46a1.49,1.49,0,0,1,.08-.38,5.21,5.21,0,0,1,.27-1.29l.21-.45c.52-1.14.82-1.82.9-2.06a5.35,5.35,0,0,0,.13-.56,4.23,4.23,0,0,0,0-2.32,2.31,2.31,0,0,0-1.45-1.32,2.27,2.27,0,0,0-2,.28.19.19,0,0,0-.13-.1l-.09,0a2.64,2.64,0,0,1-.44.65L228.76,41c-.33.84-.6,1.47-.79,1.88l-.81,1.69a21.57,21.57,0,0,0-1,2.26,11,11,0,0,0-.61,2.83c0,.53-.05.82-.06.89.24,1,1.09,1.72,2.55,2.3.41.16.78.3,1.12.41,2.54.81,4.32.57,5.32-.73a4.27,4.27,0,0,0,.72-1.31,4.08,4.08,0,0,0,.17-1.09A3.86,3.86,0,0,0,235.12,49.51Z"/><path class="cls-2" d="M247.85,57.82a4.14,4.14,0,0,1-.73.57l-1,.6-.29.15a9.71,9.71,0,0,1-5.46-.64,5.83,5.83,0,0,1-.66-.3,8.51,8.51,0,0,1-1.88-1.4,5.88,5.88,0,0,1-1.22-2.1,5.07,5.07,0,0,1-.52-1.46,2.9,2.9,0,0,1,.07-1,5,5,0,0,1,.24-1l.07-.17a4.68,4.68,0,0,1,.66-1.06h0l.35-.47.47-.6a6.05,6.05,0,0,1,1.08-.8,2.31,2.31,0,0,1,1.48-.38c1.26.39,2.21.67,2.84.85l.78-.13s.07,0,.1-.07a2.53,2.53,0,0,0,.09-.6c0-.09,0-.13,0-.14v-.13h0a4.54,4.54,0,0,1,.06-.77v0a5.93,5.93,0,0,1,.38-1.37c.69-1.64,1.64-2.19,2.87-1.68l.14.06a3.9,3.9,0,0,1,1.65,1.57,5.73,5.73,0,0,1,.67,1.46,5.69,5.69,0,0,1,.57,1.81v0c.09.81.15,1.42.16,1.83a16,16,0,0,1-1.15,4.33,10.73,10.73,0,0,1-1.79,3ZM249,53.73a15.33,15.33,0,0,0,1.13-4.24c-.08-1-.13-1.55-.16-1.75a4.83,4.83,0,0,0-.74-2.08,3.74,3.74,0,0,0-1.57-1.52c-1.1-.55-2-.07-2.61,1.45a6.64,6.64,0,0,0-.44,2.2,2.2,2.2,0,0,1-.11.76.36.36,0,0,1-.32.26,4,4,0,0,1-.91.12c-1.24-.35-2.18-.63-2.8-.84a2.07,2.07,0,0,0-1.29.34,5.62,5.62,0,0,0-1.06.79l-.74,1a3.9,3.9,0,0,0-.71,1.27,5.27,5.27,0,0,0-.27,1.69,5.06,5.06,0,0,0,1.26,2.45A9.13,9.13,0,0,0,239.45,57c.12.07.33.17.62.3a9.44,9.44,0,0,0,5.27.62l.45-.25a7.51,7.51,0,0,0,1.44-1A10.4,10.4,0,0,0,249,53.73Zm-5.62.21a2,2,0,0,1-.61-.11,1.6,1.6,0,0,1-.31-.1,2.31,2.31,0,0,1-1-.77,3.06,3.06,0,0,1,.13-1.51,1.63,1.63,0,0,1,.64-.74,2,2,0,0,1,1.06,0,1,1,0,0,1,.28.07,1.72,1.72,0,0,1,1,1.24,1.79,1.79,0,0,1-.12,1.1,1.51,1.51,0,0,1-.59.75A1.25,1.25,0,0,1,243.35,53.94Zm.41-.33a1.28,1.28,0,0,0,.47-.6,1.65,1.65,0,0,0,.13-.63,1.22,1.22,0,0,0-.49-.34.34.34,0,0,0-.13,0,2.72,2.72,0,0,0-.92-.06,1.4,1.4,0,0,0-.53.61,1.74,1.74,0,0,0-.15.67,2.1,2.1,0,0,0,.42.24,2.92,2.92,0,0,0,.8.17h0a1.18,1.18,0,0,0,.44,0Z"/><path class="cls-2" d="M112.09,305.55l-.27.38a3.6,3.6,0,0,1-.34.55,4.33,4.33,0,0,1-1,1,7.58,7.58,0,0,1-3.8,1.48,7.77,7.77,0,0,1-3-.48h0a10.59,10.59,0,0,1-2.63-1.26,7.66,7.66,0,0,1-2.41-2.79,5.86,5.86,0,0,1-.59-2.06,5.07,5.07,0,0,1-.2-1.51,4,4,0,0,1,.59-2.32l0,0a3.32,3.32,0,0,1,.21-.4,7.66,7.66,0,0,1,1.27-.81l0,0c.53-.34.94-.58,1.22-.73a7.18,7.18,0,0,1,1.17-.28,4.45,4.45,0,0,1,2.54.59l-.26-.33a2.09,2.09,0,0,1-.44-1.17,1.34,1.34,0,0,1,0-.26,1.74,1.74,0,0,1,.19-1.93l.06-.09.09-.1h0a3.76,3.76,0,0,1,1.64-.84,4.07,4.07,0,0,0,.7,0,4.42,4.42,0,0,1,2.32.75l.08.05a5.31,5.31,0,0,1,.47.41,3.57,3.57,0,0,0,.47.42,10.26,10.26,0,0,1,2.43,2.4l.07.24a4.5,4.5,0,0,1,1,2.61,6.14,6.14,0,0,1-.08,3.31,9.88,9.88,0,0,1-1.47,3Zm1.2-4.88a4.69,4.69,0,0,0-.85-4l-.07-.22a9.67,9.67,0,0,0-2.34-2.3,5.48,5.48,0,0,1-.46-.42,2.46,2.46,0,0,0-.52-.44,4.89,4.89,0,0,0-2.17-.71h-.68a3.21,3.21,0,0,0-1.46.77s-.06.06-.11.12a1.67,1.67,0,0,0-.31.94,2.24,2.24,0,0,0,1.17,1.85,1.48,1.48,0,0,0,.45.25l1.36.31a3.85,3.85,0,0,1,1.16.43,1.12,1.12,0,0,1,.55,1,2,2,0,0,1-.27.46c-.24.29-.45.41-.62.38a8.9,8.9,0,0,1-2.33-1.2,8.46,8.46,0,0,0-2.49-1.21,2.32,2.32,0,0,0-.91,0,5.91,5.91,0,0,0-1.11.26,10.25,10.25,0,0,0-1.15.69,5.53,5.53,0,0,0-1.17.72c-.09.17-.16.29-.19.36a3.52,3.52,0,0,0-.56,2.28,6.21,6.21,0,0,0,2.88,5,10.48,10.48,0,0,0,2.55,1.22,8.81,8.81,0,0,0,1.43.35,6.31,6.31,0,0,0,1.45.11,7.18,7.18,0,0,0,2.34-.63,5.38,5.38,0,0,0,2-1.43,6.22,6.22,0,0,0,.51-.72c.18-.3.32-.5.4-.62A9.1,9.1,0,0,0,113.29,300.67Zm-7.07,2.77a1.31,1.31,0,0,1-1.43,0l-.25-.17-.17-.12a1.86,1.86,0,0,1-.62-1,1.38,1.38,0,0,1,.19-1.41,1.72,1.72,0,0,1,1-.44,1.6,1.6,0,0,1,1,.06l.66.36c.8.72,1,1.3.75,1.75A3,3,0,0,1,106.22,303.44Zm-.14-.25a2.6,2.6,0,0,0,1-.76l-.43-.43c-.08,0-.28-.14-.61-.33a1.43,1.43,0,0,0-.83,0,1.61,1.61,0,0,0-.79.31l-.06.05,0,.06a.78.78,0,0,0-.13.28,1.29,1.29,0,0,0,.4.52.84.84,0,0,0,.19.11,1,1,0,0,0,.21.21A1.06,1.06,0,0,0,106.08,303.19Zm2.41-4.67,0,0a3.33,3.33,0,0,0-1.06-.38h0l-1-.22a7,7,0,0,0,1.78.88l.16-.11Z"/><path class="cls-2" d="M126.23,317a4.56,4.56,0,0,1-.82.88,2.4,2.4,0,0,1-1.11.45l-.59.07a1.61,1.61,0,0,1-.81-.05,6.62,6.62,0,0,1-.72-.3,3.12,3.12,0,0,1-.76-.58,13.86,13.86,0,0,1-1.78-2.35c-.38-.77-.66-1.35-.84-1.77a3,3,0,0,0-.69-1h0c-.08,0-.2,0-.37.21l-.1.17-.09.15a7,7,0,0,0-.34.76,6.94,6.94,0,0,1-.33.76,2,2,0,0,1-2.42,1.07h0a4.72,4.72,0,0,1-1.27-.33,1.22,1.22,0,0,1-.24-.18,1.22,1.22,0,0,0-.24-.18,2.94,2.94,0,0,1-1-.94,2.15,2.15,0,0,0-.13-.32l0,0a3.34,3.34,0,0,1-.52-1.43,3.89,3.89,0,0,1-.09-2.76l.18-.35.17-.31c0-.08.07-.09,0,0l.1-.2.14-.29.51-.95c.32-.59.66-1.17,1-1.76l1.3-2.17.08-.16c.1-.18.24-.4.42-.67q1-1.05,1.11-1.14h0a3.64,3.64,0,0,1,1.47-.79,2.64,2.64,0,0,1,1.61.43,6.43,6.43,0,0,1,.61.5v0a4.31,4.31,0,0,1,1.22,2.2c.44,1.7.68,2.62.72,2.74a1.91,1.91,0,0,0,.82.92,1.08,1.08,0,0,0,.38,0h0a6.67,6.67,0,0,0,.84-.84,6.33,6.33,0,0,1,2.21-1.77,4.24,4.24,0,0,1,1.37-.1,3.32,3.32,0,0,1,1.3.3l.07,0a2.28,2.28,0,0,1,1,1.74.54.54,0,0,1,0,.11,4,4,0,0,1,.23,2.8,12.87,12.87,0,0,1-.66,1.79l-.09.19c-.44,1-.71,1.67-.81,2L126.94,316A7.23,7.23,0,0,1,126.23,317Zm1.48-4.62.89-2.16c.34-.8.54-1.34.62-1.61a4.61,4.61,0,0,0,.12-1.89,2.12,2.12,0,0,0-.91-1.56,2.52,2.52,0,0,0-1.2-.3,3.83,3.83,0,0,0-1.29.1,6,6,0,0,0-2.07,1.69,4.44,4.44,0,0,1-1,.92,1,1,0,0,1-.55,0,2.38,2.38,0,0,1-1.15-1.62c-.27-1.11-.44-1.85-.53-2.24a3.65,3.65,0,0,0-1.13-2,5.36,5.36,0,0,0-.56-.46,2.49,2.49,0,0,0-1.38-.41,3.47,3.47,0,0,0-1.35.74c-.47.45-.81.8-1,1.05l-.5.82-1.3,2.19c-.5.83-.91,1.57-1.26,2.22s-.65,1.23-.87,1.61a3.31,3.31,0,0,0,.28,2.92,3,3,0,0,1,.12.3,3.48,3.48,0,0,0,.88.82,1,1,0,0,1,.23.17,1.22,1.22,0,0,0,.23.18,5.54,5.54,0,0,0,1.19.3,1.83,1.83,0,0,0,2.11-.92l.14-.28.17-.45a8.63,8.63,0,0,1,.36-.79l.09-.17a1.17,1.17,0,0,1,.39-.41.44.44,0,0,1,.54,0,3.68,3.68,0,0,1,.78,1.16l.84,1.75a13.66,13.66,0,0,0,1.85,2.4,3.56,3.56,0,0,0,1.24.69,1.65,1.65,0,0,0,.62.05l.63-.09a2.19,2.19,0,0,0,1.14-.52,6.9,6.9,0,0,0,1.3-1.67Z"/><path class="cls-2" d="M139.27,323.42a4.15,4.15,0,0,1-.72.59l-1,.62-.28.16a9.85,9.85,0,0,1-5.48-.54,6.39,6.39,0,0,1-.65-.3,8.32,8.32,0,0,1-1.92-1.36,6,6,0,0,1-1.25-2.08,5,5,0,0,1-.55-1.45,3.09,3.09,0,0,1,.06-1,5,5,0,0,1,.22-1l.06-.16a5,5,0,0,1,.64-1.08h0l.35-.47.46-.61a5.7,5.7,0,0,1,1.07-.82,2.24,2.24,0,0,1,1.47-.41c1.26.37,2.21.63,2.85.8l.78-.14s.07,0,.09-.08a1.85,1.85,0,0,0,.08-.6,1.13,1.13,0,0,1,0-.14v-.11a3.77,3.77,0,0,1,.05-.77v0a5.62,5.62,0,0,1,.36-1.38c.65-1.64,1.6-2.22,2.83-1.72l.14.05a3.92,3.92,0,0,1,1.68,1.54,5.91,5.91,0,0,1,.7,1.45,5.73,5.73,0,0,1,.6,1.8v0c.11.81.17,1.42.19,1.82A15.91,15.91,0,0,1,141,320.4a10.56,10.56,0,0,1-1.74,3Zm1-4.1a15.65,15.65,0,0,0,1.06-4.26c-.1-1-.17-1.55-.2-1.74a4.63,4.63,0,0,0-.77-2.07,3.75,3.75,0,0,0-1.6-1.5c-1.11-.53-2,0-2.59,1.5a6.84,6.84,0,0,0-.39,2.21,2.57,2.57,0,0,1-.1.76.38.38,0,0,1-.31.27,3.78,3.78,0,0,1-.91.13q-1.87-.48-2.82-.78a2,2,0,0,0-1.28.36,5.24,5.24,0,0,0-1.05.81c-.36.49-.6.82-.72,1a3.79,3.79,0,0,0-.69,1.28,5.52,5.52,0,0,0-.24,1.69,5.09,5.09,0,0,0,1.31,2.43,8.75,8.75,0,0,0,1.84,1.3,5.16,5.16,0,0,0,.63.29,9.36,9.36,0,0,0,5.28.52c.19-.11.34-.19.44-.26a7.23,7.23,0,0,0,1.42-1A10.33,10.33,0,0,0,140.31,319.32Zm-5.62.31a1.77,1.77,0,0,1-.6-.1,1.68,1.68,0,0,1-.32-.09,2.37,2.37,0,0,1-1-.76,3.12,3.12,0,0,1,.1-1.51,1.68,1.68,0,0,1,.63-.75,1.94,1.94,0,0,1,1.05,0,.53.53,0,0,1,.28.06,1.69,1.69,0,0,1,1.07,1.22,1.72,1.72,0,0,1-.1,1.1,1.43,1.43,0,0,1-.58.76A1.18,1.18,0,0,1,134.69,319.63Zm.41-.34a1.25,1.25,0,0,0,.46-.61,1.76,1.76,0,0,0,.12-.63,1.45,1.45,0,0,0-.5-.33c-.06,0-.11,0-.13,0a2.87,2.87,0,0,0-.92-.05,1.39,1.39,0,0,0-.52.62,1.71,1.71,0,0,0-.14.67,2,2,0,0,0,.43.23,2.62,2.62,0,0,0,.8.16h0a1.05,1.05,0,0,0,.44-.05Z"/><path class="cls-2" d="M159.37,327.76l0-.06,0,.07,0,0a4,4,0,0,1-1.73,2.32,5.78,5.78,0,0,1-2.76,1.06h0a5.37,5.37,0,0,1-5-2.49l-.17-.31-.09-.13a3.71,3.71,0,0,1-.83-2.28c0-.44.07-.95.13-1.51l0-.09c0-.13.14-.45.31-.94.33-.89.65-1.72,1-2.5q1.08-2.56,2.26-4.92a2.3,2.3,0,0,0,.66-.75,2.15,2.15,0,0,1,.67-.65,2.28,2.28,0,0,1,.47,0,3.43,3.43,0,0,1,.52,0l.14,0a2.44,2.44,0,0,1,1.26.73,1,1,0,0,1,.27.63,3.08,3.08,0,0,1,.29.27,1.76,1.76,0,0,1,.24,1.54,2.38,2.38,0,0,1-.05.88l-1,2.78.08,0h0l.44.15c1.47.45,2.33,1.11,2.58,2,.74.66.91,1.88.49,3.64l0,.19A.66.66,0,0,1,159.37,327.76Zm-.54-3.8q-.22-1.21-2-1.86l-.43-.13c-1-.29-1.43-.76-1.27-1.42,0,0,.08-.21.27-.74.46-1.32.7-2,.71-2.05a1.79,1.79,0,0,0,0-.82c.11-.66.06-1.09-.15-1.32a2.25,2.25,0,0,0-1.12-.65l-.22,0a6.39,6.39,0,0,0-.75,0,1.49,1.49,0,0,0-.5.48,2.93,2.93,0,0,1-.69.83,73.78,73.78,0,0,0-3.18,7.31,7.7,7.7,0,0,0-.32,1,9.78,9.78,0,0,0-.1,1.78,3.67,3.67,0,0,0,.66,1.66,4.69,4.69,0,0,0,2.94,1.93,4.8,4.8,0,0,0,1.56.1,5.4,5.4,0,0,0,2.58-1,3.68,3.68,0,0,0,1.64-2.16.64.64,0,0,1,.06-.11.41.41,0,0,0,.06-.11A5.62,5.62,0,0,0,158.83,324Zm-5.2,2.25c-.73-.15-1-.63-.82-1.43a1.85,1.85,0,0,1,.59-1h.34l.18-.11a1.18,1.18,0,0,1,.54,0,.89.89,0,0,1,.61.71,1.89,1.89,0,0,1,.06,1C155,325.84,154.52,326.13,153.63,326.21Zm1.23-1.36-.25,0-.34.15h-.2a1.62,1.62,0,0,0-.41.73l0,.15c.73-.08,1.13-.28,1.21-.61A2,2,0,0,0,154.86,324.85Z"/><path class="cls-2" d="M173.08,324a3,3,0,0,1-1.16,1l-.7.22a2.14,2.14,0,0,1-.93.14h0a4.56,4.56,0,0,1-1.31-.67,4.32,4.32,0,0,0-.51-.37,2.22,2.22,0,0,0-.68-.21,1.52,1.52,0,0,0-.89.08h0a1.24,1.24,0,0,0-.78,1,1.85,1.85,0,0,0,0,.52v0l.58,1.5a9.69,9.69,0,0,1,.51,1.53,14.8,14.8,0,0,1,.08,1.55l0,.09a1.88,1.88,0,0,1,0,.41,2.26,2.26,0,0,1-1.12,1.66,4.24,4.24,0,0,1-2.87.66,2.2,2.2,0,0,1-1.9-1.35,2.59,2.59,0,0,1-.74-1.15.84.84,0,0,1,0-.39c0-.06,0-.14,0-.26a1.31,1.31,0,0,0,.05-.27l0-.09a.2.2,0,0,1,0-.07,11.41,11.41,0,0,1-.1-1.46l0,.05,0-.08-.06-.1c0-.38.06-.64.07-.8l.07-1.54c0-.61.07-1.12.13-1.53l0-.18a.15.15,0,0,0,0-.06,5.17,5.17,0,0,1,0-.52l0-.22a8.18,8.18,0,0,1,.23-.89c.1-.35.16-.55.18-.59a6.3,6.3,0,0,1,.4-1.3l.27-.37,0,0a4.5,4.5,0,0,1,1.93-1.75,7.36,7.36,0,0,1,2.06-.72c.52,0,1,0,1.54-.06h0a9.24,9.24,0,0,1,1.24-.06l.31.06.17.05.68.22.57.13a3.77,3.77,0,0,1,.69.31,3.28,3.28,0,0,1,.75,1,5.29,5.29,0,0,1,1,1.49c.06.09.14.2.22.34l0,0a.43.43,0,0,1,0,.11c0,.28.1.52.14.72a4.11,4.11,0,0,1,.08,1.41,2.74,2.74,0,0,1-.25.82Zm-.68-1.71a3.79,3.79,0,0,0-.08-1.3c-.07-.32-.11-.55-.13-.7l-.27-.42a3.93,3.93,0,0,0-1-1.49,1.65,1.65,0,0,0-.63-.27l-.57-.13-.55-.17-.51-.15-2.75.12a6.81,6.81,0,0,0-1.91.67,4.33,4.33,0,0,0-1.82,1.64q-.16.21-.24.33a5.74,5.74,0,0,0-.37,1.2c0,.16-.11.4-.21.73a3.92,3.92,0,0,0-.2.76l0,.2c0,.06,0,.13,0,.21a.53.53,0,0,0,0,.2.66.66,0,0,1,0,.19c0,.29-.08.56-.1.8-.07,1.23-.13,2.27-.18,3.13a.69.69,0,0,1,.06.13,11.3,11.3,0,0,0,.1,1.53c0,.12,0,.29-.08.52a1.47,1.47,0,0,0,0,.46,1.91,1.91,0,0,0,.55.94,2.35,2.35,0,0,0,1.22.51,3.93,3.93,0,0,0,2.66-.61,1.94,1.94,0,0,0,1-1.45c0-.05,0-.25,0-.59v-.51a4,4,0,0,0-.07-.86,11,11,0,0,0-.6-1.73l-.07-.16a9.5,9.5,0,0,1-.41-1.11,1.84,1.84,0,0,1,0-.62,1.52,1.52,0,0,1,1-1.23,2,2,0,0,1,1-.1,2.82,2.82,0,0,1,.81.25,3.79,3.79,0,0,1,.56.42,3.28,3.28,0,0,0,1.16.59,1.67,1.67,0,0,0,.74-.11l.73-.24a2.58,2.58,0,0,0,1-.84A2.81,2.81,0,0,0,172.4,322.3Zm-10.71-2c0-.13.05-.2.09-.19A1.72,1.72,0,0,0,161.69,320.29Zm.63.85a1.54,1.54,0,0,0,.09-.19S162.35,321,162.32,321.14Z"/><path class="cls-2" d="M187.84,331.09c-.06,1.41-.91,2.44-2.55,3.11a14.1,14.1,0,0,1-3.75.68l-.28-.06c-.16,0-.21-.05-.14-.05l-.26,0-.78-.1a5.87,5.87,0,0,1-1-.2l-.46-.16-.71-.21-.85-.49a4.73,4.73,0,0,1-1.56-1.35,7.76,7.76,0,0,1-2.23-4.53v-.15c0-.13,0-.33,0-.6s0-.47,0-.6a7,7,0,0,1,.54-2.3,12.46,12.46,0,0,1,.61-1.3c.11-.21.34-.63.7-1.24a4.64,4.64,0,0,1,1.82-1.83h0a7.06,7.06,0,0,1,2-.7l2.11-.35,0,0a3,3,0,0,1,1-.08,11.16,11.16,0,0,1,1.19.3h0a6.2,6.2,0,0,1,3.34,3.37,7.19,7.19,0,0,1,.26,2.35,7.44,7.44,0,0,1-.08.85,2.53,2.53,0,0,1-.53,1.15,3.25,3.25,0,0,1-1,.89,5.81,5.81,0,0,1,.57.3,3.39,3.39,0,0,1,1,1A2.76,2.76,0,0,1,187.84,331.09Zm-2.26-3a2.86,2.86,0,0,0-1.55-.5,5.34,5.34,0,0,0-1.68.32,5.56,5.56,0,0,1-1.68.31,2.56,2.56,0,0,1-1.19-.33.41.41,0,0,1,0-.21c.1-.15.18-.23.25-.25a25.11,25.11,0,0,0,3.84-.62,3.06,3.06,0,0,0,1.66-1.25,2.32,2.32,0,0,0,.41-.91c0-.35.08-.62.09-.82a6.12,6.12,0,0,0-.49-2.86,3.2,3.2,0,0,0-2.17-1.77l-1.12-.29a3.91,3.91,0,0,0-.87.07l-2,.33a4.87,4.87,0,0,0-3.67,2.38,21.9,21.9,0,0,0-1.29,2.5,6.34,6.34,0,0,0-.51,2.5c0,.47,0,.82,0,1.05.49,2.43,1.46,4.05,2.92,4.84.34.18.63.35.85.49l1.48.43,1.67.24a.67.67,0,0,1,.19.05.41.41,0,0,0,.19.05,14.14,14.14,0,0,0,3.72-.69,3.11,3.11,0,0,0,2.26-2.8A2.48,2.48,0,0,0,185.58,328Zm-4.7-3.88c-.48.39-.81.65-1,.78a.7.7,0,0,1-.29,0,1.06,1.06,0,0,1-.76-.37,1,1,0,0,1-.32-.78.84.84,0,0,1,0-.23,3.82,3.82,0,0,1,.45-.77l.2-.17.19-.16c.38.17.7.32,1,.46a1,1,0,0,1,.59.82Q181,324.1,180.88,324.16Zm-.26-.25v-.05h0l-.45-.23-.19.17a1.82,1.82,0,0,0-.19.29,1.65,1.65,0,0,0-.23.5v.09h.23l.38-.3.52-.42S180.62,323.94,180.62,323.91Zm-1.09.6,0-.06A.14.14,0,0,0,179.53,324.51Z"/><path class="cls-2" d="M204,326.39l0,.46a6,6,0,0,1,.08.64,4.22,4.22,0,0,1-.09,1.39,7.55,7.55,0,0,1-2,3.56,7.78,7.78,0,0,1-2.63,1.54h0a10.49,10.49,0,0,1-2.84.69,7.59,7.59,0,0,1-3.63-.63,6,6,0,0,1-1.77-1.21,4.94,4.94,0,0,1-1.11-1.05,4,4,0,0,1-1-2.17v0a3.4,3.4,0,0,1-.09-.44,6.83,6.83,0,0,1,.47-1.43v.06q.3-.91.48-1.35a6.49,6.49,0,0,1,.72-.95,4.41,4.41,0,0,1,2.34-1.16l-.41-.09a2,2,0,0,1-1.08-.63.85.85,0,0,1-.15-.22,1.74,1.74,0,0,1-1.08-1.6v-.11a.62.62,0,0,1,0-.13h0a3.66,3.66,0,0,1,.74-1.69,5.55,5.55,0,0,0,.54-.44,4.41,4.41,0,0,1,2.27-.9h.09a3.72,3.72,0,0,1,.62,0,5,5,0,0,0,.63,0,10.07,10.07,0,0,1,3.4.32l.21.13a4.53,4.53,0,0,1,2.41,1.4,6,6,0,0,1,2,2.62,9.93,9.93,0,0,1,.79,3.27A.24.24,0,0,0,204,326.39Zm-2.17-4.54a4.72,4.72,0,0,0-3.22-2.58l-.19-.13a10,10,0,0,0-3.27-.29,4.45,4.45,0,0,1-.63,0,2.53,2.53,0,0,0-.68,0,4.89,4.89,0,0,0-2.12.82l-.53.43a3.17,3.17,0,0,0-.64,1.52.72.72,0,0,0,0,.17,1.7,1.7,0,0,0,.35.92,2.27,2.27,0,0,0,2.08.69,1.67,1.67,0,0,0,.51-.09l1.25-.63a4,4,0,0,1,1.17-.4,1.17,1.17,0,0,1,.32,0,.88.88,0,0,1,.75.45,2.13,2.13,0,0,1,.08.53c0,.37-.08.6-.24.68a9,9,0,0,1-2.56.56,8.39,8.39,0,0,0-2.69.64,2.48,2.48,0,0,0-.71.57,7.47,7.47,0,0,0-.69.91,10.85,10.85,0,0,0-.45,1.27,5.25,5.25,0,0,0-.45,1.29,2.24,2.24,0,0,0,.09.4,3.47,3.47,0,0,0,1,2.12,6.23,6.23,0,0,0,5.4,2,10.23,10.23,0,0,0,2.74-.68,8.24,8.24,0,0,0,1.33-.63,6.2,6.2,0,0,0,1.19-.84,7.08,7.08,0,0,0,1.41-2,5.49,5.49,0,0,0,.6-2.34,7.65,7.65,0,0,0-.06-.89c0-.34-.07-.59-.08-.73A9.13,9.13,0,0,0,201.79,321.85Zm-3.71,6.63a1.36,1.36,0,0,1-1.13.89l-.3,0h-.21a1.83,1.83,0,0,1-1.09-.36,1.34,1.34,0,0,1-.75-1.21,1.71,1.71,0,0,1,.47-.95,1.52,1.52,0,0,1,.85-.61l.74-.15c1.08.05,1.64.34,1.69.88A3.08,3.08,0,0,1,198.08,328.48Zm-1.37-5.25h0a3.3,3.3,0,0,0-1.05.38h0l-.91.47a7.51,7.51,0,0,0,1.94-.46l0-.18A.76.76,0,0,1,196.71,323.23Zm1.1,5.14a2.55,2.55,0,0,0,.25-1.19l-.61-.06a6.74,6.74,0,0,1-.68.14,1.39,1.39,0,0,0-.65.51,1.63,1.63,0,0,0-.42.74.2.2,0,0,1,0,.07v.08a.62.62,0,0,0,.08.29,1.13,1.13,0,0,0,.64.15.51.51,0,0,0,.21,0,1,1,0,0,0,.3,0A1.07,1.07,0,0,0,197.81,328.37Z"/><path class="cls-2" d="M217.87,328.9a3,3,0,0,0-.06.54,2.6,2.6,0,0,1-.47,1.21h0a3.6,3.6,0,0,1-.64.75,5,5,0,0,1-2.11,1l-.25,0a7.76,7.76,0,0,1-3.54-.14l-.36-.22-.14-.1a3.82,3.82,0,0,1-.6-.44l-.13-.07-.14-.1a3.43,3.43,0,0,1-1.68-2.52c0-.11,0-.26,0-.46a.42.42,0,0,1,0-.15l0-.14-.35,0a1.53,1.53,0,0,1-1.36-.63c-.69-.15-1.13-.78-1.32-1.87a3.29,3.29,0,0,1-.05-.54,1.51,1.51,0,0,0,.15-.35v0a2.36,2.36,0,0,1,1.84-1.66,2,2,0,0,0,0-.49,3.62,3.62,0,0,0-.27-.85l0,0a3.66,3.66,0,0,1-.27-.93,10.22,10.22,0,0,1-.13-1.24c.06-.2.11-.34.14-.44v.06a2.66,2.66,0,0,1,.52-1.46,1.93,1.93,0,0,1,1.25-.77l.42-.06a2.35,2.35,0,0,1,1.67.74,3.67,3.67,0,0,1,.92.66,2.42,2.42,0,0,1,.48.75h0a3.36,3.36,0,0,1,.32.87,6.2,6.2,0,0,1,.13,1.62.32.32,0,0,0,0,.14.42.42,0,0,0,.15,0,1.57,1.57,0,0,1,1.54.66,1.43,1.43,0,0,1,1.13,1.28,3.15,3.15,0,0,1,0,.83,2,2,0,0,1,1.49.71,3,3,0,0,1,1.69,2.48,2.13,2.13,0,0,1,.06.55C217.85,328.4,217.86,328.63,217.87,328.9Zm-1.25-1.81a3.64,3.64,0,0,0-.7-1.66,1.55,1.55,0,0,0-1.56-.65.44.44,0,0,0-.22.08,1.56,1.56,0,0,0-.72.66c0,.08-.09.21-.16.4-.21.57-.44.88-.67.92a.43.43,0,0,1-.25,0c-.5-.2-.76-.42-.76-.66a.62.62,0,0,1,.23-.45c.49-.33.8-.55.93-.65a1.86,1.86,0,0,0,.67-2,1.22,1.22,0,0,0-1.48-1.08l-.65,0a.67.67,0,0,1-.54-.29,1.25,1.25,0,0,1-.14-.8,6.14,6.14,0,0,0-.14-1.54,3,3,0,0,0-.28-.79,2,2,0,0,0-.43-.66,2.42,2.42,0,0,0-1.11-.68,2.74,2.74,0,0,0-1.15.12,1.6,1.6,0,0,0-.82.73,2.4,2.4,0,0,0-.35,1.12l-.06.23a1.54,1.54,0,0,0,0,.17,10.51,10.51,0,0,0,.11,1.14,6.08,6.08,0,0,0,.27.89,8.42,8.42,0,0,1,.26.89,2,2,0,0,1,0,.78,2.16,2.16,0,0,0-1.82,1.51,1.31,1.31,0,0,1-.13.31,3.38,3.38,0,0,0,.2,1,1.29,1.29,0,0,0,1.35,1,6.26,6.26,0,0,1,.94,0,.71.71,0,0,1,.56.67,3.35,3.35,0,0,1,.05.47c0,.2,0,.36.06.47a3.16,3.16,0,0,0,1.53,2.32,3.54,3.54,0,0,1,.47.3,7.42,7.42,0,0,0,2.11.23,6.36,6.36,0,0,0,1.7-.21,5.18,5.18,0,0,0,1.79-.89,3.14,3.14,0,0,0,.56-.65,1.88,1.88,0,0,0,.36-.7c0-.45.09-.75.12-.91s0-.51,0-.7A2.38,2.38,0,0,0,216.62,327.09Z"/><path class="cls-2" d="M233.62,324.69a1.72,1.72,0,0,1-.43.82h0a3.62,3.62,0,0,1-.29.34,5.43,5.43,0,0,1-.7.44,5.12,5.12,0,0,1-1.23.55,1.34,1.34,0,0,1-.79,0,2.79,2.79,0,0,1-1.05-.56,2.56,2.56,0,0,1-1.18-.75l-.59-.69-.17-.22-.51-.54a.64.64,0,0,1-.13-.15.86.86,0,0,0-.45,0c-.33.09-.43.38-.3.86a2.13,2.13,0,0,0,.2.46h0a7.17,7.17,0,0,1,.76,1.61l0,.16a.33.33,0,0,1,0,.15v0a2,2,0,0,1-.1,1.09,2.78,2.78,0,0,1-2,1.9l-.17.05a2.36,2.36,0,0,1-1.31,0,3.41,3.41,0,0,1-1.22-.61,2.68,2.68,0,0,1-1.37-1l-.29-.42-.39-.54a13.09,13.09,0,0,1-1.22-2.35c-.64-1.52-1-2.35-1-2.48-.21-.45-.4-.89-.56-1.34l-.35-.94c-.14-.38-.25-.7-.32-1l0-.16a4,4,0,0,1,.3-2.95,2.44,2.44,0,0,1,1.46-1.39,2.81,2.81,0,0,1,1.56.07,2.47,2.47,0,0,1,1,.53,2,2,0,0,1,1.23.89,6.65,6.65,0,0,1,.49.52,6.56,6.56,0,0,0,.48,1.27h0a1.48,1.48,0,0,0,.38-.06,4.36,4.36,0,0,0,.91-.4l.89-.49a2.47,2.47,0,0,1,.4-.14,4.58,4.58,0,0,1,3.26.15h.07l.07,0a6.84,6.84,0,0,1,.94.5l0,.05.41.19.47.27.36.35.54.57a3.07,3.07,0,0,1,.21.37l.07.14a11.08,11.08,0,0,1,1.51,3,4.56,4.56,0,0,1,.14,2Zm-1.36-2.4a10.5,10.5,0,0,0-1.49-2.93c-.1-.19-.17-.34-.23-.44-.4-.42-.69-.71-.86-.87a6.48,6.48,0,0,0-.79-.43h-.19a4.36,4.36,0,0,0-3.1-.14,6.21,6.21,0,0,0-1.22.58,5.71,5.71,0,0,1-1,.45,1.47,1.47,0,0,1-1.39-.24,1.12,1.12,0,0,1-.27-.4.8.8,0,0,1-.11-.23,5.79,5.79,0,0,1-.37-1,3.83,3.83,0,0,0-.47-.49,1.69,1.69,0,0,0-1.07-.81,2.48,2.48,0,0,0-1.42-.06A2.17,2.17,0,0,0,217,316.5a3.58,3.58,0,0,0-.24,2.89c.33.94.55,1.57.67,1.9q.54,1.24.87,1.92c.38.89.65,1.56.82,2A12.66,12.66,0,0,0,220,327c.19.31.55.84,1.06,1.58a2.94,2.94,0,0,0,1.19.76,2.21,2.21,0,0,0,1.36.08l.14,0a2.49,2.49,0,0,0,1.18-.73,2.17,2.17,0,0,0,.67-1.92,6.2,6.2,0,0,0-.78-1.81,1.92,1.92,0,0,1-.24-.63c-.13-.61,0-1,.53-1.12a1.44,1.44,0,0,1,1,.15,2.17,2.17,0,0,1,.83.64l.51.54c.37.43.61.72.73.88a2.05,2.05,0,0,0,.75.56,1.47,1.47,0,0,0,1,.14,10.1,10.1,0,0,0,1.59-.74,1.83,1.83,0,0,0,.5-.51,2,2,0,0,0,.34-.65A4.22,4.22,0,0,0,232.26,322.29Z"/><path class="cls-2" d="M248.09,317.52c.54,1.31.2,2.6-1,3.89A13.68,13.68,0,0,1,244,323.6l-.27.06c-.16,0-.21,0-.15,0l-.26.07-.74.24a5.81,5.81,0,0,1-1,.24l-.48,0-.73.11-1-.09a4.77,4.77,0,0,1-2-.58,7.7,7.7,0,0,1-3.91-3.17l-.06-.14a5.79,5.79,0,0,0-.26-.54c-.12-.24-.21-.42-.26-.54a6.88,6.88,0,0,1-.48-2.32,13.88,13.88,0,0,1,0-1.43c0-.24,0-.72.11-1.43a4.87,4.87,0,0,1,.89-2.42h0a6.69,6.69,0,0,1,1.52-1.47l1.78-1.2,0,0a2.82,2.82,0,0,1,.84-.48c.07,0,.47-.1,1.21-.22h0a3.36,3.36,0,0,1,2.49.44,3.44,3.44,0,0,1,1.95,1.22,7.72,7.72,0,0,1,1.22,2,7.83,7.83,0,0,1,.28.81,2.48,2.48,0,0,1,0,1.27,3.17,3.17,0,0,1-.52,1.21l.65,0a3.41,3.41,0,0,1,1.31.47A2.76,2.76,0,0,1,248.09,317.52Zm-3.33-1.82a2.94,2.94,0,0,0-1.62.19,5.92,5.92,0,0,0-1.39,1,5.37,5.37,0,0,1-1.39,1,2.6,2.6,0,0,1-1.22.2.55.55,0,0,1-.14-.17c0-.18.07-.29.13-.33a25.44,25.44,0,0,0,3.23-2.17,3.08,3.08,0,0,0,1-1.83,2.7,2.7,0,0,0,0-1c-.11-.34-.2-.6-.28-.78a5.91,5.91,0,0,0-1.63-2.4,3.25,3.25,0,0,0-2.72-.7l-1.13.21a4.52,4.52,0,0,0-.76.42l-1.7,1.16a4.84,4.84,0,0,0-2.34,3.7,20.55,20.55,0,0,0-.13,2.81,6.25,6.25,0,0,0,.58,2.48c.21.42.36.74.45.95q2.19,3,4.68,3.17l1,.09,1.53-.22,1.62-.49.19,0a.44.44,0,0,0,.19,0,13.84,13.84,0,0,0,3.09-2.19,3.14,3.14,0,0,0,.89-3.49A2.5,2.5,0,0,0,244.76,315.7Zm-5.89-1.56c-.27.56-.47.93-.59,1.14a1,1,0,0,1-.25.15,1.14,1.14,0,0,1-.85,0,1,1,0,0,1-.62-.57,1.29,1.29,0,0,1-.06-.22,4.82,4.82,0,0,1,.09-.9l.11-.23.11-.23c.41,0,.77,0,1.07,0a1,1,0,0,1,.89.49C238.87,314,238.9,314.08,238.87,314.14Zm-1.08.88V315A.13.13,0,0,0,237.79,315Zm.74-1v0h-.05l-.51,0-.1.24a3.1,3.1,0,0,0-.05.9l0,.08.07,0,.13-.07c.1-.17.17-.31.23-.43l.29-.59S238.54,314.05,238.53,314Z"/><path class="cls-2" d="M261.89,309.22c.2.28.36.52.49.74a3.78,3.78,0,0,1,.6,1.66,3.45,3.45,0,0,1-.48,2.44l-.31.31-.25.28-.56.35a2.85,2.85,0,0,1-1.06.42,2,2,0,0,1-1.09-.27,3.4,3.4,0,0,1-1.78-.68,9.81,9.81,0,0,1-1.78-2.11,12.23,12.23,0,0,1-1.14-2.79l0,0a.22.22,0,0,0-.1-.08l0,0a.46.46,0,0,1-.22-.22,1,1,0,0,1-.12-.56,2.54,2.54,0,0,1,1-1.67.26.26,0,0,0,.1-.07l.1-.06a1.48,1.48,0,0,1-.36.09l-.24,0h0a2.35,2.35,0,0,1-1.38-.25,2.26,2.26,0,0,1-2-1.22,3.41,3.41,0,0,1-.22-.48,7.67,7.67,0,0,1-.15-1.36,2.88,2.88,0,0,1,.23-1.47,3.4,3.4,0,0,1,1.11-.89,3.24,3.24,0,0,1,2.62-.51,3.37,3.37,0,0,1,.47.18,2.26,2.26,0,0,1,1.87,1l.12.21a3,3,0,0,1,0,3.65l-.72.42a2.46,2.46,0,0,1-.37.2l0,0a4.36,4.36,0,0,1,2.28.27h0c.13-.07.46,0,1,.28a4,4,0,0,1,1,.56A8.87,8.87,0,0,1,261.89,309.22Zm-7-8.12a3,3,0,0,0-2.39.47,3.16,3.16,0,0,0-1,.77,2.56,2.56,0,0,0-.2,1.31,4.74,4.74,0,0,0,.15,1.33,2.5,2.5,0,0,0,.18.37,2,2,0,0,0,2.06,1.06l.21,0a4.44,4.44,0,0,0,1.27-.46s.38-.2,1-.58q1.15-1.5-.3-3.68A1.78,1.78,0,0,0,254.86,301.1Zm4.47,6.49a3.37,3.37,0,0,0-1.8-.78,3,3,0,0,0-1.93.29l-.15.1a2.08,2.08,0,0,0-.67.66c-.37.54-.47,1-.29,1.27a.8.8,0,0,0,.16.15.37.37,0,0,1,.14.16,13.11,13.11,0,0,0,1.14,2.77,6.1,6.1,0,0,0,.95,1.27c.44.45.68.69.73.72a3.72,3.72,0,0,0,1.51.65,3,3,0,0,0,1.61-.72,7.13,7.13,0,0,0,.53-.58,3.26,3.26,0,0,0,.4-2.18,3.73,3.73,0,0,0-.57-1.53,8,8,0,0,0-.47-.72A9.52,9.52,0,0,0,259.33,307.59Z"/><path class="cls-2" d="M277,299a4.52,4.52,0,0,1,.44,1.13,2.23,2.23,0,0,1-.09,1.19c-.09.28-.16.46-.19.56a1.69,1.69,0,0,1-.39.71c-.27.25-.47.42-.59.51a2.89,2.89,0,0,1-.86.43,13.58,13.58,0,0,1-2.89.58c-.85,0-1.5,0-2,0a2.94,2.94,0,0,0-1.24.17h0q-.1.08,0,.42l.1.17.11.15c.1.14.28.35.53.63s.49.56.54.63a2,2,0,0,1-.09,2.65h0a5.37,5.37,0,0,1-.85,1,1.62,1.62,0,0,1-.27.14.82.82,0,0,0-.27.14,3,3,0,0,1-1.28.48l-.35,0h0a3.35,3.35,0,0,1-1.52-.15,4,4,0,0,1-2.52-1.12l-.23-.32a3.22,3.22,0,0,0-.21-.29c0-.08-.05-.1,0-.05l-.13-.18-.2-.25-.63-.88c-.39-.54-.77-1.1-1.14-1.67-.87-1.33-1.33-2-1.39-2.12l-.11-.14-.42-.67c-.34-.9-.51-1.4-.53-1.49v0a3.65,3.65,0,0,1-.07-1.67,2.7,2.7,0,0,1,1.09-1.26,6.56,6.56,0,0,1,.72-.33h0a4.35,4.35,0,0,1,2.51-.13l2.78.55a1.86,1.86,0,0,0,1.19-.34,1,1,0,0,0,.17-.34l0,0a7,7,0,0,0-.39-1.12,6.52,6.52,0,0,1-.63-2.76,4.18,4.18,0,0,1,.51-1.27,3.48,3.48,0,0,1,.84-1.05l.06,0a2.27,2.27,0,0,1,2-.15l.1,0a3.93,3.93,0,0,1,2.61,1,11.39,11.39,0,0,1,1.32,1.38l.14.16q1.08,1.25,1.41,1.59l1.66,2.3A6.43,6.43,0,0,1,277,299Zm-3.51-3.35-1.55-1.75c-.57-.64-1-1.06-1.18-1.26a4.35,4.35,0,0,0-1.64-.92,2.13,2.13,0,0,0-1.81.13,2.65,2.65,0,0,0-.79,1A3.63,3.63,0,0,0,266,294a6,6,0,0,0,.61,2.6,4.47,4.47,0,0,1,.4,1.3,1.11,1.11,0,0,1-.26.49,2.41,2.41,0,0,1-2,.33l-2.25-.51a3.68,3.68,0,0,0-2.32.13l-.65.3c-.6.46-.92.81-1,1.07a3.52,3.52,0,0,0,.07,1.54c.21.61.38,1.07.5,1.38l.52.81,1.4,2.13c.53.8,1,1.5,1.45,2.1s.82,1.12,1.07,1.49a3.29,3.29,0,0,0,2.74,1l.33,0a3.34,3.34,0,0,0,1.12-.43.91.91,0,0,1,.25-.13,1,1,0,0,0,.26-.13,5.78,5.78,0,0,0,.8-.94,1.84,1.84,0,0,0,.09-2.3,2.16,2.16,0,0,0-.2-.25l-.33-.35a8.37,8.37,0,0,1-.54-.66l-.12-.16a1.17,1.17,0,0,1-.2-.54.43.43,0,0,1,.2-.49,3.6,3.6,0,0,1,1.39-.2h1.94a13.43,13.43,0,0,0,3-.6,3.71,3.71,0,0,0,1.17-.82,1.87,1.87,0,0,0,.32-.54c0-.11.11-.31.19-.61a2.23,2.23,0,0,0,0-1.25,6.56,6.56,0,0,0-.94-1.89Z"/></g><g id="Fill"><path class="cls-3" d="M132.44,42.77a5.21,5.21,0,0,0-2.91.31,7.06,7.06,0,0,1-1.33.44q-4.74,2.17-2.93,8l.38,1.22c.15.47.29.87.43,1.2,0,0,.08.18.2.44l.75,1.52.18.38.27.49a3.88,3.88,0,0,0,.19.36c.36.58.56.89.61.94a2.28,2.28,0,0,0,1.43.62,3.38,3.38,0,0,0,1.58-.22,2.57,2.57,0,0,0,1.61-1.74,1.43,1.43,0,0,0,.18-.67c-.05-.34-.08-.57-.09-.67-.09-.27-.17-.49-.25-.68a3,3,0,0,0-.21-.46l-.55-.72c-.44-.73-.67-1.13-.7-1.19a.86.86,0,0,1,.49-1.25l.94-.43a5.68,5.68,0,0,0,1.43-.93,5,5,0,0,0,1.35-1.56,4.39,4.39,0,0,0-.14-3.12q-.15-.35-.33-.69A3.34,3.34,0,0,0,132.44,42.77Zm-2.5,6.13a1,1,0,0,1-.67,0,.77.77,0,0,1-.5-.42s0-.23,0-.66v-.35a.91.91,0,0,1,.49-.69c.5-.25.89-.06,1.15.59a1.77,1.77,0,0,1,.15,1A7.63,7.63,0,0,1,129.94,48.9Zm.27-.61,0,0Z"/><path class="cls-3" d="M147.58,41.13A3.9,3.9,0,0,0,147,40l-.41-.58-.43-.26a3.86,3.86,0,0,0-1.52-.93,1.57,1.57,0,0,0-.68,0l-.57.12-.58.08-.52.08-2.43,1.28a6.54,6.54,0,0,0-1.45,1.43,4.29,4.29,0,0,0-1,2.25c0,.18-.06.31-.08.4a5.71,5.71,0,0,0,.18,1.24c0,.16.07.41.11.75a4.9,4.9,0,0,0,.15.78l.06.2s0,.12.07.19a.66.66,0,0,0,.1.17.66.66,0,0,1,.1.17,7.78,7.78,0,0,0,.25.77c.45,1.14.84,2.11,1.17,2.9l.1.09a10.45,10.45,0,0,0,.74,1.35,4,4,0,0,1,.15.5,1.37,1.37,0,0,0,.17.44,2,2,0,0,0,.89.62,2.48,2.48,0,0,0,1.32-.06A3.9,3.9,0,0,0,145,52.3a2,2,0,0,0,.27-1.73,5.43,5.43,0,0,0-.24-.54l-.22-.46a4,4,0,0,0-.43-.75,11.41,11.41,0,0,0-1.28-1.3L143,47.4a11.34,11.34,0,0,1-.84-.82,1.84,1.84,0,0,1-.28-.56,1.51,1.51,0,0,1,.34-1.52,1.91,1.91,0,0,1,.9-.54,2.66,2.66,0,0,1,.84-.11,5.17,5.17,0,0,1,.68.13A3.26,3.26,0,0,0,146,44a1.9,1.9,0,0,0,.63-.41l.56-.53a2.67,2.67,0,0,0,.55-1.19A2.79,2.79,0,0,0,147.58,41.13Z"/><path class="cls-3" d="M162.25,43a2.9,2.9,0,0,0-1.63-.11,5.55,5.55,0,0,0-1.55.71,5.65,5.65,0,0,1-1.55.72,2.72,2.72,0,0,1-1.24,0,.42.42,0,0,1-.1-.2.57.57,0,0,1,.19-.3,25.14,25.14,0,0,0,3.57-1.52,3.07,3.07,0,0,0,1.31-1.61,2.63,2.63,0,0,0,.19-1q-.06-.52-.12-.81a6,6,0,0,0-1.16-2.66,3.19,3.19,0,0,0-2.54-1.2h-1.15a4.18,4.18,0,0,0-.83.27l-1.88.82a4.84,4.84,0,0,0-3,3.19,22.08,22.08,0,0,0-.65,2.74,6.46,6.46,0,0,0,.1,2.55c.13.45.22.79.27,1q1.59,3.38,4,4c.37.09.69.18.94.26l1.54.07,1.68-.17a.47.47,0,0,1,.2,0H159a14,14,0,0,0,3.44-1.57A3.14,3.14,0,0,0,164,44.89,2.51,2.51,0,0,0,162.25,43Zm-5.49-2.63c-.37.49-.64.83-.8,1a.79.79,0,0,1-.27.1,1.07,1.07,0,0,1-.83-.18,1,1,0,0,1-.5-.68,1.13,1.13,0,0,1,0-.23,4.51,4.51,0,0,1,.26-.86l.15-.21.15-.2c.4.07.75.14,1,.21a1,1,0,0,1,.79.66Q156.82,40.28,156.76,40.36Z"/><path class="cls-3" d="M174.24,34.86a3.35,3.35,0,0,0-.13-.43l-.21-.58A2.73,2.73,0,0,0,173,33a4,4,0,0,0-1.79-.22,3.23,3.23,0,0,0-.62,0c-.92.24-1.54.42-1.87.53a6.24,6.24,0,0,0-1.73.89,2.59,2.59,0,0,0-.4.63,7.39,7.39,0,0,0-.93,1.73,5.92,5.92,0,0,0-.22,1.55,5.89,5.89,0,0,0,.21,1.24,2.48,2.48,0,0,0,.43,1,3.6,3.6,0,0,0,.38.35,3.43,3.43,0,0,0,1.61.75l.9.11c.87.11,1.33.44,1.39,1a2.6,2.6,0,0,1-.7.76,2.55,2.55,0,0,1-1.2,0,2.88,2.88,0,0,1-.58-.18,4.39,4.39,0,0,0-.54,0,1.34,1.34,0,0,0-.81.3l-.16.06a3.33,3.33,0,0,0-.68,2.37,1.42,1.42,0,0,0,.22.37,2.41,2.41,0,0,0,1.52,1.45,4.76,4.76,0,0,0,2.15.2c.25,0,.49-.06.74-.11a5.46,5.46,0,0,0,1.92-.69A9.74,9.74,0,0,0,173.85,46a4.25,4.25,0,0,0,1-1.69,2.76,2.76,0,0,1,.18-.52,5.85,5.85,0,0,0,0-1.39q-.21-1.91-2.64-3.56a2.38,2.38,0,0,0-.92-.28,1.41,1.41,0,0,1-.75-.47,1.33,1.33,0,0,1-.44-.75.46.46,0,0,1,.15-.41.69.69,0,0,1,.43-.2,2,2,0,0,1,.69.09,1.93,1.93,0,0,0,.67.09,9.41,9.41,0,0,0,1.13-.3A1.37,1.37,0,0,0,174,36a1.48,1.48,0,0,0,.32-.81A2.24,2.24,0,0,0,174.24,34.86Z"/><path class="cls-3" d="M186.36,34.32a2,2,0,0,0-.09-.43l-.16-.59a2.7,2.7,0,0,0-.8-.91,3.84,3.84,0,0,0-1.76-.37,5.82,5.82,0,0,0-.62,0c-.94.16-1.57.29-1.91.38a6.22,6.22,0,0,0-1.79.75,2.23,2.23,0,0,0-.45.6,7.09,7.09,0,0,0-1.06,1.65,5.87,5.87,0,0,0-.35,1.52,5.73,5.73,0,0,0,.12,1.26,2.54,2.54,0,0,0,.34,1,3.79,3.79,0,0,0,.36.38,3.33,3.33,0,0,0,1.54.87c.44.1.73.16.89.18.86.18,1.3.55,1.31,1.12a2.54,2.54,0,0,1-.76.7,2.6,2.6,0,0,1-1.2-.07,4.25,4.25,0,0,1-.56-.22,5.25,5.25,0,0,0-.54,0,1.27,1.27,0,0,0-.84.24l-.16,0a3.32,3.32,0,0,0-.86,2.3,1.76,1.76,0,0,0,.19.39,2.43,2.43,0,0,0,1.4,1.56,4.67,4.67,0,0,0,2.13.37,6.3,6.3,0,0,0,.75,0,5.22,5.22,0,0,0,2-.54,9.09,9.09,0,0,0,1.66-1.08,4.16,4.16,0,0,0,1.08-1.61,2.69,2.69,0,0,1,.23-.5,6.37,6.37,0,0,0,.12-1.39q-.06-1.92-2.35-3.75a2.05,2.05,0,0,0-.9-.35,1.49,1.49,0,0,1-.7-.53,1.41,1.41,0,0,1-.39-.79.5.5,0,0,1,.19-.4.74.74,0,0,1,.44-.16,2.31,2.31,0,0,1,.68.14,2.16,2.16,0,0,0,.67.15,8.83,8.83,0,0,0,1.15-.21,1.45,1.45,0,0,0,.66-.53,1.48,1.48,0,0,0,.39-.78A2.13,2.13,0,0,0,186.36,34.32Z"/><path class="cls-3" d="M209.88,44.11a10.46,10.46,0,0,0-.27-3.27,3.73,3.73,0,0,0-.05-.49c-.21-.55-.36-.93-.46-1.14a7.05,7.05,0,0,0-.57-.7l-.17-.06a4.35,4.35,0,0,0-2.81-1.31,6.62,6.62,0,0,0-1.36.07,4.6,4.6,0,0,1-1.07,0,1.45,1.45,0,0,1-1.2-.75,1.21,1.21,0,0,1-.1-.46c0-.14,0-.23,0-.26a7.15,7.15,0,0,1,0-1.07,5.33,5.33,0,0,0-.25-.63,1.74,1.74,0,0,0-.68-1.16,2.5,2.5,0,0,0-1.3-.59A2.18,2.18,0,0,0,198,33a3.58,3.58,0,0,0-1.31,2.58c-.06,1-.09,1.67-.11,2,0,.89.05,1.6.08,2.1q0,1.45,0,2.16a11.67,11.67,0,0,0,.13,1.93c.06.36.19,1,.38,1.87A2.92,2.92,0,0,0,198,46.8a2.19,2.19,0,0,0,1.23.58l.15,0a2.48,2.48,0,0,0,1.37-.23,2.17,2.17,0,0,0,1.34-1.52,6,6,0,0,0,0-2,2,2,0,0,1,0-.68c.11-.61.42-.88.91-.83a1.45,1.45,0,0,1,.88.52,2.15,2.15,0,0,1,.52.91l.27.69c.18.53.29.9.34,1.1a2,2,0,0,0,.49.79,1.44,1.44,0,0,0,.9.52,9.87,9.87,0,0,0,1.75-.07,1.69,1.69,0,0,0,.66-.29,1.71,1.71,0,0,0,.55-.47A4.07,4.07,0,0,0,209.88,44.11Z"/><path class="cls-3" d="M225.07,41.76a10,10,0,0,0-.27-2.34.69.69,0,0,0-.1-.22l-.1-.16A4,4,0,0,0,223,36.82l-.24-.11a.76.76,0,0,1-.18-.09,4.21,4.21,0,0,0-1.92-1q-1.86-.48-2.1-.51a4.28,4.28,0,0,0-3.79,1.51c-.1.11-.36.34-.8.72a2.54,2.54,0,0,0-.68.71,22.39,22.39,0,0,0-1.79,4.47,5.83,5.83,0,0,0,.08,2.77A5.58,5.58,0,0,0,213,48a9.79,9.79,0,0,0,2,1.37,7.19,7.19,0,0,0,1.92.73,5.28,5.28,0,0,0,1.59.13c2.56-.19,4.31-1,5.26-2.38a3.59,3.59,0,0,0,.14-.45,8.62,8.62,0,0,0,1-2.62c0-.13.07-.36.13-.7l.24-1.52A3.75,3.75,0,0,0,225.07,41.76Zm-5.65,2.81a2.39,2.39,0,0,1-1.58.38,6.08,6.08,0,0,1-1.13-.45,1.76,1.76,0,0,1-.74-2.14,1.94,1.94,0,0,1,.33-.8,2.67,2.67,0,0,1,1.58-1.12,6.27,6.27,0,0,1,1.24.09,1.72,1.72,0,0,1,1.22.93,3.19,3.19,0,0,1,.21.88,2.1,2.1,0,0,1,0,1A2.47,2.47,0,0,1,219.42,44.57Z"/><path class="cls-3" d="M235.12,49.51a3,3,0,0,0-.52-.75,5.57,5.57,0,0,0-1-.69c-.33-.14-.54-.22-.64-.25a4.19,4.19,0,0,0-.49-.14.75.75,0,0,1-.33-.35c0-.06-.07-.21-.13-.46a1.49,1.49,0,0,1,.08-.38,5.21,5.21,0,0,1,.27-1.29l.21-.45c.52-1.14.82-1.82.9-2.06a5.35,5.35,0,0,0,.13-.56,4.23,4.23,0,0,0,0-2.32,2.31,2.31,0,0,0-1.45-1.32,2.27,2.27,0,0,0-2,.28.19.19,0,0,0-.13-.1l-.09,0a2.64,2.64,0,0,1-.44.65L228.76,41c-.33.84-.6,1.47-.79,1.88l-.81,1.69a21.57,21.57,0,0,0-1,2.26,11,11,0,0,0-.61,2.83c0,.53-.05.82-.06.89.24,1,1.09,1.72,2.55,2.3.41.16.78.3,1.12.41,2.54.81,4.32.57,5.32-.73a4.27,4.27,0,0,0,.72-1.31,4.08,4.08,0,0,0,.17-1.09A3.86,3.86,0,0,0,235.12,49.51Z"/><path class="cls-3" d="M249,53.73a15.33,15.33,0,0,0,1.13-4.24c-.08-1-.13-1.55-.16-1.75a4.83,4.83,0,0,0-.74-2.08,3.74,3.74,0,0,0-1.57-1.52c-1.1-.55-2-.07-2.61,1.45a6.64,6.64,0,0,0-.44,2.2,2.2,2.2,0,0,1-.11.76.36.36,0,0,1-.32.26,4,4,0,0,1-.91.12c-1.24-.35-2.18-.63-2.8-.84a2.07,2.07,0,0,0-1.29.34,5.62,5.62,0,0,0-1.06.79l-.74,1a3.9,3.9,0,0,0-.71,1.27,5.27,5.27,0,0,0-.27,1.69,5.06,5.06,0,0,0,1.26,2.45A9.13,9.13,0,0,0,239.45,57c.12.07.33.17.62.3a9.44,9.44,0,0,0,5.27.62l.45-.25a7.51,7.51,0,0,0,1.44-1A10.4,10.4,0,0,0,249,53.73Zm-5.62.21a2,2,0,0,1-.61-.11,1.6,1.6,0,0,1-.31-.1,2.31,2.31,0,0,1-1-.77,3.06,3.06,0,0,1,.13-1.51,1.63,1.63,0,0,1,.64-.74,2,2,0,0,1,1.06,0,1,1,0,0,1,.28.07,1.72,1.72,0,0,1,1,1.24,1.79,1.79,0,0,1-.12,1.1,1.51,1.51,0,0,1-.59.75A1.25,1.25,0,0,1,243.35,53.94Z"/><path class="cls-3" d="M113.29,300.67a4.69,4.69,0,0,0-.85-4l-.07-.22a9.67,9.67,0,0,0-2.34-2.3,5.48,5.48,0,0,1-.46-.42,2.46,2.46,0,0,0-.52-.44,4.89,4.89,0,0,0-2.17-.71h-.68a3.21,3.21,0,0,0-1.46.77s-.06.06-.11.12a1.67,1.67,0,0,0-.31.94,2.24,2.24,0,0,0,1.17,1.85,1.48,1.48,0,0,0,.45.25l1.36.31a3.85,3.85,0,0,1,1.16.43,1.12,1.12,0,0,1,.55,1,2,2,0,0,1-.27.46c-.24.29-.45.41-.62.38a8.9,8.9,0,0,1-2.33-1.2,8.46,8.46,0,0,0-2.49-1.21,2.32,2.32,0,0,0-.91,0,5.91,5.91,0,0,0-1.11.26,10.25,10.25,0,0,0-1.15.69,5.53,5.53,0,0,0-1.17.72c-.09.17-.16.29-.19.36a3.52,3.52,0,0,0-.56,2.28,6.21,6.21,0,0,0,2.88,5,10.48,10.48,0,0,0,2.55,1.22,8.81,8.81,0,0,0,1.43.35,6.31,6.31,0,0,0,1.45.11,7.18,7.18,0,0,0,2.34-.63,5.38,5.38,0,0,0,2-1.43,6.22,6.22,0,0,0,.51-.72c.18-.3.32-.5.4-.62A9.1,9.1,0,0,0,113.29,300.67Zm-7.07,2.77a1.31,1.31,0,0,1-1.43,0l-.25-.17-.17-.12a1.86,1.86,0,0,1-.62-1,1.38,1.38,0,0,1,.19-1.41,1.72,1.72,0,0,1,1-.44,1.6,1.6,0,0,1,1,.06l.66.36c.8.72,1,1.3.75,1.75A3,3,0,0,1,106.22,303.44Z"/><path class="cls-3" d="M127.71,312.42l.89-2.16c.34-.8.54-1.34.62-1.61a4.61,4.61,0,0,0,.12-1.89,2.12,2.12,0,0,0-.91-1.56,2.52,2.52,0,0,0-1.2-.3,3.83,3.83,0,0,0-1.29.1,6,6,0,0,0-2.07,1.69,4.44,4.44,0,0,1-1,.92,1,1,0,0,1-.55,0,2.38,2.38,0,0,1-1.15-1.62c-.27-1.11-.44-1.85-.53-2.24a3.65,3.65,0,0,0-1.13-2,5.36,5.36,0,0,0-.56-.46,2.49,2.49,0,0,0-1.38-.41,3.47,3.47,0,0,0-1.35.74c-.47.45-.81.8-1,1.05l-.5.82-1.3,2.19c-.5.83-.91,1.57-1.26,2.22s-.65,1.23-.87,1.61a3.31,3.31,0,0,0,.28,2.92,3,3,0,0,1,.12.3,3.48,3.48,0,0,0,.88.82,1,1,0,0,1,.23.17,1.22,1.22,0,0,0,.23.18,5.54,5.54,0,0,0,1.19.3,1.83,1.83,0,0,0,2.11-.92l.14-.28.17-.45a8.63,8.63,0,0,1,.36-.79l.09-.17a1.17,1.17,0,0,1,.39-.41.44.44,0,0,1,.54,0,3.68,3.68,0,0,1,.78,1.16l.84,1.75a13.66,13.66,0,0,0,1.85,2.4,3.56,3.56,0,0,0,1.24.69,1.65,1.65,0,0,0,.62.05l.63-.09a2.19,2.19,0,0,0,1.14-.52,6.9,6.9,0,0,0,1.3-1.67Z"/><path class="cls-3" d="M140.31,319.32a15.65,15.65,0,0,0,1.06-4.26c-.1-1-.17-1.55-.2-1.74a4.63,4.63,0,0,0-.77-2.07,3.75,3.75,0,0,0-1.6-1.5c-1.11-.53-2,0-2.59,1.5a6.84,6.84,0,0,0-.39,2.21,2.57,2.57,0,0,1-.1.76.38.38,0,0,1-.31.27,3.78,3.78,0,0,1-.91.13q-1.87-.48-2.82-.78a2,2,0,0,0-1.28.36,5.24,5.24,0,0,0-1.05.81c-.36.49-.6.82-.72,1a3.79,3.79,0,0,0-.69,1.28,5.52,5.52,0,0,0-.24,1.69,5.09,5.09,0,0,0,1.31,2.43,8.75,8.75,0,0,0,1.84,1.3,5.16,5.16,0,0,0,.63.29,9.36,9.36,0,0,0,5.28.52c.19-.11.34-.19.44-.26a7.23,7.23,0,0,0,1.42-1A10.33,10.33,0,0,0,140.31,319.32Zm-5.62.31a1.77,1.77,0,0,1-.6-.1,1.68,1.68,0,0,1-.32-.09,2.37,2.37,0,0,1-1-.76,3.12,3.12,0,0,1,.1-1.51,1.68,1.68,0,0,1,.63-.75,1.94,1.94,0,0,1,1.05,0,.53.53,0,0,1,.28.06,1.69,1.69,0,0,1,1.07,1.22,1.72,1.72,0,0,1-.1,1.1,1.43,1.43,0,0,1-.58.76A1.18,1.18,0,0,1,134.69,319.63Z"/><path class="cls-3" d="M158.83,324q-.22-1.21-2-1.86l-.43-.13c-1-.29-1.43-.76-1.27-1.42,0,0,.08-.21.27-.74.46-1.32.7-2,.71-2.05a1.79,1.79,0,0,0,0-.82c.11-.66.06-1.09-.15-1.32a2.25,2.25,0,0,0-1.12-.65l-.22,0a6.39,6.39,0,0,0-.75,0,1.49,1.49,0,0,0-.5.48,2.93,2.93,0,0,1-.69.83,73.78,73.78,0,0,0-3.18,7.31,7.7,7.7,0,0,0-.32,1,9.78,9.78,0,0,0-.1,1.78,3.67,3.67,0,0,0,.66,1.66,4.69,4.69,0,0,0,2.94,1.93,4.8,4.8,0,0,0,1.56.1,5.4,5.4,0,0,0,2.58-1,3.68,3.68,0,0,0,1.64-2.16.64.64,0,0,1,.06-.11.41.41,0,0,0,.06-.11A5.62,5.62,0,0,0,158.83,324Zm-5.2,2.25c-.73-.15-1-.63-.82-1.43a1.85,1.85,0,0,1,.59-1h.34l.18-.11a1.18,1.18,0,0,1,.54,0,.89.89,0,0,1,.61.71,1.89,1.89,0,0,1,.06,1C155,325.84,154.52,326.13,153.63,326.21Z"/><path class="cls-3" d="M172.4,322.3a3.79,3.79,0,0,0-.08-1.3c-.07-.32-.11-.55-.13-.7l-.27-.42a3.93,3.93,0,0,0-1-1.49,1.65,1.65,0,0,0-.63-.27l-.57-.13-.55-.17-.51-.15-2.75.12a6.81,6.81,0,0,0-1.91.67,4.33,4.33,0,0,0-1.82,1.64q-.16.21-.24.33a5.74,5.74,0,0,0-.37,1.2c0,.16-.11.4-.21.73a3.92,3.92,0,0,0-.2.76l0,.2c0,.06,0,.13,0,.21a.53.53,0,0,0,0,.2.66.66,0,0,1,0,.19c0,.29-.08.56-.1.8-.07,1.23-.13,2.27-.18,3.13a.69.69,0,0,1,.06.13,11.3,11.3,0,0,0,.1,1.53c0,.12,0,.29-.08.52a1.47,1.47,0,0,0,0,.46,1.91,1.91,0,0,0,.55.94,2.35,2.35,0,0,0,1.22.51,3.93,3.93,0,0,0,2.66-.61,1.94,1.94,0,0,0,1-1.45c0-.05,0-.25,0-.59v-.51a4,4,0,0,0-.07-.86,11,11,0,0,0-.6-1.73l-.07-.16a9.5,9.5,0,0,1-.41-1.11,1.84,1.84,0,0,1,0-.62,1.52,1.52,0,0,1,1-1.23,2,2,0,0,1,1-.1,2.82,2.82,0,0,1,.81.25,3.79,3.79,0,0,1,.56.42,3.28,3.28,0,0,0,1.16.59,1.67,1.67,0,0,0,.74-.11l.73-.24a2.58,2.58,0,0,0,1-.84A2.81,2.81,0,0,0,172.4,322.3Z"/><path class="cls-3" d="M185.58,328a2.86,2.86,0,0,0-1.55-.5,5.34,5.34,0,0,0-1.68.32,5.56,5.56,0,0,1-1.68.31,2.56,2.56,0,0,1-1.19-.33.41.41,0,0,1,0-.21c.1-.15.18-.23.25-.25a25.11,25.11,0,0,0,3.84-.62,3.06,3.06,0,0,0,1.66-1.25,2.32,2.32,0,0,0,.41-.91c0-.35.08-.62.09-.82a6.12,6.12,0,0,0-.49-2.86,3.2,3.2,0,0,0-2.17-1.77l-1.12-.29a3.91,3.91,0,0,0-.87.07l-2,.33a4.87,4.87,0,0,0-3.67,2.38,21.9,21.9,0,0,0-1.29,2.5,6.34,6.34,0,0,0-.51,2.5c0,.47,0,.82,0,1.05.49,2.43,1.46,4.05,2.92,4.84.34.18.63.35.85.49l1.48.43,1.67.24a.67.67,0,0,1,.19.05.41.41,0,0,0,.19.05,14.14,14.14,0,0,0,3.72-.69,3.11,3.11,0,0,0,2.26-2.8A2.48,2.48,0,0,0,185.58,328Zm-4.7-3.88c-.48.39-.81.65-1,.78a.7.7,0,0,1-.29,0,1.06,1.06,0,0,1-.76-.37,1,1,0,0,1-.32-.78.84.84,0,0,1,0-.23,3.82,3.82,0,0,1,.45-.77l.2-.17.19-.16c.38.17.7.32,1,.46a1,1,0,0,1,.59.82Q181,324.1,180.88,324.16Z"/><path class="cls-3" d="M201.79,321.85a4.72,4.72,0,0,0-3.22-2.58l-.19-.13a10,10,0,0,0-3.27-.29,4.45,4.45,0,0,1-.63,0,2.53,2.53,0,0,0-.68,0,4.89,4.89,0,0,0-2.12.82l-.53.43a3.17,3.17,0,0,0-.64,1.52.72.72,0,0,0,0,.17,1.7,1.7,0,0,0,.35.92,2.27,2.27,0,0,0,2.08.69,1.67,1.67,0,0,0,.51-.09l1.25-.63a4,4,0,0,1,1.17-.4,1.17,1.17,0,0,1,.32,0,.88.88,0,0,1,.75.45,2.13,2.13,0,0,1,.08.53c0,.37-.08.6-.24.68a9,9,0,0,1-2.56.56,8.39,8.39,0,0,0-2.69.64,2.48,2.48,0,0,0-.71.57,7.47,7.47,0,0,0-.69.91,10.85,10.85,0,0,0-.45,1.27,5.25,5.25,0,0,0-.45,1.29,2.24,2.24,0,0,0,.09.4,3.47,3.47,0,0,0,1,2.12,6.23,6.23,0,0,0,5.4,2,10.23,10.23,0,0,0,2.74-.68,8.24,8.24,0,0,0,1.33-.63,6.2,6.2,0,0,0,1.19-.84,7.08,7.08,0,0,0,1.41-2,5.49,5.49,0,0,0,.6-2.34,7.65,7.65,0,0,0-.06-.89c0-.34-.07-.59-.08-.73A9.13,9.13,0,0,0,201.79,321.85Zm-3.71,6.63a1.36,1.36,0,0,1-1.13.89l-.3,0h-.21a1.83,1.83,0,0,1-1.09-.36,1.34,1.34,0,0,1-.75-1.21,1.71,1.71,0,0,1,.47-.95,1.52,1.52,0,0,1,.85-.61l.74-.15c1.08.05,1.64.34,1.69.88A3.08,3.08,0,0,1,198.08,328.48Z"/><path class="cls-3" d="M216.62,327.09a3.64,3.64,0,0,0-.7-1.66,1.55,1.55,0,0,0-1.56-.65.44.44,0,0,0-.22.08,1.56,1.56,0,0,0-.72.66c0,.08-.09.21-.16.4-.21.57-.44.88-.67.92a.43.43,0,0,1-.25,0c-.5-.2-.76-.42-.76-.66a.62.62,0,0,1,.23-.45c.49-.33.8-.55.93-.65a1.86,1.86,0,0,0,.67-2,1.22,1.22,0,0,0-1.48-1.08l-.65,0a.67.67,0,0,1-.54-.29,1.25,1.25,0,0,1-.14-.8,6.14,6.14,0,0,0-.14-1.54,3,3,0,0,0-.28-.79,2,2,0,0,0-.43-.66,2.42,2.42,0,0,0-1.11-.68,2.74,2.74,0,0,0-1.15.12,1.6,1.6,0,0,0-.82.73,2.4,2.4,0,0,0-.35,1.12l-.06.23a1.54,1.54,0,0,0,0,.17,10.51,10.51,0,0,0,.11,1.14,6.08,6.08,0,0,0,.27.89,8.42,8.42,0,0,1,.26.89,2,2,0,0,1,0,.78,2.16,2.16,0,0,0-1.82,1.51,1.31,1.31,0,0,1-.13.31,3.38,3.38,0,0,0,.2,1,1.29,1.29,0,0,0,1.35,1,6.26,6.26,0,0,1,.94,0,.71.71,0,0,1,.56.67,3.35,3.35,0,0,1,.05.47c0,.2,0,.36.06.47a3.16,3.16,0,0,0,1.53,2.32,3.54,3.54,0,0,1,.47.3,7.42,7.42,0,0,0,2.11.23,6.36,6.36,0,0,0,1.7-.21,5.18,5.18,0,0,0,1.79-.89,3.14,3.14,0,0,0,.56-.65,1.88,1.88,0,0,0,.36-.7c0-.45.09-.75.12-.91s0-.51,0-.7A2.38,2.38,0,0,0,216.62,327.09Z"/><path class="cls-3" d="M232.26,322.29a10.5,10.5,0,0,0-1.49-2.93c-.1-.19-.17-.34-.23-.44-.4-.42-.69-.71-.86-.87a6.48,6.48,0,0,0-.79-.43h-.19a4.36,4.36,0,0,0-3.1-.14,6.21,6.21,0,0,0-1.22.58,5.71,5.71,0,0,1-1,.45,1.47,1.47,0,0,1-1.39-.24,1.12,1.12,0,0,1-.27-.4.8.8,0,0,1-.11-.23,5.79,5.79,0,0,1-.37-1,3.83,3.83,0,0,0-.47-.49,1.69,1.69,0,0,0-1.07-.81,2.48,2.48,0,0,0-1.42-.06A2.17,2.17,0,0,0,217,316.5a3.58,3.58,0,0,0-.24,2.89c.33.94.55,1.57.67,1.9q.54,1.24.87,1.92c.38.89.65,1.56.82,2A12.66,12.66,0,0,0,220,327c.19.31.55.84,1.06,1.58a2.94,2.94,0,0,0,1.19.76,2.21,2.21,0,0,0,1.36.08l.14,0a2.49,2.49,0,0,0,1.18-.73,2.17,2.17,0,0,0,.67-1.92,6.2,6.2,0,0,0-.78-1.81,1.92,1.92,0,0,1-.24-.63c-.13-.61,0-1,.53-1.12a1.44,1.44,0,0,1,1,.15,2.17,2.17,0,0,1,.83.64l.51.54c.37.43.61.72.73.88a2.05,2.05,0,0,0,.75.56,1.47,1.47,0,0,0,1,.14,10.1,10.1,0,0,0,1.59-.74,1.83,1.83,0,0,0,.5-.51,2,2,0,0,0,.34-.65A4.22,4.22,0,0,0,232.26,322.29Z"/><path class="cls-3" d="M244.76,315.7a2.94,2.94,0,0,0-1.62.19,5.92,5.92,0,0,0-1.39,1,5.37,5.37,0,0,1-1.39,1,2.6,2.6,0,0,1-1.22.2.55.55,0,0,1-.14-.17c0-.18.07-.29.13-.33a25.44,25.44,0,0,0,3.23-2.17,3.08,3.08,0,0,0,1-1.83,2.7,2.7,0,0,0,0-1c-.11-.34-.2-.6-.28-.78a5.91,5.91,0,0,0-1.63-2.4,3.25,3.25,0,0,0-2.72-.7l-1.13.21a4.52,4.52,0,0,0-.76.42l-1.7,1.16a4.84,4.84,0,0,0-2.34,3.7,20.55,20.55,0,0,0-.13,2.81,6.25,6.25,0,0,0,.58,2.48c.21.42.36.74.45.95q2.19,3,4.68,3.17l1,.09,1.53-.22,1.62-.49.19,0a.44.44,0,0,0,.19,0,13.84,13.84,0,0,0,3.09-2.19,3.14,3.14,0,0,0,.89-3.49A2.5,2.5,0,0,0,244.76,315.7Zm-5.89-1.56c-.27.56-.47.93-.59,1.14a1,1,0,0,1-.25.15,1.14,1.14,0,0,1-.85,0,1,1,0,0,1-.62-.57,1.29,1.29,0,0,1-.06-.22,4.82,4.82,0,0,1,.09-.9l.11-.23.11-.23c.41,0,.77,0,1.07,0a1,1,0,0,1,.89.49C238.87,314,238.9,314.08,238.87,314.14Z"/><path class="cls-3" d="M254.86,301.1a3,3,0,0,0-2.39.47,3.16,3.16,0,0,0-1,.77,2.56,2.56,0,0,0-.2,1.31,4.74,4.74,0,0,0,.15,1.33,2.5,2.5,0,0,0,.18.37,2,2,0,0,0,2.06,1.06l.21,0a4.44,4.44,0,0,0,1.27-.46s.38-.2,1-.58q1.15-1.5-.3-3.68A1.78,1.78,0,0,0,254.86,301.1Zm4.47,6.49a3.37,3.37,0,0,0-1.8-.78,3,3,0,0,0-1.93.29l-.15.1a2.08,2.08,0,0,0-.67.66c-.37.54-.47,1-.29,1.27a.8.8,0,0,0,.16.15.37.37,0,0,1,.14.16,13.11,13.11,0,0,0,1.14,2.77,6.1,6.1,0,0,0,.95,1.27c.44.45.68.69.73.72a3.72,3.72,0,0,0,1.51.65,3,3,0,0,0,1.61-.72,7.13,7.13,0,0,0,.53-.58,3.26,3.26,0,0,0,.4-2.18,3.73,3.73,0,0,0-.57-1.53,8,8,0,0,0-.47-.72A9.52,9.52,0,0,0,259.33,307.59Z"/><path class="cls-3" d="M273.47,295.64l-1.55-1.75c-.57-.64-1-1.06-1.18-1.26a4.35,4.35,0,0,0-1.64-.92,2.13,2.13,0,0,0-1.81.13,2.65,2.65,0,0,0-.79,1A3.63,3.63,0,0,0,266,294a6,6,0,0,0,.61,2.6,4.47,4.47,0,0,1,.4,1.3,1.11,1.11,0,0,1-.26.49,2.41,2.41,0,0,1-2,.33l-2.25-.51a3.68,3.68,0,0,0-2.32.13l-.65.3c-.6.46-.92.81-1,1.07a3.52,3.52,0,0,0,.07,1.54c.21.61.38,1.07.5,1.38l.52.81,1.4,2.13c.53.8,1,1.5,1.45,2.1s.82,1.12,1.07,1.49a3.29,3.29,0,0,0,2.74,1l.33,0a3.34,3.34,0,0,0,1.12-.43.91.91,0,0,1,.25-.13,1,1,0,0,0,.26-.13,5.78,5.78,0,0,0,.8-.94,1.84,1.84,0,0,0,.09-2.3,2.16,2.16,0,0,0-.2-.25l-.33-.35a8.37,8.37,0,0,1-.54-.66l-.12-.16a1.17,1.17,0,0,1-.2-.54.43.43,0,0,1,.2-.49,3.6,3.6,0,0,1,1.39-.2h1.94a13.43,13.43,0,0,0,3-.6,3.71,3.71,0,0,0,1.17-.82,1.87,1.87,0,0,0,.32-.54c0-.11.11-.31.19-.61a2.23,2.23,0,0,0,0-1.25,6.56,6.56,0,0,0-.94-1.89Z"/></g></g></svg>