<svg id="Layer_1" data-name="Layer 1" xmlns="http://www.w3.org/2000/svg" viewBox="0 0 375 375"><defs><style>.cls-1,.cls-2{fill:none;}.cls-2{opacity:0.3;}.cls-3{fill:#ae84d5;}.cls-4{fill:#fff;}</style></defs><rect class="cls-1" width="375" height="375"/><circle class="cls-2" cx="187.5" cy="187.5" r="143.5"/><g id="outline"><path class="cls-3" d="M65.3,248.25a4.51,4.51,0,0,1-3.31.25,5,5,0,0,1-1.74-1.36,6.52,6.52,0,0,1-1-1.48l-.45-.93v0a.92.92,0,0,0-.38-.4.66.66,0,0,0-.51.07l-1.09.67a4.59,4.59,0,0,1-.78.63,4.23,4.23,0,0,1-.45.23l-.68.27-.55.09-.19,0h0a1.48,1.48,0,0,1-.86-.17h0a2.9,2.9,0,0,1-2-1.73,3.17,3.17,0,0,1,.13-3.05,2.61,2.61,0,0,1,.62-1.28h0a2.1,2.1,0,0,1,.32-.25c.89-.57,1.55-1,2-1.18l.74-.39c.62-.33,1-.53,1.14-.59l.15-.06a2.61,2.61,0,0,1,.41-.15h0l1.86-.67q6-2.23,8.46,2.86a7.56,7.56,0,0,0,.47,1.28l.08.18a5.31,5.31,0,0,1,.34,2.88,4.9,4.9,0,0,1-.53,1.71A3.25,3.25,0,0,1,66,247.89,4.3,4.3,0,0,1,65.3,248.25ZM67.73,244a5.1,5.1,0,0,0-.4-2.91,7.16,7.16,0,0,1-.48-1.31q-2.31-4.67-8.06-2.67l-1.21.42c-.46.16-.86.31-1.19.46,0,0-.18.09-.43.22l-1.5.79-.37.2-.49.28-.35.2a6.68,6.68,0,0,0-.91.64,2.3,2.3,0,0,0-.58,1.45,3.25,3.25,0,0,0,.27,1.57,2.55,2.55,0,0,0,1.78,1.55,1.28,1.28,0,0,0,.68.16l.67-.11c.27-.1.49-.18.67-.26a4.6,4.6,0,0,0,.46-.24l.7-.57c.71-.46,1.1-.7,1.17-.73a.86.86,0,0,1,1.26.45l.46.93a5.88,5.88,0,0,0,1,1.4,4.91,4.91,0,0,0,1.6,1.29,4.34,4.34,0,0,0,3.11-.24,7.31,7.31,0,0,0,.68-.35A3.31,3.31,0,0,0,67.73,244Zm-6.2-2.31a1,1,0,0,1,0-.67.77.77,0,0,1,.4-.51l.66,0H63a.89.89,0,0,1,.7.46c.27.5.09.89-.55,1.17a1.92,1.92,0,0,1-1,.19Zm.68.32a1.38,1.38,0,0,0,.63-.11.62.62,0,0,0-.29-.12,5.09,5.09,0,0,1-.55,0l.13.14Zm-.06-.07,0,0S62.13,241.94,62.15,242Z"/><path class="cls-3" d="M70.59,259.34a3,3,0,0,1-1.51-.31l-.6-.42a2.24,2.24,0,0,1-.68-.65v0a4.48,4.48,0,0,1-.26-1.45,3.72,3.72,0,0,0,0-.62,1.9,1.9,0,0,0-.24-.68,1.66,1.66,0,0,0-.6-.65h0a1.21,1.21,0,0,0-1.26,0,1.71,1.71,0,0,0-.4.33v0c-.28.47-.56.92-.83,1.38a11,11,0,0,1-.91,1.33c-.51.46-.9.8-1.19,1l-.08,0a1.31,1.31,0,0,1-.32.25,2.26,2.26,0,0,1-2,.12,4.24,4.24,0,0,1-2.27-1.88,2.19,2.19,0,0,1-.08-2.32,2.56,2.56,0,0,1,.47-1.29.89.89,0,0,1,.29-.25l.24-.12.24-.12.08,0a.13.13,0,0,1,.06-.05,10.28,10.28,0,0,1,1.09-1l0,.06a.56.56,0,0,1,0-.08s0-.07,0-.11l.68-.43,1.26-.88c.51-.35.94-.63,1.3-.83l.15-.08.05,0c.23-.19.36-.3.4-.32l.2-.11a7.8,7.8,0,0,1,.85-.36l.58-.22A5.85,5.85,0,0,1,66.6,248H67a4.47,4.47,0,0,1,2.56.47,6.91,6.91,0,0,1,1.83,1.2c.31.4.64.8,1,1.18l0,0a10.31,10.31,0,0,1,.8.94,3.21,3.21,0,0,1,.14.29l.06.17c.13.35.21.58.24.67l.25.53a5,5,0,0,1,.17.74,3.21,3.21,0,0,1-.31,1.18,5.25,5.25,0,0,1-.59,1.67,2.87,2.87,0,0,1-.13.38v0a.41.41,0,0,1-.06.11l-.49.54a4.18,4.18,0,0,1-1.06.93,3.17,3.17,0,0,1-.82.3Zm.94-1.58a4,4,0,0,0,1-.85c.22-.25.38-.43.48-.53l.16-.47a3.81,3.81,0,0,0,.59-1.69,1.68,1.68,0,0,0-.16-.66l-.25-.53-.2-.54c-.11-.31-.18-.47-.19-.5l-1.76-2.11a7.1,7.1,0,0,0-1.71-1.11,4.38,4.38,0,0,0-2.4-.44h-.41a6.2,6.2,0,0,0-1.18.44c-.14.07-.38.16-.7.28a4.4,4.4,0,0,0-.73.3l-.18.1-.18.12a.72.72,0,0,0-.14.13.72.72,0,0,1-.14.13,6.19,6.19,0,0,0-.7.41c-1,.68-1.89,1.27-2.59,1.76l-.07.12a9.52,9.52,0,0,0-1.15,1l-.46.25a1.09,1.09,0,0,0-.39.26,1.93,1.93,0,0,0-.42,1,2.47,2.47,0,0,0,.33,1.28,4,4,0,0,0,2.11,1.74,2,2,0,0,0,1.75-.1l.48-.35.4-.32a3.83,3.83,0,0,0,.64-.58,12.29,12.29,0,0,0,1-1.52l.08-.15a9.26,9.26,0,0,1,.63-1,1.79,1.79,0,0,1,.48-.39,1.51,1.51,0,0,1,1.55,0,1.86,1.86,0,0,1,.72.77,2.63,2.63,0,0,1,.3.79,5.72,5.72,0,0,1,0,.7,3.44,3.44,0,0,0,.23,1.28,1.81,1.81,0,0,0,.54.53l.64.43a2.6,2.6,0,0,0,1.27.28A2.79,2.79,0,0,0,71.53,257.76Zm-5.21-8.7.21-.05S66.44,249,66.32,249.06Zm.28-1c.13-.07.2-.08.22,0Z"/><path class="cls-3" d="M73.92,275.34q-1.73,1.21-4-.14a14,14,0,0,1-2.83-2.56l-.12-.25c-.07-.16-.08-.2,0-.15a.92.92,0,0,1-.13-.24l-.4-.67a5.63,5.63,0,0,1-.46-.94l-.16-.46-.26-.69c-.06-.47-.11-.8-.13-1a4.8,4.8,0,0,1,.12-2.07,7.81,7.81,0,0,1,2.24-4.52l.13-.08c.1-.08.26-.2.47-.38a5.07,5.07,0,0,1,.47-.37,6.77,6.77,0,0,1,2.15-1,14,14,0,0,1,1.4-.3c.24-.05.71-.11,1.41-.21a4.72,4.72,0,0,1,2.56.34v0a7.19,7.19,0,0,1,1.77,1.17l1.56,1.47,0,0a2.8,2.8,0,0,1,.65.72,9.58,9.58,0,0,1,.48,1.13v0a3.34,3.34,0,0,1,.13,2.53,3.43,3.43,0,0,1-.77,2.17,7.21,7.21,0,0,1-1.71,1.63,6.71,6.71,0,0,1-.73.46,2.54,2.54,0,0,1-1.23.28,3.4,3.4,0,0,1-1.31-.24q.11.48.12.63a3.4,3.4,0,0,1-.17,1.38A2.79,2.79,0,0,1,73.92,275.34Zm1-3.65a3,3,0,0,0-.54-1.54A5.68,5.68,0,0,0,73.15,269a5.36,5.36,0,0,1-1.27-1.14,2.57,2.57,0,0,1-.46-1.14.4.4,0,0,1,.14-.17.49.49,0,0,1,.35.05,25.77,25.77,0,0,0,2.82,2.67,3.1,3.1,0,0,0,2,.56,2.74,2.74,0,0,0,1-.23c.3-.18.54-.32.7-.44a6,6,0,0,0,2-2.11,3.26,3.26,0,0,0,.08-2.81L80,263.19a3.72,3.72,0,0,0-.58-.65l-1.5-1.41a4.87,4.87,0,0,0-4.12-1.47,21.35,21.35,0,0,0-2.77.5,6.33,6.33,0,0,0-2.3,1.11l-.82.65q-2.46,2.81-2.07,5.26c.06.38.1.71.13,1,.24.64.43,1.13.55,1.44l.83,1.47a.52.52,0,0,1,.07.18,1,1,0,0,0,.07.18A14.31,14.31,0,0,0,70.33,274a3.12,3.12,0,0,0,3.6.1A2.49,2.49,0,0,0,75,271.69Zm.22-6.09a12.67,12.67,0,0,1-1.23-.33.84.84,0,0,1-.21-.21,1.11,1.11,0,0,1-.16-.83,1,1,0,0,1,.42-.73l.21-.11a5.17,5.17,0,0,1,.89-.11l.25.06.25.06c.09.39.17.74.22,1a1,1,0,0,1-.29,1C75.37,265.56,75.26,265.62,75.19,265.6Zm0-.36,0,0a.09.09,0,0,1,0-.05l-.1-.5-.25,0a1.47,1.47,0,0,0-.35,0,2.44,2.44,0,0,0-.53.12l-.08.05,0,.06.09.12.48.13.64.15S75.21,265.26,75.24,265.24Zm-1.14-.5.05,0Z"/><path class="cls-3" d="M87.28,279.32a1.65,1.65,0,0,1-1.11-.23,6.62,6.62,0,0,1-.93-.81,2.27,2.27,0,0,1-.32-.62,2,2,0,0,0-.3-.61.53.53,0,0,0-.14-.11.24.24,0,0,0-.27,0,.86.86,0,0,0-.2.27,2.72,2.72,0,0,1,.34,1,9,9,0,0,1-.08,1.29,14.66,14.66,0,0,1-.36,2.25h0a4.13,4.13,0,0,1-1.2,1.94,6.89,6.89,0,0,1-1.28.83l-.43.12-.1,0h0a4.26,4.26,0,0,1-2.06.18,9.47,9.47,0,0,1-2-.63A6,6,0,0,1,75.15,283c-.16-.16-.35-.36-.55-.6a6.83,6.83,0,0,1-.56-.71,3.42,3.42,0,0,1-.51-2.74,2.38,2.38,0,0,1,.42-1.82,3.47,3.47,0,0,1,.21-.48l.15-.13a3.93,3.93,0,0,1,2.51-.77.54.54,0,0,0,.18.12,1.82,1.82,0,0,1,.83.6,5.72,5.72,0,0,1,.37.49l.07.26c0,.1.06.22.11.36v0a2.92,2.92,0,0,0,.4.65.92.92,0,0,0,.85.3,1.46,1.46,0,0,1-.1-.23v0l-.2-.37a1,1,0,0,0-.1-.21,3.83,3.83,0,0,1-.38-2.7,3.27,3.27,0,0,1,.1-1.06,4,4,0,0,1,1.39-1.81l.12-.11.13-.09,0,0a6.58,6.58,0,0,1,1.48-.73h0a7.18,7.18,0,0,1,2.06-.23H84a3.42,3.42,0,0,1,.88,0,6.67,6.67,0,0,1,1.8,1c.36.26.87.68,1.54,1.25l-.43.43a.21.21,0,0,0,.17.08l.22-.06.17,0a.27.27,0,0,1,.27.12,4.7,4.7,0,0,1,.88,1.72,1.84,1.84,0,0,1-.12,1s0,0,0,0,0,.62-.21,1.43a6.72,6.72,0,0,1-.88,1.09l-.13.11A2,2,0,0,1,87.28,279.32Zm1.1-1.76a2,2,0,0,0,.28-.34l.36-.5a2.85,2.85,0,0,0,.21-1.19,4,4,0,0,0-.83-1.6c-.35-.44-.47-.6-.36-.5-.72-.62-1.22-1-1.5-1.24a6.3,6.3,0,0,0-1.71-.93,2.94,2.94,0,0,0-.75,0,7.6,7.6,0,0,0-2,.21,5.89,5.89,0,0,0-1.4.69,5.72,5.72,0,0,0-.91.88,2.57,2.57,0,0,0-.59.92,2.61,2.61,0,0,0-.07.52,3.31,3.31,0,0,0,.29,1.74c.2.4.33.67.42.81.4.78.38,1.35-.05,1.72a2.38,2.38,0,0,1-1-.15,2.65,2.65,0,0,1-.7-1,2.86,2.86,0,0,1-.18-.58c-.12-.16-.23-.31-.33-.43a1.31,1.31,0,0,0-.71-.5l-.14-.09a3.23,3.23,0,0,0-2.33.77,1.53,1.53,0,0,0-.18.39,2.41,2.41,0,0,0-.34,2.08,4.62,4.62,0,0,0,1,1.88c.17.19.34.38.52.55a5.27,5.27,0,0,0,1.65,1.19,10.05,10.05,0,0,0,1.89.62,4.17,4.17,0,0,0,1.93-.18,3.88,3.88,0,0,1,.53-.14,5.64,5.64,0,0,0,1.15-.77c1-.83,1.46-2.23,1.45-4.19a2.23,2.23,0,0,0-.29-.91,1.9,1.9,0,0,1,.34-1.68.45.45,0,0,1,.42-.1.7.7,0,0,1,.41.24,2,2,0,0,1,.31.62,2.54,2.54,0,0,0,.31.61,8.66,8.66,0,0,0,.89.76,1.36,1.36,0,0,0,.83.18,1.53,1.53,0,0,0,.85-.18A1.72,1.72,0,0,0,88.38,277.56Z"/><path class="cls-3" d="M95.43,287.49a1.68,1.68,0,0,1-1.13-.14,7.58,7.58,0,0,1-1-.72,2.44,2.44,0,0,1-.37-.6,2.3,2.3,0,0,0-.35-.57.58.58,0,0,0-.15-.11.22.22,0,0,0-.26,0,.61.61,0,0,0-.18.28,2.68,2.68,0,0,1,.42,1,8.73,8.73,0,0,1,0,1.29,14.21,14.21,0,0,1-.17,2.27h0a4.12,4.12,0,0,1-1,2,6.58,6.58,0,0,1-1.2.94l-.43.15-.09,0v0a4.25,4.25,0,0,1-2,.36,9.47,9.47,0,0,1-2-.46,5.89,5.89,0,0,1-1.86-1.11c-.17-.14-.37-.32-.6-.55a6.88,6.88,0,0,1-.61-.66,3.4,3.4,0,0,1-.74-2.69,2.42,2.42,0,0,1,.26-1.85,2.74,2.74,0,0,1,.18-.5l.13-.13a3.9,3.9,0,0,1,2.44-1,.8.8,0,0,0,.19.11,1.7,1.7,0,0,1,.87.52q.23.22.42.45l.09.26a2.23,2.23,0,0,0,.14.34v0a2.68,2.68,0,0,0,.45.61.89.89,0,0,0,.87.23,1.64,1.64,0,0,1-.12-.22v0l-.23-.35c0-.05-.06-.12-.11-.2a8.45,8.45,0,0,1-.61-3.73,4,4,0,0,1,1.24-1.92l.12-.11a.47.47,0,0,1,.11-.1l0,0a6.8,6.8,0,0,1,1.41-.86h0a7.89,7.89,0,0,1,2-.4h-.07a4.29,4.29,0,0,1,.87-.09,7,7,0,0,1,1.89.82c.37.23.92.61,1.63,1.13l-.39.46a.24.24,0,0,0,.18.07l.21-.09.17,0a.26.26,0,0,1,.28.1,4.57,4.57,0,0,1,1,1.64,1.92,1.92,0,0,1,0,1,.11.11,0,0,0,0,.05c.13.13.1.61-.1,1.44a6.88,6.88,0,0,1-.77,1.15l-.13.13A2.12,2.12,0,0,1,95.43,287.49Zm.95-1.84a2.8,2.8,0,0,0,.25-.36l.32-.54a2.7,2.7,0,0,0,.1-1.19,3.84,3.84,0,0,0-1-1.53c-.39-.41-.52-.57-.41-.47-.77-.56-1.3-.93-1.6-1.11a6.08,6.08,0,0,0-1.78-.78,2.63,2.63,0,0,0-.74.09,7.15,7.15,0,0,0-1.93.38,5.8,5.8,0,0,0-1.34.8,6.07,6.07,0,0,0-.83.95,2.59,2.59,0,0,0-.51,1,3.76,3.76,0,0,0,.41,2.24c.23.38.39.63.48.77.47.74.5,1.31.1,1.71a2.48,2.48,0,0,1-1-.06,2.73,2.73,0,0,1-.78-.92,3.54,3.54,0,0,1-.23-.56,5,5,0,0,0-.36-.4,1.25,1.25,0,0,0-.75-.44l-.14-.08a3.34,3.34,0,0,0-2.27,1,1.41,1.41,0,0,0-.14.41,2.42,2.42,0,0,0-.17,2.09,4.74,4.74,0,0,0,1.21,1.79,6.52,6.52,0,0,0,.55.5,5.24,5.24,0,0,0,1.75,1.05,9,9,0,0,0,1.93.45,4,4,0,0,0,1.91-.33,2.7,2.7,0,0,1,.52-.18A6,6,0,0,0,91,291c.89-.92,1.26-2.35,1.08-4.3a2.11,2.11,0,0,0-.36-.88,1.44,1.44,0,0,1-.11-.88,1.3,1.3,0,0,1,.31-.82.45.45,0,0,1,.41-.14.69.69,0,0,1,.42.2,2.34,2.34,0,0,1,.37.6,2.52,2.52,0,0,0,.35.58,9.08,9.08,0,0,0,.95.68,1.38,1.38,0,0,0,.85.11,1.53,1.53,0,0,0,.83-.25A1.93,1.93,0,0,0,96.38,285.65Z"/><path class="cls-3" d="M111.8,305.17l-.27.38a5.37,5.37,0,0,1-.35.54,4.48,4.48,0,0,1-1,1,7.43,7.43,0,0,1-3.81,1.45,7.62,7.62,0,0,1-3-.49h0a10.92,10.92,0,0,1-2.63-1.28,7.59,7.59,0,0,1-2.38-2.8,6.28,6.28,0,0,1-.59-2.07,5.16,5.16,0,0,1-.18-1.52,3.94,3.94,0,0,1,.61-2.31l0,0a2.49,2.49,0,0,1,.21-.41,7.55,7.55,0,0,1,1.28-.8l-.05,0c.54-.33,1-.58,1.22-.72a6.83,6.83,0,0,1,1.18-.27,4.29,4.29,0,0,1,2.53.61l-.25-.34A2,2,0,0,1,104,295a.94.94,0,0,1,0-.27,1.73,1.73,0,0,1,.2-1.92l.06-.09.09-.1v0a3.58,3.58,0,0,1,1.65-.83,4.07,4.07,0,0,0,.7,0,4.56,4.56,0,0,1,2.32.76l.07.05a5.84,5.84,0,0,1,.47.42,3.63,3.63,0,0,0,.46.42,10.29,10.29,0,0,1,2.42,2.42l.07.24a4.48,4.48,0,0,1,1,2.61,6,6,0,0,1-.11,3.32,9.74,9.74,0,0,1-1.48,3A.31.31,0,0,0,111.8,305.17Zm1.23-4.88a4.7,4.7,0,0,0-.82-4l-.07-.22a9.82,9.82,0,0,0-2.32-2.32,3.66,3.66,0,0,1-.46-.43,2.81,2.81,0,0,0-.52-.44,5,5,0,0,0-2.16-.72H106a3.23,3.23,0,0,0-1.47.76,1,1,0,0,0-.11.13,1.63,1.63,0,0,0-.32.93,2.25,2.25,0,0,0,1.16,1.86,1.48,1.48,0,0,0,.45.25l1.36.32a4,4,0,0,1,1.16.44,1,1,0,0,1,.24.2.87.87,0,0,1,.3.82,2,2,0,0,1-.28.46c-.24.29-.45.41-.62.37a8.55,8.55,0,0,1-2.32-1.21,8.62,8.62,0,0,0-2.48-1.23,2.57,2.57,0,0,0-.92,0,7.12,7.12,0,0,0-1.11.26,12.52,12.52,0,0,0-1.15.68,5.91,5.91,0,0,0-1.18.71,3.73,3.73,0,0,0-.18.37,3.44,3.44,0,0,0-.59,2.27,6.25,6.25,0,0,0,2.85,5,10.82,10.82,0,0,0,2.55,1.24,8.67,8.67,0,0,0,1.42.35,5.91,5.91,0,0,0,1.45.12,6.86,6.86,0,0,0,2.34-.61,5.29,5.29,0,0,0,2-1.41,7.18,7.18,0,0,0,.52-.72l.4-.62A8.93,8.93,0,0,0,113,300.29ZM105.94,303a1.35,1.35,0,0,1-1.43,0l-.25-.18-.17-.12a1.84,1.84,0,0,1-.61-1,1.36,1.36,0,0,1,.2-1.4,1.69,1.69,0,0,1,1-.44,1.66,1.66,0,0,1,1,.07l.66.37c.8.72,1,1.3.73,1.75A2.91,2.91,0,0,1,105.94,303Zm-.13-.26a2.56,2.56,0,0,0,1-.75l-.43-.44a6.61,6.61,0,0,1-.61-.33,1.43,1.43,0,0,0-.83,0,1.53,1.53,0,0,0-.79.3l-.06.05,0,.06a.78.78,0,0,0-.13.28,1.3,1.3,0,0,0,.4.53l.18.11a.88.88,0,0,0,.22.21A1.06,1.06,0,0,0,105.81,302.76Zm2.44-4.65,0,0a3.12,3.12,0,0,0-1-.39h0l-1-.22a7.33,7.33,0,0,0,1.78.89l.15-.11Z"/><path class="cls-3" d="M125.94,316.76a4.86,4.86,0,0,1-.83.88,2.39,2.39,0,0,1-1.11.44l-.58.07a1.64,1.64,0,0,1-.82,0c-.34-.13-.58-.24-.72-.31a3.07,3.07,0,0,1-.75-.58,13.46,13.46,0,0,1-1.77-2.36c-.38-.77-.66-1.36-.83-1.77a3,3,0,0,0-.69-1.05h0c-.07,0-.2,0-.37.2l-.1.17-.09.16a5.9,5.9,0,0,0-.34.75c-.18.43-.29.68-.33.76a2.05,2.05,0,0,1-2.43,1.06h0a5,5,0,0,1-1.27-.34,1.22,1.22,0,0,1-.24-.18,1.22,1.22,0,0,0-.24-.18,3,3,0,0,1-1-.94c0-.08-.07-.19-.13-.33l0,0a3.21,3.21,0,0,1-.52-1.43,4,4,0,0,1-.08-2.76l.19-.34.17-.32c0-.07.07-.08,0,0l.1-.2a2.1,2.1,0,0,0,.14-.28l.52-.95c.32-.59.66-1.17,1-1.75.83-1.36,1.26-2.09,1.31-2.18l.09-.16c.1-.17.23-.39.41-.66.67-.69,1-1.07,1.12-1.13h0a3.42,3.42,0,0,1,1.47-.79,2.64,2.64,0,0,1,1.61.44,5.29,5.29,0,0,1,.61.5v0a4.37,4.37,0,0,1,1.2,2.2c.44,1.71.67,2.63.71,2.75a1.89,1.89,0,0,0,.82.93,1.06,1.06,0,0,0,.38,0h0a7.26,7.26,0,0,0,.85-.84,6.28,6.28,0,0,1,2.22-1.76,4,4,0,0,1,1.36-.09,3.37,3.37,0,0,1,1.31.3l.06,0a2.24,2.24,0,0,1,1,1.75.54.54,0,0,1,0,.11,3.9,3.9,0,0,1,.21,2.8,12.36,12.36,0,0,1-.67,1.79l-.09.19c-.44,1-.71,1.66-.82,2l-1.36,2.49A7.92,7.92,0,0,1,125.94,316.76Zm1.5-4.62.91-2.15c.33-.8.54-1.33.62-1.61a4.26,4.26,0,0,0,.12-1.88,2.1,2.1,0,0,0-.9-1.57,2.48,2.48,0,0,0-1.19-.3,3.61,3.61,0,0,0-1.29.09,6,6,0,0,0-2.08,1.68,5,5,0,0,1-1,.92,1.08,1.08,0,0,1-.55,0,2.37,2.37,0,0,1-1.15-1.62q-.39-1.67-.51-2.25a3.71,3.71,0,0,0-1.13-2c-.32-.28-.5-.43-.55-.46a2.4,2.4,0,0,0-1.38-.41,3.33,3.33,0,0,0-1.36.72c-.47.46-.81.8-1,1.05s-.41.67-.5.82l-1.32,2.18c-.5.83-.92,1.56-1.27,2.22s-.65,1.22-.87,1.6a3.3,3.3,0,0,0,.26,2.92c.06.14.11.24.13.31a3.21,3.21,0,0,0,.86.81,1.22,1.22,0,0,1,.23.18,1.67,1.67,0,0,0,.23.18,5.76,5.76,0,0,0,1.2.31,1.84,1.84,0,0,0,2.11-.91,3,3,0,0,0,.13-.29l.18-.45a7.31,7.31,0,0,1,.36-.78l.09-.17a1.3,1.3,0,0,1,.4-.41.43.43,0,0,1,.53,0,3.57,3.57,0,0,1,.79,1.17l.83,1.75a13.17,13.17,0,0,0,1.83,2.41,3.67,3.67,0,0,0,1.24.7,1.89,1.89,0,0,0,.62.05l.63-.09a2.08,2.08,0,0,0,1.14-.52,6.49,6.49,0,0,0,1.31-1.66Z"/><path class="cls-3" d="M138.93,323.19a3.46,3.46,0,0,1-.72.58c-.42.27-.75.47-1,.61l-.29.16a9.74,9.74,0,0,1-5.47-.56,4.74,4.74,0,0,1-.65-.3,8.22,8.22,0,0,1-1.91-1.37,6,6,0,0,1-1.24-2.08,5.29,5.29,0,0,1-.55-1.45,3,3,0,0,1,.07-1,4.68,4.68,0,0,1,.22-1l.07-.17a4.76,4.76,0,0,1,.64-1.07h0l.35-.47.46-.61a5.27,5.27,0,0,1,1.07-.81,2.34,2.34,0,0,1,1.48-.41c1.26.37,2.21.64,2.84.81a7.26,7.26,0,0,0,.78-.13.1.1,0,0,0,.1-.08,2.19,2.19,0,0,0,.08-.6.38.38,0,0,1,0-.14V313a3.77,3.77,0,0,1,0-.77v0a5.62,5.62,0,0,1,.36-1.38c.67-1.64,1.61-2.21,2.85-1.71l.14.06a3.87,3.87,0,0,1,1.67,1.55,5.64,5.64,0,0,1,.69,1.44,6.45,6.45,0,0,1,.6,1.81v0c.11.81.17,1.41.19,1.82a15.63,15.63,0,0,1-1.1,4.35,10.63,10.63,0,0,1-1.74,3Zm1.06-4.1a15.7,15.7,0,0,0,1.08-4.26c-.1-1-.16-1.54-.19-1.74a4.78,4.78,0,0,0-.76-2.07,3.75,3.75,0,0,0-1.6-1.5c-1.11-.54-2,0-2.59,1.49a6.45,6.45,0,0,0-.4,2.2,3,3,0,0,1-.1.76.4.4,0,0,1-.32.27,4.39,4.39,0,0,1-.91.13c-1.25-.33-2.19-.6-2.82-.8a2,2,0,0,0-1.27.36,5,5,0,0,0-1.06.8c-.36.49-.6.82-.72,1a4.14,4.14,0,0,0-.7,1.27,5.38,5.38,0,0,0-.25,1.7,5.08,5.08,0,0,0,1.3,2.43,8.89,8.89,0,0,0,1.83,1.31c.13.07.34.17.63.29a9.46,9.46,0,0,0,5.28.55l.45-.26a7.23,7.23,0,0,0,1.42-1A10.27,10.27,0,0,0,140,319.09Zm-5.61.28a1.79,1.79,0,0,1-.61-.1,1.68,1.68,0,0,1-.32-.09,2.28,2.28,0,0,1-.95-.76,3.11,3.11,0,0,1,.1-1.51,1.75,1.75,0,0,1,.63-.75,2,2,0,0,1,1.06,0,.71.71,0,0,1,.28.07,1.7,1.7,0,0,1,1.06,1.22,1.72,1.72,0,0,1-.11,1.1,1.43,1.43,0,0,1-.58.76A1.18,1.18,0,0,1,134.38,319.37Zm.41-.33a1.24,1.24,0,0,0,.45-.61,1.58,1.58,0,0,0,.13-.63,1.45,1.45,0,0,0-.5-.33.34.34,0,0,0-.13,0,2.7,2.7,0,0,0-.92,0,1.26,1.26,0,0,0-.52.61,1.55,1.55,0,0,0-.14.67,2.1,2.1,0,0,0,.42.24,3,3,0,0,0,.81.16h0a1.38,1.38,0,0,0,.44-.05Z"/><path class="cls-3" d="M162.69,330.23a1.79,1.79,0,0,1-.76.52h0l-.42.16a5.69,5.69,0,0,1-.82.05,4.94,4.94,0,0,1-1.35-.1,1.37,1.37,0,0,1-.7-.36,2.87,2.87,0,0,1-.66-1,2.81,2.81,0,0,1-.68-1.23l-.18-.89a2,2,0,0,1,0-.27l-.19-.72a1.06,1.06,0,0,1,0-.19.75.75,0,0,0-.38-.22c-.34-.08-.57.12-.68.61a2.83,2.83,0,0,0-.05.5v0a7,7,0,0,1-.11,1.78l0,.16a.58.58,0,0,1,0,.14h0a2,2,0,0,1-.6.91,2.78,2.78,0,0,1-2.64.73l-.17,0a2.34,2.34,0,0,1-1.13-.66,3.25,3.25,0,0,1-.78-1.12,2.62,2.62,0,0,1-.74-1.53l-.05-.5c0-.33-.07-.55-.08-.67a12.62,12.62,0,0,1,0-2.64c.16-1.65.25-2.54.26-2.68,0-.5.07-1,.14-1.45l.14-1c.06-.4.12-.74.18-1l0-.16a4,4,0,0,1,1.67-2.45,2.37,2.37,0,0,1,1.94-.52,2.68,2.68,0,0,1,1.34.8,2.43,2.43,0,0,1,.6.92,2.06,2.06,0,0,1,.65,1.38,5.79,5.79,0,0,1,.18.68,6.44,6.44,0,0,0-.18,1.35h0a1.63,1.63,0,0,0,.36.13,5.18,5.18,0,0,0,1,.08h1a2.1,2.1,0,0,1,.41.06,4.58,4.58,0,0,1,2.79,1.68l.07,0,.08,0a8.41,8.41,0,0,1,.58.88.11.11,0,0,0,0,.07,3.63,3.63,0,0,1,.27.37l.28.46c.08.25.13.41.16.48l.2.75c0,.23,0,.37,0,.43v.16a10.69,10.69,0,0,1-.1,3.33,4.36,4.36,0,0,1-.82,1.81Zm-.05-2.77a10.69,10.69,0,0,0,.09-3.28,3.91,3.91,0,0,0,0-.49c-.15-.57-.26-1-.33-1.18a7.47,7.47,0,0,0-.49-.76.68.68,0,0,1-.17-.08,4.38,4.38,0,0,0-2.65-1.61,7.21,7.21,0,0,0-1.35-.07,5.68,5.68,0,0,1-1.08-.07,1.45,1.45,0,0,1-1.11-.88,1.14,1.14,0,0,1-.05-.47c0-.15,0-.23,0-.26a7.85,7.85,0,0,1,.16-1.06,5.9,5.9,0,0,0-.17-.65,1.74,1.74,0,0,0-.56-1.22,2.46,2.46,0,0,0-1.22-.73,2.13,2.13,0,0,0-1.7.47,3.58,3.58,0,0,0-1.59,2.42c-.16,1-.27,1.64-.32,2-.08.89-.13,1.6-.15,2.1-.09,1-.17,1.68-.23,2.15a11.12,11.12,0,0,0-.08,1.93c0,.37.08,1,.17,1.9a3,3,0,0,0,.69,1.24,2.18,2.18,0,0,0,1.15.71l.15,0a2.48,2.48,0,0,0,1.38-.07,2.19,2.19,0,0,0,1.51-1.37,6.06,6.06,0,0,0,.18-2,1.69,1.69,0,0,1,.08-.67c.18-.6.51-.84,1-.73a1.42,1.42,0,0,1,.81.61,2.16,2.16,0,0,1,.42,1l.19.72c.13.55.2.93.23,1.13a2.13,2.13,0,0,0,.39.84,1.49,1.49,0,0,0,.85.62,10.06,10.06,0,0,0,1.74.11,1.73,1.73,0,0,0,.69-.21,1.79,1.79,0,0,0,.6-.41A4,4,0,0,0,162.64,327.46Z"/><path class="cls-3" d="M179.39,325.44c0,.89-.06,1.64-.13,2.27a9.07,9.07,0,0,1-.7,2.77,2.73,2.73,0,0,1-.1.48c-.83,1.6-2.56,2.64-5.19,3.14a5.82,5.82,0,0,1-1.68,0,7.33,7.33,0,0,1-2.08-.54c-.5-.21-.85-.37-1-.47a5.31,5.31,0,0,1-2.17-1.88,5.2,5.2,0,0,1-1.42-2.37,6.55,6.55,0,0,1-.39-2.76v-.07a21.65,21.65,0,0,1,1.31-4.72v0a2.59,2.59,0,0,1,.66-.88h0a6.67,6.67,0,0,0,.7-.8,4.63,4.63,0,0,1,3.86-2.05l.27,0q1.63.18,2.1.27a5,5,0,0,1,1.92.8l.24.1.18.06a4.64,4.64,0,0,1,1.58,1.44,3.79,3.79,0,0,1,.58.74l.52.8a3.25,3.25,0,0,1,.28.45,11.08,11.08,0,0,1,.5,2.27,3.89,3.89,0,0,1,.22.78Zm-1.18-1.6a9.9,9.9,0,0,0-.52-2.29.86.86,0,0,0-.13-.21l-.12-.15a3.93,3.93,0,0,0-1.85-2l-.24-.09-.19-.06a4.18,4.18,0,0,0-2-.81c-1.27-.19-2-.28-2.14-.27a4.27,4.27,0,0,0-3.6,1.92c-.09.11-.33.38-.72.8a2.74,2.74,0,0,0-.6.78,22.25,22.25,0,0,0-1.28,4.64,5.84,5.84,0,0,0,.38,2.74,5.64,5.64,0,0,0,1.69,2.54,9.78,9.78,0,0,0,2.1,1.14,7.1,7.1,0,0,0,2,.52,5.47,5.47,0,0,0,1.58,0c2.53-.48,4.18-1.46,5-3a2.53,2.53,0,0,0,.09-.45,8.68,8.68,0,0,0,.7-2.72c0-.13,0-.36,0-.7l.08-1.55A3.58,3.58,0,0,0,178.21,323.84Zm-5.3,3.42a2.4,2.4,0,0,1-1.53.55,7.08,7.08,0,0,1-1.17-.32,1.77,1.77,0,0,1-1-2.05,1.91,1.91,0,0,1,.24-.83,2.64,2.64,0,0,1,1.45-1.28,6.43,6.43,0,0,1,1.25-.05,1.71,1.71,0,0,1,1.31.79,2.68,2.68,0,0,1,.3.85,2,2,0,0,1,.1,1A2.5,2.5,0,0,1,172.91,327.26Zm-.18-.25a2.29,2.29,0,0,0,.86-1.15v0a2.64,2.64,0,0,0-.11-.83l-.12-.42a1.64,1.64,0,0,0-.57-.16h-.38l-.8.07a2.48,2.48,0,0,0-1.23,1.14,1.6,1.6,0,0,0-.19.7,3.64,3.64,0,0,0,0,.87l.14.05a6.7,6.7,0,0,0,1.08.29A2.12,2.12,0,0,0,172.73,327Zm-1.11-2.55h0Z"/><path class="cls-3" d="M191.18,329.77a4.08,4.08,0,0,1-.17,2.74c-.63,1.66-2.36,2.47-5.17,2.43-.35,0-.75,0-1.19-.07-1.64-.14-2.75-.64-3.31-1.52a2.63,2.63,0,0,1-.78-.84l0,0s0-.06-.06-.14c-.1-.39-.17-.67-.21-.85a12.7,12.7,0,0,1-.24-2.77v-.19a16.68,16.68,0,0,1,.24-2.51c.18-1.1.32-1.93.41-2.48v0c0-.11,0-.2,0-.27l.26-3a3.55,3.55,0,0,0,.25-.83,1.16,1.16,0,0,1,.37-.11l.07,0a2.55,2.55,0,0,1,2-.8,2.77,2.77,0,0,1,1.26.34,2.13,2.13,0,0,1,.91.87,2.55,2.55,0,0,1,.56.5,4.31,4.31,0,0,1,.77,2.39v0a3.87,3.87,0,0,1,0,.62,21.08,21.08,0,0,1-.33,2.72v.12a6.57,6.57,0,0,0,.11,1.14v0c.26,0,.57,0,.93,0a6.33,6.33,0,0,1,1.2.41,3.64,3.64,0,0,1,.8.63l.73.76h0a3.16,3.16,0,0,1,.51.58Zm-1.5-1.22A2.52,2.52,0,0,0,189,328a5.76,5.76,0,0,0-1.13-.38l-.69-.05h-.51a.73.73,0,0,1-.42-.23c0-.05-.12-.19-.26-.41a1.1,1.1,0,0,1,0-.39,5.29,5.29,0,0,1-.12-1.31l.07-.49c.17-1.24.26-2,.26-2.23s0-.34,0-.57a4.38,4.38,0,0,0-.7-2.22,2.34,2.34,0,0,0-1.78-.84,2.3,2.3,0,0,0-1.87.86.2.2,0,0,0-.15-.06h-.09a2.75,2.75,0,0,1-.24.75l-.15,1.85c-.07.9-.14,1.58-.21,2l-.28,1.86a20.57,20.57,0,0,0-.27,2.44,11,11,0,0,0,.24,2.89c.12.51.19.8.2.87.5.84,1.54,1.32,3.11,1.46.43,0,.82.06,1.18.06,2.67.05,4.3-.7,4.88-2.23a4.26,4.26,0,0,0,.31-1.46,3.68,3.68,0,0,0-.15-1.1A3.51,3.51,0,0,0,189.68,328.55Z"/><path class="cls-3" d="M205.3,330.49a3.9,3.9,0,0,1-.38.85c-.26.42-.46.75-.63,1l-.18.27a9.77,9.77,0,0,1-5.14,2,5.15,5.15,0,0,1-.72,0,8.43,8.43,0,0,1-2.32-.37,5.94,5.94,0,0,1-2.05-1.3,5,5,0,0,1-1.14-1.05,3.14,3.14,0,0,1-.39-.92,5,5,0,0,1-.25-1v-.18a4.74,4.74,0,0,1,.09-1.24v0c0-.28.08-.47.1-.58l.13-.75A5.67,5.67,0,0,1,193,326a2.33,2.33,0,0,1,1.13-1c1.29-.23,2.26-.42,2.9-.55a7.18,7.18,0,0,0,.64-.48s.06-.05.05-.11a2,2,0,0,0-.19-.57.53.53,0,0,1-.06-.13l-.06-.11h0a4.69,4.69,0,0,1-.3-.71v0a5.93,5.93,0,0,1-.29-1.39c-.15-1.77.44-2.7,1.77-2.81h.15a3.81,3.81,0,0,1,2.19.63,6,6,0,0,1,1.27,1,6.25,6.25,0,0,1,1.34,1.35l0,0c.46.68.79,1.19,1,1.55a16.08,16.08,0,0,1,1,4.37,10.63,10.63,0,0,1-.21,3.47Zm-.9-4.14a15.08,15.08,0,0,0-1-4.28c-.52-.82-.83-1.31-.95-1.48a4.84,4.84,0,0,0-1.61-1.5,3.84,3.84,0,0,0-2.1-.63c-1.23,0-1.78.86-1.64,2.5a6.33,6.33,0,0,0,.63,2.15,2.92,2.92,0,0,1,.25.73.36.36,0,0,1-.16.37,3.48,3.48,0,0,1-.76.53c-1.26.27-2.22.45-2.87.56a2,2,0,0,0-1,.89,5.23,5.23,0,0,0-.58,1.19c-.1.6-.17,1-.2,1.22a3.8,3.8,0,0,0,0,1.45,5,5,0,0,0,.54,1.63,5.2,5.2,0,0,0,2.25,1.59,9.28,9.28,0,0,0,2.23.34,4.76,4.76,0,0,0,.69,0,9.39,9.39,0,0,0,5-1.88l.28-.43a7.17,7.17,0,0,0,.82-1.55A10.24,10.24,0,0,0,204.4,326.35Zm-4.89,2.78a1.6,1.6,0,0,1-.58.19,1.91,1.91,0,0,1-.33.06,2.25,2.25,0,0,1-1.19-.25,3.06,3.06,0,0,1-.59-1.4,1.64,1.64,0,0,1,.23-1c.07-.14.39-.3.93-.48a.72.72,0,0,1,.28-.07,1.73,1.73,0,0,1,1.9,1.65,1.33,1.33,0,0,1-.18.93A1,1,0,0,1,199.51,329.13Zm.22-.48a1.24,1.24,0,0,0,.13-.75,1.59,1.59,0,0,0-.17-.62,1.35,1.35,0,0,0-.59-.07l-.13,0a2.83,2.83,0,0,0-.85.37,1.33,1.33,0,0,0-.19.78,1.69,1.69,0,0,0,.18.67,2.5,2.5,0,0,0,.48,0,2.78,2.78,0,0,0,.8-.22l0,0c.22-.12.35-.2.37-.25Z"/><path class="cls-3" d="M227.09,326.71a3.57,3.57,0,0,0,0,.55,2.49,2.49,0,0,1-.4,1.23h0a3.64,3.64,0,0,1-.6.79,4.86,4.86,0,0,1-2,1.13l-.25.06a7.88,7.88,0,0,1-3.54.08c-.11-.07-.24-.13-.38-.2l-.14-.09a2.89,2.89,0,0,1-.62-.41.38.38,0,0,1-.14-.06l-.15-.08a3.45,3.45,0,0,1-1.83-2.42c0-.1-.05-.26-.08-.46a1,1,0,0,1,0-.15l0-.13-.35,0a1.5,1.5,0,0,1-1.39-.54c-.7-.11-1.18-.71-1.44-1.79a3.08,3.08,0,0,1-.08-.53,1.76,1.76,0,0,0,.13-.36v0a2.37,2.37,0,0,1,1.73-1.77,2,2,0,0,0-.05-.49,4.12,4.12,0,0,0-.33-.83h0a3.62,3.62,0,0,1-.32-.9,8.23,8.23,0,0,1-.21-1.24c.05-.19.08-.34.11-.44v.06a2.71,2.71,0,0,1,.43-1.49,2,2,0,0,1,1.2-.85l.41-.08a2.35,2.35,0,0,1,1.72.63,3.77,3.77,0,0,1,1,.61,2.29,2.29,0,0,1,.53.72v0a3.2,3.2,0,0,1,.38.85,6.42,6.42,0,0,1,.23,1.61v.14a.44.44,0,0,0,.15,0,1.57,1.57,0,0,1,1.59.56,1.43,1.43,0,0,1,1.2,1.21,3.82,3.82,0,0,1,.08.83,1.91,1.91,0,0,1,1.52.62,3,3,0,0,1,1.85,2.36,2.53,2.53,0,0,1,.09.55C227,326.22,227.07,326.45,227.09,326.71ZM225.73,325a3.54,3.54,0,0,0-.8-1.61,1.54,1.54,0,0,0-1.6-.56.41.41,0,0,0-.21.1,1.55,1.55,0,0,0-.68.7,3.79,3.79,0,0,0-.13.4c-.18.59-.39.91-.62,1a.44.44,0,0,1-.25,0c-.51-.16-.78-.37-.79-.61a.59.59,0,0,1,.19-.46c.47-.36.77-.6.9-.71a1.87,1.87,0,0,0,.54-2,1.22,1.22,0,0,0-1.54-1l-.65.06a.64.64,0,0,1-.56-.25,1.24,1.24,0,0,1-.19-.79,6.21,6.21,0,0,0-.23-1.53,3.44,3.44,0,0,0-.33-.77,2.11,2.11,0,0,0-.47-.63,2.48,2.48,0,0,0-1.15-.61,2.69,2.69,0,0,0-1.14.19,1.58,1.58,0,0,0-.78.79,2.37,2.37,0,0,0-.27,1.13l-.05.23c0,.07,0,.13,0,.18.05.43.11.81.18,1.13a6.27,6.27,0,0,0,.32.87,6.78,6.78,0,0,1,.32.87,2.12,2.12,0,0,1,.05.78,2.19,2.19,0,0,0-1.73,1.62,1.52,1.52,0,0,1-.1.32,3.2,3.2,0,0,0,.26,1,1.28,1.28,0,0,0,1.41.95,6.78,6.78,0,0,1,.94-.08.71.71,0,0,1,.6.63,4.41,4.41,0,0,1,.08.47c0,.2.06.36.08.46a3.16,3.16,0,0,0,1.68,2.22l.48.27a7.4,7.4,0,0,0,2.13.11,6.69,6.69,0,0,0,1.68-.32,5.23,5.23,0,0,0,1.73-1,3,3,0,0,0,.52-.68,2.07,2.07,0,0,0,.32-.73c0-.44,0-.75,0-.91s0-.51-.07-.7A2.6,2.6,0,0,0,225.73,325Z"/><path class="cls-3" d="M242.53,321.52a1.78,1.78,0,0,1-.37.85v0l-.27.37a6.8,6.8,0,0,1-.67.48,5.54,5.54,0,0,1-1.2.63,1.44,1.44,0,0,1-.78.07,2.94,2.94,0,0,1-1.09-.49,2.72,2.72,0,0,1-1.22-.68l-.63-.65-.19-.21-.54-.51a.7.7,0,0,1-.15-.14.8.8,0,0,0-.44,0c-.33.11-.41.41-.24.88a1.88,1.88,0,0,0,.22.45v0a7.46,7.46,0,0,1,.86,1.56l.06.16,0,.14h0a2,2,0,0,1,0,1.09,2.77,2.77,0,0,1-1.84,2l-.17.06a2.39,2.39,0,0,1-1.31.05,3.44,3.44,0,0,1-1.26-.54,2.58,2.58,0,0,1-1.43-.91l-.32-.39-.42-.52a12.84,12.84,0,0,1-1.36-2.27l-1.21-2.41c-.24-.43-.45-.86-.65-1.29l-.41-.93c-.16-.36-.29-.68-.38-.94l-.05-.16a4,4,0,0,1,.1-3,2.43,2.43,0,0,1,1.38-1.47,2.73,2.73,0,0,1,1.56,0,2.59,2.59,0,0,1,1,.46,2.06,2.06,0,0,1,1.28.82,5.4,5.4,0,0,1,.52.49,6.53,6.53,0,0,0,.57,1.23h0a1.12,1.12,0,0,0,.37-.08,5.09,5.09,0,0,0,.89-.46l.85-.54a1.91,1.91,0,0,1,.39-.17,4.59,4.59,0,0,1,3.26-.06h.07l.08,0a8.65,8.65,0,0,1,1,.43.12.12,0,0,0,0,.05,4.29,4.29,0,0,1,.43.17l.48.24.39.32.57.53.24.36.07.13a11,11,0,0,1,1.69,2.88,4.59,4.59,0,0,1,.27,2ZM241,319.21a10.86,10.86,0,0,0-1.67-2.83l-.26-.42c-.43-.4-.73-.67-.91-.82a7.33,7.33,0,0,0-.82-.38.45.45,0,0,1-.19,0,4.37,4.37,0,0,0-3.1.05,7.29,7.29,0,0,0-1.18.66,5.14,5.14,0,0,1-.95.51,1.46,1.46,0,0,1-1.41-.15,1.21,1.21,0,0,1-.29-.38c-.07-.12-.12-.19-.13-.22a6,6,0,0,1-.42-1,4.79,4.79,0,0,0-.5-.46,1.73,1.73,0,0,0-1.12-.74,2.43,2.43,0,0,0-1.42,0,2.19,2.19,0,0,0-1.2,1.3,3.62,3.62,0,0,0,0,2.9c.39.92.65,1.53.78,1.86.41.8.75,1.42,1,1.86.43.86.75,1.51.94,1.94a14.38,14.38,0,0,0,1,1.68c.21.3.6.8,1.16,1.51a3,3,0,0,0,1.24.69,2.25,2.25,0,0,0,1.36,0l.14-.06a2.42,2.42,0,0,0,1.13-.8,2.19,2.19,0,0,0,.55-2,6.19,6.19,0,0,0-.9-1.75,1.88,1.88,0,0,1-.28-.61c-.17-.6,0-1,.45-1.15a1.48,1.48,0,0,1,1,.08,2.16,2.16,0,0,1,.86.59l.55.51c.39.4.66.67.79.83a2.06,2.06,0,0,0,.78.5,1.48,1.48,0,0,0,1,.08,10.15,10.15,0,0,0,1.54-.83,1.72,1.72,0,0,0,.47-.55,1.86,1.86,0,0,0,.29-.66A4,4,0,0,0,241,319.21Z"/><path class="cls-3" d="M256.54,313.42a3.46,3.46,0,0,1-.76,3.94,13.78,13.78,0,0,1-3,2.39l-.26.08c-.17.05-.22.05-.15,0l-.26.09-.73.29a6.34,6.34,0,0,1-1,.31l-.48.08-.72.15-1,0a4.93,4.93,0,0,1-2-.45,7.73,7.73,0,0,1-4.11-2.91l-.07-.14a5.07,5.07,0,0,0-.3-.52,5.66,5.66,0,0,1-.29-.52,7.07,7.07,0,0,1-.63-2.28,13.09,13.09,0,0,1-.08-1.43c0-.25,0-.72,0-1.43a4.71,4.71,0,0,1,.73-2.48h0a6.76,6.76,0,0,1,1.43-1.56l1.69-1.32,0,0a3,3,0,0,1,.81-.53c.07,0,.47-.13,1.19-.3h0a3.29,3.29,0,0,1,2.52.27,3.36,3.36,0,0,1,2,1.1,7,7,0,0,1,1.35,1.94c.14.28.25.55.35.8a2.7,2.7,0,0,1,.06,1.29,3.4,3.4,0,0,1-.43,1.21c.33,0,.54,0,.64,0a3.32,3.32,0,0,1,1.34.38A2.75,2.75,0,0,1,256.54,313.42Zm-3.44-1.61a2.82,2.82,0,0,0-1.6.3,5.46,5.46,0,0,0-1.33,1.08,5.46,5.46,0,0,1-1.33,1.08,2.51,2.51,0,0,1-1.2.27.43.43,0,0,1-.14-.16c0-.18,0-.29.1-.34a24.63,24.63,0,0,0,3.08-2.37,3.15,3.15,0,0,0,.86-1.89,2.26,2.26,0,0,0-.07-1,7.29,7.29,0,0,0-.32-.76,5.9,5.9,0,0,0-1.78-2.28,3.24,3.24,0,0,0-2.76-.53l-1.12.28a3.51,3.51,0,0,0-.73.48l-1.62,1.26a4.83,4.83,0,0,0-2.1,3.84,23.93,23.93,0,0,0,.05,2.81,6.62,6.62,0,0,0,.74,2.44c.24.41.41.72.52.92q2.39,2.86,4.87,2.86c.39,0,.71,0,1,0l1.51-.32,1.58-.59a.61.61,0,0,1,.19,0,.56.56,0,0,0,.19-.05,14.08,14.08,0,0,0,2.94-2.38,3.13,3.13,0,0,0,.66-3.55A2.51,2.51,0,0,0,253.1,311.81Zm-6-1.17c-.23.57-.41,1-.52,1.17a1,1,0,0,1-.24.17,1.12,1.12,0,0,1-.85,0,1,1,0,0,1-.65-.54.83.83,0,0,1-.07-.21,4.08,4.08,0,0,1,0-.9l.09-.24a1.8,1.8,0,0,0,.1-.24c.41,0,.76-.05,1.06-.05a1,1,0,0,1,.92.44C247.11,310.46,247.15,310.58,247.12,310.64Zm-.35-.1,0,0h-.55l-.09.24a3.27,3.27,0,0,0,0,.35,1.84,1.84,0,0,0,0,.55l0,.08.07,0a.48.48,0,0,0,.12-.08,4,4,0,0,0,.2-.45l.26-.61S246.79,310.57,246.77,310.54Zm-.67,1v-.06A.13.13,0,0,0,246.1,311.59Z"/><path class="cls-3" d="M273,302.1l0-.06,0,.07,0,.05a4,4,0,0,1,.56,2.84,5.87,5.87,0,0,1-1.06,2.76h0a4.58,4.58,0,0,1-1.2,1.16,4.78,4.78,0,0,1-4,.88l-.35-.08-.16,0a3.64,3.64,0,0,1-2.23-.91c-.32-.32-.67-.69-1-1.11l0-.07a8.74,8.74,0,0,1-.49-.86c-.45-.84-.85-1.64-1.21-2.4q-1.18-2.52-2.14-5a2.09,2.09,0,0,0-.12-1,1.94,1.94,0,0,1,0-.93,1.41,1.41,0,0,1,.29-.36,2.51,2.51,0,0,1,.38-.36l.12-.09a2.47,2.47,0,0,1,1.39-.45,1.12,1.12,0,0,1,.64.23l.4,0c.39,0,.82.27,1.3.85a2.65,2.65,0,0,1,.62.63l1.42,2.58.08,0,0,0a3.63,3.63,0,0,0,.41-.23c1.32-.79,2.38-1,3.19-.6,1-.1,2,.59,3,2.08l.11.16A.78.78,0,0,1,273,302.1ZM269.78,300a2.66,2.66,0,0,0-2.73.25l-.39.23c-.88.55-1.52.55-1.91,0a7.34,7.34,0,0,0-.37-.69c-.67-1.23-1-1.87-1-1.91a1.71,1.71,0,0,0-.59-.58c-.41-.52-.76-.77-1.08-.76a2.18,2.18,0,0,0-1.22.39l-.18.14c-.31.32-.48.51-.51.55a1.72,1.72,0,0,0,0,.7,2.67,2.67,0,0,1,.15,1.06,72.75,72.75,0,0,0,3.3,7.26,6.8,6.8,0,0,0,.51.89,9.71,9.71,0,0,0,1.25,1.26,3.6,3.6,0,0,0,1.68.63,4.75,4.75,0,0,0,3.4-.89,5,5,0,0,0,1.12-1.09,5.54,5.54,0,0,0,1-2.59,3.69,3.69,0,0,0-.5-2.66.48.48,0,0,1-.05-.12.23.23,0,0,0,0-.11A5.55,5.55,0,0,0,269.78,300ZM268,305.32c-.6.45-1.14.33-1.6-.34a1.85,1.85,0,0,1-.34-1.09c.1-.12.18-.2.23-.25a.68.68,0,0,0,0-.21,1.25,1.25,0,0,1,.34-.43.87.87,0,0,1,.93,0,1.78,1.78,0,0,1,.77.61C268.62,304.05,268.5,304.61,268,305.32Zm-.18-1.82-.15.21a3.4,3.4,0,0,1-.12.36l0,0-.11.11a1.6,1.6,0,0,0,.28.8l.08.12c.43-.59.55-1,.36-1.31A1.5,1.5,0,0,0,267.78,303.5Z"/><path class="cls-3" d="M282,288.18c.19.21.35.4.5.58a9.89,9.89,0,0,1,2.69,6.69v0a2.59,2.59,0,0,1-.05.37l-.17.85a4.89,4.89,0,0,1-1.58,2.92l-.07.05a12.72,12.72,0,0,1-1.15.83,7.46,7.46,0,0,1-3.92,1.55c-.35,0-.84,0-1.49-.1a8.66,8.66,0,0,1-2.76-.53l-.34-.3,0,0a5.73,5.73,0,0,1-1.55-1.38,18,18,0,0,1-1.35-2,24.31,24.31,0,0,0-1.38-2.11,8.62,8.62,0,0,1-.92-1.46h0a3.79,3.79,0,0,1-.34-1.8,2.92,2.92,0,0,1,1.07-2.23,2.2,2.2,0,0,1,2.17-.53,2.33,2.33,0,0,1,1.2.12l.08.09a2.07,2.07,0,0,0,.3.26,3.49,3.49,0,0,1,.73.66,7,7,0,0,1,.89,1.42v0c.31.59.53,1,.67,1.34v0a9.13,9.13,0,0,0,.53.87c.32.49.56.83.71,1l.13.15a5.51,5.51,0,0,0,.78.75,2.9,2.9,0,0,0,.47-.16s.05,0,.09-.06l.07,0,.08-.09,0,0a1.52,1.52,0,0,0,.23-.36v0a3.52,3.52,0,0,0-.13-.9h0a5.77,5.77,0,0,0-.83-1.86l-1.15-1.36-.17-.16-.17-.17-.08-.09a.64.64,0,0,1-.58-.18q-.51-.51-.72-.75t-.45-.6a2.35,2.35,0,0,1,0-.27,3.09,3.09,0,0,1,0-1.25v0a2.92,2.92,0,0,1,.89-1.25,3.62,3.62,0,0,1,1.9-.84h0a3.19,3.19,0,0,1,1.35,0,2.86,2.86,0,0,1,1.68.36A9.1,9.1,0,0,1,282,288.18Zm-3.36-1.64a2.7,2.7,0,0,0-1.82-.29,3.54,3.54,0,0,0-1.7.78,2.82,2.82,0,0,0-.8,1.11,1.51,1.51,0,0,0,0,.81,3.07,3.07,0,0,1,.06.51,6.6,6.6,0,0,0,1.08,1.22.37.37,0,0,0,.43.05,2.23,2.23,0,0,1,.33.33c.31.33.42.44.34.34l1.08,1.28a7.18,7.18,0,0,1,.73,1.44,2.74,2.74,0,0,1,.27,1.55,1.36,1.36,0,0,1-.25.42,1.07,1.07,0,0,1-.37.29q-1.16.42-1.53.21a5.18,5.18,0,0,1-1.39-1.34,12.9,12.9,0,0,1-1-1.5l-.83-1.61a6.25,6.25,0,0,0-.84-1.29l-1.06-1a1.71,1.71,0,0,0-1-.06,2.67,2.67,0,0,0-.89.54,2.71,2.71,0,0,0-1,1.68,3.53,3.53,0,0,0,.28,2,7.1,7.1,0,0,0,.89,1.39c.28.36.74,1.07,1.4,2.14a17.79,17.79,0,0,0,1.32,1.95,5.48,5.48,0,0,0,1.46,1.31l.36.29a7.26,7.26,0,0,0,3,.48,7.36,7.36,0,0,0,3.74-1.5,14,14,0,0,0,1.2-.86,5,5,0,0,0,1.48-2.75q.21-1,.21-1.14a9.67,9.67,0,0,0-2.61-6.5q-.24-.28-.51-.57A9.09,9.09,0,0,0,278.62,286.54Z"/><path class="cls-3" d="M295.79,283.46a4.74,4.74,0,0,0,.28.48,2.61,2.61,0,0,1,.33,1.25h0a4.16,4.16,0,0,1-.07,1,5,5,0,0,1-1.12,2.05l-.18.18a7.58,7.58,0,0,1-2.94,2l-.42,0h-.17a3.69,3.69,0,0,1-.74,0,.5.5,0,0,1-.15,0h-.17a3.4,3.4,0,0,1-2.84-1.05,3.86,3.86,0,0,1-.32-.34l-.1-.12-.09-.09a2.56,2.56,0,0,0-.27.22,1.53,1.53,0,0,1-1.47.29c-.65.29-1.37,0-2.17-.73a3.42,3.42,0,0,1-.36-.4,2.83,2.83,0,0,0-.08-.37v0a2.39,2.39,0,0,1,.5-2.43,2.79,2.79,0,0,0-.3-.38,4.54,4.54,0,0,0-.73-.52h0a3.77,3.77,0,0,1-.77-.59,8.39,8.39,0,0,1-.84-.93l-.14-.43,0,0a2.62,2.62,0,0,1-.44-1.49,1.93,1.93,0,0,1,.55-1.36l.3-.29a2.36,2.36,0,0,1,1.79-.39,3.81,3.81,0,0,1,1.14,0,2.6,2.6,0,0,1,.83.33h0a3,3,0,0,1,.77.51,6.37,6.37,0,0,1,1.07,1.23.54.54,0,0,0,.07.12l.12-.1a1.57,1.57,0,0,1,1.63-.39,1.46,1.46,0,0,1,1.67.37,4,4,0,0,1,.51.66,1.91,1.91,0,0,1,1.62-.3,3,3,0,0,1,2.83,1,3.42,3.42,0,0,1,.37.42Zm-2.07-.72a3.55,3.55,0,0,0-1.55-.92,1.56,1.56,0,0,0-1.64.39.46.46,0,0,0-.13.2,1.59,1.59,0,0,0-.19,1c0,.08.05.22.1.41.17.59.17,1,0,1.14a.54.54,0,0,1-.22.13c-.52.13-.86.11-1-.09a.6.6,0,0,1-.09-.5c.2-.55.33-.91.37-1.08a1.87,1.87,0,0,0-.62-2,1.23,1.23,0,0,0-1.84,0c-.25.21-.42.34-.51.4a.66.66,0,0,1-.6.09,1.3,1.3,0,0,1-.59-.56,5.57,5.57,0,0,0-1-1.17,3.12,3.12,0,0,0-.69-.47,2.21,2.21,0,0,0-.73-.28,2.71,2.71,0,0,0-1.31.1,2.81,2.81,0,0,0-.85.79,1.52,1.52,0,0,0-.23,1.07,2.37,2.37,0,0,0,.38,1.11l.08.22a.87.87,0,0,0,.07.17,8.48,8.48,0,0,0,.76.85,5.4,5.4,0,0,0,.74.57,5.28,5.28,0,0,1,.73.56,1.88,1.88,0,0,1,.46.63,2.17,2.17,0,0,0-.58,2.29.88.88,0,0,1,.08.33,3.61,3.61,0,0,0,.77.71,1.28,1.28,0,0,0,1.7,0,8.53,8.53,0,0,1,.75-.57.71.71,0,0,1,.84.21c.08.08.19.19.33.35l.31.35a3.16,3.16,0,0,0,2.61,1,4.44,4.44,0,0,1,.55,0,7.39,7.39,0,0,0,1.85-1.06,6.52,6.52,0,0,0,1.25-1.17,5.3,5.3,0,0,0,.92-1.78,3.07,3.07,0,0,0,.06-.85,1.65,1.65,0,0,0-.12-.78l-.44-.8c-.17-.22-.32-.41-.45-.55A2.39,2.39,0,0,0,293.72,282.74Z"/><path class="cls-3" d="M304.34,272.87a4.61,4.61,0,0,0,.32.44,2.72,2.72,0,0,1,.45,1.22h0a3.62,3.62,0,0,1,0,1,4.88,4.88,0,0,1-.91,2.14l-.16.2a8,8,0,0,1-2.74,2.25,3.67,3.67,0,0,0-.42.07l-.17,0a3.52,3.52,0,0,1-.74.06l-.15,0-.17,0a3.4,3.4,0,0,1-2.92-.78,3.72,3.72,0,0,1-.35-.31.58.58,0,0,1-.11-.1l-.1-.09-.25.24a1.51,1.51,0,0,1-1.44.43c-.61.35-1.36.17-2.23-.52a3.41,3.41,0,0,1-.39-.37,2.49,2.49,0,0,0-.12-.36v0A2.38,2.38,0,0,1,292,276a1.82,1.82,0,0,0-.34-.34,4.3,4.3,0,0,0-.77-.46h0a3.8,3.8,0,0,1-.81-.51,9.17,9.17,0,0,1-.92-.85c-.09-.18-.15-.32-.19-.42l.05,0a2.66,2.66,0,0,1-.58-1.44,2,2,0,0,1,.42-1.4l.28-.32a2.3,2.3,0,0,1,1.74-.56,3.78,3.78,0,0,1,1.13-.11,2.3,2.3,0,0,1,.86.24h0a3,3,0,0,1,.82.44,6.17,6.17,0,0,1,1.18,1.13.22.22,0,0,0,.09.1l.1-.1a1.56,1.56,0,0,1,1.59-.54,1.44,1.44,0,0,1,1.69.21,4.34,4.34,0,0,1,.58.61,1.93,1.93,0,0,1,1.58-.45,3,3,0,0,1,2.91.73,2.27,2.27,0,0,1,.41.38C304,272.51,304.16,272.67,304.34,272.87Zm-2.13-.53a3.58,3.58,0,0,0-1.63-.77,1.56,1.56,0,0,0-1.6.54.41.41,0,0,0-.1.21,1.51,1.51,0,0,0-.11,1c0,.08.07.22.15.4.22.57.25.95.1,1.14a.43.43,0,0,1-.2.14c-.51.19-.84.19-1,0a.65.65,0,0,1-.13-.49q.22-.86.27-1.11a1.87,1.87,0,0,0-.81-1.92,1.22,1.22,0,0,0-1.82.18l-.47.44a.66.66,0,0,1-.6.15,1.28,1.28,0,0,1-.63-.51,6.35,6.35,0,0,0-1.13-1.06,3,3,0,0,0-.73-.4,2.14,2.14,0,0,0-.76-.21,2.52,2.52,0,0,0-1.28.22,2.64,2.64,0,0,0-.78.86,1.53,1.53,0,0,0-.13,1.09,2.38,2.38,0,0,0,.48,1.07l.1.21.08.16a7.19,7.19,0,0,0,.84.78,5.73,5.73,0,0,0,.79.49,6.91,6.91,0,0,1,.79.49,2,2,0,0,1,.51.59,2.17,2.17,0,0,0-.36,2.33,1.35,1.35,0,0,1,.11.32,3.46,3.46,0,0,0,.83.64,1.28,1.28,0,0,0,1.7-.13,5.42,5.42,0,0,1,.69-.63.71.71,0,0,1,.86.12c.09.07.2.18.35.32l.35.32a3.14,3.14,0,0,0,2.69.71l.54-.08a7,7,0,0,0,1.74-1.22,6.43,6.43,0,0,0,1.14-1.29,5.39,5.39,0,0,0,.75-1.85,3.19,3.19,0,0,0,0-.86,1.82,1.82,0,0,0-.19-.76l-.52-.76-.49-.51A2,2,0,0,0,302.21,272.34Z"/><path class="cls-3" d="M307.55,256c.78.4,1.44.77,2,1.11a9.4,9.4,0,0,1,2.17,1.87,3.57,3.57,0,0,1,.38.3q1.59,2.19.5,6.05a5.93,5.93,0,0,1-.71,1.52,7.11,7.11,0,0,1-1.41,1.63l-.9.73a5.37,5.37,0,0,1-2.64,1.1,5.27,5.27,0,0,1-2.76.21,6.53,6.53,0,0,1-2.64-.88l-.06,0a21.18,21.18,0,0,1-3.64-3.27h0a2.59,2.59,0,0,1-.49-1v0a6.9,6.9,0,0,0-.4-1,4.64,4.64,0,0,1-.12-4.37l.15-.23c.59-.92,1-1.51,1.18-1.75a4.89,4.89,0,0,1,1.56-1.37l.2-.17.14-.13a4.57,4.57,0,0,1,2-.78,4.13,4.13,0,0,1,.92-.19l.95-.11a3.22,3.22,0,0,1,.53-.05,11.46,11.46,0,0,1,2.25.57,3.28,3.28,0,0,1,.79.15Zm-2,.33a10.21,10.21,0,0,0-2.28-.55.76.76,0,0,0-.25,0l-.19,0a3.92,3.92,0,0,0-2.63.76l-.19.18-.14.14a4.18,4.18,0,0,0-1.63,1.45q-1.09,1.57-1.2,1.8a4.29,4.29,0,0,0,.12,4.08c.06.12.19.45.39,1a2.75,2.75,0,0,0,.44.88,22.69,22.69,0,0,0,3.58,3.22,5.88,5.88,0,0,0,2.63.87,5.48,5.48,0,0,0,3-.38,9.35,9.35,0,0,0,2-1.36,7.22,7.22,0,0,0,1.35-1.56,5.42,5.42,0,0,0,.67-1.44q1-3.7-.43-5.76a2.39,2.39,0,0,0-.37-.29,8.6,8.6,0,0,0-2.12-1.83c-.11-.08-.31-.19-.61-.36l-1.35-.76A4.69,4.69,0,0,0,305.59,256.31Zm.7,6.27a2.47,2.47,0,0,1-.19,1.62,6.6,6.6,0,0,1-.81.91,1.78,1.78,0,0,1-2.27-.05,2.06,2.06,0,0,1-.64-.58,2.66,2.66,0,0,1-.5-1.87,6,6,0,0,1,.51-1.13,1.72,1.72,0,0,1,1.3-.83,2.93,2.93,0,0,1,.89.11,2.07,2.07,0,0,1,1,.37A2.52,2.52,0,0,1,306.29,262.58Zm-.31.05a2.29,2.29,0,0,0-.64-1.28l0,0a2.64,2.64,0,0,0-.78-.27l-.44-.08a2,2,0,0,0-.4.44c0,.07-.09.16-.14.27l0,.06a7.12,7.12,0,0,0-.3.75,2.46,2.46,0,0,0,.48,1.6,1.46,1.46,0,0,0,.54.49,3.61,3.61,0,0,0,.78.4l.1-.1a10.75,10.75,0,0,0,.75-.84A2.17,2.17,0,0,0,306,262.63Zm-2.78-.14v0S303.21,262.48,303.2,262.49Z"/><path class="cls-3" d="M319.87,242.06a4.72,4.72,0,0,1,.93.78,2.24,2.24,0,0,1,.49,1.08c0,.29.09.49.11.58a1.67,1.67,0,0,1,0,.81,6.18,6.18,0,0,1-.27.74,2.91,2.91,0,0,1-.54.79,13.41,13.41,0,0,1-2.26,1.89c-.75.42-1.32.73-1.72.92a2.73,2.73,0,0,0-1,.75v0c0,.08,0,.2.23.35a.75.75,0,0,0,.17.1l.16.08a7,7,0,0,0,.77.3c.44.16.7.25.78.29a2.06,2.06,0,0,1,1.19,2.37h0a4.83,4.83,0,0,1-.27,1.28,1.23,1.23,0,0,1-.17.25,2.24,2.24,0,0,0-.17.25,3.05,3.05,0,0,1-.88,1.05,1.55,1.55,0,0,0-.32.14l0,0a3.31,3.31,0,0,1-1.4.59,4,4,0,0,1-2.75.23l-.35-.17c-.14-.06-.24-.12-.33-.15s-.08-.06,0,0l-.2-.1-.29-.12-1-.47c-.6-.28-1.2-.59-1.8-.91l-2.24-1.19-.17-.08c-.18-.09-.4-.21-.68-.38-.73-.63-1.13-1-1.19-1.05v0a3.63,3.63,0,0,1-.87-1.43,2.7,2.7,0,0,1,.35-1.63,6.31,6.31,0,0,1,.48-.64h0a4.28,4.28,0,0,1,2.13-1.32l2.7-.85a2,2,0,0,0,.89-.88,1.32,1.32,0,0,0,0-.37v0a7.36,7.36,0,0,0-.88-.8,6.28,6.28,0,0,1-1.88-2.12,3.91,3.91,0,0,1-.16-1.36,3.1,3.1,0,0,1,.23-1.32l0-.06a2.28,2.28,0,0,1,1.69-1.11h.11a4,4,0,0,1,2.79-.36,13.74,13.74,0,0,1,1.82.57l.19.08c1,.39,1.71.62,2,.71l2.55,1.23A5.6,5.6,0,0,1,319.87,242.06Zm-4.69-1.25L313,240c-.81-.29-1.36-.47-1.64-.54a4.41,4.41,0,0,0-1.88,0,2.11,2.11,0,0,0-1.52,1,2.68,2.68,0,0,0-.24,1.21,3.76,3.76,0,0,0,.16,1.28,6.09,6.09,0,0,0,1.79,2,4.86,4.86,0,0,1,1,1,1.12,1.12,0,0,1,0,.55,2.4,2.4,0,0,1-1.56,1.24l-2.22.63a3.68,3.68,0,0,0-2,1.23c-.26.33-.4.53-.43.58a2.47,2.47,0,0,0-.34,1.4,3.66,3.66,0,0,0,.8,1.32c.48.44.85.76,1.1,1l.85.46,2.25,1.2q1.27.68,2.28,1.14c.71.33,1.26.59,1.65.79a3.31,3.31,0,0,0,2.9-.42,1.78,1.78,0,0,1,.3-.14,3.44,3.44,0,0,0,.77-.91,1,1,0,0,1,.16-.24,1.21,1.21,0,0,0,.16-.24,5,5,0,0,0,.25-1.21,1.83,1.83,0,0,0-1-2.06l-.29-.12-.46-.15a6.33,6.33,0,0,1-.8-.32l-.18-.08a1.11,1.11,0,0,1-.43-.38.42.42,0,0,1-.06-.53,3.67,3.67,0,0,1,1.12-.84l1.71-.93a14.44,14.44,0,0,0,2.3-1.95,3.83,3.83,0,0,0,.63-1.28,1.8,1.8,0,0,0,0-.63,5.51,5.51,0,0,0-.12-.62,2.19,2.19,0,0,0-.58-1.11,6.52,6.52,0,0,0-1.73-1.21Z"/></g><g id="fill"><path class="cls-4" d="M67.73,244a5.1,5.1,0,0,0-.4-2.91,7.16,7.16,0,0,1-.48-1.31q-2.31-4.67-8.06-2.67l-1.21.42c-.46.16-.86.31-1.19.46,0,0-.18.09-.43.22l-1.5.79-.37.2-.49.28-.35.2a6.68,6.68,0,0,0-.91.64,2.3,2.3,0,0,0-.58,1.45,3.25,3.25,0,0,0,.27,1.57,2.55,2.55,0,0,0,1.78,1.55,1.28,1.28,0,0,0,.68.16l.67-.11c.27-.1.49-.18.67-.26a4.6,4.6,0,0,0,.46-.24l.7-.57c.71-.46,1.1-.7,1.17-.73a.86.86,0,0,1,1.26.45l.46.93a5.88,5.88,0,0,0,1,1.4,4.91,4.91,0,0,0,1.6,1.29,4.34,4.34,0,0,0,3.11-.24,7.31,7.31,0,0,0,.68-.35A3.31,3.31,0,0,0,67.73,244Zm-6.2-2.31a1,1,0,0,1,0-.67.77.77,0,0,1,.4-.51l.66,0H63a.89.89,0,0,1,.7.46c.27.5.09.89-.55,1.17a1.92,1.92,0,0,1-1,.19Z"/><path class="cls-4" d="M71.53,257.76a4,4,0,0,0,1-.85c.22-.25.38-.43.48-.53l.16-.47a3.81,3.81,0,0,0,.59-1.69,1.68,1.68,0,0,0-.16-.66l-.25-.53-.2-.54c-.11-.31-.18-.47-.19-.5l-1.76-2.11a7.1,7.1,0,0,0-1.71-1.11,4.38,4.38,0,0,0-2.4-.44h-.41a6.2,6.2,0,0,0-1.18.44c-.14.07-.38.16-.7.28a4.4,4.4,0,0,0-.73.3l-.18.1-.18.12a.72.72,0,0,0-.14.13.72.72,0,0,1-.14.13,6.19,6.19,0,0,0-.7.41c-1,.68-1.89,1.27-2.59,1.76l-.07.12a9.52,9.52,0,0,0-1.15,1l-.46.25a1.09,1.09,0,0,0-.39.26,1.93,1.93,0,0,0-.42,1,2.47,2.47,0,0,0,.33,1.28,4,4,0,0,0,2.11,1.74,2,2,0,0,0,1.75-.1l.48-.35.4-.32a3.83,3.83,0,0,0,.64-.58,12.29,12.29,0,0,0,1-1.52l.08-.15a9.26,9.26,0,0,1,.63-1,1.79,1.79,0,0,1,.48-.39,1.51,1.51,0,0,1,1.55,0,1.86,1.86,0,0,1,.72.77,2.63,2.63,0,0,1,.3.79,5.72,5.72,0,0,1,0,.7,3.44,3.44,0,0,0,.23,1.28,1.81,1.81,0,0,0,.54.53l.64.43a2.6,2.6,0,0,0,1.27.28A2.79,2.79,0,0,0,71.53,257.76Zm-5.21-8.7.21-.05S66.44,249,66.32,249.06Z"/><path class="cls-4" d="M75,271.69a3,3,0,0,0-.54-1.54A5.68,5.68,0,0,0,73.15,269a5.36,5.36,0,0,1-1.27-1.14,2.57,2.57,0,0,1-.46-1.14.4.4,0,0,1,.14-.17.49.49,0,0,1,.35.05,25.77,25.77,0,0,0,2.82,2.67,3.1,3.1,0,0,0,2,.56,2.74,2.74,0,0,0,1-.23c.3-.18.54-.32.7-.44a6,6,0,0,0,2-2.11,3.26,3.26,0,0,0,.08-2.81L80,263.19a3.72,3.72,0,0,0-.58-.65l-1.5-1.41a4.87,4.87,0,0,0-4.12-1.47,21.35,21.35,0,0,0-2.77.5,6.33,6.33,0,0,0-2.3,1.11l-.82.65q-2.46,2.81-2.07,5.26c.06.38.1.71.13,1,.24.64.43,1.13.55,1.44l.83,1.47a.52.52,0,0,1,.07.18,1,1,0,0,0,.07.18A14.31,14.31,0,0,0,70.33,274a3.12,3.12,0,0,0,3.6.1A2.49,2.49,0,0,0,75,271.69Zm.22-6.09a12.67,12.67,0,0,1-1.23-.33.84.84,0,0,1-.21-.21,1.11,1.11,0,0,1-.16-.83,1,1,0,0,1,.42-.73l.21-.11a5.17,5.17,0,0,1,.89-.11l.25.06.25.06c.09.39.17.74.22,1a1,1,0,0,1-.29,1C75.37,265.56,75.26,265.62,75.19,265.6Z"/><path class="cls-4" d="M88.38,277.56a2,2,0,0,0,.28-.34l.36-.5a2.85,2.85,0,0,0,.21-1.19,4,4,0,0,0-.83-1.6,5.17,5.17,0,0,0-.49-.59c-.71-.62-1.09-.94-1.37-1.15a6.3,6.3,0,0,0-1.71-.93,2.94,2.94,0,0,0-.75,0,7.6,7.6,0,0,0-2,.21,5.89,5.89,0,0,0-1.4.69,5.72,5.72,0,0,0-.91.88,2.57,2.57,0,0,0-.59.92,2.61,2.61,0,0,0-.07.52,3.31,3.31,0,0,0,.29,1.74c.2.4.33.67.42.81.4.78.38,1.35-.05,1.72a2.38,2.38,0,0,1-1-.15,2.65,2.65,0,0,1-.7-1,2.86,2.86,0,0,1-.18-.58c-.12-.16-.23-.31-.33-.43a1.31,1.31,0,0,0-.71-.5l-.14-.09a3.23,3.23,0,0,0-2.33.77,1.53,1.53,0,0,0-.18.39,2.41,2.41,0,0,0-.34,2.08,4.62,4.62,0,0,0,1,1.88c.17.19.34.38.52.55a5.27,5.27,0,0,0,1.65,1.19,10.05,10.05,0,0,0,1.89.62,4.17,4.17,0,0,0,1.93-.18,3.88,3.88,0,0,1,.53-.14,5.64,5.64,0,0,0,1.15-.77c1-.83,1.46-2.23,1.45-4.19a2.23,2.23,0,0,0-.29-.91,1.9,1.9,0,0,1,.34-1.68.45.45,0,0,1,.42-.1.7.7,0,0,1,.41.24,2,2,0,0,1,.31.62,2.54,2.54,0,0,0,.31.61,8.66,8.66,0,0,0,.89.76,1.36,1.36,0,0,0,.83.18,1.53,1.53,0,0,0,.85-.18A1.72,1.72,0,0,0,88.38,277.56Z"/><path class="cls-4" d="M96.38,285.65a2.8,2.8,0,0,0,.25-.36l.32-.54a2.7,2.7,0,0,0,.1-1.19,3.84,3.84,0,0,0-1-1.53,4.06,4.06,0,0,0-.41-.47c-.77-.56-1.3-.93-1.6-1.11a6.08,6.08,0,0,0-1.78-.78,2.63,2.63,0,0,0-.74.09,7.15,7.15,0,0,0-1.93.38,5.8,5.8,0,0,0-1.34.8,6.07,6.07,0,0,0-.83.95,2.59,2.59,0,0,0-.51,1,3.76,3.76,0,0,0,.41,2.24c.23.38.39.63.48.77.47.74.5,1.31.1,1.71a2.48,2.48,0,0,1-1-.06,2.73,2.73,0,0,1-.78-.92,3.54,3.54,0,0,1-.23-.56,5,5,0,0,0-.36-.4,1.25,1.25,0,0,0-.75-.44l-.14-.08a3.34,3.34,0,0,0-2.27,1,1.41,1.41,0,0,0-.14.41,2.42,2.42,0,0,0-.17,2.09,4.74,4.74,0,0,0,1.21,1.79,6.52,6.52,0,0,0,.55.5,5.24,5.24,0,0,0,1.75,1.05,9,9,0,0,0,1.93.45,4,4,0,0,0,1.91-.33,2.7,2.7,0,0,1,.52-.18A6,6,0,0,0,91,291c.89-.92,1.26-2.35,1.08-4.3a2.11,2.11,0,0,0-.36-.88,1.44,1.44,0,0,1-.11-.88,1.3,1.3,0,0,1,.31-.82.45.45,0,0,1,.41-.14.69.69,0,0,1,.42.2,2.34,2.34,0,0,1,.37.6,2.52,2.52,0,0,0,.35.58,9.08,9.08,0,0,0,.95.68,1.38,1.38,0,0,0,.85.11,1.53,1.53,0,0,0,.83-.25A1.93,1.93,0,0,0,96.38,285.65Z"/><path class="cls-4" d="M113,300.29a4.7,4.7,0,0,0-.82-4l-.07-.22a9.82,9.82,0,0,0-2.32-2.32,3.66,3.66,0,0,1-.46-.43,2.81,2.81,0,0,0-.52-.44,5,5,0,0,0-2.16-.72H106a3.23,3.23,0,0,0-1.47.76,1,1,0,0,0-.11.13,1.63,1.63,0,0,0-.32.93,2.25,2.25,0,0,0,1.16,1.86,1.48,1.48,0,0,0,.45.25l1.36.32a4,4,0,0,1,1.16.44,1,1,0,0,1,.24.2.87.87,0,0,1,.3.82,2,2,0,0,1-.28.46c-.24.29-.45.41-.62.37a8.55,8.55,0,0,1-2.32-1.21,8.62,8.62,0,0,0-2.48-1.23,2.57,2.57,0,0,0-.92,0,7.12,7.12,0,0,0-1.11.26,12.52,12.52,0,0,0-1.15.68,5.91,5.91,0,0,0-1.18.71,3.73,3.73,0,0,0-.18.37,3.44,3.44,0,0,0-.59,2.27,6.25,6.25,0,0,0,2.85,5,10.82,10.82,0,0,0,2.55,1.24,8.67,8.67,0,0,0,1.42.35,5.91,5.91,0,0,0,1.45.12,6.86,6.86,0,0,0,2.34-.61,5.29,5.29,0,0,0,2-1.41,7.18,7.18,0,0,0,.52-.72l.4-.62A8.93,8.93,0,0,0,113,300.29ZM105.94,303a1.35,1.35,0,0,1-1.43,0l-.25-.18-.17-.12a1.84,1.84,0,0,1-.61-1,1.36,1.36,0,0,1,.2-1.4,1.69,1.69,0,0,1,1-.44,1.66,1.66,0,0,1,1,.07l.66.37c.8.72,1,1.3.73,1.75A2.91,2.91,0,0,1,105.94,303Z"/><path class="cls-4" d="M127.44,312.14l.91-2.15c.33-.8.54-1.33.62-1.61a4.26,4.26,0,0,0,.12-1.88,2.1,2.1,0,0,0-.9-1.57,2.48,2.48,0,0,0-1.19-.3,3.61,3.61,0,0,0-1.29.09,6,6,0,0,0-2.08,1.68,5,5,0,0,1-1,.92,1.08,1.08,0,0,1-.55,0,2.37,2.37,0,0,1-1.15-1.62q-.39-1.67-.51-2.25a3.71,3.71,0,0,0-1.13-2c-.32-.28-.5-.43-.55-.46a2.4,2.4,0,0,0-1.38-.41,3.33,3.33,0,0,0-1.36.72c-.47.46-.81.8-1,1.05s-.41.67-.5.82l-1.32,2.18c-.5.83-.92,1.56-1.27,2.22s-.65,1.22-.87,1.6a3.3,3.3,0,0,0,.26,2.92c.06.14.11.24.13.31a3.21,3.21,0,0,0,.86.81,1.22,1.22,0,0,1,.23.18,1.67,1.67,0,0,0,.23.18,5.76,5.76,0,0,0,1.2.31,1.84,1.84,0,0,0,2.11-.91,3,3,0,0,0,.13-.29l.18-.45a7.31,7.31,0,0,1,.36-.78l.09-.17a1.3,1.3,0,0,1,.4-.41.43.43,0,0,1,.53,0,3.57,3.57,0,0,1,.79,1.17l.83,1.75a13.17,13.17,0,0,0,1.83,2.41,3.67,3.67,0,0,0,1.24.7,1.89,1.89,0,0,0,.62.05l.63-.09a2.08,2.08,0,0,0,1.14-.52,6.49,6.49,0,0,0,1.31-1.66Z"/><path class="cls-4" d="M140,319.09a15.7,15.7,0,0,0,1.08-4.26c-.1-1-.16-1.54-.19-1.74a4.78,4.78,0,0,0-.76-2.07,3.75,3.75,0,0,0-1.6-1.5c-1.11-.54-2,0-2.59,1.49a6.45,6.45,0,0,0-.4,2.2,3,3,0,0,1-.1.76.4.4,0,0,1-.32.27,4.39,4.39,0,0,1-.91.13c-1.25-.33-2.19-.6-2.82-.8a2,2,0,0,0-1.27.36,5,5,0,0,0-1.06.8c-.36.49-.6.82-.72,1a4.14,4.14,0,0,0-.7,1.27,5.38,5.38,0,0,0-.25,1.7,5.08,5.08,0,0,0,1.3,2.43,8.89,8.89,0,0,0,1.83,1.31c.13.07.34.17.63.29a9.46,9.46,0,0,0,5.28.55l.45-.26a7.23,7.23,0,0,0,1.42-1A10.27,10.27,0,0,0,140,319.09Zm-5.61.28a1.79,1.79,0,0,1-.61-.1,1.68,1.68,0,0,1-.32-.09,2.28,2.28,0,0,1-.95-.76,3.11,3.11,0,0,1,.1-1.51,1.75,1.75,0,0,1,.63-.75,2,2,0,0,1,1.06,0,.71.71,0,0,1,.28.07,1.7,1.7,0,0,1,1.06,1.22,1.72,1.72,0,0,1-.11,1.1,1.43,1.43,0,0,1-.58.76A1.18,1.18,0,0,1,134.38,319.37Z"/><path class="cls-4" d="M162.64,327.46a10.69,10.69,0,0,0,.09-3.28,3.91,3.91,0,0,0,0-.49c-.15-.57-.26-1-.33-1.18a7.47,7.47,0,0,0-.49-.76.68.68,0,0,1-.17-.08,4.38,4.38,0,0,0-2.65-1.61,7.21,7.21,0,0,0-1.35-.07,5.68,5.68,0,0,1-1.08-.07,1.45,1.45,0,0,1-1.11-.88,1.14,1.14,0,0,1-.05-.47c0-.15,0-.23,0-.26a7.85,7.85,0,0,1,.16-1.06,5.9,5.9,0,0,0-.17-.65,1.74,1.74,0,0,0-.56-1.22,2.46,2.46,0,0,0-1.22-.73,2.13,2.13,0,0,0-1.7.47,3.58,3.58,0,0,0-1.59,2.42c-.16,1-.27,1.64-.32,2-.08.89-.13,1.6-.15,2.1-.09,1-.17,1.68-.23,2.15a11.12,11.12,0,0,0-.08,1.93c0,.37.08,1,.17,1.9a3,3,0,0,0,.69,1.24,2.18,2.18,0,0,0,1.15.71l.15,0a2.48,2.48,0,0,0,1.38-.07,2.19,2.19,0,0,0,1.51-1.37,6.06,6.06,0,0,0,.18-2,1.69,1.69,0,0,1,.08-.67c.18-.6.51-.84,1-.73a1.42,1.42,0,0,1,.81.61,2.16,2.16,0,0,1,.42,1l.19.72c.13.55.2.93.23,1.13a2.13,2.13,0,0,0,.39.84,1.49,1.49,0,0,0,.85.62,10.06,10.06,0,0,0,1.74.11,1.73,1.73,0,0,0,.69-.21,1.79,1.79,0,0,0,.6-.41A4,4,0,0,0,162.64,327.46Z"/><path class="cls-4" d="M178.21,323.84a9.9,9.9,0,0,0-.52-2.29.86.86,0,0,0-.13-.21l-.12-.15a3.93,3.93,0,0,0-1.85-2l-.24-.09-.19-.06a4.18,4.18,0,0,0-2-.81c-1.27-.19-2-.28-2.14-.27a4.27,4.27,0,0,0-3.6,1.92c-.09.11-.33.38-.72.8a2.74,2.74,0,0,0-.6.78,22.25,22.25,0,0,0-1.28,4.64,5.84,5.84,0,0,0,.38,2.74,5.64,5.64,0,0,0,1.69,2.54,9.78,9.78,0,0,0,2.1,1.14,7.1,7.1,0,0,0,2,.52,5.47,5.47,0,0,0,1.58,0c2.53-.48,4.18-1.46,5-3a2.53,2.53,0,0,0,.09-.45,8.68,8.68,0,0,0,.7-2.72c0-.13,0-.36,0-.7l.08-1.55A3.58,3.58,0,0,0,178.21,323.84Zm-5.3,3.42a2.4,2.4,0,0,1-1.53.55,7.08,7.08,0,0,1-1.17-.32,1.77,1.77,0,0,1-1-2.05,1.91,1.91,0,0,1,.24-.83,2.64,2.64,0,0,1,1.45-1.28,6.43,6.43,0,0,1,1.25-.05,1.71,1.71,0,0,1,1.31.79,2.68,2.68,0,0,1,.3.85,2,2,0,0,1,.1,1A2.5,2.5,0,0,1,172.91,327.26Z"/><path class="cls-4" d="M189.68,328.55A2.52,2.52,0,0,0,189,328a5.76,5.76,0,0,0-1.13-.38l-.69-.05h-.51a.73.73,0,0,1-.42-.23c0-.05-.12-.19-.26-.41a1.1,1.1,0,0,1,0-.39,5.29,5.29,0,0,1-.12-1.31l.07-.49c.17-1.24.26-2,.26-2.23s0-.34,0-.57a4.38,4.38,0,0,0-.7-2.22,2.34,2.34,0,0,0-1.78-.84,2.3,2.3,0,0,0-1.87.86.2.2,0,0,0-.15-.06h-.09a2.75,2.75,0,0,1-.24.75l-.15,1.85c-.07.9-.14,1.58-.21,2l-.28,1.86a20.57,20.57,0,0,0-.27,2.44,11,11,0,0,0,.24,2.89c.12.51.19.8.2.87.5.84,1.54,1.32,3.11,1.46.43,0,.82.06,1.18.06,2.67.05,4.3-.7,4.88-2.23a4.26,4.26,0,0,0,.31-1.46,3.68,3.68,0,0,0-.15-1.1A3.51,3.51,0,0,0,189.68,328.55Z"/><path class="cls-4" d="M204.4,326.35a15.08,15.08,0,0,0-1-4.28c-.52-.82-.83-1.31-.95-1.48a4.84,4.84,0,0,0-1.61-1.5,3.84,3.84,0,0,0-2.1-.63c-1.23,0-1.78.86-1.64,2.5a6.33,6.33,0,0,0,.63,2.15,2.92,2.92,0,0,1,.25.73.36.36,0,0,1-.16.37,3.48,3.48,0,0,1-.76.53c-1.26.27-2.22.45-2.87.56a2,2,0,0,0-1,.89,5.23,5.23,0,0,0-.58,1.19c-.1.6-.17,1-.2,1.22a3.8,3.8,0,0,0,0,1.45,5,5,0,0,0,.54,1.63,5.2,5.2,0,0,0,2.25,1.59,9.28,9.28,0,0,0,2.23.34,4.76,4.76,0,0,0,.69,0,9.39,9.39,0,0,0,5-1.88l.28-.43a7.17,7.17,0,0,0,.82-1.55A10.24,10.24,0,0,0,204.4,326.35Zm-4.89,2.78a1.6,1.6,0,0,1-.58.19,1.91,1.91,0,0,1-.33.06,2.25,2.25,0,0,1-1.19-.25,3.06,3.06,0,0,1-.59-1.4,1.64,1.64,0,0,1,.23-1c.07-.14.39-.3.93-.48a.72.72,0,0,1,.28-.07,1.73,1.73,0,0,1,1.9,1.65,1.33,1.33,0,0,1-.18.93A1,1,0,0,1,199.51,329.13Z"/><path class="cls-4" d="M225.73,325a3.54,3.54,0,0,0-.8-1.61,1.54,1.54,0,0,0-1.6-.56.41.41,0,0,0-.21.1,1.55,1.55,0,0,0-.68.7,3.79,3.79,0,0,0-.13.4c-.18.59-.39.91-.62,1a.44.44,0,0,1-.25,0c-.51-.16-.78-.37-.79-.61a.59.59,0,0,1,.19-.46c.47-.36.77-.6.9-.71a1.87,1.87,0,0,0,.54-2,1.22,1.22,0,0,0-1.54-1l-.65.06a.64.64,0,0,1-.56-.25,1.24,1.24,0,0,1-.19-.79,6.21,6.21,0,0,0-.23-1.53,3.44,3.44,0,0,0-.33-.77,2.11,2.11,0,0,0-.47-.63,2.48,2.48,0,0,0-1.15-.61,2.69,2.69,0,0,0-1.14.19,1.58,1.58,0,0,0-.78.79,2.37,2.37,0,0,0-.27,1.13l-.05.23c0,.07,0,.13,0,.18.05.43.11.81.18,1.13a6.27,6.27,0,0,0,.32.87,6.78,6.78,0,0,1,.32.87,2.12,2.12,0,0,1,.05.78,2.19,2.19,0,0,0-1.73,1.62,1.52,1.52,0,0,1-.1.32,3.2,3.2,0,0,0,.26,1,1.28,1.28,0,0,0,1.41.95,6.78,6.78,0,0,1,.94-.08.71.71,0,0,1,.6.63,4.41,4.41,0,0,1,.08.47c0,.2.06.36.08.46a3.16,3.16,0,0,0,1.68,2.22l.48.27a7.4,7.4,0,0,0,2.13.11,6.69,6.69,0,0,0,1.68-.32,5.23,5.23,0,0,0,1.73-1,3,3,0,0,0,.52-.68,2.07,2.07,0,0,0,.32-.73c0-.44,0-.75,0-.91s0-.51-.07-.7A2.6,2.6,0,0,0,225.73,325Z"/><path class="cls-4" d="M241,319.21a10.86,10.86,0,0,0-1.67-2.83l-.26-.42c-.43-.4-.73-.67-.91-.82a7.33,7.33,0,0,0-.82-.38.45.45,0,0,1-.19,0,4.37,4.37,0,0,0-3.1.05,7.29,7.29,0,0,0-1.18.66,5.14,5.14,0,0,1-.95.51,1.46,1.46,0,0,1-1.41-.15,1.21,1.21,0,0,1-.29-.38c-.07-.12-.12-.19-.13-.22a6,6,0,0,1-.42-1,4.79,4.79,0,0,0-.5-.46,1.73,1.73,0,0,0-1.12-.74,2.43,2.43,0,0,0-1.42,0,2.19,2.19,0,0,0-1.2,1.3,3.62,3.62,0,0,0,0,2.9c.39.92.65,1.53.78,1.86.41.8.75,1.42,1,1.86.43.86.75,1.51.94,1.94a14.38,14.38,0,0,0,1,1.68c.21.3.6.8,1.16,1.51a3,3,0,0,0,1.24.69,2.25,2.25,0,0,0,1.36,0l.14-.06a2.42,2.42,0,0,0,1.13-.8,2.19,2.19,0,0,0,.55-2,6.19,6.19,0,0,0-.9-1.75,1.88,1.88,0,0,1-.28-.61c-.17-.6,0-1,.45-1.15a1.48,1.48,0,0,1,1,.08,2.16,2.16,0,0,1,.86.59l.55.51c.39.4.66.67.79.83a2.06,2.06,0,0,0,.78.5,1.48,1.48,0,0,0,1,.08,10.15,10.15,0,0,0,1.54-.83,1.72,1.72,0,0,0,.47-.55,1.86,1.86,0,0,0,.29-.66A4,4,0,0,0,241,319.21Z"/><path class="cls-4" d="M253.1,311.81a2.82,2.82,0,0,0-1.6.3,5.46,5.46,0,0,0-1.33,1.08,5.46,5.46,0,0,1-1.33,1.08,2.51,2.51,0,0,1-1.2.27.43.43,0,0,1-.14-.16c0-.18,0-.29.1-.34a24.63,24.63,0,0,0,3.08-2.37,3.15,3.15,0,0,0,.86-1.89,2.26,2.26,0,0,0-.07-1,7.29,7.29,0,0,0-.32-.76,5.9,5.9,0,0,0-1.78-2.28,3.24,3.24,0,0,0-2.76-.53l-1.12.28a3.51,3.51,0,0,0-.73.48l-1.62,1.26a4.83,4.83,0,0,0-2.1,3.84,23.93,23.93,0,0,0,.05,2.81,6.62,6.62,0,0,0,.74,2.44c.24.41.41.72.52.92q2.39,2.86,4.87,2.86c.39,0,.71,0,1,0l1.51-.32,1.58-.59a.61.61,0,0,1,.19,0,.56.56,0,0,0,.19-.05,14.08,14.08,0,0,0,2.94-2.38,3.13,3.13,0,0,0,.66-3.55A2.51,2.51,0,0,0,253.1,311.81Zm-6-1.17c-.23.57-.41,1-.52,1.17a1,1,0,0,1-.24.17,1.12,1.12,0,0,1-.85,0,1,1,0,0,1-.65-.54.83.83,0,0,1-.07-.21,4.08,4.08,0,0,1,0-.9l.09-.24a1.8,1.8,0,0,0,.1-.24c.41,0,.76-.05,1.06-.05a1,1,0,0,1,.92.44C247.11,310.46,247.15,310.58,247.12,310.64Z"/><path class="cls-4" d="M269.78,300a2.66,2.66,0,0,0-2.73.25l-.39.23c-.88.55-1.52.55-1.91,0a7.34,7.34,0,0,0-.37-.69c-.67-1.23-1-1.87-1-1.91a1.71,1.71,0,0,0-.59-.58c-.41-.52-.76-.77-1.08-.76a2.18,2.18,0,0,0-1.22.39l-.18.14c-.31.32-.48.51-.51.55a1.72,1.72,0,0,0,0,.7,2.67,2.67,0,0,1,.15,1.06,72.75,72.75,0,0,0,3.3,7.26,6.8,6.8,0,0,0,.51.89,9.71,9.71,0,0,0,1.25,1.26,3.6,3.6,0,0,0,1.68.63,4.75,4.75,0,0,0,3.4-.89,5,5,0,0,0,1.12-1.09,5.54,5.54,0,0,0,1-2.59,3.69,3.69,0,0,0-.5-2.66.48.48,0,0,1-.05-.12.23.23,0,0,0,0-.11A5.55,5.55,0,0,0,269.78,300ZM268,305.32c-.6.45-1.14.33-1.6-.34a1.85,1.85,0,0,1-.34-1.09c.1-.12.18-.2.23-.25a.68.68,0,0,0,0-.21,1.25,1.25,0,0,1,.34-.43.87.87,0,0,1,.93,0,1.78,1.78,0,0,1,.77.61C268.62,304.05,268.5,304.61,268,305.32Z"/><path class="cls-4" d="M278.62,286.54a2.7,2.7,0,0,0-1.82-.29,3.54,3.54,0,0,0-1.7.78,2.82,2.82,0,0,0-.8,1.11,1.51,1.51,0,0,0,0,.81,3.07,3.07,0,0,1,.06.51,6.6,6.6,0,0,0,1.08,1.22.37.37,0,0,0,.43.05,2.23,2.23,0,0,1,.33.33c.31.33.42.44.34.34l1.08,1.28a7.18,7.18,0,0,1,.73,1.44,2.74,2.74,0,0,1,.27,1.55,1.36,1.36,0,0,1-.25.42,1.07,1.07,0,0,1-.37.29q-1.16.42-1.53.21a5.18,5.18,0,0,1-1.39-1.34,12.9,12.9,0,0,1-1-1.5l-.83-1.61a6.25,6.25,0,0,0-.84-1.29l-1.06-1a1.71,1.71,0,0,0-1-.06,2.67,2.67,0,0,0-.89.54,2.71,2.71,0,0,0-1,1.68,3.53,3.53,0,0,0,.28,2,7.1,7.1,0,0,0,.89,1.39c.28.36.74,1.07,1.4,2.14a17.79,17.79,0,0,0,1.32,1.95,5.48,5.48,0,0,0,1.46,1.31l.36.29a7.26,7.26,0,0,0,3,.48,7.36,7.36,0,0,0,3.74-1.5,14,14,0,0,0,1.2-.86,5,5,0,0,0,1.48-2.75q.21-1,.21-1.14a9.67,9.67,0,0,0-2.61-6.5q-.24-.28-.51-.57A9.09,9.09,0,0,0,278.62,286.54Z"/><path class="cls-4" d="M293.72,282.74a3.55,3.55,0,0,0-1.55-.92,1.56,1.56,0,0,0-1.64.39.46.46,0,0,0-.13.2,1.59,1.59,0,0,0-.19,1c0,.08.05.22.1.41.17.59.17,1,0,1.14a.54.54,0,0,1-.22.13c-.52.13-.86.11-1-.09a.6.6,0,0,1-.09-.5c.2-.55.33-.91.37-1.08a1.87,1.87,0,0,0-.62-2,1.23,1.23,0,0,0-1.84,0c-.25.21-.42.34-.51.4a.66.66,0,0,1-.6.09,1.3,1.3,0,0,1-.59-.56,5.57,5.57,0,0,0-1-1.17,3.12,3.12,0,0,0-.69-.47,2.21,2.21,0,0,0-.73-.28,2.71,2.71,0,0,0-1.31.1,2.81,2.81,0,0,0-.85.79,1.52,1.52,0,0,0-.23,1.07,2.37,2.37,0,0,0,.38,1.11l.08.22a.87.87,0,0,0,.07.17,8.48,8.48,0,0,0,.76.85,5.4,5.4,0,0,0,.74.57,5.28,5.28,0,0,1,.73.56,1.88,1.88,0,0,1,.46.63,2.17,2.17,0,0,0-.58,2.29.88.88,0,0,1,.08.33,3.61,3.61,0,0,0,.77.71,1.28,1.28,0,0,0,1.7,0,8.53,8.53,0,0,1,.75-.57.71.71,0,0,1,.84.21c.08.08.19.19.33.35l.31.35a3.16,3.16,0,0,0,2.61,1,4.44,4.44,0,0,1,.55,0,7.39,7.39,0,0,0,1.85-1.06,6.52,6.52,0,0,0,1.25-1.17,5.3,5.3,0,0,0,.92-1.78,3.07,3.07,0,0,0,.06-.85,1.65,1.65,0,0,0-.12-.78l-.44-.8c-.17-.22-.32-.41-.45-.55A2.39,2.39,0,0,0,293.72,282.74Z"/><path class="cls-4" d="M302.21,272.34a3.58,3.58,0,0,0-1.63-.77,1.56,1.56,0,0,0-1.6.54.41.41,0,0,0-.1.21,1.51,1.51,0,0,0-.11,1c0,.08.07.22.15.4.22.57.25.95.1,1.14a.43.43,0,0,1-.2.14c-.51.19-.84.19-1,0a.65.65,0,0,1-.13-.49q.22-.86.27-1.11a1.87,1.87,0,0,0-.81-1.92,1.22,1.22,0,0,0-1.82.18l-.47.44a.66.66,0,0,1-.6.15,1.28,1.28,0,0,1-.63-.51,6.35,6.35,0,0,0-1.13-1.06,3,3,0,0,0-.73-.4,2.14,2.14,0,0,0-.76-.21,2.52,2.52,0,0,0-1.28.22,2.64,2.64,0,0,0-.78.86,1.53,1.53,0,0,0-.13,1.09,2.38,2.38,0,0,0,.48,1.07l.1.21.08.16a7.19,7.19,0,0,0,.84.78,5.73,5.73,0,0,0,.79.49,6.91,6.91,0,0,1,.79.49,2,2,0,0,1,.51.59,2.17,2.17,0,0,0-.36,2.33,1.35,1.35,0,0,1,.11.32,3.46,3.46,0,0,0,.83.64,1.28,1.28,0,0,0,1.7-.13,5.42,5.42,0,0,1,.69-.63.71.71,0,0,1,.86.12c.09.07.2.18.35.32l.35.32a3.14,3.14,0,0,0,2.69.71l.54-.08a7,7,0,0,0,1.74-1.22,6.43,6.43,0,0,0,1.14-1.29,5.39,5.39,0,0,0,.75-1.85,3.19,3.19,0,0,0,0-.86,1.82,1.82,0,0,0-.19-.76l-.52-.76-.49-.51A2,2,0,0,0,302.21,272.34Z"/><path class="cls-4" d="M305.59,256.31a10.21,10.21,0,0,0-2.28-.55.76.76,0,0,0-.25,0l-.19,0a3.92,3.92,0,0,0-2.63.76l-.19.18-.14.14a4.18,4.18,0,0,0-1.63,1.45q-1.09,1.57-1.2,1.8a4.29,4.29,0,0,0,.12,4.08c.06.12.19.45.39,1a2.75,2.75,0,0,0,.44.88,22.69,22.69,0,0,0,3.58,3.22,5.88,5.88,0,0,0,2.63.87,5.48,5.48,0,0,0,3-.38,9.35,9.35,0,0,0,2-1.36,7.22,7.22,0,0,0,1.35-1.56,5.42,5.42,0,0,0,.67-1.44q1-3.7-.43-5.76a2.39,2.39,0,0,0-.37-.29,8.6,8.6,0,0,0-2.12-1.83c-.11-.08-.31-.19-.61-.36l-1.35-.76A4.69,4.69,0,0,0,305.59,256.31Zm.7,6.27a2.47,2.47,0,0,1-.19,1.62,6.6,6.6,0,0,1-.81.91,1.78,1.78,0,0,1-2.27-.05,2.06,2.06,0,0,1-.64-.58,2.66,2.66,0,0,1-.5-1.87,6,6,0,0,1,.51-1.13,1.72,1.72,0,0,1,1.3-.83,2.93,2.93,0,0,1,.89.11,2.07,2.07,0,0,1,1,.37A2.52,2.52,0,0,1,306.29,262.58Zm-3.09-.09v0S303.21,262.48,303.2,262.49Z"/><path class="cls-4" d="M315.18,240.81,313,240c-.81-.29-1.36-.47-1.64-.54a4.41,4.41,0,0,0-1.88,0,2.11,2.11,0,0,0-1.52,1,2.68,2.68,0,0,0-.24,1.21,3.76,3.76,0,0,0,.16,1.28,6.09,6.09,0,0,0,1.79,2,4.86,4.86,0,0,1,1,1,1.12,1.12,0,0,1,0,.55,2.4,2.4,0,0,1-1.56,1.24l-2.22.63a3.68,3.68,0,0,0-2,1.23c-.26.33-.4.53-.43.58a2.47,2.47,0,0,0-.34,1.4,3.66,3.66,0,0,0,.8,1.32c.48.44.85.76,1.1,1l.85.46,2.25,1.2q1.27.68,2.28,1.14c.71.33,1.26.59,1.65.79a3.31,3.31,0,0,0,2.9-.42,1.78,1.78,0,0,1,.3-.14,3.44,3.44,0,0,0,.77-.91,1,1,0,0,1,.16-.24,1.21,1.21,0,0,0,.16-.24,5,5,0,0,0,.25-1.21,1.83,1.83,0,0,0-1-2.06l-.29-.12-.46-.15a6.33,6.33,0,0,1-.8-.32l-.18-.08a1.11,1.11,0,0,1-.43-.38.42.42,0,0,1-.06-.53,3.67,3.67,0,0,1,1.12-.84l1.71-.93a14.44,14.44,0,0,0,2.3-1.95,3.83,3.83,0,0,0,.63-1.28,1.8,1.8,0,0,0,0-.63,5.51,5.51,0,0,0-.12-.62,2.19,2.19,0,0,0-.58-1.11,6.52,6.52,0,0,0-1.73-1.21Z"/></g></svg>