<svg id="Layer_1" data-name="Layer 1" xmlns="http://www.w3.org/2000/svg" viewBox="0 0 375 375"><defs><style>.cls-1{fill:none;}.cls-2{fill:#ae84d5;}.cls-3{fill:#fff;}</style></defs><rect class="cls-1" width="375" height="375"/><path class="cls-2" d="M140.29,53.44c-.09.18-.16.3-.19.35a4.48,4.48,0,0,1-.39.68v0a2.38,2.38,0,0,1-.92.7l-.24.09a7.49,7.49,0,0,1-2.33-.13l-2-.42h0a.73.73,0,0,0-.4,0,.58.58,0,0,0-.25.19.74.74,0,0,0-.07.81l.18.43.08.24a2.9,2.9,0,0,1-.18,1.9l-.1.09-.56.51a2.19,2.19,0,0,1-.62.42,2.06,2.06,0,0,1-1.94-.36h0a3.16,3.16,0,0,1-1.77-1.19A11.93,11.93,0,0,1,126.94,55l-.11-.29a2,2,0,0,1-.11-.32l-.1-.25c-.11-.26-.26-.59-.47-1h0c-.3-.5-.53-.94-.7-1.3-.88-1.87-1.43-3.07-1.64-3.61l-.07-.18a1.68,1.68,0,0,1-.08-1.1v0A4.24,4.24,0,0,1,124,46l.42-.88a.94.94,0,0,1,.52-.48l.08,0a1.7,1.7,0,0,1,1.89.26,1.65,1.65,0,0,1,1.15.58h0a3.37,3.37,0,0,1,.3.41l.63,1,.23.37a3.72,3.72,0,0,0,.33.45.61.61,0,0,0,.09-.16l.11-.26.12-.35.65-1.59a4.48,4.48,0,0,1,1-1.4c.38-.26.67-.46.87-.58h0A4.51,4.51,0,0,1,133,43l.07,0a3.28,3.28,0,0,1,1.46.25,1,1,0,0,1,.23.2,5.92,5.92,0,0,1,.75.22,3.78,3.78,0,0,1,.49.53h0a4.47,4.47,0,0,1,.43.49l.06.13a2.58,2.58,0,0,1,.07,1.43h0c-.18.69-.33,1.24-.46,1.63a4.91,4.91,0,0,0-.33,1.35.85.85,0,0,0,.08.49v0l.25.05a1.9,1.9,0,0,0,.4.11,4.6,4.6,0,0,1,1.21.49v0l0,0h0l.1,0a3.12,3.12,0,0,1,.84.37h0a3.05,3.05,0,0,1,.75.59,3.63,3.63,0,0,1,.87,1.2A1.07,1.07,0,0,1,140.29,53.44Zm-1.21-.69a.86.86,0,0,0-.06-.53,3.39,3.39,0,0,0-.91-1.22,3.54,3.54,0,0,0-1.34-.75c-.7-.2-1.35-.38-1.94-.53a.57.57,0,0,1-.27-.36,1.24,1.24,0,0,1-.11-.63,7.63,7.63,0,0,1,.38-1.5,11.36,11.36,0,0,0,.42-1.49,2.26,2.26,0,0,0-.09-1.36,4.22,4.22,0,0,0-.39-.44l-.39-.46a3.1,3.1,0,0,0-1.28-.23,6.25,6.25,0,0,0-.64.37c-.48.31-.76.48-.82.54a2.45,2.45,0,0,0-.68.91c-.32.74-.56,1.27-.72,1.6s-.2.58-.25.71c-.13.37-.28.6-.47.67l-.12,0c-.51,0-1-.36-1.45-1.09-.72-1.15-1.09-1.73-1.11-1.75a1.47,1.47,0,0,0-1.81-.32.74.74,0,0,0-.36.34A7.86,7.86,0,0,0,124,47a1.62,1.62,0,0,0,.06.92c.19.52.76,1.77,1.71,3.77.06.09.13.21.22.38l.47.9a7.59,7.59,0,0,1,.35.7,6.23,6.23,0,0,1,.24.6,6,6,0,0,0,.22.57,11.27,11.27,0,0,0,1.56,2.73,2.88,2.88,0,0,0,1.62,1.09,1.3,1.3,0,0,0,.81,0,1.58,1.58,0,0,0,.3-.17l.86-.76a1.9,1.9,0,0,0,.19-.89c0-.33-.05-.59-.08-.76l-.31-.85a.84.84,0,0,1,.2-.88.89.89,0,0,1,.37-.28.93.93,0,0,1,.55,0l2,.42a6.78,6.78,0,0,0,2.14.14,1.92,1.92,0,0,0,1.06-.68,5,5,0,0,0,.37-.63A4.45,4.45,0,0,0,139.08,52.75Z"/><path class="cls-2" d="M154.11,47.64a3.49,3.49,0,0,1-1.43,3.76,14,14,0,0,1-3.34,1.84l-.28,0q-.24,0-.15,0l-.26,0-.77.15a5.21,5.21,0,0,1-1,.13h-.48l-.75,0-1-.19a4.82,4.82,0,0,1-1.91-.79,7.64,7.64,0,0,1-3.55-3.58l0-.14q-.06-.18-.21-.57c-.1-.25-.16-.44-.2-.56a7.1,7.1,0,0,1-.23-2.36,12.62,12.62,0,0,1,.17-1.42c0-.24.12-.71.26-1.4a4.83,4.83,0,0,1,1.14-2.32h0a6.92,6.92,0,0,1,1.67-1.3l1.89-1,0,0a3.21,3.21,0,0,1,.89-.38c.08,0,.48,0,1.22-.09h0a3.39,3.39,0,0,1,2.44.7,3.38,3.38,0,0,1,1.8,1.43,7.33,7.33,0,0,1,1,2.15,7.92,7.92,0,0,1,.2.85A2.63,2.63,0,0,1,151,44a3.3,3.3,0,0,1-.63,1.12l.64.09a3.37,3.37,0,0,1,1.25.61A2.79,2.79,0,0,1,154.11,47.64ZM151,45.47a2.92,2.92,0,0,0-1.63,0,5.12,5.12,0,0,0-1.49.84,5.42,5.42,0,0,1-1.49.83,2.57,2.57,0,0,1-1.23.06A.36.36,0,0,1,145,47a.57.57,0,0,1,.16-.31,25.87,25.87,0,0,0,3.44-1.81,3.17,3.17,0,0,0,1.18-1.72,2.54,2.54,0,0,0,.1-1c-.07-.35-.13-.62-.19-.81a6,6,0,0,0-1.36-2.56,3.25,3.25,0,0,0-2.63-1l-1.15.08a4.07,4.07,0,0,0-.8.34l-1.82,1a4.88,4.88,0,0,0-2.72,3.43,21.87,21.87,0,0,0-.43,2.78,6.42,6.42,0,0,0,.31,2.53c.16.45.28.78.35,1,1.24,2.15,2.67,3.37,4.31,3.65l1,.19,1.54,0,1.66-.31a.58.58,0,0,1,.2,0h.19a14.35,14.35,0,0,0,3.31-1.85,3.14,3.14,0,0,0,1.25-3.38A2.51,2.51,0,0,0,151,45.47Zm-5.69-2.18c-.33.52-.56.88-.71,1.06a.91.91,0,0,1-.26.13,1.06,1.06,0,0,1-.84-.12,1,1,0,0,1-.56-.63s0-.13,0-.23a4.93,4.93,0,0,1,.18-.88l.14-.22c.06-.09.1-.17.13-.22.41,0,.76.09,1.06.13a1,1,0,0,1,.83.59Q145.36,43.22,145.3,43.29Zm-1.17.76v0Zm.85-.92,0,0h0l-.51-.07-.12.22a1.39,1.39,0,0,0-.09.34,1.72,1.72,0,0,0-.06.55l0,.08.07,0,.14,0,.27-.41.35-.56S145,43.16,145,43.13Z"/><path class="cls-2" d="M168.83,44.94A3.48,3.48,0,0,1,167,48.53,14,14,0,0,1,163.5,50h-.28c-.17,0-.22,0-.15,0l-.27,0-.78.07a5.43,5.43,0,0,1-1.05,0l-.48,0-.74-.05-.93-.29a4.91,4.91,0,0,1-1.83-1,7.76,7.76,0,0,1-3.15-3.93l0-.15c0-.13-.07-.32-.14-.58s-.12-.46-.14-.59a6.93,6.93,0,0,1,0-2.36c.06-.37.17-.83.32-1.4.06-.23.2-.69.41-1.37a4.75,4.75,0,0,1,1.38-2.18h0a7.52,7.52,0,0,1,1.8-1.11l2-.8,0,0a3,3,0,0,1,.93-.29c.07,0,.48,0,1.22,0h0a3.35,3.35,0,0,1,2.35.95,3.4,3.4,0,0,1,1.65,1.61,7.31,7.31,0,0,1,.76,2.24,5.75,5.75,0,0,1,.11.87A2.48,2.48,0,0,1,166.1,41a3.59,3.59,0,0,1-.74,1l.62.16a3.28,3.28,0,0,1,1.18.74A2.79,2.79,0,0,1,168.83,44.94ZM166,42.46a2.82,2.82,0,0,0-1.63-.15,5.36,5.36,0,0,0-1.57.67,5.34,5.34,0,0,1-1.57.68,2.56,2.56,0,0,1-1.23-.07.58.58,0,0,1-.1-.19c.07-.17.13-.27.19-.3a25.13,25.13,0,0,0,3.62-1.44A3.13,3.13,0,0,0,165,40.08a2.42,2.42,0,0,0,.21-1c0-.35-.07-.62-.1-.82A6.07,6.07,0,0,0,164,35.59a3.23,3.23,0,0,0-2.51-1.25l-1.15,0a3.48,3.48,0,0,0-.84.26l-1.9.76a4.87,4.87,0,0,0-3.07,3.13,21.91,21.91,0,0,0-.72,2.72,6.34,6.34,0,0,0,0,2.55l.24,1q1.51,3.4,3.9,4.09c.38.1.69.2.94.29l1.54.1,1.68-.13a.74.74,0,0,1,.2,0,.66.66,0,0,0,.19,0,14.25,14.25,0,0,0,3.48-1.49,3.14,3.14,0,0,0,1.6-3.23A2.49,2.49,0,0,0,166,42.46Zm-5.43-2.76c-.39.48-.66.81-.82,1a.94.94,0,0,1-.28.1,1.11,1.11,0,0,1-.82-.21,1,1,0,0,1-.49-.69,1.28,1.28,0,0,1,0-.22,4.11,4.11,0,0,1,.28-.86,1.46,1.46,0,0,1,.15-.2c.07-.09.13-.16.16-.21.4.08.75.16,1,.24a1,1,0,0,1,.76.67C160.56,39.52,160.57,39.65,160.53,39.7Zm-.31-.19v0h-.05l-.49-.13-.15.21a3,3,0,0,0-.12.33,2,2,0,0,0-.12.54l0,.08h.07a.39.39,0,0,0,.15,0c.12-.14.23-.27.31-.38l.41-.51S160.22,39.54,160.22,39.51Zm-.94.82v-.06A.13.13,0,0,0,159.28,40.33Z"/><path class="cls-2" d="M181.67,36.76a4.62,4.62,0,0,1-.86,3.22A5.1,5.1,0,0,1,179,41.16a5.91,5.91,0,0,1-1.74.49l-1,.13h0a1,1,0,0,0-.51.22.72.72,0,0,0-.1.51l.28,1.26a4.17,4.17,0,0,1,.33.93,2.94,2.94,0,0,1,.07.51c0,.21,0,.45,0,.73s-.07.46-.09.55l0,.19v0a1.53,1.53,0,0,1-.45.76l0,0a2.89,2.89,0,0,1-2.29,1.31,3.14,3.14,0,0,1-2.83-1.13,2.62,2.62,0,0,1-1-1v0a1.6,1.6,0,0,1-.13-.39c-.25-1-.4-1.78-.47-2.25l-.13-.83c-.1-.69-.16-1.11-.17-1.26l0-.17a3,3,0,0,1,0-.43h0c0-.66,0-1.32,0-2q-.15-6.36,5.48-7a7.13,7.13,0,0,0,1.37,0h.2a5.38,5.38,0,0,1,2.83.63A4.85,4.85,0,0,1,180,33.87a3.28,3.28,0,0,1,1.52,2.1A6.83,6.83,0,0,1,181.67,36.76Zm-3.2-3.68a5.21,5.21,0,0,0-2.88-.59,6.56,6.56,0,0,1-1.39,0c-3.45.44-5.18,2.68-5.18,6.74v1.28c0,.49,0,.91.05,1.27q0,.06.06.48l.26,1.68.06.42.11.54c0,.22.06.36.07.4a7.77,7.77,0,0,0,.3,1.08,2.35,2.35,0,0,0,1.18,1,3.16,3.16,0,0,0,1.57.26,2.56,2.56,0,0,0,2.06-1.17,1.41,1.41,0,0,0,.37-.58c.06-.35.09-.57.11-.68,0-.28,0-.52,0-.72a4,4,0,0,0-.07-.5l-.31-.85c-.2-.83-.3-1.28-.31-1.35a.87.87,0,0,1,.84-1l1-.13A6,6,0,0,0,178,40.2a5,5,0,0,0,1.75-1.09,4.28,4.28,0,0,0,.79-3,6.89,6.89,0,0,0-.1-.76A3.31,3.31,0,0,0,178.47,33.08Zm-4.22,5.09a1,1,0,0,1-.63-.22.79.79,0,0,1-.36-.55s.07-.23.2-.63l.11-.34a.87.87,0,0,1,.67-.5c.56-.1.86.2.92.9a1.86,1.86,0,0,1-.16,1C174.53,38.06,174.28,38.17,174.25,38.17Zm.52-.54a1.31,1.31,0,0,0,.1-.62.74.74,0,0,0-.21.22,4.1,4.1,0,0,1-.16.53l.17-.08Zm-.09,0,0,0Z"/><path class="cls-2" d="M202.54,39.3a4.92,4.92,0,0,1,.08,1.29,6.32,6.32,0,0,1-.31,1.67l-.52,1.62a.75.75,0,0,0-.12.2h0A5.73,5.73,0,0,1,198,47.65a7,7,0,0,1-2.88.47,4.85,4.85,0,0,1-1.75-.44c-.48-.14-.85-.25-1.09-.34a5.22,5.22,0,0,1-1-.78h0a3.41,3.41,0,0,1-.61-.73l-.09-.08v0a2.56,2.56,0,0,1-1-2,1.16,1.16,0,0,1,.16-.52.83.83,0,0,1,.06-.27l.16-.17.37-.43a1.41,1.41,0,0,1,.73-.48,6,6,0,0,1,1.44-.14l.18.05a3.2,3.2,0,0,1-1.34-1.19,4,4,0,0,1-.8-1,4.85,4.85,0,0,1-.69-2.92,3.66,3.66,0,0,1,.59-1.91l0,0a7.65,7.65,0,0,1,.93-1.43h0a5.33,5.33,0,0,1,.9-.87,10.27,10.27,0,0,1,1.15-.41,7.58,7.58,0,0,1,.94-.22l.88-.09a13.64,13.64,0,0,0,1.66.58h0a15.19,15.19,0,0,1,2.27,1,4.32,4.32,0,0,1,1.37,1.27,8,8,0,0,1,2,3.82c0,.39.06.69.08.88Zm-1-1.22a3.22,3.22,0,0,0,0-.37,11.58,11.58,0,0,0-.78-2.16A4.56,4.56,0,0,0,199,33.64c-.67-.31-1.1-.51-1.28-.58s-.62-.22-1.32-.44a6.06,6.06,0,0,1-1.24-.49l-.78.09a4,4,0,0,0-.87.21,2.58,2.58,0,0,1-.59.16,1.69,1.69,0,0,0-.49.18,5.41,5.41,0,0,0-.85.82c-.07.08-.14.18-.23.3l-.43.61a3.71,3.71,0,0,0-.22.45,3.42,3.42,0,0,0-.54,1.76,4.71,4.71,0,0,0,.61,2.71A2.7,2.7,0,0,0,193,40.89a2.49,2.49,0,0,0,.62,0,5.05,5.05,0,0,1,1.66.07,1.07,1.07,0,0,1,.64.48,1.23,1.23,0,0,1,.25.79.36.36,0,0,1-.24.21,2.28,2.28,0,0,1-1,.12,11.74,11.74,0,0,1-1.9-.43,3,3,0,0,0-.55-.08,5.46,5.46,0,0,0-1.36.13,1.11,1.11,0,0,0-.56.4l-.49.53a1.72,1.72,0,0,0,0,.21.86.86,0,0,0-.15.45,2.25,2.25,0,0,0,.87,1.8,6.49,6.49,0,0,0,1,.74,7,7,0,0,0,1,.3,4.08,4.08,0,0,0,1.69.43,6.41,6.41,0,0,0,2.76-.45,5.43,5.43,0,0,0,3.5-3.39,1.08,1.08,0,0,1,.14-.26l.5-1.55a6.3,6.3,0,0,0,.29-1.59C201.63,39.7,201.59,39.13,201.5,38.08Zm-5.64,4v0a4.29,4.29,0,0,0-.71-.1,4.88,4.88,0,0,0-.71,0,4.88,4.88,0,0,1-.71,0,6.73,6.73,0,0,0,1.22.25,2.17,2.17,0,0,0,.88-.09h0l0,0h0A.26.26,0,0,0,195.86,42.07Zm-.06-5.64a2,2,0,0,1,.77.4,1,1,0,0,1,.25.79c0,.57-.3.87-.8.89a1.57,1.57,0,0,1-.45,0,1.65,1.65,0,0,1-1-.38,1,1,0,0,1-.33-1,1.2,1.2,0,0,1,.39-.57,5.59,5.59,0,0,1,.57-.44A2.23,2.23,0,0,0,195.8,36.43Zm.72,1.18v0l-.11,0a5.37,5.37,0,0,1-.54-.22l-.24.18-.14.13c-.18.16-.28.28-.29.36a1.64,1.64,0,0,0,0,.18h0a1.59,1.59,0,0,0,.4.07,1.34,1.34,0,0,0,.41,0C196.32,38.2,196.5,38,196.52,37.61Z"/><path class="cls-2" d="M218,41.47c-.06.88-.14,1.63-.24,2.26a9.4,9.4,0,0,1-.85,2.73,4.05,4.05,0,0,1-.12.47c-.92,1.55-2.7,2.51-5.35,2.86a5.63,5.63,0,0,1-1.68,0,6.91,6.91,0,0,1-2-.65c-.49-.24-.83-.41-1-.53a5.36,5.36,0,0,1-2.07-2,5.26,5.26,0,0,1-1.29-2.44,6.55,6.55,0,0,1-.24-2.78V41.3a21.86,21.86,0,0,1,1.55-4.64h0a2.52,2.52,0,0,1,.7-.84h0a7.09,7.09,0,0,0,.74-.76,4.64,4.64,0,0,1,4-1.85l.27.05c1.08.17,1.78.3,2.08.38a4.84,4.84,0,0,1,1.88.89l.24.11.17.08a4.52,4.52,0,0,1,1.5,1.51,3.8,3.8,0,0,1,.54.77l.48.83a3.58,3.58,0,0,1,.26.46,11.56,11.56,0,0,1,.38,2.3,4.18,4.18,0,0,1,.17.78Zm-1.09-1.66a10.47,10.47,0,0,0-.4-2.32.78.78,0,0,0-.12-.21l-.11-.16A3.94,3.94,0,0,0,214.51,35l-.25-.1-.18-.08a4.23,4.23,0,0,0-2-.91c-1.26-.25-2-.38-2.13-.38a4.25,4.25,0,0,0-3.69,1.73c-.09.1-.34.36-.76.76a2.65,2.65,0,0,0-.64.75,21.76,21.76,0,0,0-1.52,4.57,5.83,5.83,0,0,0,.24,2.75,5.44,5.44,0,0,0,1.56,2.62,9.25,9.25,0,0,0,2,1.26,7.34,7.34,0,0,0,2,.62,5.75,5.75,0,0,0,1.59,0q3.82-.51,5.11-2.69a3.53,3.53,0,0,0,.12-.46,8.38,8.38,0,0,0,.84-2.67c0-.13.05-.36.08-.7l.16-1.54A4.41,4.41,0,0,0,216.88,39.81ZM211.4,43a2.42,2.42,0,0,1-1.55.47,7.34,7.34,0,0,1-1.16-.38,1.77,1.77,0,0,1-.86-2.1,2,2,0,0,1,.28-.82,2.64,2.64,0,0,1,1.52-1.2,5.93,5.93,0,0,1,1.24,0,1.68,1.68,0,0,1,1.27.85,3,3,0,0,1,.26.86,2.24,2.24,0,0,1,0,1A2.59,2.59,0,0,1,211.4,43Zm-.16-.26a2.31,2.31,0,0,0,.92-1.1v-.05a2.41,2.41,0,0,0-.07-.83c0-.21-.08-.35-.1-.42a1.65,1.65,0,0,0-.56-.2l-.3,0h-.07c-.18,0-.45,0-.81,0A2.49,2.49,0,0,0,209,41.15a1.67,1.67,0,0,0-.23.7,3.06,3.06,0,0,0-.05.87.31.31,0,0,0,.13.05,6.67,6.67,0,0,0,1.06.35A2.11,2.11,0,0,0,211.24,42.69Zm-1-2.61h.05S210.28,40.09,210.26,40.08Z"/><path class="cls-2" d="M224.62,48.05c-.05.34-.11.63-.16.87a4,4,0,0,1-.72,1.62,3.46,3.46,0,0,1-2,1.42l-.44,0h-.38c-.21,0-.43-.07-.64-.12a2.9,2.9,0,0,1-1.05-.44,2.09,2.09,0,0,1-.61-1,3.46,3.46,0,0,1-.8-1.73A9.56,9.56,0,0,1,218,46a12.09,12.09,0,0,1,1.11-2.8v0a.43.43,0,0,0,0-.13v.05a.45.45,0,0,1,0-.31,1.07,1.07,0,0,1,.31-.48,2.47,2.47,0,0,1,1.88-.5h.12l.12,0-.33-.18-.16-.18,0,0a2.39,2.39,0,0,1-.82-1.14,2.24,2.24,0,0,1-.55-2.23,2.67,2.67,0,0,1,.17-.5,8.76,8.76,0,0,1,.83-1.08,3,3,0,0,1,1.19-.9,3.36,3.36,0,0,1,1.42.13,3.23,3.23,0,0,1,2.24,1.45c.11.23.18.38.21.46a2.23,2.23,0,0,1,.62,2l-.06.23a3,3,0,0,1-2.52,2.64l-.82-.2a2.47,2.47,0,0,1-.4-.11h0A4.39,4.39,0,0,1,223.91,44h0c.14,0,.32.33.52.89a4.22,4.22,0,0,1,.31,1.08A9,9,0,0,1,224.62,48.05Zm-.72-2.95a3.3,3.3,0,0,0-.75-1.8,2.88,2.88,0,0,0-1.59-1.13l-.17,0a2.18,2.18,0,0,0-.95,0c-.64.14-1,.37-1.08.71a.57.57,0,0,0,0,.22.47.47,0,0,1,0,.22,13.08,13.08,0,0,0-1.11,2.78,6.45,6.45,0,0,0-.2,1.58,7.8,7.8,0,0,0,0,1,3.63,3.63,0,0,0,.64,1.51,2.94,2.94,0,0,0,1.65.61c.27,0,.54,0,.79-.06a3.2,3.2,0,0,0,1.8-1.29,3.65,3.65,0,0,0,.65-1.49,6.6,6.6,0,0,0,.16-.84A9.46,9.46,0,0,0,223.9,45.1Zm1.29-7.77a4,4,0,0,0-3.29-1.45,2.54,2.54,0,0,0-1.06.8,5.41,5.41,0,0,0-.81,1.06,3.14,3.14,0,0,0-.13.4,2,2,0,0,0,.75,2.19,1.1,1.1,0,0,1,.13.17,4.7,4.7,0,0,0,1.24.55l1.13.29c1.25-.19,2-1.15,2.33-2.86A1.69,1.69,0,0,0,225.19,37.33Z"/><path class="cls-2" d="M241.28,53.55a4.58,4.58,0,0,1-.66,1,2.31,2.31,0,0,1-1,.62l-.57.17a1.63,1.63,0,0,1-.81.1l-.76-.18a3.29,3.29,0,0,1-.85-.45,13.43,13.43,0,0,1-2.15-2c-.51-.69-.88-1.22-1.12-1.6a2.92,2.92,0,0,0-.86-.91h0c-.08,0-.19.06-.33.26l-.07.18-.06.17a7.34,7.34,0,0,0-.21.81c-.1.45-.16.72-.19.8A2.07,2.07,0,0,1,229.4,54h0a5.41,5.41,0,0,1-1.31-.12,1.52,1.52,0,0,1-.27-.13,1.39,1.39,0,0,0-.26-.14,3,3,0,0,1-1.14-.75,2,2,0,0,0-.19-.3l0,0a3.29,3.29,0,0,1-.76-1.32,4,4,0,0,1-.56-2.7l.13-.37c0-.14.08-.26.11-.34s.05-.1,0,0l.07-.21.09-.31.35-1c.21-.64.44-1.27.69-1.9.57-1.49.88-2.28.91-2.37l.06-.17c.06-.19.16-.43.29-.73.54-.8.84-1.23.9-1.31h0a3.46,3.46,0,0,1,1.31-1,2.54,2.54,0,0,1,1.66.15,5.25,5.25,0,0,1,.69.39v0a4.33,4.33,0,0,1,1.57,2q1.08,2.4,1.17,2.58a2,2,0,0,0,1,.77,1.29,1.29,0,0,0,.37-.06h0a7.89,7.89,0,0,0,.69-1,6.29,6.29,0,0,1,1.88-2.12,3.89,3.89,0,0,1,1.33-.33,3.18,3.18,0,0,1,1.33.08l.07,0a2.25,2.25,0,0,1,1.3,1.55.33.33,0,0,1,0,.1,4,4,0,0,1,.69,2.72,11.79,11.79,0,0,1-.35,1.88l-.05.21c-.26,1.07-.41,1.76-.47,2.07l-.9,2.69A8.19,8.19,0,0,1,241.28,53.55Zm.68-4.81.52-2.28c.19-.84.3-1.4.33-1.69a4.41,4.41,0,0,0-.2-1.87,2.11,2.11,0,0,0-1.16-1.39,2.67,2.67,0,0,0-1.23-.1,3.82,3.82,0,0,0-1.25.32,6.06,6.06,0,0,0-1.76,2,4.91,4.91,0,0,1-.83,1.09.94.94,0,0,1-.54.06,2.37,2.37,0,0,1-1.42-1.39c-.44-1-.74-1.76-.89-2.13a3.78,3.78,0,0,0-1.46-1.81c-.36-.21-.57-.33-.63-.35A2.42,2.42,0,0,0,230,39a3.61,3.61,0,0,0-1.21,1c-.38.53-.66.93-.83,1.21l-.35.89-.92,2.39c-.35.89-.63,1.69-.86,2.4s-.44,1.32-.59,1.73a3.31,3.31,0,0,0,.77,2.83,2.08,2.08,0,0,1,.17.28,3.49,3.49,0,0,0,1,.65,1.8,1.8,0,0,1,.26.14,1.52,1.52,0,0,0,.25.13,6.27,6.27,0,0,0,1.24.1,1.82,1.82,0,0,0,1.91-1.27q.06-.18.09-.3l.1-.47a5.87,5.87,0,0,1,.21-.83l.07-.19a1,1,0,0,1,.32-.47c.18-.17.35-.22.51-.13a3.61,3.61,0,0,1,1,1l1.12,1.58a14.09,14.09,0,0,0,2.22,2.06,3.93,3.93,0,0,0,1.35.47,1.81,1.81,0,0,0,.62-.06L239,54a2.22,2.22,0,0,0,1-.72,6.68,6.68,0,0,0,1-1.86Z"/><path class="cls-2" d="M255.25,54.81a5.07,5.07,0,0,1-.39,1.24,6.88,6.88,0,0,1-.9,1.43l-1.08,1.33a.54.54,0,0,0-.18.14h0a5.7,5.7,0,0,1-4.73,2,6.83,6.83,0,0,1-2.85-.61,4.5,4.5,0,0,1-1.47-1c-.4-.31-.7-.54-.9-.71a5.12,5.12,0,0,1-.67-1.11h0a3.44,3.44,0,0,1-.31-.9l-.05-.1h0a2.48,2.48,0,0,1-.14-2.25,1.31,1.31,0,0,1,.32-.43,1.19,1.19,0,0,1,.16-.22l.21-.1.5-.27a1.41,1.41,0,0,1,.86-.18,5,5,0,0,1,1.39.4l.15.1a3.26,3.26,0,0,1-.82-1.59,4.49,4.49,0,0,1-.39-1.19,5,5,0,0,1,.42-3,3.75,3.75,0,0,1,1.25-1.56l0,0a6.89,6.89,0,0,1,1.38-1h0a5.69,5.69,0,0,1,1.15-.49,10.45,10.45,0,0,1,1.23.05,7.5,7.5,0,0,1,.95.13l.85.23a11.87,11.87,0,0,0,1.34,1.15h0A16.22,16.22,0,0,1,254.22,48a4.46,4.46,0,0,1,.81,1.68,8,8,0,0,1,.46,4.29c-.11.37-.19.66-.24.84Zm-.53-1.52a2.13,2.13,0,0,0,.1-.35,11.64,11.64,0,0,0,.06-2.3,4.52,4.52,0,0,0-.88-2.39c-.51-.54-.84-.87-1-1s-.5-.43-1.07-.88a6.07,6.07,0,0,1-1-.92l-.75-.2a4,4,0,0,0-.89-.11,3.21,3.21,0,0,1-.61-.07,1.58,1.58,0,0,0-.53,0,5.3,5.3,0,0,0-1.08.45l-.33.2-.62.41a4,4,0,0,0-.37.34,3.36,3.36,0,0,0-1.14,1.44,4.64,4.64,0,0,0-.41,2.75,2.7,2.7,0,0,0,1.54,2.19,3.43,3.43,0,0,0,.59.2,5,5,0,0,1,1.52.67,1,1,0,0,1,.42.68,1.15,1.15,0,0,1-.06.83.37.37,0,0,1-.3.11,2.52,2.52,0,0,1-1-.26A11.37,11.37,0,0,1,245.37,54a3,3,0,0,0-.49-.27,5.31,5.31,0,0,0-1.31-.38,1.16,1.16,0,0,0-.67.16l-.64.32-.12.18a1,1,0,0,0-.3.37,2.23,2.23,0,0,0,.15,2,6.52,6.52,0,0,0,.63,1,5.7,5.7,0,0,0,.85.66,4.07,4.07,0,0,0,1.42,1,6.42,6.42,0,0,0,2.73.59,5.43,5.43,0,0,0,4.5-1.89,1,1,0,0,1,.22-.19l1-1.26a7,7,0,0,0,.85-1.37C254.25,54.85,254.42,54.31,254.72,53.29ZM248,55l0,0a4.39,4.39,0,0,0-.63-.36,5.48,5.48,0,0,0-.67-.23,3.56,3.56,0,0,1-.67-.23,7.24,7.24,0,0,0,1,.68A2,2,0,0,0,248,55h0l0,0A.18.18,0,0,1,248,55Zm2-5.29a2,2,0,0,1,.58.66,1,1,0,0,1-.06.83c-.24.52-.59.7-1.07.53a1.46,1.46,0,0,1-.43-.13,1.65,1.65,0,0,1-.82-.73,1,1,0,0,1,0-1.05,1.2,1.2,0,0,1,.58-.38,6.15,6.15,0,0,1,.69-.21A2,2,0,0,0,250,49.68Zm.25,1.37,0,0-.08-.07a3.6,3.6,0,0,1-.43-.39l-.29.08-.18.07a.84.84,0,0,0-.4.22,1,1,0,0,0-.09.16h0a1.4,1.4,0,0,0,.34.21,1.07,1.07,0,0,0,.4.12C249.86,51.52,250.1,51.4,250.26,51.05Z"/><path class="cls-3" d="M139.08,52.75a.86.86,0,0,0-.06-.53,3.39,3.39,0,0,0-.91-1.22,3.54,3.54,0,0,0-1.34-.75c-.7-.2-1.35-.38-1.94-.53a.57.57,0,0,1-.27-.36,1.24,1.24,0,0,1-.11-.63,7.63,7.63,0,0,1,.38-1.5,11.36,11.36,0,0,0,.42-1.49,2.26,2.26,0,0,0-.09-1.36,4.22,4.22,0,0,0-.39-.44l-.39-.46a3.1,3.1,0,0,0-1.28-.23,6.25,6.25,0,0,0-.64.37c-.48.31-.76.48-.82.54a2.45,2.45,0,0,0-.68.91c-.32.74-.56,1.27-.72,1.6s-.2.58-.25.71c-.13.37-.28.6-.47.67l-.12,0c-.51,0-1-.36-1.45-1.09-.72-1.15-1.09-1.73-1.11-1.75a1.47,1.47,0,0,0-1.81-.32.74.74,0,0,0-.36.34A7.86,7.86,0,0,0,124,47a1.62,1.62,0,0,0,.06.92c.19.52.76,1.77,1.71,3.77.06.09.13.21.22.38l.47.9a7.59,7.59,0,0,1,.35.7,6.23,6.23,0,0,1,.24.6,6,6,0,0,0,.22.57,11.27,11.27,0,0,0,1.56,2.73,2.88,2.88,0,0,0,1.62,1.09,1.3,1.3,0,0,0,.81,0,1.58,1.58,0,0,0,.3-.17l.86-.76a1.9,1.9,0,0,0,.19-.89c0-.33-.05-.59-.08-.76l-.31-.85a.84.84,0,0,1,.2-.88.89.89,0,0,1,.37-.28.93.93,0,0,1,.55,0l2,.42a6.78,6.78,0,0,0,2.14.14,1.92,1.92,0,0,0,1.06-.68,5,5,0,0,0,.37-.63A4.45,4.45,0,0,0,139.08,52.75Z"/><path class="cls-3" d="M151,45.47a2.92,2.92,0,0,0-1.63,0,5.12,5.12,0,0,0-1.49.84,5.42,5.42,0,0,1-1.49.83,2.57,2.57,0,0,1-1.23.06A.36.36,0,0,1,145,47a.57.57,0,0,1,.16-.31,25.87,25.87,0,0,0,3.44-1.81,3.17,3.17,0,0,0,1.18-1.72,2.54,2.54,0,0,0,.1-1c-.07-.35-.13-.62-.19-.81a6,6,0,0,0-1.36-2.56,3.25,3.25,0,0,0-2.63-1l-1.15.08a4.07,4.07,0,0,0-.8.34l-1.82,1a4.88,4.88,0,0,0-2.72,3.43,21.87,21.87,0,0,0-.43,2.78,6.42,6.42,0,0,0,.31,2.53c.16.45.28.78.35,1,1.24,2.15,2.67,3.37,4.31,3.65l1,.19,1.54,0,1.66-.31a.58.58,0,0,1,.2,0h.19a14.35,14.35,0,0,0,3.31-1.85,3.14,3.14,0,0,0,1.25-3.38A2.51,2.51,0,0,0,151,45.47Zm-5.69-2.18c-.33.52-.56.88-.71,1.06a.91.91,0,0,1-.26.13,1.06,1.06,0,0,1-.84-.12,1,1,0,0,1-.56-.63s0-.13,0-.23a4.93,4.93,0,0,1,.18-.88l.14-.22c.06-.09.1-.17.13-.22.41,0,.76.09,1.06.13a1,1,0,0,1,.83.59Q145.36,43.22,145.3,43.29Z"/><path class="cls-3" d="M166,42.46a2.82,2.82,0,0,0-1.63-.15,5.36,5.36,0,0,0-1.57.67,5.34,5.34,0,0,1-1.57.68,2.56,2.56,0,0,1-1.23-.07.58.58,0,0,1-.1-.19c.07-.17.13-.27.19-.3a25.13,25.13,0,0,0,3.62-1.44A3.13,3.13,0,0,0,165,40.08a2.42,2.42,0,0,0,.21-1c0-.35-.07-.62-.1-.82A6.07,6.07,0,0,0,164,35.59a3.23,3.23,0,0,0-2.51-1.25l-1.15,0a3.48,3.48,0,0,0-.84.26l-1.9.76a4.87,4.87,0,0,0-3.07,3.13,21.91,21.91,0,0,0-.72,2.72,6.34,6.34,0,0,0,0,2.55l.24,1q1.51,3.4,3.9,4.09c.38.1.69.2.94.29l1.54.1,1.68-.13a.74.74,0,0,1,.2,0,.66.66,0,0,0,.19,0,14.25,14.25,0,0,0,3.48-1.49,3.14,3.14,0,0,0,1.6-3.23A2.49,2.49,0,0,0,166,42.46Zm-5.43-2.76c-.39.48-.66.81-.82,1a.94.94,0,0,1-.28.1,1.11,1.11,0,0,1-.82-.21,1,1,0,0,1-.49-.69,1.28,1.28,0,0,1,0-.22,4.11,4.11,0,0,1,.28-.86,1.46,1.46,0,0,1,.15-.2c.07-.09.13-.16.16-.21.4.08.75.16,1,.24a1,1,0,0,1,.76.67C160.56,39.52,160.57,39.65,160.53,39.7Zm-1.25.63v-.06A.13.13,0,0,0,159.28,40.33Z"/><path class="cls-3" d="M178.47,33.08a5.21,5.21,0,0,0-2.88-.59,6.56,6.56,0,0,1-1.39,0c-3.45.44-5.18,2.68-5.18,6.74v1.28c0,.49,0,.91.05,1.27q0,.06.06.48l.26,1.68.06.42.11.54c0,.22.06.36.07.4a7.77,7.77,0,0,0,.3,1.08,2.35,2.35,0,0,0,1.18,1,3.16,3.16,0,0,0,1.57.26,2.56,2.56,0,0,0,2.06-1.17,1.41,1.41,0,0,0,.37-.58c.06-.35.09-.57.11-.68,0-.28,0-.52,0-.72a4,4,0,0,0-.07-.5l-.31-.85c-.2-.83-.3-1.28-.31-1.35a.87.87,0,0,1,.84-1l1-.13A6,6,0,0,0,178,40.2a5,5,0,0,0,1.75-1.09,4.28,4.28,0,0,0,.79-3,6.89,6.89,0,0,0-.1-.76A3.31,3.31,0,0,0,178.47,33.08Zm-4.22,5.09a1,1,0,0,1-.63-.22.79.79,0,0,1-.36-.55s.07-.23.2-.63l.11-.34a.87.87,0,0,1,.67-.5c.56-.1.86.2.92.9a1.86,1.86,0,0,1-.16,1C174.53,38.06,174.28,38.17,174.25,38.17Z"/><path class="cls-3" d="M201.5,38.08a3.22,3.22,0,0,0,0-.37,11.58,11.58,0,0,0-.78-2.16A4.56,4.56,0,0,0,199,33.64c-.67-.31-1.1-.51-1.28-.58s-.62-.22-1.32-.44a6.06,6.06,0,0,1-1.24-.49l-.78.09a4,4,0,0,0-.87.21,2.58,2.58,0,0,1-.59.16,1.69,1.69,0,0,0-.49.18,5.41,5.41,0,0,0-.85.82c-.07.08-.14.18-.23.3l-.43.61a3.71,3.71,0,0,0-.22.45,3.42,3.42,0,0,0-.54,1.76,4.71,4.71,0,0,0,.61,2.71A2.7,2.7,0,0,0,193,40.89a2.49,2.49,0,0,0,.62,0,5.05,5.05,0,0,1,1.66.07,1.07,1.07,0,0,1,.64.48,1.23,1.23,0,0,1,.25.79.36.36,0,0,1-.24.21,2.28,2.28,0,0,1-1,.12,11.74,11.74,0,0,1-1.9-.43,3,3,0,0,0-.55-.08,5.46,5.46,0,0,0-1.36.13,1.11,1.11,0,0,0-.56.4l-.49.53a1.72,1.72,0,0,0,0,.21.86.86,0,0,0-.15.45,2.25,2.25,0,0,0,.87,1.8,6.49,6.49,0,0,0,1,.74,7,7,0,0,0,1,.3,4.08,4.08,0,0,0,1.69.43,6.41,6.41,0,0,0,2.76-.45,5.43,5.43,0,0,0,3.5-3.39,1.08,1.08,0,0,1,.14-.26l.5-1.55a6.3,6.3,0,0,0,.29-1.59C201.63,39.7,201.59,39.13,201.5,38.08Zm-5.7-1.65a2,2,0,0,1,.77.4,1,1,0,0,1,.25.79c0,.57-.3.87-.8.89a1.57,1.57,0,0,1-.45,0,1.65,1.65,0,0,1-1-.38,1,1,0,0,1-.33-1,1.2,1.2,0,0,1,.39-.57,5.59,5.59,0,0,1,.57-.44A2.23,2.23,0,0,0,195.8,36.43Z"/><path class="cls-3" d="M216.88,39.81a10.47,10.47,0,0,0-.4-2.32.78.78,0,0,0-.12-.21l-.11-.16A3.94,3.94,0,0,0,214.51,35l-.25-.1-.18-.08a4.23,4.23,0,0,0-2-.91c-1.26-.25-2-.38-2.13-.38a4.25,4.25,0,0,0-3.69,1.73c-.09.1-.34.36-.76.76a2.65,2.65,0,0,0-.64.75,21.76,21.76,0,0,0-1.52,4.57,5.83,5.83,0,0,0,.24,2.75,5.44,5.44,0,0,0,1.56,2.62,9.25,9.25,0,0,0,2,1.26,7.34,7.34,0,0,0,2,.62,5.75,5.75,0,0,0,1.59,0q3.82-.51,5.11-2.69a3.53,3.53,0,0,0,.12-.46,8.38,8.38,0,0,0,.84-2.67c0-.13.05-.36.08-.7l.16-1.54A4.41,4.41,0,0,0,216.88,39.81ZM211.4,43a2.42,2.42,0,0,1-1.55.47,7.34,7.34,0,0,1-1.16-.38,1.77,1.77,0,0,1-.86-2.1,2,2,0,0,1,.28-.82,2.64,2.64,0,0,1,1.52-1.2,5.93,5.93,0,0,1,1.24,0,1.68,1.68,0,0,1,1.27.85,3,3,0,0,1,.26.86,2.24,2.24,0,0,1,0,1A2.59,2.59,0,0,1,211.4,43Z"/><path class="cls-3" d="M223.9,45.1a3.3,3.3,0,0,0-.75-1.8,2.88,2.88,0,0,0-1.59-1.13l-.17,0a2.18,2.18,0,0,0-.95,0c-.64.14-1,.37-1.08.71a.57.57,0,0,0,0,.22.47.47,0,0,1,0,.22,13.08,13.08,0,0,0-1.11,2.78,6.45,6.45,0,0,0-.2,1.58,7.8,7.8,0,0,0,0,1,3.63,3.63,0,0,0,.64,1.51,2.94,2.94,0,0,0,1.65.61c.27,0,.54,0,.79-.06a3.2,3.2,0,0,0,1.8-1.29,3.65,3.65,0,0,0,.65-1.49,6.6,6.6,0,0,0,.16-.84A9.46,9.46,0,0,0,223.9,45.1Zm1.29-7.77a4,4,0,0,0-3.29-1.45,2.54,2.54,0,0,0-1.06.8,5.41,5.41,0,0,0-.81,1.06,3.14,3.14,0,0,0-.13.4,2,2,0,0,0,.75,2.19,1.1,1.1,0,0,1,.13.17,4.7,4.7,0,0,0,1.24.55l1.13.29c1.25-.19,2-1.15,2.33-2.86A1.69,1.69,0,0,0,225.19,37.33Z"/><path class="cls-3" d="M242,48.74l.52-2.28c.19-.84.3-1.4.33-1.69a4.41,4.41,0,0,0-.2-1.87,2.11,2.11,0,0,0-1.16-1.39,2.67,2.67,0,0,0-1.23-.1,3.82,3.82,0,0,0-1.25.32,6.06,6.06,0,0,0-1.76,2,4.91,4.91,0,0,1-.83,1.09.94.94,0,0,1-.54.06,2.37,2.37,0,0,1-1.42-1.39c-.44-1-.74-1.76-.89-2.13a3.78,3.78,0,0,0-1.46-1.81c-.36-.21-.57-.33-.63-.35A2.42,2.42,0,0,0,230,39a3.61,3.61,0,0,0-1.21,1c-.38.53-.66.93-.83,1.21l-.35.89-.92,2.39c-.35.89-.63,1.69-.86,2.4s-.44,1.32-.59,1.73a3.31,3.31,0,0,0,.77,2.83,2.08,2.08,0,0,1,.17.28,3.49,3.49,0,0,0,1,.65,1.8,1.8,0,0,1,.26.14,1.52,1.52,0,0,0,.25.13,6.27,6.27,0,0,0,1.24.1,1.82,1.82,0,0,0,1.91-1.27q.06-.18.09-.3l.1-.47a5.87,5.87,0,0,1,.21-.83l.07-.19a1,1,0,0,1,.32-.47c.18-.17.35-.22.51-.13a3.61,3.61,0,0,1,1,1l1.12,1.58a14.09,14.09,0,0,0,2.22,2.06,3.93,3.93,0,0,0,1.35.47,1.81,1.81,0,0,0,.62-.06L239,54a2.22,2.22,0,0,0,1-.72,6.68,6.68,0,0,0,1-1.86Z"/><path class="cls-3" d="M254.72,53.29a2.13,2.13,0,0,0,.1-.35,11.64,11.64,0,0,0,.06-2.3,4.52,4.52,0,0,0-.88-2.39c-.51-.54-.84-.87-1-1s-.5-.43-1.07-.88a6.07,6.07,0,0,1-1-.92l-.75-.2a4,4,0,0,0-.89-.11,3.21,3.21,0,0,1-.61-.07,1.58,1.58,0,0,0-.53,0,5.3,5.3,0,0,0-1.08.45l-.33.2-.62.41a4,4,0,0,0-.37.34,3.36,3.36,0,0,0-1.14,1.44,4.64,4.64,0,0,0-.41,2.75,2.7,2.7,0,0,0,1.54,2.19,3.43,3.43,0,0,0,.59.2,5,5,0,0,1,1.52.67,1,1,0,0,1,.42.68,1.15,1.15,0,0,1-.06.83.37.37,0,0,1-.3.11,2.52,2.52,0,0,1-1-.26A11.37,11.37,0,0,1,245.37,54a3,3,0,0,0-.49-.27,5.31,5.31,0,0,0-1.31-.38,1.16,1.16,0,0,0-.67.16l-.64.32-.12.18a1,1,0,0,0-.3.37,2.23,2.23,0,0,0,.15,2,6.52,6.52,0,0,0,.63,1,5.7,5.7,0,0,0,.85.66,4.07,4.07,0,0,0,1.42,1,6.42,6.42,0,0,0,2.73.59,5.43,5.43,0,0,0,4.5-1.89,1,1,0,0,1,.22-.19l1-1.26a7,7,0,0,0,.85-1.37C254.25,54.85,254.42,54.31,254.72,53.29ZM250,49.68a2,2,0,0,1,.58.66,1,1,0,0,1-.06.83c-.24.52-.59.7-1.07.53a1.46,1.46,0,0,1-.43-.13,1.65,1.65,0,0,1-.82-.73,1,1,0,0,1,0-1.05,1.2,1.2,0,0,1,.58-.38,6.15,6.15,0,0,1,.69-.21A2,2,0,0,0,250,49.68Z"/></svg>