<svg id="Layer_1" data-name="Layer 1" xmlns="http://www.w3.org/2000/svg" viewBox="0 0 375 375"><defs><style>.cls-1{fill:none;}.cls-2{fill:#ae84d5;}.cls-3{fill:#fff;}</style></defs><rect class="cls-1" width="375" height="375"/><path class="cls-2" d="M90.32,76.59a.61.61,0,0,0,.12.16c.33.48.57.85.72,1.12l.41.54c.42.92.7,1.51.83,1.78a9.53,9.53,0,0,1,.7,2.1A3.57,3.57,0,0,1,92,85.65l-.37.37-.06,0a3.71,3.71,0,0,1-2.27.49,7.88,7.88,0,0,0-2.42.2s0,0,0,0a.46.46,0,0,0-.07.22c0,.24.06.6.12,1.11A3.26,3.26,0,0,1,86.43,90l0,.09h0a3.16,3.16,0,0,1-.66.88,3.64,3.64,0,0,1-1.48.94,8.92,8.92,0,0,1-1.72.13h-.86a3.48,3.48,0,0,1-2.1-.89l.11.07-.09,0-.21,0-3.28-3h0a19,19,0,0,1-1.59-1.44l-.27-.28v-.1l0,0q-3-3.07-.85-5.22a2.12,2.12,0,0,1,2.29-.71,1.82,1.82,0,0,1,1.43.16,5.9,5.9,0,0,1,1.13,1l.42.42.11.14.64.64a.79.79,0,0,0,.14.13l1.35,1.37.14.11.13.13c-.12-.23-.22-.42-.3-.55a10,10,0,0,1-.91-2,1.47,1.47,0,0,1,.06-.76,1.67,1.67,0,0,1,.39-.67.82.82,0,0,1,.36-.21h0a1.94,1.94,0,0,1,1.16,0h0a2.43,2.43,0,0,1,1,0h0c.25,0,.69.14,1.31.3l.38.17a1.7,1.7,0,0,0,.4.13c0-.12,0-.26-.06-.45v0a1.08,1.08,0,0,0-.22-.48c-.43-.61-.86-1.16-1.28-1.66a7.75,7.75,0,0,1-1.33-2.13,3.4,3.4,0,0,1-.13-.69h0a1.84,1.84,0,0,1,.09-.85v0a3.6,3.6,0,0,1,.8-1.21,1.71,1.71,0,0,1,.9-.5,1.59,1.59,0,0,1,.76.09,1.07,1.07,0,0,1,.3-.09,3.27,3.27,0,0,1,2,.58l.06.06a2.5,2.5,0,0,0,.39.33l.41.32a1,1,0,0,0,.64.32l2,2Zm-3.21-1.78A8.2,8.2,0,0,0,85.82,74a1.71,1.71,0,0,1-.29-.25,4.09,4.09,0,0,0-.85-.35,2.35,2.35,0,0,0-.85-.16,1.48,1.48,0,0,0-.74.43,3.34,3.34,0,0,0-.73,1.11c-.31.77.13,1.88,1.33,3.34A13.7,13.7,0,0,1,85,79.78a2.39,2.39,0,0,1,.27.56c0,.24,0,.48.08.72a1.24,1.24,0,0,1-1.14.13A4.35,4.35,0,0,1,83,80.78a11.35,11.35,0,0,0-1.2-.25,1.65,1.65,0,0,0-1,0,.46.46,0,0,0-.22.13,1.4,1.4,0,0,0-.32.55,1,1,0,0,0,0,.59,5.18,5.18,0,0,0,.38,1c.11.24.28.55.49,1a7.87,7.87,0,0,0,.52.9c.14.32.17.54.08.63a.68.68,0,0,1-1.06,0q-.25-.21-.51-.45a4.77,4.77,0,0,0-.37-.34c-.17-.14-.22-.18-.14-.1l-2.51-2.54a8.09,8.09,0,0,0-1.27-1.1,1.43,1.43,0,0,0-1.19-.12,2.58,2.58,0,0,0-1.07.66c-1.32,1.3-1,2.93.94,4.87v.07s0,0,0,.06a3.4,3.4,0,0,0,.38.38L76.32,88c.93.83,1.56,1.4,1.87,1.69l1.34,1.21.26.06a3.2,3.2,0,0,0,1.91.81,3.4,3.4,0,0,0,2.77-1,5.68,5.68,0,0,0,1-1.57,2.2,2.2,0,0,0,.16-1.08c0-.5-.1-.87-.13-1.12s.12-.44.3-.5a3.69,3.69,0,0,1,1.27-.21h1.18a3.45,3.45,0,0,0,2.07-.44c.13-.1.27-.23.43-.38a3.3,3.3,0,0,0,1-3.09,7.72,7.72,0,0,0-.69-2l-.41-.89c-.19-.41-.33-.7-.41-.86s-.28-.39-.4-.53L89,76.73ZM81.19,84.5v0Z"/><path class="cls-2" d="M102.66,66.89l.29.36a6.13,6.13,0,0,1,.42.49,4.58,4.58,0,0,1,.7,1.2,6.86,6.86,0,0,1-1,6.82h0a10.71,10.71,0,0,1-2,2.16,7.74,7.74,0,0,1-3.36,1.49,6,6,0,0,1-2.15,0,4.9,4.9,0,0,1-1.5-.25,4,4,0,0,1-2-1.24l0,0a2.35,2.35,0,0,1-.32-.32,7,7,0,0,1-.41-1.45l0,.06c-.17-.62-.29-1.08-.35-1.38a6.57,6.57,0,0,1,.08-1.2,4.31,4.31,0,0,1,1.29-2.27l-.39.16a2.12,2.12,0,0,1-1.25.08,1,1,0,0,1-.24-.1,1.76,1.76,0,0,1-1.8-.73l-.06-.09-.07-.11h0a3.56,3.56,0,0,1-.33-1.82,4.58,4.58,0,0,0,.2-.67,4.48,4.48,0,0,1,1.38-2l.07-.06a5.93,5.93,0,0,1,.54-.33,3.65,3.65,0,0,0,.53-.33,10.23,10.23,0,0,1,3-1.63h.25A4.54,4.54,0,0,1,97,63.5a6.1,6.1,0,0,1,3.15,1,9.65,9.65,0,0,1,2.48,2.27Zm-4.33-2.56A4.69,4.69,0,0,0,94.22,64H94a9.64,9.64,0,0,0-2.88,1.58,4,4,0,0,1-.54.32,2.15,2.15,0,0,0-.57.37,4.92,4.92,0,0,0-1.3,1.87l-.2.65a3.2,3.2,0,0,0,.31,1.62.51.51,0,0,0,.09.14,1.52,1.52,0,0,0,.81.57,2.25,2.25,0,0,0,2.11-.58,1.82,1.82,0,0,0,.37-.36l.68-1.22a3.91,3.91,0,0,1,.76-1,.83.83,0,0,1,.25-.19.9.9,0,0,1,.88,0,2.54,2.54,0,0,1,.36.4c.21.31.27.54.18.7a9,9,0,0,1-1.81,1.89,8.23,8.23,0,0,0-1.88,2,2.34,2.34,0,0,0-.27.87,7.83,7.83,0,0,0-.07,1.14c.13.6.24,1,.33,1.3A6.2,6.2,0,0,0,92,77.38a2.18,2.18,0,0,0,.3.28,3.45,3.45,0,0,0,2,1.2,6.19,6.19,0,0,0,5.6-1.32,10.29,10.29,0,0,0,1.91-2.09,9.48,9.48,0,0,0,.75-1.27,6.79,6.79,0,0,0,.52-1.36,7,7,0,0,0,.07-2.41,5.33,5.33,0,0,0-.8-2.28,5.71,5.71,0,0,0-.55-.7c-.23-.26-.39-.45-.47-.56A9.09,9.09,0,0,0,98.33,64.33Zm-3.44,4,0,0a3.31,3.31,0,0,0-.67.9h0l-.5.9a7.72,7.72,0,0,0,1.36-1.45L95,68.48A.94.94,0,0,1,94.89,68.3Zm4,3.6a1.31,1.31,0,0,1-.44,1.36l-.23.19a1.09,1.09,0,0,0-.17.13,1.85,1.85,0,0,1-1.11.31,1.33,1.33,0,0,1-1.29-.59,1.7,1.7,0,0,1-.14-1,1.49,1.49,0,0,1,.36-1l.53-.54q1.38-.84,1.89-.21A2.84,2.84,0,0,1,98.94,71.9Zm-.28.06a2.64,2.64,0,0,0-.45-1.13l-.54.29c0,.06-.22.23-.49.49a1.39,1.39,0,0,0-.25.79,1.51,1.51,0,0,0,.06.85.24.24,0,0,1,0,.07l0,.05a.53.53,0,0,0,.23.2,1.28,1.28,0,0,0,.62-.23,1.1,1.1,0,0,0,.15-.14,1.17,1.17,0,0,0,.27-.15A1,1,0,0,0,98.66,72Z"/><path class="cls-2" d="M110.88,65.24c.21.27.38.51.52.72a3.89,3.89,0,0,1,.69,1.62,3.47,3.47,0,0,1-.35,2.46l-.29.34-.24.28c-.18.14-.35.27-.54.39a3,3,0,0,1-1,.47,2,2,0,0,1-1.1-.21,3.33,3.33,0,0,1-1.81-.59,9.51,9.51,0,0,1-1.89-2A12.12,12.12,0,0,1,103.54,66l0,0a.37.37,0,0,0-.1-.07l0,0a.44.44,0,0,1-.23-.21,1,1,0,0,1-.15-.55,2.53,2.53,0,0,1,.92-1.72.22.22,0,0,0,.09-.08l.1-.06-.35.11h-.28a2.34,2.34,0,0,1-1.4-.18,2.24,2.24,0,0,1-2-1.12,4.09,4.09,0,0,1-.25-.46,9.94,9.94,0,0,1-.22-1.34,2.9,2.9,0,0,1,.16-1.49,3.31,3.31,0,0,1,1.06-.95,3.2,3.2,0,0,1,2.59-.64l.48.15a2.24,2.24,0,0,1,1.92,1l.13.2a3,3,0,0,1,.21,3.65l-.7.46-.36.22h0a4.32,4.32,0,0,1,2.29.15h0c.12-.09.46,0,1,.22a4.26,4.26,0,0,1,1,.51A8.78,8.78,0,0,1,110.88,65.24Zm-7.46-7.73a3,3,0,0,0-2.35.59,3.09,3.09,0,0,0-.95.82,2.58,2.58,0,0,0-.14,1.33,4.77,4.77,0,0,0,.22,1.31,2.72,2.72,0,0,0,.2.37,2,2,0,0,0,2.12,1l.21,0a4.64,4.64,0,0,0,1.25-.54s.35-.21,1-.63q1.08-1.56-.5-3.65A1.68,1.68,0,0,0,103.42,57.51Zm4.81,6.24a3.36,3.36,0,0,0-1.83-.68,2.85,2.85,0,0,0-1.91.4l-.16.09a2.36,2.36,0,0,0-.63.71c-.34.56-.41,1-.22,1.27a.68.68,0,0,0,.17.15q.13.09.15.15a13.56,13.56,0,0,0,1.28,2.71,6.22,6.22,0,0,0,1,1.22c.46.42.71.65.76.68a3.88,3.88,0,0,0,1.54.56,3,3,0,0,0,1.58-.8,6.89,6.89,0,0,0,.49-.61,3.16,3.16,0,0,0,.28-2.2,3.58,3.58,0,0,0-.64-1.49,7.63,7.63,0,0,0-.51-.69A9.92,9.92,0,0,0,108.23,63.75Z"/><path class="cls-2" d="M123,60.37a3.74,3.74,0,0,0,.13.53,2.62,2.62,0,0,1,0,1.3h0a4.35,4.35,0,0,1-.36.92A5,5,0,0,1,121,64.76l-.22.12a7.84,7.84,0,0,1-3.39,1,3.62,3.62,0,0,0-.41-.09l-.17,0a3.32,3.32,0,0,1-.7-.22l-.15,0-.17-.05a3.41,3.41,0,0,1-2.41-1.82,4.34,4.34,0,0,1-.2-.42.86.86,0,0,1-.07-.14l-.06-.12a2.25,2.25,0,0,0-.32.13,1.52,1.52,0,0,1-1.49-.15c-.7.09-1.32-.36-1.87-1.32a3.16,3.16,0,0,1-.22-.5,1.81,1.81,0,0,0,0-.38v0a2.39,2.39,0,0,1,1.19-2.17,3,3,0,0,0-.18-.45,4.59,4.59,0,0,0-.54-.71h0a3.93,3.93,0,0,1-.56-.78,8.48,8.48,0,0,1-.53-1.14c0-.2,0-.35,0-.45l0,0a2.64,2.64,0,0,1,0-1.55,2,2,0,0,1,.93-1.14,3.32,3.32,0,0,1,.37-.19,2.36,2.36,0,0,1,1.83.14,3.5,3.5,0,0,1,1.08.33,2.14,2.14,0,0,1,.7.55v0a3.53,3.53,0,0,1,.59.72,6.78,6.78,0,0,1,.66,1.49.33.33,0,0,0,0,.13l.14-.06a1.55,1.55,0,0,1,1.67.11,1.44,1.44,0,0,1,1.49.84,3.87,3.87,0,0,1,.3.77,1.93,1.93,0,0,1,1.63.19,3,3,0,0,1,2.42,1.77,2.48,2.48,0,0,1,.23.51C122.79,59.91,122.88,60.13,123,60.37Zm-1.77-1.29A3.58,3.58,0,0,0,120,57.75a1.54,1.54,0,0,0-1.69-.1.54.54,0,0,0-.18.14,1.55,1.55,0,0,0-.46.87,3.59,3.59,0,0,0,0,.42c0,.61-.12,1-.33,1.1a.49.49,0,0,1-.25,0c-.54,0-.85-.14-.93-.37a.64.64,0,0,1,.06-.5c.36-.48.58-.78.67-.93a1.85,1.85,0,0,0,0-2.09,1.22,1.22,0,0,0-1.75-.52l-.61.23a.62.62,0,0,1-.6-.09,1.23,1.23,0,0,1-.4-.71,6.36,6.36,0,0,0-.64-1.41,3.1,3.1,0,0,0-.52-.65,2.3,2.3,0,0,0-.62-.48,2.56,2.56,0,0,0-1.28-.28,2.72,2.72,0,0,0-1,.5,1.53,1.53,0,0,0-.54,1,2.41,2.41,0,0,0,0,1.17v.24c0,.06,0,.12,0,.18a9.46,9.46,0,0,0,.48,1,7,7,0,0,0,.54.75,7.36,7.36,0,0,1,.55.75,2.09,2.09,0,0,1,.25.74,2.18,2.18,0,0,0-1.22,2,1.17,1.17,0,0,1,0,.34A3.53,3.53,0,0,0,110,62a1.29,1.29,0,0,0,1.62.52,6,6,0,0,1,.88-.33.71.71,0,0,1,.75.45,4.41,4.41,0,0,1,.2.42c.09.19.15.33.21.43a3.15,3.15,0,0,0,2.21,1.68,5.18,5.18,0,0,1,.54.13,7.67,7.67,0,0,0,2.07-.47A6.49,6.49,0,0,0,120,64.1a5.14,5.14,0,0,0,1.39-1.44,2.72,2.72,0,0,0,.32-.79,2.09,2.09,0,0,0,.11-.79c-.1-.43-.16-.73-.19-.89s-.19-.48-.27-.66A2.32,2.32,0,0,0,121.2,59.08Z"/><path class="cls-2" d="M142.07,47.18l.16.44a4.27,4.27,0,0,1,.26.59,4.48,4.48,0,0,1,.32,1.35,6.83,6.83,0,0,1-3,6.21h0a10.91,10.91,0,0,1-2.52,1.48,7.52,7.52,0,0,1-3.65.43,6,6,0,0,1-2-.65,5.18,5.18,0,0,1-1.37-.69,3.93,3.93,0,0,1-1.59-1.79v0a2.26,2.26,0,0,1-.21-.4,7,7,0,0,1,0-1.51v.06c0-.64,0-1.11.08-1.42a5.72,5.72,0,0,1,.42-1.12,4.33,4.33,0,0,1,1.91-1.78l-.42,0a2.14,2.14,0,0,1-1.22-.3,1,1,0,0,1-.2-.16,1.74,1.74,0,0,1-1.5-1.23l0-.1a.5.5,0,0,1,0-.13h0a3.61,3.61,0,0,1,.22-1.83,5.77,5.77,0,0,0,.39-.58A4.54,4.54,0,0,1,130,42.56l.08,0a4.53,4.53,0,0,1,.61-.16,5.11,5.11,0,0,0,.6-.15,10,10,0,0,1,3.35-.68l.24.07a4.56,4.56,0,0,1,2.71.64,6.21,6.21,0,0,1,2.7,1.93,10,10,0,0,1,1.7,2.91A.21.21,0,0,0,142.07,47.18Zm-3.38-3.72a4.75,4.75,0,0,0-3.83-1.56l-.22-.06a9.39,9.39,0,0,0-3.21.66,4.09,4.09,0,0,1-.61.14,2.42,2.42,0,0,0-.66.19,5,5,0,0,0-1.8,1.4l-.38.56a3.35,3.35,0,0,0-.18,1.64.9.9,0,0,0,0,.16,1.66,1.66,0,0,0,.6.79,2.3,2.3,0,0,0,2.2.07,2,2,0,0,0,.45-.24l1-1a4,4,0,0,1,1-.72,1.05,1.05,0,0,1,.3-.1.89.89,0,0,1,.85.21,2.13,2.13,0,0,1,.23.49q.15.54,0,.72a9.24,9.24,0,0,1-2.3,1.27,8.36,8.36,0,0,0-2.39,1.38,2.38,2.38,0,0,0-.52.76,6.64,6.64,0,0,0-.4,1.06c-.05.61-.08,1.06-.07,1.34a6.71,6.71,0,0,0-.06,1.37l.2.36a3.51,3.51,0,0,0,1.58,1.75,6.21,6.21,0,0,0,5.74.39,10.19,10.19,0,0,0,2.44-1.43,9.39,9.39,0,0,0,1.09-1,5.9,5.9,0,0,0,.9-1.14,7.07,7.07,0,0,0,.78-2.29,5.42,5.42,0,0,0-.09-2.42,8.13,8.13,0,0,0-.31-.82c-.15-.32-.24-.55-.29-.68A9.22,9.22,0,0,0,138.69,43.46Zm-4.47,2.77,0,0a3.07,3.07,0,0,0-.9.66v0l-.74.72a7.27,7.27,0,0,0,1.73-1v-.19S134.24,46.34,134.22,46.23ZM137,50.87a1.34,1.34,0,0,1-.82,1.17l-.28.11-.2.07a1.75,1.75,0,0,1-1.15,0,1.34,1.34,0,0,1-1.06-.94,1.72,1.72,0,0,1,.17-1,1.61,1.61,0,0,1,.64-.83L135,49c1-.27,1.66-.15,1.87.36A2.93,2.93,0,0,1,137,50.87Zm-.28,0a2.64,2.64,0,0,0-.11-1.21l-.6.12-.61.32a1.41,1.41,0,0,0-.47.68,1.58,1.58,0,0,0-.2.83.14.14,0,0,1,0,.07l0,.07A.65.65,0,0,0,135,52a1.16,1.16,0,0,0,.65,0,.63.63,0,0,0,.2-.09.72.72,0,0,0,.29-.06A1.05,1.05,0,0,0,136.75,50.84Z"/><path class="cls-2" d="M161.27,45a4.43,4.43,0,0,1,.43,1.11,4.71,4.71,0,0,1,0,1.6q-.36,2.64-4.47,3.55l-1.18.21q-2.44.38-3.57-.72a2.46,2.46,0,0,1-1-.64l0,0a.35.35,0,0,1-.09-.12c-.19-.36-.32-.62-.4-.79a12.68,12.68,0,0,1-.87-2.63l0-.19a17.57,17.57,0,0,1-.35-2.49c-.07-1.12-.13-2-.17-2.51v-.05c0-.11,0-.2,0-.26l-.44-3a3.62,3.62,0,0,0,.05-.86,1.05,1.05,0,0,1,.33-.2h.08a2.55,2.55,0,0,1,1.71-1.22,2.74,2.74,0,0,1,1.3,0,2.12,2.12,0,0,1,1.09.63,3.11,3.11,0,0,1,.66.36,4.33,4.33,0,0,1,1.3,2.15v0a3.8,3.8,0,0,1,.17.59,20,20,0,0,1,.31,2.73l0,.12a7.7,7.7,0,0,0,.37,1.08v0c.25-.06.56-.12.91-.17a5.24,5.24,0,0,1,1.26.12,2.84,2.84,0,0,1,.92.43l.89.57h0a3.76,3.76,0,0,1,.63.44Zm-1.74-.84a2.67,2.67,0,0,0-.82-.39,6.1,6.1,0,0,0-1.19-.11c-.36,0-.59.08-.69.11l-.49.12a.73.73,0,0,1-.46-.13,4.24,4.24,0,0,1-.35-.34,1.16,1.16,0,0,1-.11-.37,4.61,4.61,0,0,1-.41-1.25l0-.49c-.12-1.25-.21-2-.26-2.23a4,4,0,0,0-.17-.55,4.23,4.23,0,0,0-1.19-2,2.37,2.37,0,0,0-3.54.86.22.22,0,0,0-.16,0l-.09,0a2.49,2.49,0,0,1-.06.78l.29,1.84c.13.89.22,1.56.25,2l.15,1.88a21.53,21.53,0,0,0,.31,2.43,11,11,0,0,0,.9,2.75l.39.81c.68.7,1.81.93,3.36.7q.65-.09,1.17-.21,3.91-.86,4.24-3.29a4.37,4.37,0,0,0,0-1.5,3.9,3.9,0,0,0-.4-1A3.82,3.82,0,0,0,159.53,44.13Z"/><path class="cls-2" d="M168.78,44.44q.12.5.18.87a4,4,0,0,1-.05,1.76,3.44,3.44,0,0,1-1.36,2.09l-.4.18-.33.16-.65.12a2.66,2.66,0,0,1-1.14,0,1.94,1.94,0,0,1-.92-.65,3.27,3.27,0,0,1-1.39-1.29,9.41,9.41,0,0,1-.88-2.61,12.43,12.43,0,0,1,0-3v0a.31.31,0,0,0-.06-.12l0,.05a.49.49,0,0,1-.12-.29,1,1,0,0,1,.1-.56,2.48,2.48,0,0,1,1.55-1.17l.12,0,.12,0a1.76,1.76,0,0,1-.37,0l-.22-.1,0,0a2.36,2.36,0,0,1-1.19-.74,2.27,2.27,0,0,1-1.36-1.86,3.14,3.14,0,0,1,0-.53,8.76,8.76,0,0,1,.36-1.31,3,3,0,0,1,.76-1.28,3.28,3.28,0,0,1,1.37-.42,3.21,3.21,0,0,1,2.62.5c.19.16.31.28.37.34a2.19,2.19,0,0,1,1.34,1.66l0,.24a3,3,0,0,1-1.34,3.4l-.83.13a3.06,3.06,0,0,1-.42,0h0a4.24,4.24,0,0,1,2,1.09h0c.14,0,.42.19.82.62a4.92,4.92,0,0,1,.69.88A9.09,9.09,0,0,1,168.78,44.44Zm-3.53-10.15a4,4,0,0,0-3.59-.09,2.45,2.45,0,0,0-.68,1.14,4.85,4.85,0,0,0-.35,1.29,3.19,3.19,0,0,0,0,.42,2,2,0,0,0,1.52,1.74,1,1,0,0,1,.18.11,4.69,4.69,0,0,0,1.36,0l1.16-.16c1.09-.65,1.44-1.83,1.08-3.53A1.75,1.75,0,0,0,165.25,34.29ZM167,42a3.35,3.35,0,0,0-1.38-1.39,2.93,2.93,0,0,0-1.9-.44l-.18,0a2.25,2.25,0,0,0-.87.37c-.54.36-.78.72-.73,1.07a1,1,0,0,0,.09.19.43.43,0,0,1,.08.21,12.83,12.83,0,0,0,0,3,6.84,6.84,0,0,0,.42,1.53,8.12,8.12,0,0,0,.41.93,3.67,3.67,0,0,0,1.16,1.16,3,3,0,0,0,1.77-.06c.24-.11.48-.23.7-.35a3.21,3.21,0,0,0,1.18-1.88,3.73,3.73,0,0,0,0-1.63c0-.27-.1-.55-.17-.84A9.91,9.91,0,0,0,167,42Z"/><path class="cls-2" d="M181.78,45.08a5.06,5.06,0,0,0-.11.53,2.5,2.5,0,0,1-.58,1.16h0a3.32,3.32,0,0,1-.71.69,4.83,4.83,0,0,1-2.19.79l-.26,0a7.79,7.79,0,0,1-3.51-.47l-.34-.26-.13-.11a3.61,3.61,0,0,1-.55-.5l-.12-.08-.13-.11a3.38,3.38,0,0,1-1.43-2.67,3.15,3.15,0,0,1,0-.46.42.42,0,0,1,0-.16v-.13l-.35,0a1.53,1.53,0,0,1-1.29-.75c-.67-.22-1-.88-1.14-2a3.25,3.25,0,0,1,0-.54,2.89,2.89,0,0,0,.18-.33v0a2.37,2.37,0,0,1,2-1.49,1.94,1.94,0,0,0,0-.48,4.49,4.49,0,0,0-.19-.87h0a3.92,3.92,0,0,1-.18-1,10.39,10.39,0,0,1,0-1.25l.18-.42v.06a2.6,2.6,0,0,1,.65-1.4,2,2,0,0,1,1.32-.65l.42,0a2.35,2.35,0,0,1,1.6.9,3.65,3.65,0,0,1,.85.74,2.53,2.53,0,0,1,.41.8v0a3,3,0,0,1,.24.9,6.36,6.36,0,0,1,0,1.63,1.15,1.15,0,0,0,0,.14h.15a1.56,1.56,0,0,1,1.48.8,1.43,1.43,0,0,1,1,1.38,3.14,3.14,0,0,1-.06.83,1.92,1.92,0,0,1,1.41.85,3,3,0,0,1,1.46,2.63,2.45,2.45,0,0,1,0,.55C181.81,44.58,181.8,44.82,181.78,45.08Zm-1.07-1.92a3.53,3.53,0,0,0-.54-1.72,1.55,1.55,0,0,0-1.49-.79.41.41,0,0,0-.23.06,1.61,1.61,0,0,0-.78.59c0,.07-.11.2-.19.37-.27.56-.52.84-.76.86a.47.47,0,0,1-.25-.05c-.48-.25-.71-.49-.69-.73a.64.64,0,0,1,.27-.43c.52-.28.85-.47,1-.56a1.85,1.85,0,0,0,.86-1.9,1.23,1.23,0,0,0-1.37-1.22c-.34,0-.55,0-.65,0a.64.64,0,0,1-.51-.33,1.26,1.26,0,0,1-.07-.81,6.22,6.22,0,0,0,0-1.55,3.46,3.46,0,0,0-.21-.81,2,2,0,0,0-.37-.7,2.5,2.5,0,0,0-1-.79,2.77,2.77,0,0,0-1.15,0,1.55,1.55,0,0,0-.89.65,2.41,2.41,0,0,0-.45,1.08l-.09.22a1.77,1.77,0,0,0-.06.17,7.2,7.2,0,0,0,0,1.14,6.44,6.44,0,0,0,.18.91,6.8,6.8,0,0,1,.18.92,2.1,2.1,0,0,1-.08.77,2.18,2.18,0,0,0-2,1.33,2,2,0,0,1-.16.3,3.34,3.34,0,0,0,.1,1,1.28,1.28,0,0,0,1.25,1.15,5.75,5.75,0,0,1,.94.08.7.7,0,0,1,.49.71c0,.11,0,.27,0,.47s0,.37,0,.48a3.19,3.19,0,0,0,1.31,2.45c.13.09.27.21.44.34a7.12,7.12,0,0,0,2.08.44,6.28,6.28,0,0,0,1.71-.05,5.13,5.13,0,0,0,1.87-.72,2.86,2.86,0,0,0,.61-.59,1.87,1.87,0,0,0,.43-.66c.1-.44.16-.74.2-.89s0-.52,0-.71A2.07,2.07,0,0,0,180.71,43.16Z"/><path class="cls-2" d="M194.26,45.18a4,4,0,0,0-.15.52,2.61,2.61,0,0,1-.7,1.1h0a4.16,4.16,0,0,1-.78.62,4.85,4.85,0,0,1-2.26.57h-.25a7.84,7.84,0,0,1-3.46-.81c-.08-.09-.19-.18-.31-.29l-.11-.12a3,3,0,0,1-.51-.55l-.11-.09-.12-.12a3.39,3.39,0,0,1-1.17-2.79,3.26,3.26,0,0,1,0-.47.58.58,0,0,1,0-.15v-.13l-.35,0a1.51,1.51,0,0,1-1.21-.88c-.65-.28-1-1-.95-2.08a5,5,0,0,1,.06-.54,2.21,2.21,0,0,0,.21-.32v0a2.4,2.4,0,0,1,2.12-1.29,2.53,2.53,0,0,0,.07-.48,4.33,4.33,0,0,0-.11-.88h0a3.48,3.48,0,0,1-.09-1,7.52,7.52,0,0,1,.11-1.24l.21-.4v.06a2.64,2.64,0,0,1,.79-1.34,1.94,1.94,0,0,1,1.37-.52l.42,0a2.35,2.35,0,0,1,1.51,1,3.66,3.66,0,0,1,.77.82,2.29,2.29,0,0,1,.33.83h0a2.73,2.73,0,0,1,.15.91,6.43,6.43,0,0,1-.17,1.62.5.5,0,0,0,0,.14h.15a1.59,1.59,0,0,1,1.39.94,1.43,1.43,0,0,1,.86,1.47,3.52,3.52,0,0,1-.13.82,1.94,1.94,0,0,1,1.32,1,3,3,0,0,1,1.2,2.75,2.36,2.36,0,0,1-.06.56C194.34,44.69,194.31,44.92,194.26,45.18Zm-.88-2a3.49,3.49,0,0,0-.38-1.76,1.54,1.54,0,0,0-1.41-.94.48.48,0,0,0-.22,0,1.55,1.55,0,0,0-.84.51l-.23.36c-.31.52-.59.78-.83.78a.46.46,0,0,1-.24-.08c-.46-.29-.66-.55-.62-.79a.6.6,0,0,1,.31-.4l1-.46a1.86,1.86,0,0,0,1-1.82c0-.79-.4-1.23-1.25-1.34-.33,0-.54-.08-.64-.1a.66.66,0,0,1-.48-.38,1.26,1.26,0,0,1,0-.81,7,7,0,0,0,.16-1.54,3.38,3.38,0,0,0-.13-.83,2.25,2.25,0,0,0-.3-.73,1.88,1.88,0,0,0-2.11-1,1.56,1.56,0,0,0-.95.56,2.41,2.41,0,0,0-.55,1l-.11.21-.08.16a8.52,8.52,0,0,0-.1,1.14,4.7,4.7,0,0,0,.09.93,6.75,6.75,0,0,1,.09.92,2.18,2.18,0,0,1-.15.76,2.19,2.19,0,0,0-2.07,1.14,1.91,1.91,0,0,1-.19.28,3.67,3.67,0,0,0,0,1.05,1.28,1.28,0,0,0,1.13,1.26,5.59,5.59,0,0,1,.93.17.7.7,0,0,1,.42.76c0,.11,0,.26,0,.47a3.26,3.26,0,0,0,0,.47,3.14,3.14,0,0,0,1.07,2.57c.12.1.25.23.4.38a7.06,7.06,0,0,0,2,.63,6.54,6.54,0,0,0,1.7.12,5.18,5.18,0,0,0,1.93-.54,2.86,2.86,0,0,0,.67-.53,1.72,1.72,0,0,0,.49-.62c.14-.43.23-.72.29-.87s.07-.51.1-.7A2.17,2.17,0,0,0,193.38,43.17Z"/><path class="cls-2" d="M205.68,43.73a4.17,4.17,0,0,1-.37,2.73q-1.12,2.41-5.33,2c-.35,0-.75-.08-1.19-.15a4.05,4.05,0,0,1-3.19-1.76,2.66,2.66,0,0,1-.72-.89l0,0s0-.06,0-.14c-.07-.4-.12-.69-.14-.87a12.79,12.79,0,0,1,0-2.77l0-.2a16.4,16.4,0,0,1,.41-2.48c.27-1.09.47-1.9.6-2.44v0a1.76,1.76,0,0,0,0-.27l.48-3a3.76,3.76,0,0,0,.31-.8,1,1,0,0,1,.37-.09l.08,0a2.51,2.51,0,0,1,2-.64,2.74,2.74,0,0,1,1.23.42,2,2,0,0,1,.84.94,2.48,2.48,0,0,1,.53.54,4.31,4.31,0,0,1,.59,2.43h0a3.15,3.15,0,0,1,0,.61,20.76,20.76,0,0,1-.52,2.7v.12a5.87,5.87,0,0,0,0,1.15h0c.26,0,.56.06.92.11a5.88,5.88,0,0,1,1.16.5,3.24,3.24,0,0,1,.75.68l.68.82v0a4.21,4.21,0,0,1,.47.62Zm-1.4-1.33a2.92,2.92,0,0,0-.67-.61,5.6,5.6,0,0,0-1.11-.46c-.35-.07-.58-.1-.68-.11l-.51,0a.78.78,0,0,1-.4-.26l-.23-.43a1.51,1.51,0,0,1,0-.39,4.78,4.78,0,0,1,0-1.31l.1-.49c.26-1.22.4-2,.42-2.21a3.42,3.42,0,0,0,0-.57,4.25,4.25,0,0,0-.53-2.26A2.38,2.38,0,0,0,197,33a.21.21,0,0,0-.15-.07s-.06,0-.09,0a2.41,2.41,0,0,1-.29.73l-.28,1.84c-.14.89-.26,1.56-.36,2l-.42,1.83a22.66,22.66,0,0,0-.45,2.42,11.52,11.52,0,0,0,0,2.89c.09.52.13.82.13.89q.67,1.31,3,1.68c.42.07.82.12,1.18.15,2.66.24,4.33-.38,5-1.87a4.39,4.39,0,0,0,.41-1.43,4.27,4.27,0,0,0-.06-1.11A5.32,5.32,0,0,0,204.28,42.4Z"/><path class="cls-2" d="M220.26,47.49c-.25,1.39-1.23,2.3-2.95,2.73a14,14,0,0,1-3.81.16l-.26-.1c-.16-.06-.2-.08-.14-.07l-.26-.08-.75-.2a6.17,6.17,0,0,1-1-.34l-.43-.22-.68-.31-.77-.6a4.86,4.86,0,0,1-1.37-1.56,7.71,7.71,0,0,1-1.58-4.78l0-.15c0-.13,0-.33.07-.6s0-.47.07-.59a7,7,0,0,1,.85-2.21,11.68,11.68,0,0,1,.78-1.2c.14-.2.43-.58.86-1.14A4.82,4.82,0,0,1,211,34.67h0a7,7,0,0,1,2.08-.42l2.14,0h0a3,3,0,0,1,1,0c.08,0,.46.17,1.14.47v0a3.33,3.33,0,0,1,1.86,1.72,3.37,3.37,0,0,1,1,2.08,7,7,0,0,1-.07,2.37,6.63,6.63,0,0,1-.2.85,2.53,2.53,0,0,1-.71,1.07,3.22,3.22,0,0,1-1.06.72c.27.18.44.31.52.37a3.46,3.46,0,0,1,.86,1.1A2.77,2.77,0,0,1,220.26,47.49Zm-1.81-3.33a2.9,2.9,0,0,0-1.47-.71,5.55,5.55,0,0,0-1.71.08,5.62,5.62,0,0,1-1.71.09,2.69,2.69,0,0,1-1.13-.5.57.57,0,0,1,0-.22c.12-.13.21-.2.28-.2a24.48,24.48,0,0,0,3.89-.09,3.13,3.13,0,0,0,1.82-1,2.41,2.41,0,0,0,.53-.85c.1-.33.16-.6.2-.8a6.13,6.13,0,0,0-.08-2.89A3.22,3.22,0,0,0,217.13,35l-1.06-.44a4,4,0,0,0-.87-.05l-2.06.05a4.86,4.86,0,0,0-4,1.85,22.46,22.46,0,0,0-1.63,2.3,6.44,6.44,0,0,0-.85,2.4c0,.47-.1.82-.13,1q.23,3.71,2.22,5.19c.32.23.57.43.78.6l1.41.64,1.62.46a.62.62,0,0,1,.18.08l.17.08a14.5,14.5,0,0,0,3.79-.18,3.13,3.13,0,0,0,2.63-2.46A2.5,2.5,0,0,0,218.45,44.16Zm-4.12-4.49c-.53.32-.9.53-1.11.64a.93.93,0,0,1-.29,0,1.09,1.09,0,0,1-.71-.48A1.06,1.06,0,0,1,212,39a1,1,0,0,1,.07-.21,4.06,4.06,0,0,1,.56-.71l.22-.14.21-.13c.35.22.65.41.89.59a.92.92,0,0,1,.48.89C214.42,39.51,214.39,39.64,214.33,39.67Zm-.22-.28v0a.05.05,0,0,1,0,0l-.42-.29-.21.14a2.28,2.28,0,0,0-.23.27,2.3,2.3,0,0,0-.3.46V40H213a.42.42,0,0,0,.15,0l.43-.24.56-.34S214.1,39.41,214.11,39.39Zm-1.17.44,0-.06S213,39.81,212.94,39.83Z"/><path class="cls-2" d="M238.52,51.84a4.46,4.46,0,0,1-.2,1.17,4.61,4.61,0,0,1-.79,1.4c-1.11,1.38-3,1.63-5.66.74l-1.12-.43c-1.52-.63-2.42-1.44-2.69-2.45a2.71,2.71,0,0,1-.49-1l0,0s0-.07,0-.15c0-.4,0-.7.06-.88a13.19,13.19,0,0,1,.6-2.71l.07-.18a16.75,16.75,0,0,1,1-2.31c.51-1,.9-1.75,1.15-2.25v0a1.43,1.43,0,0,0,.1-.25l1.16-2.79a3.26,3.26,0,0,0,.49-.71.88.88,0,0,1,.38,0l.07,0a2.56,2.56,0,0,1,2.1-.16,2.9,2.9,0,0,1,1.1.7,2.18,2.18,0,0,1,.6,1.11,2.65,2.65,0,0,1,.38.65,4.21,4.21,0,0,1,0,2.5h0a3.93,3.93,0,0,1-.15.59,20.37,20.37,0,0,1-1.14,2.5l0,.11a7.71,7.71,0,0,0-.24,1.13h0c.24.09.53.19.87.33a5,5,0,0,1,1,.75,3,3,0,0,1,.57.84l.48.95v0a4.12,4.12,0,0,1,.31.71Zm-1.05-1.62a2.74,2.74,0,0,0-.51-.75,5.57,5.57,0,0,0-1-.71l-.64-.26-.49-.15a.75.75,0,0,1-.33-.35c0-.06-.06-.21-.12-.47a1.3,1.3,0,0,1,.09-.37,4.76,4.76,0,0,1,.29-1.28l.21-.45c.54-1.13.85-1.81.93-2a5,5,0,0,0,.14-.56,4.21,4.21,0,0,0,0-2.32,2.37,2.37,0,0,0-3.47-1.09.24.24,0,0,0-.13-.11h-.09a2.93,2.93,0,0,1-.45.64l-.71,1.72c-.34.84-.61,1.46-.81,1.87l-.84,1.68a22.89,22.89,0,0,0-1,2.24,11.58,11.58,0,0,0-.65,2.82c0,.53-.06.83-.08.9.23,1,1.07,1.73,2.53,2.33a11.18,11.18,0,0,0,1.11.42q3.8,1.28,5.32-.64a4.15,4.15,0,0,0,.74-1.31,3.92,3.92,0,0,0,.2-1.09A5.53,5.53,0,0,0,237.47,50.22Z"/><path class="cls-2" d="M254,54c-.29.84-.55,1.55-.81,2.12a9.07,9.07,0,0,1-1.52,2.43,2.13,2.13,0,0,1-.23.42c-1.29,1.27-3.25,1.74-5.91,1.41a5.92,5.92,0,0,1-1.61-.47,7.47,7.47,0,0,1-1.82-1.15l-.86-.77a5.5,5.5,0,0,1-1.49-2.45,5.37,5.37,0,0,1-.63-2.69,6.62,6.62,0,0,1,.48-2.74l0-.07a21.44,21.44,0,0,1,2.68-4.1v0a2.45,2.45,0,0,1,.89-.64h0a6.41,6.41,0,0,0,.91-.54,4.61,4.61,0,0,1,4.3-.77l.24.1q1.51.67,1.92.9a5,5,0,0,1,1.59,1.34,1.62,1.62,0,0,0,.2.18l.14.11a4.46,4.46,0,0,1,1.07,1.85,4,4,0,0,1,.33.89l.25.91a3.11,3.11,0,0,1,.13.52,10.43,10.43,0,0,1-.22,2.31,3.83,3.83,0,0,1,0,.81Zm-.63-1.88a10.1,10.1,0,0,0,.2-2.34.6.6,0,0,0-.06-.24l-.06-.18a4,4,0,0,0-1.15-2.49l-.21-.16a.74.74,0,0,1-.16-.12,4,4,0,0,0-1.68-1.38c-1.15-.57-1.8-.87-2-.92a4.28,4.28,0,0,0-4,.73,10,10,0,0,1-.93.54,3,3,0,0,0-.81.57,22.22,22.22,0,0,0-2.64,4,5.89,5.89,0,0,0-.47,2.73,5.55,5.55,0,0,0,.84,2.93,9.72,9.72,0,0,0,1.65,1.73,7.12,7.12,0,0,0,1.74,1.1,5.81,5.81,0,0,0,1.52.44q3.83.48,5.63-1.3a2.59,2.59,0,0,0,.23-.4,9.06,9.06,0,0,0,1.5-2.38l.25-.65.55-1.45A3.86,3.86,0,0,0,253.35,52.07Zm-6.1,1.64a2.4,2.4,0,0,1-1.62.06,6.08,6.08,0,0,1-1-.67,1.77,1.77,0,0,1-.3-2.25,2.13,2.13,0,0,1,.48-.72,2.67,2.67,0,0,1,1.77-.77,6.31,6.31,0,0,1,1.2.33,1.74,1.74,0,0,1,1,1.16,3.37,3.37,0,0,1,0,.9,2,2,0,0,1-.22,1A2.51,2.51,0,0,1,247.25,53.71Zm-.09-.3a2.23,2.23,0,0,0,1.17-.82l0,0a2.44,2.44,0,0,0,.15-.82c0-.22,0-.37,0-.44A1.63,1.63,0,0,0,248,51a1.28,1.28,0,0,0-.28-.1l-.07,0-.79-.18a2.37,2.37,0,0,0-1.51.71,1.42,1.42,0,0,0-.4.61,3.14,3.14,0,0,0-.27.83.33.33,0,0,0,.11.08,6.68,6.68,0,0,0,.94.61A2.11,2.11,0,0,0,247.16,53.41Zm-.28-2.76h0Z"/><path class="cls-2" d="M267.1,67.12a4.86,4.86,0,0,1-.85.86,2.39,2.39,0,0,1-1.12.4l-.59.05a1.59,1.59,0,0,1-.81-.07A5.74,5.74,0,0,1,263,68a3.13,3.13,0,0,1-.74-.61,13.71,13.71,0,0,1-1.7-2.4c-.36-.78-.61-1.38-.77-1.8a3,3,0,0,0-.67-1.06h0c-.08,0-.2,0-.38.2l-.11.16-.09.15q-.14.24-.36.75t-.36.75a2.05,2.05,0,0,1-2.46,1h0a4.79,4.79,0,0,1-1.26-.38,1,1,0,0,1-.24-.19,1.5,1.5,0,0,0-.23-.19,2.86,2.86,0,0,1-1-1,2.35,2.35,0,0,0-.12-.33l0,0a3.57,3.57,0,0,1-.48-1.45,4,4,0,0,1,0-2.76l.19-.34.19-.31q.08-.11,0,0l.12-.19c.11-.22.16-.31.14-.28l.55-.93c.34-.58.69-1.16,1.06-1.73L255.77,53l.09-.16c.1-.17.25-.39.44-.65.68-.68,1.06-1,1.14-1.1h0a3.52,3.52,0,0,1,1.5-.74,2.54,2.54,0,0,1,1.59.48,4.77,4.77,0,0,1,.6.52v0a4.42,4.42,0,0,1,1.14,2.23c.38,1.72.59,2.65.62,2.77a2,2,0,0,0,.8,1,.9.9,0,0,0,.37,0h0a6,6,0,0,0,.88-.81,6.34,6.34,0,0,1,2.26-1.7,4.49,4.49,0,0,1,1.37-.05,3.13,3.13,0,0,1,1.29.35l.07,0a2.27,2.27,0,0,1,.95,1.78.54.54,0,0,1,0,.11,3.87,3.87,0,0,1,.13,2.8,11.71,11.71,0,0,1-.72,1.77l-.1.19c-.46,1-.76,1.65-.87,1.94l-1.43,2.45A7.39,7.39,0,0,1,267.1,67.12Zm1.64-4.57,1-2.13c.35-.79.58-1.32.67-1.59a4.56,4.56,0,0,0,.18-1.88,2.15,2.15,0,0,0-.86-1.59,2.51,2.51,0,0,0-1.18-.34,4.06,4.06,0,0,0-1.3,0,6.18,6.18,0,0,0-2.13,1.62,4.43,4.43,0,0,1-1,.89.94.94,0,0,1-.55,0,2.34,2.34,0,0,1-1.1-1.65c-.23-1.12-.38-1.87-.45-2.26a3.68,3.68,0,0,0-1.07-2.07,5.73,5.73,0,0,0-.54-.47,2.35,2.35,0,0,0-1.37-.46,3.35,3.35,0,0,0-1.37.69c-.48.44-.83.78-1.06,1-.26.4-.43.67-.53.81l-1.38,2.15c-.52.8-1,1.53-1.33,2.17s-.69,1.21-.92,1.58a3.32,3.32,0,0,0,.18,2.93,1.3,1.3,0,0,1,.11.31,3.44,3.44,0,0,0,.85.84,1.24,1.24,0,0,1,.22.18,1.22,1.22,0,0,0,.23.18,5.22,5.22,0,0,0,1.18.35,1.84,1.84,0,0,0,2.14-.85c.06-.11.11-.21.14-.28l.19-.45a6.64,6.64,0,0,1,.39-.76l.09-.17a1.12,1.12,0,0,1,.41-.4c.22-.13.4-.14.54,0a3.58,3.58,0,0,1,.74,1.18l.79,1.78a13,13,0,0,0,1.76,2.46,3.45,3.45,0,0,0,1.22.73,1.58,1.58,0,0,0,.62.07,4.28,4.28,0,0,0,.63-.07,2.15,2.15,0,0,0,1.15-.48,6.6,6.6,0,0,0,1.36-1.63Z"/><path class="cls-2" d="M280.52,71.16a5.1,5.1,0,0,1-.63,1.13,6.82,6.82,0,0,1-1.17,1.23L277.4,74.6a.53.53,0,0,0-.2.1h0a5.71,5.71,0,0,1-5,1,6.76,6.76,0,0,1-2.67-1.18,4.63,4.63,0,0,1-1.23-1.31c-.33-.38-.57-.68-.73-.88a4.89,4.89,0,0,1-.44-1.22h0a3.52,3.52,0,0,1-.12-1,.53.53,0,0,0,0-.11h0a2.52,2.52,0,0,1,.31-2.23,1.09,1.09,0,0,1,.41-.35.84.84,0,0,1,.19-.19l.23-.06.54-.16a1.32,1.32,0,0,1,.88,0,5.42,5.42,0,0,1,1.28.66l.13.14a3.32,3.32,0,0,1-.48-1.73,3.87,3.87,0,0,1-.14-1.24,4.92,4.92,0,0,1,1-2.84,3.59,3.59,0,0,1,1.54-1.27h-.05a7,7,0,0,1,1.55-.69h0a5.28,5.28,0,0,1,1.22-.25,12.23,12.23,0,0,1,1.2.29,7.79,7.79,0,0,1,.9.33l.79.39a12.57,12.57,0,0,0,1.08,1.4l0,0a17.5,17.5,0,0,1,1.38,2,4.49,4.49,0,0,1,.45,1.81,7.94,7.94,0,0,1-.4,4.29c-.19.35-.32.61-.41.78Zm-.2-1.59c.06-.13.12-.23.16-.33A12.36,12.36,0,0,0,281,67a4.55,4.55,0,0,0-.38-2.52c-.39-.63-.64-1-.76-1.18s-.4-.53-.87-1.08a6.11,6.11,0,0,1-.77-1.1l-.7-.34a3.6,3.6,0,0,0-.85-.3,2.55,2.55,0,0,1-.58-.19,1.66,1.66,0,0,0-.51-.11,4.85,4.85,0,0,0-1.16.23,3.75,3.75,0,0,0-.36.12l-.68.28a3.65,3.65,0,0,0-.44.26,3.44,3.44,0,0,0-1.41,1.18,4.75,4.75,0,0,0-1,2.61,2.72,2.72,0,0,0,1.08,2.45,3.11,3.11,0,0,0,.53.32,5.19,5.19,0,0,1,1.36,1,1,1,0,0,1,.27.76,1.14,1.14,0,0,1-.22.79.36.36,0,0,1-.31,0,2.62,2.62,0,0,1-.91-.44,11.67,11.67,0,0,1-1.35-1.4,2.75,2.75,0,0,0-.42-.36,5.91,5.91,0,0,0-1.22-.64,1.15,1.15,0,0,0-.68,0l-.7.18a2,2,0,0,0-.15.15.92.92,0,0,0-.37.31,2.21,2.21,0,0,0-.25,2,5.28,5.28,0,0,0,.41,1.14,5.16,5.16,0,0,0,.7.82,4.14,4.14,0,0,0,1.18,1.28,6.62,6.62,0,0,0,2.56,1.13,5.43,5.43,0,0,0,4.78-1,.94.94,0,0,1,.26-.14l1.26-1a6.19,6.19,0,0,0,1.11-1.17C279.54,71,279.81,70.5,280.32,69.57Zm-6.91.29,0,0a4.81,4.81,0,0,0-.55-.47,3.91,3.91,0,0,0-.61-.36,6.62,6.62,0,0,1-.61-.36,7.33,7.33,0,0,0,.88.87,2.26,2.26,0,0,0,.79.4h0l0,0A.39.39,0,0,1,273.41,69.86Zm3-4.77a2,2,0,0,1,.43.75,1,1,0,0,1-.22.81.8.8,0,0,1-1.16.3,1.48,1.48,0,0,1-.4-.22,1.65,1.65,0,0,1-.65-.88,1,1,0,0,1,.26-1,1.17,1.17,0,0,1,.64-.26,5.1,5.1,0,0,1,.72-.06A2,2,0,0,0,276.43,65.09Zm0,1.38,0,0a.18.18,0,0,0-.06-.08,3.72,3.72,0,0,1-.34-.48,1.87,1.87,0,0,0-.3,0l-.19,0a1,1,0,0,0-.44.14l-.12.14h0a1.63,1.63,0,0,0,.3.28,1.26,1.26,0,0,0,.36.19C275.91,66.85,276.16,66.78,276.4,66.47Z"/><path class="cls-2" d="M288.72,85.42c-.94,1-2.26,1.3-3.94.77a13.59,13.59,0,0,1-3.33-1.87,2.55,2.55,0,0,1-.17-.22c-.11-.13-.13-.17-.08-.13a1.47,1.47,0,0,1-.18-.2l-.54-.57a6.21,6.21,0,0,1-.66-.81l-.25-.41-.42-.62c-.16-.44-.28-.75-.34-.91a4.84,4.84,0,0,1-.34-2,7.72,7.72,0,0,1,1.16-4.9l.11-.11.37-.47c.16-.22.29-.38.37-.47A6.83,6.83,0,0,1,282.36,71c.33-.18.76-.38,1.3-.61.22-.1.66-.27,1.33-.52a4.84,4.84,0,0,1,2.57-.25h0a7.06,7.06,0,0,1,2,.74l1.85,1.08h0a3,3,0,0,1,.79.56,10.91,10.91,0,0,1,.72,1v0a3.31,3.31,0,0,1,.69,2.44,3.42,3.42,0,0,1-.26,2.28,7.44,7.44,0,0,1-1.3,2,7.25,7.25,0,0,1-.62.62,2.5,2.5,0,0,1-1.17.54,3.5,3.5,0,0,1-1.28.06c.13.29.22.49.25.59a3.41,3.41,0,0,1,.15,1.38A2.78,2.78,0,0,1,288.72,85.42Zm.21-3.79a3,3,0,0,0-.88-1.38,5.55,5.55,0,0,0-1.5-.82,5.37,5.37,0,0,1-1.5-.83,2.6,2.6,0,0,1-.7-1,.42.42,0,0,1,.1-.2.56.56,0,0,1,.35,0,23.76,23.76,0,0,0,3.35,2,3.16,3.16,0,0,0,2.07.1,2.63,2.63,0,0,0,.91-.44c.25-.24.45-.44.58-.59a6,6,0,0,0,1.45-2.5,3.24,3.24,0,0,0-.54-2.76l-.68-.93a3.92,3.92,0,0,0-.72-.5l-1.77-1a4.85,4.85,0,0,0-4.35-.5,21.07,21.07,0,0,0-2.59,1.1,6.39,6.39,0,0,0-2,1.6l-.66.82c-1.18,2.18-1.46,4-.84,5.59.15.36.26.66.35.91.38.58.67,1,.86,1.29l1.14,1.24a1,1,0,0,1,.11.16.61.61,0,0,0,.11.16,14.14,14.14,0,0,0,3.31,1.84,3.15,3.15,0,0,0,3.53-.72A2.5,2.5,0,0,0,288.93,81.63Zm-1.15-6c-.62,0-1,0-1.29-.05a1,1,0,0,1-.59-.93,1.1,1.1,0,0,1,.25-.81,1.07,1.07,0,0,1,.18-.15,3.6,3.6,0,0,1,.84-.3h.51c.19.37.34.69.45,1a1,1,0,0,1-.06,1C287.94,75.56,287.84,75.65,287.78,75.65Zm0-.36,0,0s0,0,0,0l-.2-.47-.26,0a2,2,0,0,0-.33.1,1.69,1.69,0,0,0-.5.24l-.06.07.06,0,.12.08a4.44,4.44,0,0,0,.49,0h.66S287.72,75.31,287.74,75.29Zm-1.23-.24.05,0Z"/><path class="cls-2" d="M301.75,90.26a3.09,3.09,0,0,1-1.54,0c-.33-.14-.55-.23-.68-.27a2.36,2.36,0,0,1-.81-.48l0,0a4.74,4.74,0,0,1-.59-1.35,3.65,3.65,0,0,0-.17-.6,2.27,2.27,0,0,0-.38-.6,1.71,1.71,0,0,0-.75-.5h0a1.23,1.23,0,0,0-1.23.28,1.64,1.64,0,0,0-.31.41v0c-.17.52-.33,1-.49,1.53a12.34,12.34,0,0,1-.57,1.51,13.9,13.9,0,0,1-.93,1.25l-.06.06a1.35,1.35,0,0,1-.26.32,2.24,2.24,0,0,1-1.91.58,4.27,4.27,0,0,1-2.65-1.3,2.19,2.19,0,0,1-.61-2.24A2.54,2.54,0,0,1,288,87.5a1,1,0,0,1,.22-.31l.21-.17a1.63,1.63,0,0,0,.21-.17l.07-.06a.15.15,0,0,1,0-.06,12.91,12.91,0,0,1,.84-1.2v.06a.19.19,0,0,1,0-.08s0-.07,0-.12l.56-.58,1-1.14a15,15,0,0,1,1.06-1.11l.13-.12a.1.1,0,0,0,0,0c.18-.25.28-.38.31-.41l.17-.15a7.65,7.65,0,0,1,.74-.54,6.25,6.25,0,0,1,.52-.35,5.44,5.44,0,0,1,1.12-.75l.44-.12h0a4.5,4.5,0,0,1,2.61-.14,7.13,7.13,0,0,1,2,.74c.41.32.82.63,1.24.93l0,0a10.05,10.05,0,0,1,1,.74,2,2,0,0,1,.2.24l.1.15q.32.47.39.6l.36.46a3.22,3.22,0,0,1,.33.67,3.11,3.11,0,0,1,0,1.22,5.22,5.22,0,0,1-.2,1.77,3.15,3.15,0,0,1,0,.4v0l0,.12-.35.64a4.15,4.15,0,0,1-.82,1.15,3.22,3.22,0,0,1-.72.48Zm.55-1.75a4,4,0,0,0,.76-1.07c.15-.29.27-.5.34-.62l.05-.5a3.8,3.8,0,0,0,.18-1.77,1.68,1.68,0,0,0-.31-.61l-.36-.46-.32-.48-.3-.44c-1-.73-1.71-1.28-2.21-1.64a7.09,7.09,0,0,0-1.91-.69,4.38,4.38,0,0,0-2.44.13l-.39.1a5.34,5.34,0,0,0-1.05.7c-.13.1-.33.24-.62.43a4,4,0,0,0-.64.46l-.15.14a1.06,1.06,0,0,0-.15.15,1,1,0,0,0-.11.16.49.49,0,0,1-.1.16c-.23.2-.43.39-.59.56l-2.11,2.31,0,.14a10,10,0,0,0-.89,1.25,4,4,0,0,1-.39.35,1.21,1.21,0,0,0-.32.34,2,2,0,0,0-.17,1.08,2.49,2.49,0,0,0,.62,1.16,4,4,0,0,0,2.45,1.2,1.92,1.92,0,0,0,1.68-.5,5.71,5.71,0,0,0,.38-.45l.33-.4A4,4,0,0,0,294,89a11.51,11.51,0,0,0,.62-1.72l.05-.17a11.31,11.31,0,0,1,.38-1.12,2,2,0,0,1,.38-.49,1.51,1.51,0,0,1,1.51-.35,1.88,1.88,0,0,1,.88.58,2.58,2.58,0,0,1,.47.71,4.64,4.64,0,0,1,.17.67,3.26,3.26,0,0,0,.53,1.19,1.76,1.76,0,0,0,.64.39q.19.09.72.27a2.66,2.66,0,0,0,1.31,0A3.22,3.22,0,0,0,302.3,88.51Zm-7.08-7.26a1.18,1.18,0,0,1,.19-.1S295.32,81.15,295.22,81.25Zm0-1.06c.1-.1.17-.13.2-.1A1.24,1.24,0,0,0,295.26,80.19Z"/><g id="fill"><path class="cls-3" d="M87.11,74.81A8.2,8.2,0,0,0,85.82,74a1.71,1.71,0,0,1-.29-.25,4.09,4.09,0,0,0-.85-.35,2.35,2.35,0,0,0-.85-.16,1.48,1.48,0,0,0-.74.43,3.34,3.34,0,0,0-.73,1.11c-.31.77.13,1.88,1.33,3.34A13.7,13.7,0,0,1,85,79.78a2.39,2.39,0,0,1,.27.56c0,.24,0,.48.08.72a1.24,1.24,0,0,1-1.14.13A4.35,4.35,0,0,1,83,80.78a11.35,11.35,0,0,0-1.2-.25,1.65,1.65,0,0,0-1,0,.46.46,0,0,0-.22.13,1.4,1.4,0,0,0-.32.55,1,1,0,0,0,0,.59,5.18,5.18,0,0,0,.38,1c.11.24.28.55.49,1a7.87,7.87,0,0,0,.52.9c.14.32.17.54.08.63a.68.68,0,0,1-1.06,0q-.25-.21-.51-.45a4.77,4.77,0,0,0-.37-.34c-.17-.14-.22-.18-.14-.1l-2.51-2.54a8.09,8.09,0,0,0-1.27-1.1,1.43,1.43,0,0,0-1.19-.12,2.58,2.58,0,0,0-1.07.66c-1.32,1.3-1,2.93.94,4.87v.07s0,0,0,.06a3.4,3.4,0,0,0,.38.38L76.32,88c.93.83,1.56,1.4,1.87,1.69l1.34,1.21.26.06a3.2,3.2,0,0,0,1.91.81,3.4,3.4,0,0,0,2.77-1,5.68,5.68,0,0,0,1-1.57,2.2,2.2,0,0,0,.16-1.08c0-.5-.1-.87-.13-1.12s.12-.44.3-.5a3.69,3.69,0,0,1,1.27-.21h1.18a3.45,3.45,0,0,0,2.07-.44c.13-.1.27-.23.43-.38a3.3,3.3,0,0,0,1-3.09,7.72,7.72,0,0,0-.69-2l-.41-.89c-.19-.41-.33-.7-.41-.86s-.28-.39-.4-.53L89,76.73Z"/><path class="cls-3" d="M98.33,64.33A4.69,4.69,0,0,0,94.22,64H94a9.64,9.64,0,0,0-2.88,1.58,4,4,0,0,1-.54.32,2.15,2.15,0,0,0-.57.37,4.92,4.92,0,0,0-1.3,1.87l-.2.65a3.2,3.2,0,0,0,.31,1.62.51.51,0,0,0,.09.14,1.52,1.52,0,0,0,.81.57,2.25,2.25,0,0,0,2.11-.58,1.82,1.82,0,0,0,.37-.36l.68-1.22a3.91,3.91,0,0,1,.76-1,.83.83,0,0,1,.25-.19.9.9,0,0,1,.88,0,2.54,2.54,0,0,1,.36.4c.21.31.27.54.18.7a9,9,0,0,1-1.81,1.89,8.23,8.23,0,0,0-1.88,2,2.34,2.34,0,0,0-.27.87,7.83,7.83,0,0,0-.07,1.14c.13.6.24,1,.33,1.3A6.2,6.2,0,0,0,92,77.38a2.18,2.18,0,0,0,.3.28,3.45,3.45,0,0,0,2,1.2,6.19,6.19,0,0,0,5.6-1.32,10.29,10.29,0,0,0,1.91-2.09,9.48,9.48,0,0,0,.75-1.27,6.79,6.79,0,0,0,.52-1.36,7,7,0,0,0,.07-2.41,5.33,5.33,0,0,0-.8-2.28,5.71,5.71,0,0,0-.55-.7c-.23-.26-.39-.45-.47-.56A9.09,9.09,0,0,0,98.33,64.33Zm.61,7.57a1.31,1.31,0,0,1-.44,1.36l-.23.19a1.09,1.09,0,0,0-.17.13,1.85,1.85,0,0,1-1.11.31,1.33,1.33,0,0,1-1.29-.59,1.7,1.7,0,0,1-.14-1,1.49,1.49,0,0,1,.36-1l.53-.54q1.38-.84,1.89-.21A2.84,2.84,0,0,1,98.94,71.9Z"/><path class="cls-3" d="M103.42,57.51a3,3,0,0,0-2.35.59,3.09,3.09,0,0,0-.95.82,2.58,2.58,0,0,0-.14,1.33,4.77,4.77,0,0,0,.22,1.31,2.72,2.72,0,0,0,.2.37,2,2,0,0,0,2.12,1l.21,0a4.64,4.64,0,0,0,1.25-.54s.35-.21,1-.63q1.08-1.56-.5-3.65A1.68,1.68,0,0,0,103.42,57.51Zm4.81,6.24a3.36,3.36,0,0,0-1.83-.68,2.85,2.85,0,0,0-1.91.4l-.16.09a2.36,2.36,0,0,0-.63.71c-.34.56-.41,1-.22,1.27a.68.68,0,0,0,.17.15q.13.09.15.15a13.56,13.56,0,0,0,1.28,2.71,6.22,6.22,0,0,0,1,1.22c.46.42.71.65.76.68a3.88,3.88,0,0,0,1.54.56,3,3,0,0,0,1.58-.8,6.89,6.89,0,0,0,.49-.61,3.16,3.16,0,0,0,.28-2.2,3.58,3.58,0,0,0-.64-1.49,7.63,7.63,0,0,0-.51-.69A9.92,9.92,0,0,0,108.23,63.75Z"/><path class="cls-3" d="M121.2,59.08A3.58,3.58,0,0,0,120,57.75a1.54,1.54,0,0,0-1.69-.1.54.54,0,0,0-.18.14,1.55,1.55,0,0,0-.46.87,3.59,3.59,0,0,0,0,.42c0,.61-.12,1-.33,1.1a.49.49,0,0,1-.25,0c-.54,0-.85-.14-.93-.37a.64.64,0,0,1,.06-.5c.36-.48.58-.78.67-.93a1.85,1.85,0,0,0,0-2.09,1.22,1.22,0,0,0-1.75-.52l-.61.23a.62.62,0,0,1-.6-.09,1.23,1.23,0,0,1-.4-.71,6.36,6.36,0,0,0-.64-1.41,3.1,3.1,0,0,0-.52-.65,2.3,2.3,0,0,0-.62-.48,2.56,2.56,0,0,0-1.28-.28,2.72,2.72,0,0,0-1,.5,1.53,1.53,0,0,0-.54,1,2.41,2.41,0,0,0,0,1.17v.24c0,.06,0,.12,0,.18a9.46,9.46,0,0,0,.48,1,7,7,0,0,0,.54.75,7.36,7.36,0,0,1,.55.75,2.09,2.09,0,0,1,.25.74,2.18,2.18,0,0,0-1.22,2,1.17,1.17,0,0,1,0,.34A3.53,3.53,0,0,0,110,62a1.29,1.29,0,0,0,1.62.52,6,6,0,0,1,.88-.33.71.71,0,0,1,.75.45,4.41,4.41,0,0,1,.2.42c.09.19.15.33.21.43a3.15,3.15,0,0,0,2.21,1.68,5.18,5.18,0,0,1,.54.13,7.67,7.67,0,0,0,2.07-.47A6.49,6.49,0,0,0,120,64.1a5.14,5.14,0,0,0,1.39-1.44,2.72,2.72,0,0,0,.32-.79,2.09,2.09,0,0,0,.11-.79c-.1-.43-.16-.73-.19-.89s-.19-.48-.27-.66A2.32,2.32,0,0,0,121.2,59.08Z"/><path class="cls-3" d="M138.69,43.46a4.75,4.75,0,0,0-3.83-1.56l-.22-.06a9.39,9.39,0,0,0-3.21.66,4.09,4.09,0,0,1-.61.14,2.42,2.42,0,0,0-.66.19,5,5,0,0,0-1.8,1.4l-.38.56a3.35,3.35,0,0,0-.18,1.64.9.9,0,0,0,0,.16,1.66,1.66,0,0,0,.6.79,2.3,2.3,0,0,0,2.2.07,2,2,0,0,0,.45-.24l1-1a4,4,0,0,1,1-.72,1.05,1.05,0,0,1,.3-.1.89.89,0,0,1,.85.21,2.13,2.13,0,0,1,.23.49q.15.54,0,.72a9.24,9.24,0,0,1-2.3,1.27,8.36,8.36,0,0,0-2.39,1.38,2.38,2.38,0,0,0-.52.76,6.64,6.64,0,0,0-.4,1.06c-.05.61-.08,1.06-.07,1.34a6.71,6.71,0,0,0-.06,1.37l.2.36a3.51,3.51,0,0,0,1.58,1.75,6.21,6.21,0,0,0,5.74.39,10.19,10.19,0,0,0,2.44-1.43,9.39,9.39,0,0,0,1.09-1,5.9,5.9,0,0,0,.9-1.14,7.07,7.07,0,0,0,.78-2.29,5.42,5.42,0,0,0-.09-2.42,8.13,8.13,0,0,0-.31-.82c-.15-.32-.24-.55-.29-.68A9.22,9.22,0,0,0,138.69,43.46ZM137,50.87a1.34,1.34,0,0,1-.82,1.17l-.28.11-.2.07a1.75,1.75,0,0,1-1.15,0,1.34,1.34,0,0,1-1.06-.94,1.72,1.72,0,0,1,.17-1,1.61,1.61,0,0,1,.64-.83L135,49c1-.27,1.66-.15,1.87.36A2.93,2.93,0,0,1,137,50.87Z"/><path class="cls-3" d="M159.53,44.13a2.67,2.67,0,0,0-.82-.39,6.1,6.1,0,0,0-1.19-.11c-.36,0-.59.08-.69.11l-.49.12a.73.73,0,0,1-.46-.13,4.24,4.24,0,0,1-.35-.34,1.16,1.16,0,0,1-.11-.37,4.61,4.61,0,0,1-.41-1.25l0-.49c-.12-1.25-.21-2-.26-2.23a4,4,0,0,0-.17-.55,4.23,4.23,0,0,0-1.19-2,2.37,2.37,0,0,0-3.54.86.22.22,0,0,0-.16,0l-.09,0a2.49,2.49,0,0,1-.06.78l.29,1.84c.13.89.22,1.56.25,2l.15,1.88a21.53,21.53,0,0,0,.31,2.43,11,11,0,0,0,.9,2.75l.39.81c.68.7,1.81.93,3.36.7q.65-.09,1.17-.21,3.91-.86,4.24-3.29a4.37,4.37,0,0,0,0-1.5,3.9,3.9,0,0,0-.4-1A3.82,3.82,0,0,0,159.53,44.13Z"/><path class="cls-3" d="M165.25,34.29a4,4,0,0,0-3.59-.09,2.45,2.45,0,0,0-.68,1.14,4.85,4.85,0,0,0-.35,1.29,3.19,3.19,0,0,0,0,.42,2,2,0,0,0,1.52,1.74,1,1,0,0,1,.18.11,4.69,4.69,0,0,0,1.36,0l1.16-.16c1.09-.65,1.44-1.83,1.08-3.53A1.75,1.75,0,0,0,165.25,34.29ZM167,42a3.35,3.35,0,0,0-1.38-1.39,2.93,2.93,0,0,0-1.9-.44l-.18,0a2.25,2.25,0,0,0-.87.37c-.54.36-.78.72-.73,1.07a1,1,0,0,0,.09.19.43.43,0,0,1,.08.21,12.83,12.83,0,0,0,0,3,6.84,6.84,0,0,0,.42,1.53,8.12,8.12,0,0,0,.41.93,3.67,3.67,0,0,0,1.16,1.16,3,3,0,0,0,1.77-.06c.24-.11.48-.23.7-.35a3.21,3.21,0,0,0,1.18-1.88,3.73,3.73,0,0,0,0-1.63c0-.27-.1-.55-.17-.84A9.91,9.91,0,0,0,167,42Z"/><path class="cls-3" d="M180.71,43.16a3.53,3.53,0,0,0-.54-1.72,1.55,1.55,0,0,0-1.49-.79.41.41,0,0,0-.23.06,1.61,1.61,0,0,0-.78.59c0,.07-.11.2-.19.37-.27.56-.52.84-.76.86a.47.47,0,0,1-.25-.05c-.48-.25-.71-.49-.69-.73a.64.64,0,0,1,.27-.43c.52-.28.85-.47,1-.56a1.85,1.85,0,0,0,.86-1.9,1.23,1.23,0,0,0-1.37-1.22c-.34,0-.55,0-.65,0a.64.64,0,0,1-.51-.33,1.26,1.26,0,0,1-.07-.81,6.22,6.22,0,0,0,0-1.55,3.46,3.46,0,0,0-.21-.81,2,2,0,0,0-.37-.7,2.5,2.5,0,0,0-1-.79,2.77,2.77,0,0,0-1.15,0,1.55,1.55,0,0,0-.89.65,2.41,2.41,0,0,0-.45,1.08l-.09.22a1.77,1.77,0,0,0-.06.17,7.2,7.2,0,0,0,0,1.14,6.44,6.44,0,0,0,.18.91,6.8,6.8,0,0,1,.18.92,2.1,2.1,0,0,1-.08.77,2.18,2.18,0,0,0-2,1.33,2,2,0,0,1-.16.3,3.34,3.34,0,0,0,.1,1,1.28,1.28,0,0,0,1.25,1.15,5.75,5.75,0,0,1,.94.08.7.7,0,0,1,.49.71c0,.11,0,.27,0,.47s0,.37,0,.48a3.19,3.19,0,0,0,1.31,2.45c.13.09.27.21.44.34a7.12,7.12,0,0,0,2.08.44,6.28,6.28,0,0,0,1.71-.05,5.13,5.13,0,0,0,1.87-.72,2.86,2.86,0,0,0,.61-.59,1.87,1.87,0,0,0,.43-.66c.1-.44.16-.74.2-.89s0-.52,0-.71A2.07,2.07,0,0,0,180.71,43.16Z"/><path class="cls-3" d="M193.38,43.17a3.49,3.49,0,0,0-.38-1.76,1.54,1.54,0,0,0-1.41-.94.48.48,0,0,0-.22,0,1.55,1.55,0,0,0-.84.51l-.23.36c-.31.52-.59.78-.83.78a.46.46,0,0,1-.24-.08c-.46-.29-.66-.55-.62-.79a.6.6,0,0,1,.31-.4l1-.46a1.86,1.86,0,0,0,1-1.82c0-.79-.4-1.23-1.25-1.34-.33,0-.54-.08-.64-.1a.66.66,0,0,1-.48-.38,1.26,1.26,0,0,1,0-.81,7,7,0,0,0,.16-1.54,3.38,3.38,0,0,0-.13-.83,2.25,2.25,0,0,0-.3-.73,1.88,1.88,0,0,0-2.11-1,1.56,1.56,0,0,0-.95.56,2.41,2.41,0,0,0-.55,1l-.11.21-.08.16a8.52,8.52,0,0,0-.1,1.14,4.7,4.7,0,0,0,.09.93,6.75,6.75,0,0,1,.09.92,2.18,2.18,0,0,1-.15.76,2.19,2.19,0,0,0-2.07,1.14,1.91,1.91,0,0,1-.19.28,3.67,3.67,0,0,0,0,1.05,1.28,1.28,0,0,0,1.13,1.26,5.59,5.59,0,0,1,.93.17.7.7,0,0,1,.42.76c0,.11,0,.26,0,.47a3.26,3.26,0,0,0,0,.47,3.14,3.14,0,0,0,1.07,2.57c.12.1.25.23.4.38a7.06,7.06,0,0,0,2,.63,6.54,6.54,0,0,0,1.7.12,5.18,5.18,0,0,0,1.93-.54,2.86,2.86,0,0,0,.67-.53,1.72,1.72,0,0,0,.49-.62c.14-.43.23-.72.29-.87s.07-.51.1-.7A2.17,2.17,0,0,0,193.38,43.17Z"/><path class="cls-3" d="M204.28,42.4a2.92,2.92,0,0,0-.67-.61,5.6,5.6,0,0,0-1.11-.46c-.35-.07-.58-.1-.68-.11l-.51,0a.78.78,0,0,1-.4-.26l-.23-.43a1.51,1.51,0,0,1,0-.39,4.78,4.78,0,0,1,0-1.31l.1-.49c.26-1.22.4-2,.42-2.21a3.42,3.42,0,0,0,0-.57,4.25,4.25,0,0,0-.53-2.26A2.38,2.38,0,0,0,197,33a.21.21,0,0,0-.15-.07s-.06,0-.09,0a2.41,2.41,0,0,1-.29.73l-.28,1.84c-.14.89-.26,1.56-.36,2l-.42,1.83a22.66,22.66,0,0,0-.45,2.42,11.52,11.52,0,0,0,0,2.89c.09.52.13.82.13.89q.67,1.31,3,1.68c.42.07.82.12,1.18.15,2.66.24,4.33-.38,5-1.87a4.39,4.39,0,0,0,.41-1.43,4.27,4.27,0,0,0-.06-1.11A5.32,5.32,0,0,0,204.28,42.4Z"/><path class="cls-3" d="M218.45,44.16a2.9,2.9,0,0,0-1.47-.71,5.55,5.55,0,0,0-1.71.08,5.62,5.62,0,0,1-1.71.09,2.69,2.69,0,0,1-1.13-.5.57.57,0,0,1,0-.22c.12-.13.21-.2.28-.2a24.48,24.48,0,0,0,3.89-.09,3.13,3.13,0,0,0,1.82-1,2.41,2.41,0,0,0,.53-.85c.1-.33.16-.6.2-.8a6.13,6.13,0,0,0-.08-2.89A3.22,3.22,0,0,0,217.13,35l-1.06-.44a4,4,0,0,0-.87-.05l-2.06.05a4.86,4.86,0,0,0-4,1.85,22.46,22.46,0,0,0-1.63,2.3,6.44,6.44,0,0,0-.85,2.4c0,.47-.1.82-.13,1q.23,3.71,2.22,5.19c.32.23.57.43.78.6l1.41.64,1.62.46a.62.62,0,0,1,.18.08l.17.08a14.5,14.5,0,0,0,3.79-.18,3.13,3.13,0,0,0,2.63-2.46A2.5,2.5,0,0,0,218.45,44.16Zm-4.12-4.49c-.53.32-.9.53-1.11.64a.93.93,0,0,1-.29,0,1.09,1.09,0,0,1-.71-.48A1.06,1.06,0,0,1,212,39a1,1,0,0,1,.07-.21,4.06,4.06,0,0,1,.56-.71l.22-.14.21-.13c.35.22.65.41.89.59a.92.92,0,0,1,.48.89C214.42,39.51,214.39,39.64,214.33,39.67Z"/><path class="cls-3" d="M237.47,50.22a2.74,2.74,0,0,0-.51-.75,5.57,5.57,0,0,0-1-.71l-.64-.26-.49-.15a.75.75,0,0,1-.33-.35c0-.06-.06-.21-.12-.47a1.3,1.3,0,0,1,.09-.37,4.76,4.76,0,0,1,.29-1.28l.21-.45c.54-1.13.85-1.81.93-2a5,5,0,0,0,.14-.56,4.21,4.21,0,0,0,0-2.32,2.37,2.37,0,0,0-3.47-1.09.24.24,0,0,0-.13-.11h-.09a2.93,2.93,0,0,1-.45.64l-.71,1.72c-.34.84-.61,1.46-.81,1.87l-.84,1.68a22.89,22.89,0,0,0-1,2.24,11.58,11.58,0,0,0-.65,2.82c0,.53-.06.83-.08.9.23,1,1.07,1.73,2.53,2.33a11.18,11.18,0,0,0,1.11.42q3.8,1.28,5.32-.64a4.15,4.15,0,0,0,.74-1.31,3.92,3.92,0,0,0,.2-1.09A5.53,5.53,0,0,0,237.47,50.22Z"/><path class="cls-3" d="M253.35,52.07a10.1,10.1,0,0,0,.2-2.34.6.6,0,0,0-.06-.24l-.06-.18a4,4,0,0,0-1.15-2.49l-.21-.16a.74.74,0,0,1-.16-.12,4,4,0,0,0-1.68-1.38c-1.15-.57-1.8-.87-2-.92a4.28,4.28,0,0,0-4,.73,10,10,0,0,1-.93.54,3,3,0,0,0-.81.57,22.22,22.22,0,0,0-2.64,4,5.89,5.89,0,0,0-.47,2.73,5.55,5.55,0,0,0,.84,2.93,9.72,9.72,0,0,0,1.65,1.73,7.12,7.12,0,0,0,1.74,1.1,5.81,5.81,0,0,0,1.52.44q3.83.48,5.63-1.3a2.59,2.59,0,0,0,.23-.4,9.06,9.06,0,0,0,1.5-2.38l.25-.65.55-1.45A3.86,3.86,0,0,0,253.35,52.07Zm-6.1,1.64a2.4,2.4,0,0,1-1.62.06,6.08,6.08,0,0,1-1-.67,1.77,1.77,0,0,1-.3-2.25,2.13,2.13,0,0,1,.48-.72,2.67,2.67,0,0,1,1.77-.77,6.31,6.31,0,0,1,1.2.33,1.74,1.74,0,0,1,1,1.16,3.37,3.37,0,0,1,0,.9,2,2,0,0,1-.22,1A2.51,2.51,0,0,1,247.25,53.71Z"/><path class="cls-3" d="M268.74,62.55l1-2.13c.35-.79.58-1.32.67-1.59a4.56,4.56,0,0,0,.18-1.88,2.15,2.15,0,0,0-.86-1.59,2.51,2.51,0,0,0-1.18-.34,4.06,4.06,0,0,0-1.3,0,6.18,6.18,0,0,0-2.13,1.62,4.43,4.43,0,0,1-1,.89.94.94,0,0,1-.55,0,2.34,2.34,0,0,1-1.1-1.65c-.23-1.12-.38-1.87-.45-2.26a3.68,3.68,0,0,0-1.07-2.07,5.73,5.73,0,0,0-.54-.47,2.35,2.35,0,0,0-1.37-.46,3.35,3.35,0,0,0-1.37.69c-.48.44-.83.78-1.06,1-.26.4-.43.67-.53.81l-1.38,2.15c-.52.8-1,1.53-1.33,2.17s-.69,1.21-.92,1.58a3.32,3.32,0,0,0,.18,2.93,1.3,1.3,0,0,1,.11.31,3.44,3.44,0,0,0,.85.84,1.24,1.24,0,0,1,.22.18,1.22,1.22,0,0,0,.23.18,5.22,5.22,0,0,0,1.18.35,1.84,1.84,0,0,0,2.14-.85c.06-.11.11-.21.14-.28l.19-.45a6.64,6.64,0,0,1,.39-.76l.09-.17a1.12,1.12,0,0,1,.41-.4c.22-.13.4-.14.54,0a3.58,3.58,0,0,1,.74,1.18l.79,1.78a13,13,0,0,0,1.76,2.46,3.45,3.45,0,0,0,1.22.73,1.58,1.58,0,0,0,.62.07,4.28,4.28,0,0,0,.63-.07,2.15,2.15,0,0,0,1.15-.48,6.6,6.6,0,0,0,1.36-1.63Z"/><path class="cls-3" d="M280.32,69.57c.06-.13.12-.23.16-.33A12.36,12.36,0,0,0,281,67a4.55,4.55,0,0,0-.38-2.52c-.39-.63-.64-1-.76-1.18s-.4-.53-.87-1.08a6.11,6.11,0,0,1-.77-1.1l-.7-.34a3.6,3.6,0,0,0-.85-.3,2.55,2.55,0,0,1-.58-.19,1.66,1.66,0,0,0-.51-.11,4.85,4.85,0,0,0-1.16.23,3.75,3.75,0,0,0-.36.12l-.68.28a3.65,3.65,0,0,0-.44.26,3.44,3.44,0,0,0-1.41,1.18,4.75,4.75,0,0,0-1,2.61,2.72,2.72,0,0,0,1.08,2.45,3.11,3.11,0,0,0,.53.32,5.19,5.19,0,0,1,1.36,1,1,1,0,0,1,.27.76,1.14,1.14,0,0,1-.22.79.36.36,0,0,1-.31,0,2.62,2.62,0,0,1-.91-.44,11.67,11.67,0,0,1-1.35-1.4,2.75,2.75,0,0,0-.42-.36,5.91,5.91,0,0,0-1.22-.64,1.15,1.15,0,0,0-.68,0l-.7.18a2,2,0,0,0-.15.15.92.92,0,0,0-.37.31,2.21,2.21,0,0,0-.25,2,5.28,5.28,0,0,0,.41,1.14,5.16,5.16,0,0,0,.7.82,4.14,4.14,0,0,0,1.18,1.28,6.62,6.62,0,0,0,2.56,1.13,5.43,5.43,0,0,0,4.78-1,.94.94,0,0,1,.26-.14l1.26-1a6.19,6.19,0,0,0,1.11-1.17C279.54,71,279.81,70.5,280.32,69.57Zm-3.89-4.48a2,2,0,0,1,.43.75,1,1,0,0,1-.22.81.8.8,0,0,1-1.16.3,1.48,1.48,0,0,1-.4-.22,1.65,1.65,0,0,1-.65-.88,1,1,0,0,1,.26-1,1.17,1.17,0,0,1,.64-.26,5.1,5.1,0,0,1,.72-.06A2,2,0,0,0,276.43,65.09Z"/><path class="cls-3" d="M288.93,81.63a3,3,0,0,0-.88-1.38,5.55,5.55,0,0,0-1.5-.82,5.37,5.37,0,0,1-1.5-.83,2.6,2.6,0,0,1-.7-1,.42.42,0,0,1,.1-.2.56.56,0,0,1,.35,0,23.76,23.76,0,0,0,3.35,2,3.16,3.16,0,0,0,2.07.1,2.63,2.63,0,0,0,.91-.44c.25-.24.45-.44.58-.59a6,6,0,0,0,1.45-2.5,3.24,3.24,0,0,0-.54-2.76l-.68-.93a3.92,3.92,0,0,0-.72-.5l-1.77-1a4.85,4.85,0,0,0-4.35-.5,21.07,21.07,0,0,0-2.59,1.1,6.39,6.39,0,0,0-2,1.6l-.66.82c-1.18,2.18-1.46,4-.84,5.59.15.36.26.66.35.91.38.58.67,1,.86,1.29l1.14,1.24a1,1,0,0,1,.11.16.61.61,0,0,0,.11.16,14.14,14.14,0,0,0,3.31,1.84,3.15,3.15,0,0,0,3.53-.72A2.5,2.5,0,0,0,288.93,81.63Zm-1.15-6c-.62,0-1,0-1.29-.05a1,1,0,0,1-.59-.93,1.1,1.1,0,0,1,.25-.81,1.07,1.07,0,0,1,.18-.15,3.6,3.6,0,0,1,.84-.3h.51c.19.37.34.69.45,1a1,1,0,0,1-.06,1C287.94,75.56,287.84,75.65,287.78,75.65Z"/><path class="cls-3" d="M302.3,88.51a4,4,0,0,0,.76-1.07c.15-.29.27-.5.34-.62l.05-.5a3.8,3.8,0,0,0,.18-1.77,1.68,1.68,0,0,0-.31-.61l-.36-.46-.32-.48-.3-.44c-1-.73-1.71-1.28-2.21-1.64a7.09,7.09,0,0,0-1.91-.69,4.38,4.38,0,0,0-2.44.13l-.39.1a5.34,5.34,0,0,0-1.05.7c-.13.1-.33.24-.62.43a4,4,0,0,0-.64.46l-.15.14a1.06,1.06,0,0,0-.15.15,1,1,0,0,0-.11.16.49.49,0,0,1-.1.16c-.23.2-.43.39-.59.56l-2.11,2.31,0,.14a10,10,0,0,0-.89,1.25,4,4,0,0,1-.39.35,1.21,1.21,0,0,0-.32.34,2,2,0,0,0-.17,1.08,2.49,2.49,0,0,0,.62,1.16,4,4,0,0,0,2.45,1.2,1.92,1.92,0,0,0,1.68-.5,5.71,5.71,0,0,0,.38-.45l.33-.4A4,4,0,0,0,294,89a11.51,11.51,0,0,0,.62-1.72l.05-.17a11.31,11.31,0,0,1,.38-1.12,2,2,0,0,1,.38-.49,1.51,1.51,0,0,1,1.51-.35,1.88,1.88,0,0,1,.88.58,2.58,2.58,0,0,1,.47.71,4.64,4.64,0,0,1,.17.67,3.26,3.26,0,0,0,.53,1.19,1.76,1.76,0,0,0,.64.39q.19.09.72.27a2.66,2.66,0,0,0,1.31,0A3.22,3.22,0,0,0,302.3,88.51Z"/></g></svg>