<svg id="Layer_1" data-name="Layer 1" xmlns="http://www.w3.org/2000/svg" viewBox="0 0 375 375"><defs><style>.cls-1{fill:none;}.cls-2{fill:#ae84d5;}.cls-3{fill:#fff;}</style></defs><rect class="cls-1" width="375" height="375"/><path class="cls-2" d="M124.61,316.58a4.53,4.53,0,0,1-.83.88,2.33,2.33,0,0,1-1.11.43l-.58.07a1.59,1.59,0,0,1-.81,0,6.13,6.13,0,0,1-.72-.31,3.16,3.16,0,0,1-.76-.59,13,13,0,0,1-1.76-2.36c-.38-.77-.65-1.36-.83-1.77a2.84,2.84,0,0,0-.68-1.05h0c-.08,0-.2,0-.37.21l-.11.16-.08.16a7.21,7.21,0,0,0-.35.75c-.18.43-.29.68-.33.76a2.05,2.05,0,0,1-2.43,1.06h0a5,5,0,0,1-1.27-.35,1.22,1.22,0,0,1-.24-.18,1.22,1.22,0,0,0-.24-.18,3,3,0,0,1-1-.94A2.7,2.7,0,0,0,110,313l0,0a3.3,3.3,0,0,1-.51-1.43,3.93,3.93,0,0,1-.07-2.76l.19-.35.17-.31q.07-.12,0,0l.11-.2.14-.28.52-.95c.33-.59.67-1.17,1-1.75l1.32-2.17.08-.16q.15-.25.42-.66c.67-.69,1-1.07,1.12-1.13h0A3.5,3.5,0,0,1,116,300a2.57,2.57,0,0,1,1.61.44,4.78,4.78,0,0,1,.61.51v0a4.29,4.29,0,0,1,1.2,2.2c.42,1.71.66,2.62.69,2.75a2,2,0,0,0,.82.93,1.06,1.06,0,0,0,.38,0h0a10.43,10.43,0,0,0,.85-.83,6.16,6.16,0,0,1,2.22-1.76,4,4,0,0,1,1.36-.09,3.54,3.54,0,0,1,1.31.31l.06,0a2.27,2.27,0,0,1,1,1.75.39.39,0,0,1,0,.11,3.9,3.9,0,0,1,.21,2.8,12.67,12.67,0,0,1-.68,1.79l-.09.19c-.44,1-.72,1.66-.82,2l-1.37,2.48A7.23,7.23,0,0,1,124.61,316.58Zm1.52-4.61.91-2.15c.34-.8.55-1.33.63-1.61a4.58,4.58,0,0,0,.13-1.88,2.1,2.1,0,0,0-.9-1.57,2.59,2.59,0,0,0-1.19-.31,3.57,3.57,0,0,0-1.29.09,6.11,6.11,0,0,0-2.09,1.67,4.44,4.44,0,0,1-1,.92,1.08,1.08,0,0,1-.55,0,2.4,2.4,0,0,1-1.15-1.62c-.25-1.11-.42-1.86-.5-2.25a3.77,3.77,0,0,0-1.12-2c-.32-.28-.5-.43-.55-.46a2.53,2.53,0,0,0-1.38-.42,3.48,3.48,0,0,0-1.36.73c-.47.45-.81.79-1,1-.24.4-.41.67-.5.81l-1.32,2.19c-.5.82-.93,1.55-1.27,2.21s-.67,1.22-.89,1.6a3.3,3.3,0,0,0,.26,2.92,2.3,2.3,0,0,1,.12.31,3.31,3.31,0,0,0,.87.82,1,1,0,0,1,.23.17,1.75,1.75,0,0,0,.22.18,6.4,6.4,0,0,0,1.2.32,1.83,1.83,0,0,0,2.11-.91c.06-.12.11-.21.14-.29L115,312a7.31,7.31,0,0,1,.36-.78l.09-.17a1.24,1.24,0,0,1,.4-.42.44.44,0,0,1,.53,0,3.33,3.33,0,0,1,.78,1.17l.83,1.76a14,14,0,0,0,1.83,2.41,3.74,3.74,0,0,0,1.24.7,1.86,1.86,0,0,0,.62.05c.11,0,.32,0,.63-.08a2.23,2.23,0,0,0,1.14-.52,6.71,6.71,0,0,0,1.31-1.66Z"/><path class="cls-2" d="M141.4,318.14c-.25.84-.5,1.56-.73,2.14a9,9,0,0,1-1.44,2.48,2.49,2.49,0,0,1-.22.43q-1.86,2-5.85,1.61a6.19,6.19,0,0,1-1.63-.41,7.7,7.7,0,0,1-1.86-1.09c-.42-.34-.71-.59-.88-.74a9.06,9.06,0,0,1-2.3-5.07,6.64,6.64,0,0,1,.38-2.75l0-.07a21.8,21.8,0,0,1,2.54-4.19v0a2.4,2.4,0,0,1,.86-.67h0a9.72,9.72,0,0,0,.9-.58,4.61,4.61,0,0,1,4.27-.92l.25.1c1,.41,1.66.68,1.94.83a4.76,4.76,0,0,1,1.63,1.29l.21.16.15.11a4.41,4.41,0,0,1,1.13,1.81,3.8,3.8,0,0,1,.36.87c.1.31.19.61.29.91l.15.51a11.65,11.65,0,0,1-.15,2.32,3.64,3.64,0,0,1,0,.81Zm-.69-1.87a10,10,0,0,0,.12-2.34.9.9,0,0,0-.07-.24l-.07-.17a4,4,0,0,0-1.23-2.45l-.22-.15a.74.74,0,0,1-.16-.12,4.17,4.17,0,0,0-1.73-1.33c-1.17-.52-1.83-.8-2-.84a4.25,4.25,0,0,0-4,.87c-.11.08-.41.27-.91.57a2.87,2.87,0,0,0-.78.59,22.12,22.12,0,0,0-2.5,4.12,5.77,5.77,0,0,0-.37,2.74,5.48,5.48,0,0,0,.93,2.9,9.39,9.39,0,0,0,1.71,1.67,6.87,6.87,0,0,0,1.78,1,5.28,5.28,0,0,0,1.54.39q3.82.36,5.58-1.49a3.22,3.22,0,0,0,.21-.41,8.83,8.83,0,0,0,1.41-2.43c.05-.11.13-.34.24-.66l.49-1.47A4.23,4.23,0,0,0,140.71,316.27Zm-6,1.85a2.43,2.43,0,0,1-1.62.12,6.4,6.4,0,0,1-1-.63,1.78,1.78,0,0,1-.38-2.24,2,2,0,0,1,.46-.74,2.66,2.66,0,0,1,1.74-.83,6.5,6.5,0,0,1,1.21.29,1.7,1.7,0,0,1,1.05,1.12,2.63,2.63,0,0,1,.06.9,2.24,2.24,0,0,1-.18,1A2.54,2.54,0,0,1,134.67,318.12Zm-.1-.29a2.26,2.26,0,0,0,1.14-.87l0,0a2.53,2.53,0,0,0,.12-.82v-.44a2,2,0,0,0-.51-.32l-.29-.08-.07,0c-.17,0-.43-.1-.79-.15a2.46,2.46,0,0,0-1.49.76,1.66,1.66,0,0,0-.38.62,4,4,0,0,0-.24.84l.12.08a7.34,7.34,0,0,0,1,.58A2.15,2.15,0,0,0,134.57,317.83Zm-.38-2.75h0Z"/><path class="cls-2" d="M159.45,325a.49.49,0,0,0-.08.18c-.24.54-.44.93-.59,1.2l-.26.63-1.11,1.61a9.48,9.48,0,0,1-1.44,1.69,3.59,3.59,0,0,1-3.44.79l-.5-.14H152a3.79,3.79,0,0,1-1.58-1.71,8.11,8.11,0,0,0-1.41-2s0,0,0,0a.48.48,0,0,0-.23,0l-.89.67a3.22,3.22,0,0,1-1.91.49h-.08a3.14,3.14,0,0,1-1.1-.12,3.48,3.48,0,0,1-1.56-.79,8.16,8.16,0,0,1-1-1.41l-.45-.74a3.54,3.54,0,0,1-.31-2.25v.13a.64.64,0,0,1,0-.09l-.07-.2.87-4.33h0c.12-.75.26-1.46.43-2.11l.1-.37.09-.06v0q1.1-4.17,4.05-3.39a2.11,2.11,0,0,1,1.78,1.6,1.8,1.8,0,0,1,.59,1.31,5.72,5.72,0,0,1-.24,1.46l-.16.58a.88.88,0,0,1-.06.17l-.22.87a.93.93,0,0,0,0,.19l-.48,1.86a1.27,1.27,0,0,0,0,.18l0,.17.33-.53a9,9,0,0,1,1.28-1.82,1.33,1.33,0,0,1,.67-.34,1.72,1.72,0,0,1,.78,0,.79.79,0,0,1,.37.2l0,0a1.93,1.93,0,0,1,.63,1v0l0,.06a2.14,2.14,0,0,1,.52.89v0c.09.23.23.66.41,1.27l0,.41a1.58,1.58,0,0,0,.09.42l.35-.28h0a1,1,0,0,0,.3-.44q.45-1,.78-2a7.57,7.57,0,0,1,1.15-2.22,2.86,2.86,0,0,1,.53-.47h0a1.69,1.69,0,0,1,.78-.36h0a3.6,3.6,0,0,1,1.46.07,1.82,1.82,0,0,1,.89.52,1.71,1.71,0,0,1,.31.7,1.39,1.39,0,0,1,.22.21,3.28,3.28,0,0,1,.51,2l0,.09a3.06,3.06,0,0,0-.08.5l-.06.51a1,1,0,0,0,0,.71l-.72,2.73Zm-.11-3.67a8.64,8.64,0,0,0,.08-1.55,1.5,1.5,0,0,1,.07-.37,4.35,4.35,0,0,0-.14-.91,1.93,1.93,0,0,0-.3-.81,1.34,1.34,0,0,0-.74-.42,3.33,3.33,0,0,0-1.33-.07c-.82.13-1.55,1.08-2.19,2.86a16.82,16.82,0,0,1-.8,2,2,2,0,0,1-.35.51l-.58.44c-.29-.09-.52-.39-.69-.91a5.09,5.09,0,0,1-.25-1.21,9,9,0,0,0-.39-1.16,1.72,1.72,0,0,0-.52-.85.56.56,0,0,0-.23-.12,1.38,1.38,0,0,0-.64,0,.92.92,0,0,0-.53.27,5.19,5.19,0,0,0-.67.83l-.57.91a8.47,8.47,0,0,0-.5.9c-.21.29-.37.42-.5.4-.46-.09-.65-.39-.58-.9,0-.21.08-.44.13-.66a4.33,4.33,0,0,0,.1-.5c0-.22,0-.28,0-.17l.9-3.45a8,8,0,0,0,.29-1.65,1.35,1.35,0,0,0-.5-1.09,2.46,2.46,0,0,0-1.11-.58c-1.8-.48-3,.62-3.71,3.29l-.06,0,0,0c0,.16-.1.34-.14.52-.17.9-.29,1.5-.35,1.82-.24,1.23-.4,2-.49,2.47l-.36,1.77c0,.1.06.19.08.25a3.2,3.2,0,0,0,.28,2.06,3.38,3.38,0,0,0,2.27,1.87,5.51,5.51,0,0,0,1.87.07,2.23,2.23,0,0,0,1-.42c.4-.3.7-.52.89-.68a.52.52,0,0,1,.59,0,3.93,3.93,0,0,1,.83,1l.19.3.41.71a3.45,3.45,0,0,0,1.44,1.56,3.86,3.86,0,0,0,.54.17,3.32,3.32,0,0,0,3.17-.72,8.13,8.13,0,0,0,1.39-1.64l.55-.8.53-.79c.11-.24.19-.45.26-.62l.69-1.38ZM148,321.14h0Z"/><path class="cls-2" d="M180.25,324.56a3,3,0,0,1-1.1,1.08l-.68.25a2,2,0,0,1-.92.19h0a4.5,4.5,0,0,1-1.35-.6,3.65,3.65,0,0,0-.53-.33A2.2,2.2,0,0,0,175,325a1.78,1.78,0,0,0-.89.13h0a1.21,1.21,0,0,0-.72,1,1.58,1.58,0,0,0,0,.52v0c.23.49.45,1,.67,1.46a10.07,10.07,0,0,1,.59,1.5,14.76,14.76,0,0,1,.17,1.55v.09a1.39,1.39,0,0,1,0,.41,2.26,2.26,0,0,1-1,1.71,4.21,4.21,0,0,1-2.82.83,2.2,2.2,0,0,1-2-1.24,2.58,2.58,0,0,1-.81-1.11,1,1,0,0,1,0-.38,2.2,2.2,0,0,1,0-.27,1.8,1.8,0,0,0,0-.27v-.09a.2.2,0,0,1,0-.07,13.86,13.86,0,0,1-.19-1.45l0,.05a.41.41,0,0,1,0-.08l-.07-.1c0-.38,0-.65,0-.81v-1.53a14.13,14.13,0,0,1,0-1.54v-.18a.07.07,0,0,0,0-.06c0-.3,0-.47,0-.51l0-.23q0-.17.18-.9.12-.53.15-.6a6,6,0,0,1,.32-1.32c.11-.17.19-.29.24-.38v0a4.46,4.46,0,0,1,1.83-1.86,7.09,7.09,0,0,1,2-.83c.52,0,1-.09,1.54-.16h0a9.61,9.61,0,0,1,1.23-.13l.31,0,.18,0,.69.18.58.09a2.15,2.15,0,0,1,1.51,1.19,5.58,5.58,0,0,1,1.05,1.43l.24.32,0,0,.05.11c.06.28.12.52.18.71a4.06,4.06,0,0,1,.16,1.4,2.72,2.72,0,0,1-.21.84Zm-.77-1.67a3.77,3.77,0,0,0-.16-1.29c-.08-.32-.14-.55-.16-.69l-.3-.4a3.9,3.9,0,0,0-1.07-1.44,1.73,1.73,0,0,0-.64-.23l-.58-.1-.56-.14-.51-.12-2.74.28a6.82,6.82,0,0,0-1.87.78,4.33,4.33,0,0,0-1.72,1.74c-.1.15-.18.26-.22.34a5.91,5.91,0,0,0-.31,1.22c0,.16-.08.41-.16.74a4.22,4.22,0,0,0-.16.77l0,.21a.74.74,0,0,0,0,.21.48.48,0,0,0,0,.19.38.38,0,0,1,0,.19c0,.3,0,.57,0,.81,0,1.23,0,2.28,0,3.13l.06.13a11.68,11.68,0,0,0,.19,1.52,4.59,4.59,0,0,1-.05.52,1.46,1.46,0,0,0,0,.47,1.94,1.94,0,0,0,.6.91,2.5,2.5,0,0,0,1.24.44,4,4,0,0,0,2.63-.77,2,2,0,0,0,.9-1.5c0-.05,0-.25,0-.59l0-.52a4.21,4.21,0,0,0-.12-.85,12.62,12.62,0,0,0-.7-1.69l-.07-.15a7.1,7.1,0,0,1-.48-1.08,1.68,1.68,0,0,1-.05-.63,1.5,1.5,0,0,1,.87-1.27,1.82,1.82,0,0,1,1-.17,2.36,2.36,0,0,1,.83.21,4.49,4.49,0,0,1,.58.38,3.26,3.26,0,0,0,1.19.52,1.78,1.78,0,0,0,.74-.14l.71-.29c.56-.38.88-.68.95-.89A2.9,2.9,0,0,0,179.48,322.89Zm-10.81-1.39c0-.13,0-.2.08-.2S168.7,321.43,168.67,321.5Zm.68.82.08-.21S169.36,322.18,169.35,322.32Z"/><path class="cls-2" d="M195.31,330.81a3.49,3.49,0,0,1-2.38,3.24,13.78,13.78,0,0,1-3.71.89l-.28,0c-.16,0-.21,0-.14,0l-.27,0-.78-.05a6.57,6.57,0,0,1-1-.16l-.46-.12-.73-.17c-.42-.22-.71-.37-.87-.44a5,5,0,0,1-1.64-1.27,7.77,7.77,0,0,1-2.47-4.4v-.15c0-.13,0-.33,0-.6s0-.47,0-.6a7,7,0,0,1,.41-2.33,12.44,12.44,0,0,1,.53-1.32q.15-.33.63-1.29a4.77,4.77,0,0,1,1.72-1.92h0a7,7,0,0,1,2-.81l2.09-.46,0,0a2.87,2.87,0,0,1,1-.14c.08,0,.48.08,1.21.24h0a6.23,6.23,0,0,1,3.52,3.18,7.36,7.36,0,0,1,.39,2.34q0,.47,0,.87a2.59,2.59,0,0,1-.5,1.19,3.54,3.54,0,0,1-.9.91,5.71,5.71,0,0,1,.58.26,3.23,3.23,0,0,1,1.05.92A2.79,2.79,0,0,1,195.31,330.81Zm-2.43-2.92a2.86,2.86,0,0,0-1.58-.42,5.64,5.64,0,0,0-1.66.41,5.27,5.27,0,0,1-1.66.41,2.46,2.46,0,0,1-1.2-.27.39.39,0,0,1-.06-.2c.08-.16.16-.24.23-.26a25.72,25.72,0,0,0,3.8-.83,3.17,3.17,0,0,0,1.59-1.34,2.26,2.26,0,0,0,.36-.93c0-.36,0-.63,0-.83a6,6,0,0,0-.64-2.83,3.23,3.23,0,0,0-2.27-1.65l-1.12-.23a5,5,0,0,0-.87.12l-2,.44a4.94,4.94,0,0,0-3.54,2.58,24.56,24.56,0,0,0-1.15,2.57,6.37,6.37,0,0,0-.37,2.52c0,.47.06.82.07,1.05.62,2.41,1.68,4,3.18,4.67l.88.44,1.5.36,1.68.14a.76.76,0,0,1,.19.05l.19,0a14.1,14.1,0,0,0,3.68-.9,3.15,3.15,0,0,0,2.11-2.92A2.52,2.52,0,0,0,192.88,327.89Zm-4.9-3.62c-.46.42-.78.7-1,.84a.93.93,0,0,1-.29.05,1.1,1.1,0,0,1-.78-.34,1.06,1.06,0,0,1-.37-.76,1.22,1.22,0,0,1,0-.22,4.37,4.37,0,0,1,.42-.8l.18-.18a1.92,1.92,0,0,0,.19-.17c.38.14.71.28,1,.41a1,1,0,0,1,.65.78C188,324.1,188,324.23,188,324.27Zm-.28-.23V324h0l-.47-.21L187,324a2,2,0,0,0-.17.3,2,2,0,0,0-.21.51v.09h.08l.15,0,.37-.32.49-.44S187.71,324.07,187.7,324Zm-1,.66v-.07A.17.17,0,0,0,186.65,324.7Z"/><path class="cls-2" d="M207.35,328.28a4.21,4.21,0,0,1,.18,2.74c-.43,1.73-2,2.74-4.83,3.05q-.52.06-1.2.09a4.08,4.08,0,0,1-3.47-1.1,2.63,2.63,0,0,1-.88-.73l0,0s-.05-.05-.08-.12c-.15-.38-.26-.65-.32-.83a13.32,13.32,0,0,1-.58-2.71l0-.19a17,17,0,0,1-.08-2.52c0-1.12.08-2,.1-2.51v-.05a2.1,2.1,0,0,0,0-.27l-.12-3a4.45,4.45,0,0,0,.15-.84.88.88,0,0,1,.34-.16h.08a2.54,2.54,0,0,1,1.83-1,2.82,2.82,0,0,1,1.3.18,2.09,2.09,0,0,1,1,.75,2.78,2.78,0,0,1,.62.43,4.32,4.32,0,0,1,1.06,2.26h0a3.18,3.18,0,0,1,.11.61,20.9,20.9,0,0,1,0,2.74v.12a7.09,7.09,0,0,0,.26,1.12h0l.93-.07a5.78,5.78,0,0,1,1.23.26,3,3,0,0,1,.88.52l.82.66h0a4.61,4.61,0,0,1,.58.51Zm-1.64-1a2.74,2.74,0,0,0-.78-.47,5.33,5.33,0,0,0-1.17-.23l-.69,0c-.15,0-.32,0-.5.07a.7.7,0,0,1-.45-.18l-.31-.37a1.6,1.6,0,0,1-.07-.39,5.11,5.11,0,0,1-.28-1.28v-.5c0-1.25,0-2,0-2.25s-.06-.33-.11-.56a4.31,4.31,0,0,0-1-2.11,2.39,2.39,0,0,0-3.62.47.19.19,0,0,0-.15,0,.32.32,0,0,0-.09,0,3,3,0,0,1-.14.77l.08,1.86c0,.9.05,1.58,0,2l-.05,1.88a20.11,20.11,0,0,0,.05,2.45,10.87,10.87,0,0,0,.59,2.83c.19.5.29.78.31.85a3.76,3.76,0,0,0,3.27,1.05c.43,0,.82,0,1.18-.08q4-.44,4.57-2.83a4.31,4.31,0,0,0,.12-1.49,3.9,3.9,0,0,0-.29-1.07A4.46,4.46,0,0,0,205.71,327.25Z"/><path class="cls-2" d="M223.05,326.4q.44,2.07-1.7,3.64a14.12,14.12,0,0,1-3.47,1.59h-.28c-.17,0-.22,0-.15,0l-.27,0-.77.1a7.17,7.17,0,0,1-1,.06l-.48,0-.75,0-.94-.26a4.83,4.83,0,0,1-1.85-.93,7.73,7.73,0,0,1-3.28-3.83l0-.14c0-.13-.08-.32-.16-.58s-.13-.46-.16-.58a6.9,6.9,0,0,1-.05-2.37,11.45,11.45,0,0,1,.27-1.4q.07-.36.36-1.38a4.85,4.85,0,0,1,1.32-2.23h0a6.81,6.81,0,0,1,1.76-1.17l2-.86,0,0a3.12,3.12,0,0,1,.91-.32q.12,0,1.23,0h0a6.22,6.22,0,0,1,4.07,2.44,7.11,7.11,0,0,1,.84,2.22,7.19,7.19,0,0,1,.13.86,2.46,2.46,0,0,1-.25,1.26,3.18,3.18,0,0,1-.71,1.07l.63.14a3.3,3.3,0,0,1,1.2.7A2.78,2.78,0,0,1,223.05,326.4Zm-2.94-2.4a2.94,2.94,0,0,0-1.64-.1,5.62,5.62,0,0,0-1.54.72,5.58,5.58,0,0,1-1.55.73,2.6,2.6,0,0,1-1.24,0,.54.54,0,0,1-.1-.2.64.64,0,0,1,.18-.3,24.35,24.35,0,0,0,3.57-1.54,3.19,3.19,0,0,0,1.3-1.63,2.45,2.45,0,0,0,.17-1c0-.35-.08-.63-.12-.82A6.18,6.18,0,0,0,218,317.2a3.26,3.26,0,0,0-2.55-1.18h-1.15a3.53,3.53,0,0,0-.83.28l-1.88.82a4.9,4.9,0,0,0-3,3.22,23.94,23.94,0,0,0-.64,2.74,6.4,6.4,0,0,0,.13,2.55c.12.45.22.79.27,1q1.62,3.35,4,4c.38.1.69.18.94.26l1.55.06,1.68-.19h.38a14,14,0,0,0,3.43-1.59,3.15,3.15,0,0,0,1.51-3.28A2.5,2.5,0,0,0,220.11,324Zm-5.52-2.59c-.37.49-.63.83-.79,1a1.08,1.08,0,0,1-.27.1,1.07,1.07,0,0,1-.83-.18,1,1,0,0,1-.51-.67,1.42,1.42,0,0,1,0-.23,3.7,3.7,0,0,1,.25-.87l.14-.2.15-.21q.61.1,1.05.21a1,1,0,0,1,.79.64C214.62,321.23,214.63,321.36,214.59,321.41Zm-1.22.67V322S213.36,322.06,213.37,322.08Zm.91-.85v-.05h-.05l-.5-.11-.14.21a1.82,1.82,0,0,0-.11.33,2,2,0,0,0-.1.54l0,.09h.07l.15-.05.3-.39.39-.52S214.28,321.26,214.28,321.23Z"/><path class="cls-2" d="M237.5,317.83l.15.44a3.47,3.47,0,0,1,.23.61,4.34,4.34,0,0,1,.27,1.36,6.87,6.87,0,0,1-3.22,6.09h0a10.11,10.11,0,0,1-2.57,1.38,7.48,7.48,0,0,1-3.67.29,6.08,6.08,0,0,1-2-.73,5.27,5.27,0,0,1-1.34-.74,4,4,0,0,1-1.52-1.85v0a2.43,2.43,0,0,1-.2-.41,7.05,7.05,0,0,1,.1-1.5v.06c0-.63.08-1.11.12-1.42a7.94,7.94,0,0,1,.47-1.1,4.42,4.42,0,0,1,2-1.71l-.42,0a2.17,2.17,0,0,1-1.21-.34l-.2-.17a1.74,1.74,0,0,1-1.44-1.29l0-.1,0-.14v0a3.61,3.61,0,0,1,.29-1.82,4.24,4.24,0,0,0,.41-.57,4.48,4.48,0,0,1,2-1.43l.08,0a4.33,4.33,0,0,1,.61-.13,3.78,3.78,0,0,0,.61-.14,10.52,10.52,0,0,1,3.38-.54l.23.08a4.63,4.63,0,0,1,2.69.75,6,6,0,0,1,2.62,2,9.82,9.82,0,0,1,1.58,3A.31.31,0,0,0,237.5,317.83ZM234.27,314a4.73,4.73,0,0,0-3.76-1.71l-.21-.07a9.64,9.64,0,0,0-3.24.53,3.51,3.51,0,0,1-.62.12,2.34,2.34,0,0,0-.66.16,5,5,0,0,0-1.85,1.33l-.4.55a3.23,3.23,0,0,0-.25,1.63.45.45,0,0,0,0,.16,1.59,1.59,0,0,0,.57.81,2.25,2.25,0,0,0,2.18.15,1.59,1.59,0,0,0,.47-.22l1.05-.92a4,4,0,0,1,1-.67,1,1,0,0,1,.3-.09.85.85,0,0,1,.84.24,2.32,2.32,0,0,1,.22.5c.08.36.06.6-.07.72a8.69,8.69,0,0,1-2.34,1.17,8.38,8.38,0,0,0-2.45,1.3,2.31,2.31,0,0,0-.54.73,5.56,5.56,0,0,0-.44,1.05,11.42,11.42,0,0,0-.12,1.34,5.78,5.78,0,0,0-.12,1.36,2.35,2.35,0,0,0,.19.37,3.48,3.48,0,0,0,1.5,1.8,6.19,6.19,0,0,0,5.72.62,10.11,10.11,0,0,0,2.5-1.33,8.87,8.87,0,0,0,1.12-.95,6.2,6.2,0,0,0,.95-1.1,7.37,7.37,0,0,0,.88-2.26,5.33,5.33,0,0,0,0-2.42,6.32,6.32,0,0,0-.28-.84c-.13-.32-.21-.55-.26-.68A8.87,8.87,0,0,0,234.27,314Zm-4.57,2.6h0a3.23,3.23,0,0,0-.93.62h0l-.77.68a7.61,7.61,0,0,0,1.77-.92v-.19A.81.81,0,0,1,229.7,316.58Zm2.63,4.74a1.37,1.37,0,0,1-.87,1.14l-.29.09-.2.07a1.77,1.77,0,0,1-1.14-.08,1.35,1.35,0,0,1-1-1,1.71,1.71,0,0,1,.22-1,1.57,1.57,0,0,1,.67-.81l.68-.32c1-.23,1.67-.08,1.85.43A3,3,0,0,1,232.33,321.32Zm-.28,0a2.75,2.75,0,0,0-.06-1.21,5.33,5.33,0,0,0-.6.09l-.63.3a1.41,1.41,0,0,0-.5.66,1.64,1.64,0,0,0-.23.82s0,0,0,.07l0,.07a.68.68,0,0,0,.15.27,1.21,1.21,0,0,0,.66,0,.59.59,0,0,0,.19-.08.94.94,0,0,0,.3-.05A1.07,1.07,0,0,0,232.05,321.28Z"/><path class="cls-2" d="M246.32,309.61a1.63,1.63,0,0,1-.54,1,7,7,0,0,1-1,.66,2.2,2.2,0,0,1-.69.13,2.59,2.59,0,0,0-.66.12.4.4,0,0,0-.15.1.25.25,0,0,0-.07.26.71.71,0,0,0,.21.27,2.82,2.82,0,0,1,1.08,0,9.83,9.83,0,0,1,1.22.44,15.39,15.39,0,0,1,2.06,1h0a4.13,4.13,0,0,1,1.52,1.7,6.59,6.59,0,0,1,.44,1.46c0,.23,0,.38,0,.45v.1h0a4.18,4.18,0,0,1-.4,2,9.54,9.54,0,0,1-1.16,1.71,6,6,0,0,1-1.71,1.32,8,8,0,0,1-.72.36,6,6,0,0,1-.84.33,3.38,3.38,0,0,1-2.78-.28,2.37,2.37,0,0,1-1.62-.91,3.4,3.4,0,0,1-.41-.35l-.08-.18a3.9,3.9,0,0,1,0-2.61.85.85,0,0,0,.16-.14,1.79,1.79,0,0,1,.81-.63c.19-.09.38-.16.57-.23l.27,0h.34a3,3,0,0,0,.74-.2.89.89,0,0,0,.52-.73l-.25,0h0l-.4.08-.23,0a3.8,3.8,0,0,1-2.7-.4,3.6,3.6,0,0,1-1-.39,4,4,0,0,1-1.34-1.85l-.07-.15a.43.43,0,0,1,0-.14v0a6.54,6.54,0,0,1-.29-1.63h0a7.32,7.32,0,0,1,.36-2l0,.06a3.37,3.37,0,0,1,.23-.84,6.67,6.67,0,0,1,1.45-1.46c.35-.27.89-.64,1.63-1.11l.29.52a.24.24,0,0,0,.14-.14v-.23l0-.17a.26.26,0,0,1,.2-.22,4.66,4.66,0,0,1,1.89-.36,2,2,0,0,1,.9.39h0c.17-.08.61.13,1.31.61a7,7,0,0,1,.79,1.14l.07.17A2.07,2.07,0,0,1,246.32,309.61ZM245,308.06a1.85,1.85,0,0,0-.25-.37l-.38-.48a2.85,2.85,0,0,0-1.08-.54,4.05,4.05,0,0,0-1.77.34c-.52.21-.71.28-.58.21-.8.51-1.34.88-1.62,1.09a6.34,6.34,0,0,0-1.37,1.37,2.66,2.66,0,0,0-.18.73,7.18,7.18,0,0,0-.35,1.93,4.47,4.47,0,0,0,.85,2.66,2.6,2.6,0,0,0,.72.83,3.24,3.24,0,0,0,.47.21,3.53,3.53,0,0,0,1.76.22l.89-.18c.86-.16,1.41,0,1.64.53a2.37,2.37,0,0,1-.44.94,2.72,2.72,0,0,1-1.13.4,4,4,0,0,1-.61,0,3.51,3.51,0,0,0-.5.19,1.23,1.23,0,0,0-.68.54.57.57,0,0,0-.13.1,3.32,3.32,0,0,0,.08,2.46,1.53,1.53,0,0,0,.33.29,2.43,2.43,0,0,0,1.89.91,4.73,4.73,0,0,0,2.1-.47l.68-.34a5.52,5.52,0,0,0,1.61-1.25,9.73,9.73,0,0,0,1.12-1.64,4.22,4.22,0,0,0,.38-1.9,3.12,3.12,0,0,1,0-.55A6.08,6.08,0,0,0,248,315q-.8-1.75-3.61-2.57a2.08,2.08,0,0,0-1,0,1.52,1.52,0,0,1-.86-.22,1.35,1.35,0,0,1-.65-.58.49.49,0,0,1,0-.44.78.78,0,0,1,.35-.32,2.54,2.54,0,0,1,.69-.13,2.11,2.11,0,0,0,.67-.12,8.49,8.49,0,0,0,1-.64,1.35,1.35,0,0,0,.41-.74,1.51,1.51,0,0,0,.06-.87A2,2,0,0,0,245,308.06Z"/><path class="cls-2" d="M263.84,308.51a3.48,3.48,0,0,1-.49,4,13.83,13.83,0,0,1-2.81,2.58l-.27.1c-.15.06-.2.07-.14,0l-.25.11-.71.34a6.34,6.34,0,0,1-1,.37l-.47.11-.71.21-1,0a4.9,4.9,0,0,1-2-.31,7.73,7.73,0,0,1-4.29-2.64l-.08-.13a5.06,5.06,0,0,0-.33-.5,5.06,5.06,0,0,1-.33-.5,6.68,6.68,0,0,1-.78-2.23c-.07-.37-.13-.84-.18-1.42,0-.24-.05-.72-.07-1.43a4.72,4.72,0,0,1,.56-2.52h0a7.2,7.2,0,0,1,1.32-1.66l1.6-1.42,0,0a2.85,2.85,0,0,1,.78-.58,11.74,11.74,0,0,1,1.17-.38h0a6.28,6.28,0,0,1,4.62,1.07,7.22,7.22,0,0,1,1.48,1.85q.23.4.39.78a2.54,2.54,0,0,1,.15,1.28,3.39,3.39,0,0,1-.35,1.23l.64-.05a3.35,3.35,0,0,1,1.37.29A2.77,2.77,0,0,1,263.84,308.51Zm-3.54-1.37a2.9,2.9,0,0,0-1.58.41,5.33,5.33,0,0,0-1.25,1.16,5.42,5.42,0,0,1-1.25,1.17,2.52,2.52,0,0,1-1.18.35.39.39,0,0,1-.16-.15.5.5,0,0,1,.08-.34,27.31,27.31,0,0,0,2.92-2.57,3.17,3.17,0,0,0,.73-1.95,2.3,2.3,0,0,0-.14-1,7.16,7.16,0,0,0-.37-.74,6,6,0,0,0-1.93-2.16,3.23,3.23,0,0,0-2.79-.34c-.63.21-1,.32-1.09.36a3.83,3.83,0,0,0-.7.52l-1.54,1.37a4.85,4.85,0,0,0-1.83,4,22.45,22.45,0,0,0,.24,2.8,6.41,6.41,0,0,0,.9,2.39l.58.88q2.56,2.7,5.05,2.53c.39,0,.71,0,1,0l1.49-.42,1.53-.7.19,0a.41.41,0,0,0,.18-.06,13.81,13.81,0,0,0,2.78-2.57,3.14,3.14,0,0,0,.42-3.58A2.49,2.49,0,0,0,260.3,307.14Zm-6-.77c-.2.59-.35,1-.44,1.21a1,1,0,0,1-.23.18,1.11,1.11,0,0,1-.85.09,1.06,1.06,0,0,1-.68-.49.72.72,0,0,1-.09-.21,4.87,4.87,0,0,1,0-.9c0-.05,0-.14.08-.24s.06-.19.08-.25c.4-.06.76-.1,1.06-.12a.94.94,0,0,1,.94.37C254.23,306.19,254.28,306.31,254.26,306.37Zm-.36-.07,0,0h0l-.5.05-.07.24c0,.1,0,.22,0,.35a1.85,1.85,0,0,0,.08.55l0,.08.06,0a.29.29,0,0,0,.13-.09c.07-.17.12-.33.17-.46l.21-.62S253.92,306.33,253.9,306.3Zm-.6,1.09,0-.06A.14.14,0,0,0,253.3,307.39Z"/><g id="fill"><path class="cls-3" d="M126.13,312l.91-2.15c.34-.8.55-1.33.63-1.61a4.58,4.58,0,0,0,.13-1.88,2.1,2.1,0,0,0-.9-1.57,2.59,2.59,0,0,0-1.19-.31,3.57,3.57,0,0,0-1.29.09,6.11,6.11,0,0,0-2.09,1.67,4.44,4.44,0,0,1-1,.92,1.08,1.08,0,0,1-.55,0,2.4,2.4,0,0,1-1.15-1.62c-.25-1.11-.42-1.86-.5-2.25a3.77,3.77,0,0,0-1.12-2c-.32-.28-.5-.43-.55-.46a2.53,2.53,0,0,0-1.38-.42,3.48,3.48,0,0,0-1.36.73c-.47.45-.81.79-1,1-.24.4-.41.67-.5.81l-1.32,2.19c-.5.82-.93,1.55-1.27,2.21s-.67,1.22-.89,1.6a3.3,3.3,0,0,0,.26,2.92,2.3,2.3,0,0,1,.12.31,3.31,3.31,0,0,0,.87.82,1,1,0,0,1,.23.17,1.75,1.75,0,0,0,.22.18,6.4,6.4,0,0,0,1.2.32,1.83,1.83,0,0,0,2.11-.91c.06-.12.11-.21.14-.29L115,312a7.31,7.31,0,0,1,.36-.78l.09-.17a1.24,1.24,0,0,1,.4-.42.44.44,0,0,1,.53,0,3.33,3.33,0,0,1,.78,1.17l.83,1.76a14,14,0,0,0,1.83,2.41,3.74,3.74,0,0,0,1.24.7,1.86,1.86,0,0,0,.62.05c.11,0,.32,0,.63-.08a2.23,2.23,0,0,0,1.14-.52,6.71,6.71,0,0,0,1.31-1.66Z"/><path class="cls-3" d="M140.71,316.27a10,10,0,0,0,.12-2.34.9.9,0,0,0-.07-.24l-.07-.17a4,4,0,0,0-1.23-2.45l-.22-.15a.74.74,0,0,1-.16-.12,4.17,4.17,0,0,0-1.73-1.33c-1.17-.52-1.83-.8-2-.84a4.25,4.25,0,0,0-4,.87c-.11.08-.41.27-.91.57a2.87,2.87,0,0,0-.78.59,22.12,22.12,0,0,0-2.5,4.12,5.77,5.77,0,0,0-.37,2.74,5.48,5.48,0,0,0,.93,2.9,9.39,9.39,0,0,0,1.71,1.67,6.87,6.87,0,0,0,1.78,1,5.28,5.28,0,0,0,1.54.39q3.82.36,5.58-1.49a3.22,3.22,0,0,0,.21-.41,8.83,8.83,0,0,0,1.41-2.43c.05-.11.13-.34.24-.66l.49-1.47A4.23,4.23,0,0,0,140.71,316.27Zm-6,1.85a2.43,2.43,0,0,1-1.62.12,6.4,6.4,0,0,1-1-.63,1.78,1.78,0,0,1-.38-2.24,2,2,0,0,1,.46-.74,2.66,2.66,0,0,1,1.74-.83,6.5,6.5,0,0,1,1.21.29,1.7,1.7,0,0,1,1.05,1.12,2.63,2.63,0,0,1,.06.9,2.24,2.24,0,0,1-.18,1A2.54,2.54,0,0,1,134.67,318.12Z"/><path class="cls-3" d="M159.34,321.28a8.64,8.64,0,0,0,.08-1.55,1.5,1.5,0,0,1,.07-.37,4.35,4.35,0,0,0-.14-.91,1.93,1.93,0,0,0-.3-.81,1.34,1.34,0,0,0-.74-.42,3.33,3.33,0,0,0-1.33-.07c-.82.13-1.55,1.08-2.19,2.86a16.82,16.82,0,0,1-.8,2,2,2,0,0,1-.35.51l-.58.44c-.29-.09-.52-.39-.69-.91a5.09,5.09,0,0,1-.25-1.21,9,9,0,0,0-.39-1.16,1.72,1.72,0,0,0-.52-.85.56.56,0,0,0-.23-.12,1.38,1.38,0,0,0-.64,0,.92.92,0,0,0-.53.27,5.19,5.19,0,0,0-.67.83l-.57.91a8.47,8.47,0,0,0-.5.9c-.21.29-.37.42-.5.4-.46-.09-.65-.39-.58-.9,0-.21.08-.44.13-.66a4.33,4.33,0,0,0,.1-.5c0-.22,0-.28,0-.17l.9-3.45a8,8,0,0,0,.29-1.65,1.35,1.35,0,0,0-.5-1.09,2.46,2.46,0,0,0-1.11-.58c-1.8-.48-3,.62-3.71,3.29l-.06,0,0,0c0,.16-.1.34-.14.52-.17.9-.29,1.5-.35,1.82-.24,1.23-.4,2-.49,2.47l-.36,1.77c0,.1.06.19.08.25a3.2,3.2,0,0,0,.28,2.06,3.38,3.38,0,0,0,2.27,1.87,5.51,5.51,0,0,0,1.87.07,2.23,2.23,0,0,0,1-.42c.4-.3.7-.52.89-.68a.52.52,0,0,1,.59,0,3.93,3.93,0,0,1,.83,1l.19.3.41.71a3.45,3.45,0,0,0,1.44,1.56,3.86,3.86,0,0,0,.54.17,3.32,3.32,0,0,0,3.17-.72,8.13,8.13,0,0,0,1.39-1.64l.55-.8.53-.79c.11-.24.19-.45.26-.62l.69-1.38ZM148,321.14h0Z"/><path class="cls-3" d="M179.48,322.89a3.77,3.77,0,0,0-.16-1.29c-.08-.32-.14-.55-.16-.69l-.3-.4a3.9,3.9,0,0,0-1.07-1.44,1.73,1.73,0,0,0-.64-.23l-.58-.1-.56-.14-.51-.12-2.74.28a6.82,6.82,0,0,0-1.87.78,4.33,4.33,0,0,0-1.72,1.74c-.1.15-.18.26-.22.34a5.91,5.91,0,0,0-.31,1.22c0,.16-.08.41-.16.74a4.22,4.22,0,0,0-.16.77l0,.21a.74.74,0,0,0,0,.21.48.48,0,0,0,0,.19.38.38,0,0,1,0,.19c0,.3,0,.57,0,.81,0,1.23,0,2.28,0,3.13l.06.13a11.68,11.68,0,0,0,.19,1.52,4.59,4.59,0,0,1-.05.52,1.46,1.46,0,0,0,0,.47,1.94,1.94,0,0,0,.6.91,2.5,2.5,0,0,0,1.24.44,4,4,0,0,0,2.63-.77,2,2,0,0,0,.9-1.5c0-.05,0-.25,0-.59l0-.52a4.21,4.21,0,0,0-.12-.85,12.62,12.62,0,0,0-.7-1.69l-.07-.15a7.1,7.1,0,0,1-.48-1.08,1.68,1.68,0,0,1-.05-.63,1.5,1.5,0,0,1,.87-1.27,1.82,1.82,0,0,1,1-.17,2.36,2.36,0,0,1,.83.21,4.49,4.49,0,0,1,.58.38,3.26,3.26,0,0,0,1.19.52,1.78,1.78,0,0,0,.74-.14l.71-.29c.56-.38.88-.68.95-.89A2.9,2.9,0,0,0,179.48,322.89Z"/><path class="cls-3" d="M192.88,327.89a2.86,2.86,0,0,0-1.58-.42,5.64,5.64,0,0,0-1.66.41,5.27,5.27,0,0,1-1.66.41,2.46,2.46,0,0,1-1.2-.27.39.39,0,0,1-.06-.2c.08-.16.16-.24.23-.26a25.72,25.72,0,0,0,3.8-.83,3.17,3.17,0,0,0,1.59-1.34,2.26,2.26,0,0,0,.36-.93c0-.36,0-.63,0-.83a6,6,0,0,0-.64-2.83,3.23,3.23,0,0,0-2.27-1.65l-1.12-.23a5,5,0,0,0-.87.12l-2,.44a4.94,4.94,0,0,0-3.54,2.58,24.56,24.56,0,0,0-1.15,2.57,6.37,6.37,0,0,0-.37,2.52c0,.47.06.82.07,1.05.62,2.41,1.68,4,3.18,4.67l.88.44,1.5.36,1.68.14a.76.76,0,0,1,.19.05l.19,0a14.1,14.1,0,0,0,3.68-.9,3.15,3.15,0,0,0,2.11-2.92A2.52,2.52,0,0,0,192.88,327.89Zm-4.9-3.62c-.46.42-.78.7-1,.84a.93.93,0,0,1-.29.05,1.1,1.1,0,0,1-.78-.34,1.06,1.06,0,0,1-.37-.76,1.22,1.22,0,0,1,0-.22,4.37,4.37,0,0,1,.42-.8l.18-.18a1.92,1.92,0,0,0,.19-.17c.38.14.71.28,1,.41a1,1,0,0,1,.65.78C188,324.1,188,324.23,188,324.27Z"/><path class="cls-3" d="M205.71,327.25a2.74,2.74,0,0,0-.78-.47,5.33,5.33,0,0,0-1.17-.23l-.69,0c-.15,0-.32,0-.5.07a.7.7,0,0,1-.45-.18l-.31-.37a1.6,1.6,0,0,1-.07-.39,5.11,5.11,0,0,1-.28-1.28v-.5c0-1.25,0-2,0-2.25s-.06-.33-.11-.56a4.31,4.31,0,0,0-1-2.11,2.39,2.39,0,0,0-3.62.47.19.19,0,0,0-.15,0,.32.32,0,0,0-.09,0,3,3,0,0,1-.14.77l.08,1.86c0,.9.05,1.58,0,2l-.05,1.88a20.11,20.11,0,0,0,.05,2.45,10.87,10.87,0,0,0,.59,2.83c.19.5.29.78.31.85a3.76,3.76,0,0,0,3.27,1.05c.43,0,.82,0,1.18-.08q4-.44,4.57-2.83a4.31,4.31,0,0,0,.12-1.49,3.9,3.9,0,0,0-.29-1.07A4.46,4.46,0,0,0,205.71,327.25Z"/><path class="cls-3" d="M220.11,324a2.94,2.94,0,0,0-1.64-.1,5.62,5.62,0,0,0-1.54.72,5.58,5.58,0,0,1-1.55.73,2.6,2.6,0,0,1-1.24,0,.54.54,0,0,1-.1-.2.64.64,0,0,1,.18-.3,24.35,24.35,0,0,0,3.57-1.54,3.19,3.19,0,0,0,1.3-1.63,2.45,2.45,0,0,0,.17-1c0-.35-.08-.63-.12-.82A6.18,6.18,0,0,0,218,317.2a3.26,3.26,0,0,0-2.55-1.18h-1.15a3.53,3.53,0,0,0-.83.28l-1.88.82a4.9,4.9,0,0,0-3,3.22,23.94,23.94,0,0,0-.64,2.74,6.4,6.4,0,0,0,.13,2.55c.12.45.22.79.27,1q1.62,3.35,4,4c.38.1.69.18.94.26l1.55.06,1.68-.19h.38a14,14,0,0,0,3.43-1.59,3.15,3.15,0,0,0,1.51-3.28A2.5,2.5,0,0,0,220.11,324Zm-5.52-2.59c-.37.49-.63.83-.79,1a1.08,1.08,0,0,1-.27.1,1.07,1.07,0,0,1-.83-.18,1,1,0,0,1-.51-.67,1.42,1.42,0,0,1,0-.23,3.7,3.7,0,0,1,.25-.87l.14-.2.15-.21q.61.1,1.05.21a1,1,0,0,1,.79.64C214.62,321.23,214.63,321.36,214.59,321.41Z"/><path class="cls-3" d="M234.27,314a4.73,4.73,0,0,0-3.76-1.71l-.21-.07a9.64,9.64,0,0,0-3.24.53,3.51,3.51,0,0,1-.62.12,2.34,2.34,0,0,0-.66.16,5,5,0,0,0-1.85,1.33l-.4.55a3.23,3.23,0,0,0-.25,1.63.45.45,0,0,0,0,.16,1.59,1.59,0,0,0,.57.81,2.25,2.25,0,0,0,2.18.15,1.59,1.59,0,0,0,.47-.22l1.05-.92a4,4,0,0,1,1-.67,1,1,0,0,1,.3-.09.85.85,0,0,1,.84.24,2.32,2.32,0,0,1,.22.5c.08.36.06.6-.07.72a8.69,8.69,0,0,1-2.34,1.17,8.38,8.38,0,0,0-2.45,1.3,2.31,2.31,0,0,0-.54.73,5.56,5.56,0,0,0-.44,1.05,11.42,11.42,0,0,0-.12,1.34,5.78,5.78,0,0,0-.12,1.36,2.35,2.35,0,0,0,.19.37,3.48,3.48,0,0,0,1.5,1.8,6.19,6.19,0,0,0,5.72.62,10.11,10.11,0,0,0,2.5-1.33,8.87,8.87,0,0,0,1.12-.95,6.2,6.2,0,0,0,.95-1.1,7.37,7.37,0,0,0,.88-2.26,5.33,5.33,0,0,0,0-2.42,6.32,6.32,0,0,0-.28-.84c-.13-.32-.21-.55-.26-.68A8.87,8.87,0,0,0,234.27,314Zm-1.94,7.34a1.37,1.37,0,0,1-.87,1.14l-.29.09-.2.07a1.77,1.77,0,0,1-1.14-.08,1.35,1.35,0,0,1-1-1,1.71,1.71,0,0,1,.22-1,1.57,1.57,0,0,1,.67-.81l.68-.32c1-.23,1.67-.08,1.85.43A3,3,0,0,1,232.33,321.32Z"/><path class="cls-3" d="M245,308.06a1.85,1.85,0,0,0-.25-.37l-.38-.48a2.85,2.85,0,0,0-1.08-.54,4.05,4.05,0,0,0-1.77.34c-.52.21-.71.28-.58.21-.8.51-1.34.88-1.62,1.09a6.34,6.34,0,0,0-1.37,1.37,2.66,2.66,0,0,0-.18.73,7.18,7.18,0,0,0-.35,1.93,4.47,4.47,0,0,0,.85,2.66,2.6,2.6,0,0,0,.72.83,3.24,3.24,0,0,0,.47.21,3.53,3.53,0,0,0,1.76.22l.89-.18c.86-.16,1.41,0,1.64.53a2.37,2.37,0,0,1-.44.94,2.72,2.72,0,0,1-1.13.4,4,4,0,0,1-.61,0,3.51,3.51,0,0,0-.5.19,1.23,1.23,0,0,0-.68.54.57.57,0,0,0-.13.1,3.32,3.32,0,0,0,.08,2.46,1.53,1.53,0,0,0,.33.29,2.43,2.43,0,0,0,1.89.91,4.73,4.73,0,0,0,2.1-.47l.68-.34a5.52,5.52,0,0,0,1.61-1.25,9.73,9.73,0,0,0,1.12-1.64,4.22,4.22,0,0,0,.38-1.9,3.12,3.12,0,0,1,0-.55A6.08,6.08,0,0,0,248,315q-.8-1.75-3.61-2.57a2.08,2.08,0,0,0-1,0,1.52,1.52,0,0,1-.86-.22,1.35,1.35,0,0,1-.65-.58.49.49,0,0,1,0-.44.78.78,0,0,1,.35-.32,2.54,2.54,0,0,1,.69-.13,2.11,2.11,0,0,0,.67-.12,8.49,8.49,0,0,0,1-.64,1.35,1.35,0,0,0,.41-.74,1.51,1.51,0,0,0,.06-.87A2,2,0,0,0,245,308.06Z"/><path class="cls-3" d="M260.3,307.14a2.9,2.9,0,0,0-1.58.41,5.33,5.33,0,0,0-1.25,1.16,5.42,5.42,0,0,1-1.25,1.17,2.52,2.52,0,0,1-1.18.35.39.39,0,0,1-.16-.15.5.5,0,0,1,.08-.34,27.31,27.31,0,0,0,2.92-2.57,3.17,3.17,0,0,0,.73-1.95,2.3,2.3,0,0,0-.14-1,7.16,7.16,0,0,0-.37-.74,6,6,0,0,0-1.93-2.16,3.23,3.23,0,0,0-2.79-.34c-.63.21-1,.32-1.09.36a3.83,3.83,0,0,0-.7.52l-1.54,1.37a4.85,4.85,0,0,0-1.83,4,22.45,22.45,0,0,0,.24,2.8,6.41,6.41,0,0,0,.9,2.39l.58.88q2.56,2.7,5.05,2.53c.39,0,.71,0,1,0l1.49-.42,1.53-.7.19,0a.41.41,0,0,0,.18-.06,13.81,13.81,0,0,0,2.78-2.57,3.14,3.14,0,0,0,.42-3.58A2.49,2.49,0,0,0,260.3,307.14Zm-6-.77c-.2.59-.35,1-.44,1.21a1,1,0,0,1-.23.18,1.11,1.11,0,0,1-.85.09,1.06,1.06,0,0,1-.68-.49.72.72,0,0,1-.09-.21,4.87,4.87,0,0,1,0-.9c0-.05,0-.14.08-.24s.06-.19.08-.25c.4-.06.76-.1,1.06-.12a.94.94,0,0,1,.94.37C254.23,306.19,254.28,306.31,254.26,306.37Z"/></g></svg>