<svg id="Layer_1" data-name="Layer 1" xmlns="http://www.w3.org/2000/svg" viewBox="0 0 375 375"><defs><style>.cls-1{fill:none;}.cls-2{fill:#ae84d5;}.cls-3{fill:#fff;}</style></defs><rect class="cls-1" width="375" height="375"/><path class="cls-2" d="M131,56.61a4.82,4.82,0,0,0,.1.54,2.62,2.62,0,0,1-.13,1.29h0a4.39,4.39,0,0,1-.41.9,5,5,0,0,1-1.76,1.53l-.23.11a7.85,7.85,0,0,1-3.45.82l-.41-.12-.16,0a3.28,3.28,0,0,1-.69-.27l-.15,0-.16,0a3.42,3.42,0,0,1-2.3-2c0-.1-.1-.24-.17-.43a.39.39,0,0,1,0-.14l-.06-.12a2.85,2.85,0,0,0-.33.11,1.55,1.55,0,0,1-1.48-.24c-.71,0-1.3-.44-1.78-1.44a2.82,2.82,0,0,1-.19-.51,2.37,2.37,0,0,0,0-.37v0a2.39,2.39,0,0,1,1.32-2.1,1.77,1.77,0,0,0-.15-.46,4.87,4.87,0,0,0-.49-.75h0a3.86,3.86,0,0,1-.51-.82,7.78,7.78,0,0,1-.46-1.16c0-.2,0-.35,0-.46l0,.06a2.63,2.63,0,0,1,.1-1.55,1.93,1.93,0,0,1,1-1.08l.38-.17a2.33,2.33,0,0,1,1.81.26,3.73,3.73,0,0,1,1.07.39,2.36,2.36,0,0,1,.66.59h0a3.14,3.14,0,0,1,.54.75,6,6,0,0,1,.57,1.53.86.86,0,0,0,0,.13.39.39,0,0,0,.14-.05,1.59,1.59,0,0,1,1.67.21,1.43,1.43,0,0,1,1.43.93,3.61,3.61,0,0,1,.25.8,1.91,1.91,0,0,1,1.62.28,3,3,0,0,1,2.3,1.92,2.26,2.26,0,0,1,.2.52C130.82,56.14,130.9,56.36,131,56.61Zm-1.69-1.4a3.55,3.55,0,0,0-1.12-1.4,1.54,1.54,0,0,0-1.68-.21.55.55,0,0,0-.19.14,1.52,1.52,0,0,0-.51.83,4,4,0,0,0,0,.42c0,.61-.18,1-.4,1.07a.4.4,0,0,1-.25,0c-.53-.05-.83-.2-.9-.43a.63.63,0,0,1,.09-.49c.39-.45.63-.75.73-.89a1.88,1.88,0,0,0,.11-2.08,1.23,1.23,0,0,0-1.72-.64c-.32.11-.52.18-.62.2a.66.66,0,0,1-.6-.13,1.29,1.29,0,0,1-.35-.73,6.28,6.28,0,0,0-.55-1.45,3.34,3.34,0,0,0-.48-.68,2.45,2.45,0,0,0-.59-.52,2.57,2.57,0,0,0-1.26-.36,2.63,2.63,0,0,0-1.07.44,1.56,1.56,0,0,0-.6.92,2.45,2.45,0,0,0,0,1.17v.24a1,1,0,0,0,0,.18,9,9,0,0,0,.41,1.07,6.27,6.27,0,0,0,.49.78,6.1,6.1,0,0,1,.5.79,2.24,2.24,0,0,1,.21.75,2.17,2.17,0,0,0-1.35,1.94,1.58,1.58,0,0,1,0,.34,3.28,3.28,0,0,0,.47.94,1.29,1.29,0,0,0,1.58.62,4.57,4.57,0,0,1,.9-.27.7.7,0,0,1,.72.49c0,.09.1.24.17.43s.13.34.18.44A3.14,3.14,0,0,0,123.61,61l.53.16a7.1,7.1,0,0,0,2.09-.34,6.59,6.59,0,0,0,1.58-.66,5.23,5.23,0,0,0,1.49-1.35,2.94,2.94,0,0,0,.36-.77,2,2,0,0,0,.16-.78c-.07-.44-.12-.74-.14-.9s-.16-.49-.22-.67A2.2,2.2,0,0,0,129.28,55.21Z"/><path class="cls-2" d="M145.1,51.41a1.7,1.7,0,0,1-.36.85v0l-.27.37a5,5,0,0,1-.67.48,4.92,4.92,0,0,1-1.18.65,1.49,1.49,0,0,1-.79.08,2.77,2.77,0,0,1-1.09-.48,2.66,2.66,0,0,1-1.23-.67l-.64-.64-.18-.21-.55-.5a1.12,1.12,0,0,1-.15-.14.9.9,0,0,0-.44,0c-.33.12-.41.42-.23.89a1.65,1.65,0,0,0,.22.44h0a7.51,7.51,0,0,1,.87,1.55l.06.15,0,.15v0a2.06,2.06,0,0,1,0,1.1,2.77,2.77,0,0,1-1.82,2l-.17.06a2.34,2.34,0,0,1-1.3.06,3.57,3.57,0,0,1-1.27-.52,2.63,2.63,0,0,1-1.44-.9l-.32-.39-.43-.51A13.17,13.17,0,0,1,130.35,53c-.75-1.47-1.16-2.27-1.23-2.39-.24-.43-.46-.87-.66-1.29l-.42-.92c-.16-.37-.29-.68-.39-.94l-.06-.16a4,4,0,0,1,.08-3A2.37,2.37,0,0,1,129,42.88a2.72,2.72,0,0,1,1.56-.05,2.49,2.49,0,0,1,1,.45,2,2,0,0,1,1.28.81,4.85,4.85,0,0,1,.53.47,5.94,5.94,0,0,0,.58,1.23h0a1.12,1.12,0,0,0,.37-.08,4.86,4.86,0,0,0,.88-.47l.85-.55a2.52,2.52,0,0,1,.39-.18,4.6,4.6,0,0,1,3.26-.09h.07l.07,0a9.87,9.87,0,0,1,1,.43.12.12,0,0,0,0,0,3.73,3.73,0,0,1,.43.16l.49.24.38.32.58.52.24.36.08.13a11.13,11.13,0,0,1,1.72,2.85,4.48,4.48,0,0,1,.29,2Zm-1.53-2.3a10.65,10.65,0,0,0-1.71-2.81c-.11-.18-.19-.32-.26-.41-.43-.4-.74-.67-.92-.82a8.84,8.84,0,0,0-.82-.37.45.45,0,0,1-.19,0,4.38,4.38,0,0,0-3.1.09,6.48,6.48,0,0,0-1.17.67,5.33,5.33,0,0,1-1,.52,1.46,1.46,0,0,1-1.41-.14,1.14,1.14,0,0,1-.29-.37,2,2,0,0,1-.13-.22,5.82,5.82,0,0,1-.44-1,4.48,4.48,0,0,0-.5-.45,1.71,1.71,0,0,0-1.13-.73,2.42,2.42,0,0,0-1.42,0A2.16,2.16,0,0,0,128,44.47a3.61,3.61,0,0,0,0,2.9l.8,1.85c.42.79.76,1.41,1,1.84.45.86.77,1.51,1,1.94a12.09,12.09,0,0,0,1,1.67q.31.44,1.17,1.5a3.08,3.08,0,0,0,1.25.67,2.21,2.21,0,0,0,1.35,0l.14-.05a2.51,2.51,0,0,0,1.13-.81,2.2,2.2,0,0,0,.52-2,5.85,5.85,0,0,0-.91-1.74,2,2,0,0,1-.29-.61c-.17-.6,0-1,.44-1.16a1.48,1.48,0,0,1,1,.08,2.08,2.08,0,0,1,.87.58l.55.5c.4.39.67.67.8.82a2.1,2.1,0,0,0,.79.5,1.46,1.46,0,0,0,1,.06,10.46,10.46,0,0,0,1.53-.85,1.73,1.73,0,0,0,.46-.55,2,2,0,0,0,.29-.67A4.19,4.19,0,0,0,143.57,49.11Z"/><path class="cls-2" d="M158.62,42.88l.11.45a5,5,0,0,1,.19.62,4.56,4.56,0,0,1,.16,1.38,7.58,7.58,0,0,1-1.36,3.85,7.83,7.83,0,0,1-2.32,2h0a10.77,10.77,0,0,1-2.67,1.18,7.76,7.76,0,0,1-3.68,0,6,6,0,0,1-1.95-.89,5,5,0,0,1-1.28-.84,4,4,0,0,1-1.37-2v0a3.05,3.05,0,0,1-.17-.43,7.46,7.46,0,0,1,.22-1.49v.06c.09-.63.17-1.09.24-1.4a6.84,6.84,0,0,1,.55-1.07,4.37,4.37,0,0,1,2.1-1.54l-.42,0a2.1,2.1,0,0,1-1.17-.43,1.1,1.1,0,0,1-.19-.19,1.73,1.73,0,0,1-1.34-1.4l0-.1a.51.51,0,0,1,0-.13h0a3.67,3.67,0,0,1,.44-1.79,5.34,5.34,0,0,0,.45-.53,4.5,4.5,0,0,1,2.08-1.28l.09,0a5.88,5.88,0,0,1,.62-.09,4.56,4.56,0,0,0,.62-.08,10.17,10.17,0,0,1,3.41-.28l.22.1a4.61,4.61,0,0,1,2.62,1,6.07,6.07,0,0,1,2.46,2.24,9.51,9.51,0,0,1,1.34,3.08Zm-2.92-4.1a4.75,4.75,0,0,0-3.62-2l-.21-.08a9.75,9.75,0,0,0-3.27.27,4.12,4.12,0,0,1-.62.07,2.38,2.38,0,0,0-.68.12,4.72,4.72,0,0,0-1.94,1.18l-.45.51a3.24,3.24,0,0,0-.37,1.61s0,.08,0,.16a1.64,1.64,0,0,0,.51.85,2.26,2.26,0,0,0,2.17.32,1.86,1.86,0,0,0,.48-.18l1.12-.83a4,4,0,0,1,1.09-.6.89.89,0,0,1,.31-.06.84.84,0,0,1,.81.3,2.15,2.15,0,0,1,.18.52c.06.36,0,.6-.12.71a9.35,9.35,0,0,1-2.42,1,8.09,8.09,0,0,0-2.54,1.1,2.27,2.27,0,0,0-.6.69,6,6,0,0,0-.53,1,10.32,10.32,0,0,0-.22,1.32,5.86,5.86,0,0,0-.22,1.36,3.75,3.75,0,0,0,.15.37,3.52,3.52,0,0,0,1.36,1.92,6.19,6.19,0,0,0,5.66,1.06,10.34,10.34,0,0,0,2.6-1.14,9.7,9.7,0,0,0,1.19-.85,6.15,6.15,0,0,0,1-1,6.84,6.84,0,0,0,1-2.18,5.19,5.19,0,0,0,.19-2.41,6.61,6.61,0,0,0-.21-.86c-.11-.33-.18-.57-.21-.71A9.14,9.14,0,0,0,155.7,38.78ZM150.94,41h0a3.27,3.27,0,0,0-1,.55h0l-.82.62a7.29,7.29,0,0,0,1.83-.78l0-.19A.75.75,0,0,1,150.94,41ZM153.19,46a1.33,1.33,0,0,1-1,1.07l-.29.07-.2,0A1.79,1.79,0,0,1,150.6,47a1.37,1.37,0,0,1-.95-1.06,1.8,1.8,0,0,1,.3-1,1.55,1.55,0,0,1,.73-.75l.71-.27c1.06-.15,1.67,0,1.81.57A2.93,2.93,0,0,1,153.19,46Zm-.28-.06a2.6,2.6,0,0,0,0-1.21l-.61,0c-.07,0-.29.12-.65.26a1.39,1.39,0,0,0-.55.61,1.54,1.54,0,0,0-.28.8v.08l0,.07a.66.66,0,0,0,.13.28,1.25,1.25,0,0,0,.66,0l.2-.06a1.53,1.53,0,0,0,.3,0A1.06,1.06,0,0,0,152.91,45.89Z"/><path class="cls-2" d="M172.2,45.77a4.35,4.35,0,0,0-.07.55,2.65,2.65,0,0,1-.5,1.19h0a4.06,4.06,0,0,1-.66.74,4.91,4.91,0,0,1-2.14.93l-.25,0a7.71,7.71,0,0,1-3.54-.24l-.35-.23-.14-.1a4,4,0,0,1-.58-.46l-.13-.07-.14-.11a3.39,3.39,0,0,1-1.61-2.56c0-.11,0-.27,0-.47a.36.36,0,0,1,0-.15l0-.13s-.16,0-.35,0a1.52,1.52,0,0,1-1.34-.66c-.68-.17-1.11-.81-1.27-1.91a2.45,2.45,0,0,1,0-.54,2.23,2.23,0,0,0,.16-.34v0a2.37,2.37,0,0,1,1.88-1.62,1.93,1.93,0,0,0,0-.48,4,4,0,0,0-.25-.86h0a3.88,3.88,0,0,1-.25-.93,10.19,10.19,0,0,1-.09-1.24c.07-.2.11-.34.15-.44v.06a2.69,2.69,0,0,1,.56-1.44,1.92,1.92,0,0,1,1.27-.74l.42,0a2.29,2.29,0,0,1,1.65.78,3.72,3.72,0,0,1,.9.69,2.18,2.18,0,0,1,.46.77v0a3.16,3.16,0,0,1,.3.88,6.24,6.24,0,0,1,.09,1.63.2.2,0,0,0,0,.13.36.36,0,0,0,.15,0,1.55,1.55,0,0,1,1.52.7,1.42,1.42,0,0,1,1.09,1.31,2.86,2.86,0,0,1,0,.83,1.93,1.93,0,0,1,1.47.75,3.52,3.52,0,0,1,1.66,3.08C172.2,45.28,172.21,45.51,172.2,45.77ZM171,43.94a3.54,3.54,0,0,0-.66-1.68,1.55,1.55,0,0,0-1.54-.7.48.48,0,0,0-.22.08,1.55,1.55,0,0,0-.74.64c0,.07-.09.2-.17.39-.23.57-.46.87-.7.9a.38.38,0,0,1-.25,0c-.49-.2-.74-.43-.73-.68a.59.59,0,0,1,.23-.44c.5-.32.82-.52,1-.63a1.86,1.86,0,0,0,.72-2,1.22,1.22,0,0,0-1.45-1.12h-.65a.63.63,0,0,1-.53-.3,1.25,1.25,0,0,1-.12-.8,6.61,6.61,0,0,0-.09-1.55,3.25,3.25,0,0,0-.26-.79,2.17,2.17,0,0,0-.41-.67,2.7,2.7,0,0,0-1.09-.72,2.63,2.63,0,0,0-1.16.1,1.6,1.6,0,0,0-.84.7,2.44,2.44,0,0,0-.37,1.11l-.08.23a1.54,1.54,0,0,0-.05.17,9.25,9.25,0,0,0,.08,1.14,5.62,5.62,0,0,0,.24.9,5.62,5.62,0,0,1,.24.9,2,2,0,0,1,0,.77,2.19,2.19,0,0,0-1.86,1.46,1.31,1.31,0,0,1-.13.31,3.5,3.5,0,0,0,.16,1,1.28,1.28,0,0,0,1.33,1.07,5.37,5.37,0,0,1,.94,0,.72.72,0,0,1,.54.68,4.13,4.13,0,0,1,0,.47,3.93,3.93,0,0,0,0,.47,3.15,3.15,0,0,0,1.47,2.36c.13.08.28.19.46.32a7.47,7.47,0,0,0,2.1.29,6.62,6.62,0,0,0,1.71-.16,5.27,5.27,0,0,0,1.81-.84,3.43,3.43,0,0,0,.58-.63,2,2,0,0,0,.38-.7c.06-.44.11-.74.14-.9s0-.52,0-.71A2.2,2.2,0,0,0,171,43.94Z"/><path class="cls-2" d="M182.3,36.37a1.71,1.71,0,0,1-.86.75,7.46,7.46,0,0,1-1.2.25,2.23,2.23,0,0,1-.69-.12,2.17,2.17,0,0,0-.66-.12.58.58,0,0,0-.18,0c-.1.06-.16.13-.15.22a.67.67,0,0,0,.1.32,2.76,2.76,0,0,1,1,.36,9.09,9.09,0,0,1,1,.84,16,16,0,0,1,1.58,1.64h0a4.11,4.11,0,0,1,.82,2.13,6.26,6.26,0,0,1-.1,1.52c-.08.21-.14.34-.16.42l0,.09v0a4.35,4.35,0,0,1-1.1,1.76A9,9,0,0,1,180,47.62a5.88,5.88,0,0,1-2.06.65c-.22,0-.49.06-.81.08s-.65,0-.9,0a3.39,3.39,0,0,1-2.5-1.24,2.38,2.38,0,0,1-1.2-1.43,3.45,3.45,0,0,1-.26-.46V45a3.86,3.86,0,0,1,.9-2.46.73.73,0,0,0,.2-.07,1.78,1.78,0,0,1,1-.3,4.16,4.16,0,0,1,.61,0l.25.1a2.34,2.34,0,0,0,.35.13h0a3.14,3.14,0,0,0,.76.07A.91.91,0,0,0,177,42a1,1,0,0,1-.25-.06l0,0-.41-.07-.23,0a3.78,3.78,0,0,1-2.38-1.33,3.49,3.49,0,0,1-.8-.71,3.94,3.94,0,0,1-.6-2.2v-.17a.38.38,0,0,1,0-.15v0a6.5,6.5,0,0,1,.31-1.63v0a7,7,0,0,1,1.06-1.78l0,.05a3,3,0,0,1,.52-.71,6.8,6.8,0,0,1,1.86-.86c.43-.12,1.07-.28,1.93-.46l.08.59a.25.25,0,0,0,.18-.08l.07-.22.08-.16a.28.28,0,0,1,.27-.13,4.5,4.5,0,0,1,1.9.33,1.94,1.94,0,0,1,.7.68h0c.18,0,.52.33,1,1a7.88,7.88,0,0,1,.34,1.35v.18A2,2,0,0,1,182.3,36.37Zm-.74-1.94a2.79,2.79,0,0,0-.1-.42l-.19-.59a2.69,2.69,0,0,0-.82-.88,4,4,0,0,0-1.78-.31c-.56,0-.77,0-.62,0q-1.4.3-1.89.45a6.29,6.29,0,0,0-1.77.81,2.55,2.55,0,0,0-.43.61,7.62,7.62,0,0,0-1,1.69,5.92,5.92,0,0,0-.3,1.53,5.85,5.85,0,0,0,.16,1.26,2.55,2.55,0,0,0,.38,1,3.17,3.17,0,0,0,.37.37,3.46,3.46,0,0,0,1.57.82l.89.15c.87.15,1.31.51,1.35,1.07-.37.46-.62.7-.74.73a2.72,2.72,0,0,1-1.2,0,3.43,3.43,0,0,1-.57-.21h-.54a1.29,1.29,0,0,0-.83.26l-.16.06a3.28,3.28,0,0,0-.78,2.33,1.59,1.59,0,0,0,.2.38A2.43,2.43,0,0,0,174.21,47a4.51,4.51,0,0,0,2.14.3c.25,0,.5,0,.75-.07a5.34,5.34,0,0,0,1.94-.61,9.45,9.45,0,0,0,1.63-1.14,4.16,4.16,0,0,0,1-1.64,4.24,4.24,0,0,1,.21-.51A5.81,5.81,0,0,0,182,42c-.08-1.27-.91-2.5-2.47-3.67a2.28,2.28,0,0,0-.91-.32,1.43,1.43,0,0,1-.72-.5,1.35,1.35,0,0,1-.41-.78.44.44,0,0,1,.17-.4.7.7,0,0,1,.44-.18,2.23,2.23,0,0,1,.68.12,2.18,2.18,0,0,0,.67.12,7.93,7.93,0,0,0,1.14-.25,1.39,1.39,0,0,0,.65-.55,1.52,1.52,0,0,0,.36-.79A1.45,1.45,0,0,0,181.56,34.43Z"/><path class="cls-2" d="M204.1,39.46a4.63,4.63,0,0,1,.07,1.3,6.7,6.7,0,0,1-.33,1.66L203.31,44a.39.39,0,0,0-.12.2v0a5.68,5.68,0,0,1-3.71,3.54,6.85,6.85,0,0,1-2.89.44,4.57,4.57,0,0,1-1.74-.45c-.49-.15-.85-.26-1.09-.35a4.91,4.91,0,0,1-1-.8v0a3.76,3.76,0,0,1-.61-.74.29.29,0,0,0-.08-.08v0a2.53,2.53,0,0,1-.94-2,1.3,1.3,0,0,1,.16-.52.83.83,0,0,1,.06-.27l.16-.17c.19-.2.32-.34.38-.42a1.35,1.35,0,0,1,.74-.47,6,6,0,0,1,1.44-.13l.18.05a3.2,3.2,0,0,1-1.33-1.2,4,4,0,0,1-.79-1,4.88,4.88,0,0,1-.66-2.93,3.61,3.61,0,0,1,.62-1.9l0,0a7,7,0,0,1,.95-1.42h0a5.81,5.81,0,0,1,.91-.87c.36-.14.75-.27,1.16-.39A9.3,9.3,0,0,1,196,32l.88-.09a10,10,0,0,0,1.66.6h0a15.46,15.46,0,0,1,2.26,1,4.37,4.37,0,0,1,1.35,1.29A8,8,0,0,1,204,38.61c0,.4.06.69.07.88Zm-1-1.23c0-.14,0-.26,0-.36a12.36,12.36,0,0,0-.76-2.18,4.55,4.55,0,0,0-1.67-1.92l-1.27-.6c-.18-.07-.62-.22-1.31-.44a6.63,6.63,0,0,1-1.25-.51l-.77.08a3.45,3.45,0,0,0-.87.2,2.56,2.56,0,0,1-.6.16,1.58,1.58,0,0,0-.49.17,5.33,5.33,0,0,0-.86.81l-.23.3-.43.6a4.83,4.83,0,0,0-.23.45,3.4,3.4,0,0,0-.56,1.75,4.65,4.65,0,0,0,.59,2.72,2.7,2.7,0,0,0,2.22,1.5,2.51,2.51,0,0,0,.62,0,5.14,5.14,0,0,1,1.66.09,1,1,0,0,1,.63.49,1.16,1.16,0,0,1,.24.79.36.36,0,0,1-.24.21,2.44,2.44,0,0,1-1,.11,11.21,11.21,0,0,1-1.89-.45,3,3,0,0,0-.55-.09,5.36,5.36,0,0,0-1.36.12,1.09,1.09,0,0,0-.57.38l-.49.53a1,1,0,0,0,0,.21.93.93,0,0,0-.15.46,2.24,2.24,0,0,0,.85,1.8,7.09,7.09,0,0,0,.95.75,5.88,5.88,0,0,0,1,.31,4.24,4.24,0,0,0,1.68.45,6.44,6.44,0,0,0,2.77-.42,5.42,5.42,0,0,0,3.53-3.35,1.26,1.26,0,0,1,.14-.26l.52-1.55a6.24,6.24,0,0,0,.31-1.58C203.18,39.86,203.15,39.29,203.08,38.23Zm-5.69,3.94v-.05c-.28,0-.52-.09-.72-.11a4.76,4.76,0,0,0-.7,0,4.61,4.61,0,0,1-.71,0,7.36,7.36,0,0,0,1.21.27,2.17,2.17,0,0,0,.88-.09h0Zm0-5.65a2,2,0,0,1,.77.41,1,1,0,0,1,.24.8q-.06.85-.81.87a1.06,1.06,0,0,1-.45,0,1.68,1.68,0,0,1-1-.39,1,1,0,0,1-.32-1,1.16,1.16,0,0,1,.4-.55,4,4,0,0,1,.58-.44A2,2,0,0,0,197.39,36.52Zm.71,1.19v-.05l-.1,0a4.79,4.79,0,0,1-.55-.22,1.86,1.86,0,0,0-.23.18l-.15.12c-.18.16-.28.28-.29.36a.37.37,0,0,0,0,.17v0a1.59,1.59,0,0,0,.4.07,1.37,1.37,0,0,0,.41,0C197.9,38.3,198.08,38.1,198.1,37.71Z"/><path class="cls-2" d="M217.12,40.39a2.9,2.9,0,0,1-1.18,1l-.7.21a2.08,2.08,0,0,1-.93.12h0A4.53,4.53,0,0,1,213,41a4,4,0,0,0-.5-.37,2.28,2.28,0,0,0-.68-.23,1.71,1.71,0,0,0-.89.07h0a1.22,1.22,0,0,0-.79,1,1.51,1.51,0,0,0,0,.52v0c.19.51.38,1,.56,1.51a10.4,10.4,0,0,1,.49,1.53,13.39,13.39,0,0,1,.05,1.56v.09a1.41,1.41,0,0,1,0,.41,2.22,2.22,0,0,1-1.14,1.64,4.29,4.29,0,0,1-2.88.62A2.23,2.23,0,0,1,205.3,48a2.56,2.56,0,0,1-.72-1.17,1,1,0,0,1,0-.38q0-.09.06-.27c0-.11,0-.2.06-.26v-.16a10.51,10.51,0,0,1-.08-1.46l0,0,0-.08a.27.27,0,0,0-.06-.1c0-.38.07-.65.08-.81l.1-1.53q.06-.91.15-1.53l0-.18s0,0,0-.06a3.1,3.1,0,0,1,0-.52l0-.22c0-.11.11-.4.25-.88s.17-.55.19-.6a5.75,5.75,0,0,1,.42-1.28l.27-.37,0,0a4.47,4.47,0,0,1,2-1.72,7.41,7.41,0,0,1,2.07-.69c.52,0,1,0,1.54,0h0a8.4,8.4,0,0,1,1.24,0l.31.06.17.06L214,34l.57.14A2.08,2.08,0,0,1,216,35.47a5.42,5.42,0,0,1,.94,1.5c.07.09.14.21.22.34l0,0a.38.38,0,0,1,0,.11c0,.28.09.52.12.72a4.09,4.09,0,0,1,.07,1.41,3.57,3.57,0,0,1-.27.82Zm-.65-1.71a4.26,4.26,0,0,0-.06-1.3c-.06-.33-.1-.56-.12-.7l-.27-.43a3.9,3.9,0,0,0-1-1.5,1.74,1.74,0,0,0-.63-.29l-.57-.13-.55-.18-.5-.16c-1.22,0-2.14,0-2.75.08a6.84,6.84,0,0,0-1.93.64,4.24,4.24,0,0,0-1.83,1.61c-.12.14-.2.25-.25.32a5.26,5.26,0,0,0-.39,1.2,6.71,6.71,0,0,1-.23.72,5.45,5.45,0,0,0-.21.76l0,.21a1.25,1.25,0,0,0,0,.21.67.67,0,0,0,0,.19.8.8,0,0,1,0,.19,7.1,7.1,0,0,0-.12.8c-.09,1.23-.17,2.28-.22,3.13a1.12,1.12,0,0,1,0,.13,12.14,12.14,0,0,0,.07,1.53,3.94,3.94,0,0,1-.08.52,1.21,1.21,0,0,0,0,.46,1.87,1.87,0,0,0,.53,1,2.43,2.43,0,0,0,1.2.53,4,4,0,0,0,2.68-.57,2,2,0,0,0,1-1.44,4.93,4.93,0,0,0,0-.59v-.51a3.52,3.52,0,0,0-.06-.86,12.47,12.47,0,0,0-.57-1.73l-.07-.17a8.69,8.69,0,0,1-.4-1.11,1.84,1.84,0,0,1,0-.62,1.51,1.51,0,0,1,1-1.22,1.86,1.86,0,0,1,1-.08,2.48,2.48,0,0,1,.81.26,4.31,4.31,0,0,1,.56.43,3.09,3.09,0,0,0,1.15.6,1.77,1.77,0,0,0,.74-.09l.74-.23a2.66,2.66,0,0,0,1-.82A3.49,3.49,0,0,0,216.47,38.68Zm-10.68-2.17c0-.14.05-.21.09-.2A2,2,0,0,0,205.79,36.51Zm.62.86a2,2,0,0,1,.09-.2S206.43,37.23,206.41,37.37Z"/><path class="cls-2" d="M230.39,50.25c-.35,1.37-1.4,2.2-3.14,2.5a14.05,14.05,0,0,1-3.81-.12,2.56,2.56,0,0,1-.26-.12c-.15-.07-.2-.09-.13-.07l-.25-.1-.74-.26a5,5,0,0,1-1-.42l-.42-.24-.65-.36c-.35-.32-.59-.54-.73-.65a4.89,4.89,0,0,1-1.24-1.66,7.75,7.75,0,0,1-1.23-4.89l0-.14c0-.13.07-.33.11-.59s.09-.47.12-.59a6.8,6.8,0,0,1,1-2.14,13.07,13.07,0,0,1,.86-1.14c.16-.19.47-.55.95-1.07a4.79,4.79,0,0,1,2.16-1.41h0a7.52,7.52,0,0,1,2.1-.26l2.14.11h0a3.11,3.11,0,0,1,1,.12c.08,0,.45.21,1.1.55v0a3.37,3.37,0,0,1,1.74,1.85,3.39,3.39,0,0,1,.82,2.15,7.47,7.47,0,0,1-.24,2.36c-.08.3-.17.57-.26.83a2.65,2.65,0,0,1-.8,1,3.33,3.33,0,0,1-1.11.65c.26.2.43.33.5.4a3.36,3.36,0,0,1,.77,1.16A2.78,2.78,0,0,1,230.39,50.25Zm-1.56-3.46a3,3,0,0,0-1.42-.82,5.62,5.62,0,0,0-1.71,0,5.31,5.31,0,0,1-1.71,0,2.62,2.62,0,0,1-1.09-.58.37.37,0,0,1,0-.21c.12-.13.22-.19.29-.19a24.35,24.35,0,0,0,3.89.2,3.15,3.15,0,0,0,1.88-.87,2.5,2.5,0,0,0,.6-.81c.12-.33.2-.59.25-.78a6.06,6.06,0,0,0,.13-2.9,3.25,3.25,0,0,0-1.75-2.19l-1-.52a4.29,4.29,0,0,0-.87-.11l-2-.1a4.85,4.85,0,0,0-4.09,1.55,21.72,21.72,0,0,0-1.79,2.17,6.58,6.58,0,0,0-1,2.34c-.09.46-.16.81-.2,1q-.06,3.72,1.83,5.35c.3.25.54.47.73.65l1.36.74,1.58.58a.56.56,0,0,1,.17.09.71.71,0,0,0,.17.09,13.89,13.89,0,0,0,3.79.1,3.13,3.13,0,0,0,2.8-2.26A2.49,2.49,0,0,0,228.83,46.79ZM225.05,42c-.55.28-.94.47-1.16.55a1,1,0,0,1-.29,0,1.18,1.18,0,0,1-.67-.53,1.06,1.06,0,0,1-.15-.83l.09-.21a4.26,4.26,0,0,1,.61-.67l.22-.12.23-.12c.33.25.61.46.84.66a.94.94,0,0,1,.42.93C225.15,41.86,225.1,42,225.05,42Zm-.2-.3v0l0,0-.4-.32-.22.13a2,2,0,0,0-.25.25,1.54,1.54,0,0,0-.33.44l0,.08.07,0,.15,0,.44-.21.59-.3S224.84,41.74,224.85,41.71Zm-1.2.36,0-.06Z"/><path class="cls-2" d="M246.09,52.15l-.16.43a5.64,5.64,0,0,1-.2.62,4.65,4.65,0,0,1-.66,1.23,7.54,7.54,0,0,1-3.31,2.39,7.85,7.85,0,0,1-3,.3h0a10.35,10.35,0,0,1-2.87-.55,7.62,7.62,0,0,1-3-2.09,6.07,6.07,0,0,1-1.1-1.84,4.69,4.69,0,0,1-.57-1.42,4,4,0,0,1,0-2.39v0a1.93,1.93,0,0,1,.1-.44,7.44,7.44,0,0,1,1-1.1l0,.05q.64-.7,1-1a6.11,6.11,0,0,1,1.07-.56,4.31,4.31,0,0,1,2.6-.08l-.33-.25a2.07,2.07,0,0,1-.72-1,1.25,1.25,0,0,1,0-.26,1.74,1.74,0,0,1-.3-1.91l0-.1a.67.67,0,0,0,.06-.12v0A3.62,3.62,0,0,1,237,40.77a3.77,3.77,0,0,0,.67-.18,4.55,4.55,0,0,1,2.44.13l.08,0a3.16,3.16,0,0,1,.56.28,4.07,4.07,0,0,0,.56.28,10.19,10.19,0,0,1,3,1.71l.13.21A4.56,4.56,0,0,1,246,45.52a6,6,0,0,1,.75,3.23,9.53,9.53,0,0,1-.65,3.3S246.1,52.1,246.09,52.15Zm-.08-5a4.71,4.71,0,0,0-1.84-3.69l-.12-.19a9.46,9.46,0,0,0-2.85-1.64,3.71,3.71,0,0,1-.55-.3A2.22,2.22,0,0,0,240,41a4.84,4.84,0,0,0-2.27-.14l-.66.17a3.2,3.2,0,0,0-1.22,1.11.34.34,0,0,0-.07.15,1.58,1.58,0,0,0-.07,1,2.26,2.26,0,0,0,1.6,1.5,1.61,1.61,0,0,0,.5.13l1.39-.05a3.7,3.7,0,0,1,1.24.13,1.1,1.1,0,0,1,.29.12.89.89,0,0,1,.5.72,3,3,0,0,1-.15.52c-.16.33-.33.51-.5.52a9.28,9.28,0,0,1-2.56-.57,8.51,8.51,0,0,0-2.72-.54,2.35,2.35,0,0,0-.88.23,6.24,6.24,0,0,0-1,.53,12.7,12.7,0,0,0-.94,1,6.58,6.58,0,0,0-.95,1c0,.19-.07.32-.08.4a3.44,3.44,0,0,0,0,2.35,6.17,6.17,0,0,0,4.05,4.09,10,10,0,0,0,2.78.54,10.38,10.38,0,0,0,1.46,0,6.16,6.16,0,0,0,1.43-.27,7.19,7.19,0,0,0,2.11-1.19,5.33,5.33,0,0,0,1.52-1.88,5.87,5.87,0,0,0,.31-.83l.23-.7A9,9,0,0,0,246,47.12Zm-6.14,4.47a1.34,1.34,0,0,1-1.39.34l-.28-.11-.2-.07a1.79,1.79,0,0,1-.84-.79,1.35,1.35,0,0,1-.17-1.41,1.71,1.71,0,0,1,.82-.67,1.58,1.58,0,0,1,1-.2l.73.18q1.44.73,1.17,1.5A3,3,0,0,1,239.87,51.59Zm-.19-.21a2.63,2.63,0,0,0,.72-1l-.52-.31a5.29,5.29,0,0,1-.68-.15,1.3,1.3,0,0,0-.8.19,1.62,1.62,0,0,0-.7.49s0,0,0,.07l0,.07a.56.56,0,0,0,0,.3,1.2,1.2,0,0,0,.52.4.58.58,0,0,0,.2.06.72.72,0,0,0,.27.15A1,1,0,0,0,239.68,51.38Zm1.15-5.13h0a3.27,3.27,0,0,0-1.12-.1h0l-1,0a7,7,0,0,0,2,.4l.12-.14A.9.9,0,0,1,240.83,46.25Z"/><path class="cls-2" d="M255.6,62.25c-.15.15-.27.29-.37.41a2.57,2.57,0,0,1-1.09.7h0a3.71,3.71,0,0,1-1,.23,4.79,4.79,0,0,1-2.29-.45l-.23-.11a7.79,7.79,0,0,1-2.78-2.21q-.06-.18-.15-.39l-.06-.16a3.48,3.48,0,0,1-.22-.71l-.06-.13-.06-.17a3.4,3.4,0,0,1,.14-3c.05-.1.13-.23.23-.41a.48.48,0,0,1,.08-.12l.06-.12-.29-.2a1.52,1.52,0,0,1-.72-1.31c-.46-.53-.45-1.29,0-2.29a3.14,3.14,0,0,1,.28-.46,2.59,2.59,0,0,0,.33-.19h0a2.38,2.38,0,0,1,2.47-.26,2.11,2.11,0,0,0,.26-.4,4.82,4.82,0,0,0,.29-.85v0a4.18,4.18,0,0,1,.33-.9,7.47,7.47,0,0,1,.64-1.08l.36-.27,0,.05a2.72,2.72,0,0,1,1.28-.87,2,2,0,0,1,1.47.12l.36.2a2.33,2.33,0,0,1,.92,1.59,3.91,3.91,0,0,1,.35,1.07,2.48,2.48,0,0,1-.06.9v0a3.59,3.59,0,0,1-.26.9,6.27,6.27,0,0,1-.85,1.38.35.35,0,0,0-.09.11.42.42,0,0,0,.13.08,1.59,1.59,0,0,1,.86,1.44,1.45,1.45,0,0,1,.15,1.7,3.48,3.48,0,0,1-.48.69,1.94,1.94,0,0,1,.78,1.45,3,3,0,0,1-.1,3,2.91,2.91,0,0,1-.28.48Zm.06-2.19a3.65,3.65,0,0,0,.42-1.75,1.55,1.55,0,0,0-.87-1.45.56.56,0,0,0-.23-.06,1.54,1.54,0,0,0-1,.1l-.36.23c-.51.33-.88.45-1.09.34a.42.42,0,0,1-.18-.17c-.29-.45-.37-.78-.22-1a.61.61,0,0,1,.44-.23c.6,0,1,0,1.15,0a1.88,1.88,0,0,0,1.71-1.2,1.22,1.22,0,0,0-.56-1.74l-.54-.37a.66.66,0,0,1-.27-.55,1.29,1.29,0,0,1,.36-.73,5.85,5.85,0,0,0,.81-1.32,3.69,3.69,0,0,0,.24-.8,2.24,2.24,0,0,0,0-.79,2.55,2.55,0,0,0-.49-1.21,2.75,2.75,0,0,0-1-.58,1.59,1.59,0,0,0-1.1.11,2.4,2.4,0,0,0-.94.7l-.19.14-.14.11a10.3,10.3,0,0,0-.58,1,5.56,5.56,0,0,0-.31.88,6.83,6.83,0,0,1-.32.87,2.06,2.06,0,0,1-.46.63,2.17,2.17,0,0,0-2.36.14,1.14,1.14,0,0,1-.29.17,3.66,3.66,0,0,0-.45.95,1.28,1.28,0,0,0,.49,1.63,4.59,4.59,0,0,1,.76.55.69.69,0,0,1,.06.86c-.05.1-.13.24-.23.41s-.19.31-.24.41a3.14,3.14,0,0,0-.13,2.78,4.22,4.22,0,0,1,.19.52,7.52,7.52,0,0,0,1.57,1.44,6.16,6.16,0,0,0,1.49.83,5,5,0,0,0,2,.34,2.89,2.89,0,0,0,.84-.19,1.81,1.81,0,0,0,.7-.35l.63-.66c.16-.24.29-.43.39-.6A1.6,1.6,0,0,0,255.66,60.06Z"/><g id="fill"><path class="cls-3" d="M129.28,55.21a3.55,3.55,0,0,0-1.12-1.4,1.54,1.54,0,0,0-1.68-.21.55.55,0,0,0-.19.14,1.52,1.52,0,0,0-.51.83,4,4,0,0,0,0,.42c0,.61-.18,1-.4,1.07a.4.4,0,0,1-.25,0c-.53-.05-.83-.2-.9-.43a.63.63,0,0,1,.09-.49c.39-.45.63-.75.73-.89a1.88,1.88,0,0,0,.11-2.08,1.23,1.23,0,0,0-1.72-.64c-.32.11-.52.18-.62.2a.66.66,0,0,1-.6-.13,1.29,1.29,0,0,1-.35-.73,6.28,6.28,0,0,0-.55-1.45,3.34,3.34,0,0,0-.48-.68,2.45,2.45,0,0,0-.59-.52,2.57,2.57,0,0,0-1.26-.36,2.63,2.63,0,0,0-1.07.44,1.56,1.56,0,0,0-.6.92,2.45,2.45,0,0,0,0,1.17v.24a1,1,0,0,0,0,.18,9,9,0,0,0,.41,1.07,6.27,6.27,0,0,0,.49.78,6.1,6.1,0,0,1,.5.79,2.24,2.24,0,0,1,.21.75,2.17,2.17,0,0,0-1.35,1.94,1.58,1.58,0,0,1,0,.34,3.28,3.28,0,0,0,.47.94,1.29,1.29,0,0,0,1.58.62,4.57,4.57,0,0,1,.9-.27.7.7,0,0,1,.72.49c0,.09.1.24.17.43s.13.34.18.44A3.14,3.14,0,0,0,123.61,61l.53.16a7.1,7.1,0,0,0,2.09-.34,6.59,6.59,0,0,0,1.58-.66,5.23,5.23,0,0,0,1.49-1.35,2.94,2.94,0,0,0,.36-.77,2,2,0,0,0,.16-.78c-.07-.44-.12-.74-.14-.9s-.16-.49-.22-.67A2.2,2.2,0,0,0,129.28,55.21Z"/><path class="cls-3" d="M143.57,49.11a10.65,10.65,0,0,0-1.71-2.81c-.11-.18-.19-.32-.26-.41-.43-.4-.74-.67-.92-.82a8.84,8.84,0,0,0-.82-.37.45.45,0,0,1-.19,0,4.38,4.38,0,0,0-3.1.09,6.48,6.48,0,0,0-1.17.67,5.33,5.33,0,0,1-1,.52,1.46,1.46,0,0,1-1.41-.14,1.14,1.14,0,0,1-.29-.37,2,2,0,0,1-.13-.22,5.82,5.82,0,0,1-.44-1,4.48,4.48,0,0,0-.5-.45,1.71,1.71,0,0,0-1.13-.73,2.42,2.42,0,0,0-1.42,0A2.16,2.16,0,0,0,128,44.47a3.61,3.61,0,0,0,0,2.9l.8,1.85c.42.79.76,1.41,1,1.84.45.86.77,1.51,1,1.94a12.09,12.09,0,0,0,1,1.67q.31.44,1.17,1.5a3.08,3.08,0,0,0,1.25.67,2.21,2.21,0,0,0,1.35,0l.14-.05a2.51,2.51,0,0,0,1.13-.81,2.2,2.2,0,0,0,.52-2,5.85,5.85,0,0,0-.91-1.74,2,2,0,0,1-.29-.61c-.17-.6,0-1,.44-1.16a1.48,1.48,0,0,1,1,.08,2.08,2.08,0,0,1,.87.58l.55.5c.4.39.67.67.8.82a2.1,2.1,0,0,0,.79.5,1.46,1.46,0,0,0,1,.06,10.46,10.46,0,0,0,1.53-.85,1.73,1.73,0,0,0,.46-.55,2,2,0,0,0,.29-.67A4.19,4.19,0,0,0,143.57,49.11Z"/><path class="cls-3" d="M155.7,38.78a4.75,4.75,0,0,0-3.62-2l-.21-.08a9.75,9.75,0,0,0-3.27.27,4.12,4.12,0,0,1-.62.07,2.38,2.38,0,0,0-.68.12,4.72,4.72,0,0,0-1.94,1.18l-.45.51a3.24,3.24,0,0,0-.37,1.61s0,.08,0,.16a1.64,1.64,0,0,0,.51.85,2.26,2.26,0,0,0,2.17.32,1.86,1.86,0,0,0,.48-.18l1.12-.83a4,4,0,0,1,1.09-.6.89.89,0,0,1,.31-.06.84.84,0,0,1,.81.3,2.15,2.15,0,0,1,.18.52c.06.36,0,.6-.12.71a9.35,9.35,0,0,1-2.42,1,8.09,8.09,0,0,0-2.54,1.1,2.27,2.27,0,0,0-.6.69,6,6,0,0,0-.53,1,10.32,10.32,0,0,0-.22,1.32,5.86,5.86,0,0,0-.22,1.36,3.75,3.75,0,0,0,.15.37,3.52,3.52,0,0,0,1.36,1.92,6.19,6.19,0,0,0,5.66,1.06,10.34,10.34,0,0,0,2.6-1.14,9.7,9.7,0,0,0,1.19-.85,6.15,6.15,0,0,0,1-1,6.84,6.84,0,0,0,1-2.18,5.19,5.19,0,0,0,.19-2.41,6.61,6.61,0,0,0-.21-.86c-.11-.33-.18-.57-.21-.71A9.14,9.14,0,0,0,155.7,38.78ZM153.19,46a1.33,1.33,0,0,1-1,1.07l-.29.07-.2,0A1.79,1.79,0,0,1,150.6,47a1.37,1.37,0,0,1-.95-1.06,1.8,1.8,0,0,1,.3-1,1.55,1.55,0,0,1,.73-.75l.71-.27c1.06-.15,1.67,0,1.81.57A2.93,2.93,0,0,1,153.19,46Z"/><path class="cls-3" d="M171,43.94a3.54,3.54,0,0,0-.66-1.68,1.55,1.55,0,0,0-1.54-.7.48.48,0,0,0-.22.08,1.55,1.55,0,0,0-.74.64c0,.07-.09.2-.17.39-.23.57-.46.87-.7.9a.38.38,0,0,1-.25,0c-.49-.2-.74-.43-.73-.68a.59.59,0,0,1,.23-.44c.5-.32.82-.52,1-.63a1.86,1.86,0,0,0,.72-2,1.22,1.22,0,0,0-1.45-1.12h-.65a.63.63,0,0,1-.53-.3,1.25,1.25,0,0,1-.12-.8,6.61,6.61,0,0,0-.09-1.55,3.25,3.25,0,0,0-.26-.79,2.17,2.17,0,0,0-.41-.67,2.7,2.7,0,0,0-1.09-.72,2.63,2.63,0,0,0-1.16.1,1.6,1.6,0,0,0-.84.7,2.44,2.44,0,0,0-.37,1.11l-.08.23a1.54,1.54,0,0,0-.05.17,9.25,9.25,0,0,0,.08,1.14,5.62,5.62,0,0,0,.24.9,5.62,5.62,0,0,1,.24.9,2,2,0,0,1,0,.77,2.19,2.19,0,0,0-1.86,1.46,1.31,1.31,0,0,1-.13.31,3.5,3.5,0,0,0,.16,1,1.28,1.28,0,0,0,1.33,1.07,5.37,5.37,0,0,1,.94,0,.72.72,0,0,1,.54.68,4.13,4.13,0,0,1,0,.47,3.93,3.93,0,0,0,0,.47,3.15,3.15,0,0,0,1.47,2.36c.13.08.28.19.46.32a7.47,7.47,0,0,0,2.1.29,6.62,6.62,0,0,0,1.71-.16,5.27,5.27,0,0,0,1.81-.84,3.43,3.43,0,0,0,.58-.63,2,2,0,0,0,.38-.7c.06-.44.11-.74.14-.9s0-.52,0-.71A2.2,2.2,0,0,0,171,43.94Z"/><path class="cls-3" d="M181.56,34.43a2.79,2.79,0,0,0-.1-.42l-.19-.59a2.69,2.69,0,0,0-.82-.88,4,4,0,0,0-1.78-.31,6.12,6.12,0,0,0-.7,0c-.93.2-1.48.33-1.81.43a6.29,6.29,0,0,0-1.77.81,2.55,2.55,0,0,0-.43.61,7.62,7.62,0,0,0-1,1.69,5.92,5.92,0,0,0-.3,1.53,5.85,5.85,0,0,0,.16,1.26,2.55,2.55,0,0,0,.38,1,3.17,3.17,0,0,0,.37.37,3.46,3.46,0,0,0,1.57.82l.89.15c.87.15,1.31.51,1.35,1.07-.37.46-.62.7-.74.73a2.72,2.72,0,0,1-1.2,0,3.43,3.43,0,0,1-.57-.21h-.54a1.29,1.29,0,0,0-.83.26l-.16.06a3.28,3.28,0,0,0-.78,2.33,1.59,1.59,0,0,0,.2.38A2.43,2.43,0,0,0,174.21,47a4.51,4.51,0,0,0,2.14.3c.25,0,.5,0,.75-.07a5.34,5.34,0,0,0,1.94-.61,9.45,9.45,0,0,0,1.63-1.14,4.16,4.16,0,0,0,1-1.64,4.24,4.24,0,0,1,.21-.51A5.81,5.81,0,0,0,182,42c-.08-1.27-.91-2.5-2.47-3.67a2.28,2.28,0,0,0-.91-.32,1.43,1.43,0,0,1-.72-.5,1.35,1.35,0,0,1-.41-.78.44.44,0,0,1,.17-.4.7.7,0,0,1,.44-.18,2.23,2.23,0,0,1,.68.12,2.18,2.18,0,0,0,.67.12,7.93,7.93,0,0,0,1.14-.25,1.39,1.39,0,0,0,.65-.55,1.52,1.52,0,0,0,.36-.79A1.45,1.45,0,0,0,181.56,34.43Z"/><path class="cls-3" d="M203.08,38.23c0-.14,0-.26,0-.36a12.36,12.36,0,0,0-.76-2.18,4.55,4.55,0,0,0-1.67-1.92l-1.27-.6c-.18-.07-.62-.22-1.31-.44a6.63,6.63,0,0,1-1.25-.51l-.77.08a3.45,3.45,0,0,0-.87.2,2.56,2.56,0,0,1-.6.16,1.58,1.58,0,0,0-.49.17,5.33,5.33,0,0,0-.86.81l-.23.3-.43.6a4.83,4.83,0,0,0-.23.45,3.4,3.4,0,0,0-.56,1.75,4.65,4.65,0,0,0,.59,2.72,2.7,2.7,0,0,0,2.22,1.5,2.51,2.51,0,0,0,.62,0,5.14,5.14,0,0,1,1.66.09,1,1,0,0,1,.63.49,1.16,1.16,0,0,1,.24.79.36.36,0,0,1-.24.21,2.44,2.44,0,0,1-1,.11,11.21,11.21,0,0,1-1.89-.45,3,3,0,0,0-.55-.09,5.36,5.36,0,0,0-1.36.12,1.09,1.09,0,0,0-.57.38l-.49.53a1,1,0,0,0,0,.21.93.93,0,0,0-.15.46,2.24,2.24,0,0,0,.85,1.8,7.09,7.09,0,0,0,.95.75,5.88,5.88,0,0,0,1,.31,4.24,4.24,0,0,0,1.68.45,6.44,6.44,0,0,0,2.77-.42,5.42,5.42,0,0,0,3.53-3.35,1.26,1.26,0,0,1,.14-.26l.52-1.55a6.24,6.24,0,0,0,.31-1.58C203.18,39.86,203.15,39.29,203.08,38.23Zm-5.69-1.71a2,2,0,0,1,.77.41,1,1,0,0,1,.24.8q-.06.85-.81.87a1.06,1.06,0,0,1-.45,0,1.68,1.68,0,0,1-1-.39,1,1,0,0,1-.32-1,1.16,1.16,0,0,1,.4-.55,4,4,0,0,1,.58-.44A2,2,0,0,0,197.39,36.52Z"/><path class="cls-3" d="M216.47,38.68a4.26,4.26,0,0,0-.06-1.3c-.06-.33-.1-.56-.12-.7l-.27-.43a3.9,3.9,0,0,0-1-1.5,1.74,1.74,0,0,0-.63-.29l-.57-.13-.55-.18-.5-.16c-1.22,0-2.14,0-2.75.08a6.84,6.84,0,0,0-1.93.64,4.24,4.24,0,0,0-1.83,1.61c-.12.14-.2.25-.25.32a5.26,5.26,0,0,0-.39,1.2,6.71,6.71,0,0,1-.23.72,5.45,5.45,0,0,0-.21.76l0,.21a1.25,1.25,0,0,0,0,.21.67.67,0,0,0,0,.19.8.8,0,0,1,0,.19,7.1,7.1,0,0,0-.12.8c-.09,1.23-.17,2.28-.22,3.13a1.12,1.12,0,0,1,0,.13,12.14,12.14,0,0,0,.07,1.53,3.94,3.94,0,0,1-.08.52,1.21,1.21,0,0,0,0,.46,1.87,1.87,0,0,0,.53,1,2.43,2.43,0,0,0,1.2.53,4,4,0,0,0,2.68-.57,2,2,0,0,0,1-1.44,4.93,4.93,0,0,0,0-.59v-.51a3.52,3.52,0,0,0-.06-.86,12.47,12.47,0,0,0-.57-1.73l-.07-.17a8.69,8.69,0,0,1-.4-1.11,1.84,1.84,0,0,1,0-.62,1.51,1.51,0,0,1,1-1.22,1.86,1.86,0,0,1,1-.08,2.48,2.48,0,0,1,.81.26,4.31,4.31,0,0,1,.56.43,3.09,3.09,0,0,0,1.15.6,1.77,1.77,0,0,0,.74-.09l.74-.23a2.66,2.66,0,0,0,1-.82A3.49,3.49,0,0,0,216.47,38.68Z"/><path class="cls-3" d="M228.83,46.79a3,3,0,0,0-1.42-.82,5.62,5.62,0,0,0-1.71,0,5.31,5.31,0,0,1-1.71,0,2.62,2.62,0,0,1-1.09-.58.37.37,0,0,1,0-.21c.12-.13.22-.19.29-.19a24.35,24.35,0,0,0,3.89.2,3.15,3.15,0,0,0,1.88-.87,2.5,2.5,0,0,0,.6-.81c.12-.33.2-.59.25-.78a6.06,6.06,0,0,0,.13-2.9,3.25,3.25,0,0,0-1.75-2.19l-1-.52a4.29,4.29,0,0,0-.87-.11l-2-.1a4.85,4.85,0,0,0-4.09,1.55,21.72,21.72,0,0,0-1.79,2.17,6.58,6.58,0,0,0-1,2.34c-.09.46-.16.81-.2,1q-.06,3.72,1.83,5.35c.3.25.54.47.73.65l1.36.74,1.58.58a.56.56,0,0,1,.17.09.71.71,0,0,0,.17.09,13.89,13.89,0,0,0,3.79.1,3.13,3.13,0,0,0,2.8-2.26A2.49,2.49,0,0,0,228.83,46.79ZM225.05,42c-.55.28-.94.47-1.16.55a1,1,0,0,1-.29,0,1.18,1.18,0,0,1-.67-.53,1.06,1.06,0,0,1-.15-.83l.09-.21a4.26,4.26,0,0,1,.61-.67l.22-.12.23-.12c.33.25.61.46.84.66a.94.94,0,0,1,.42.93C225.15,41.86,225.1,42,225.05,42Zm-1.4.06,0-.06Z"/><path class="cls-3" d="M246,47.12a4.71,4.71,0,0,0-1.84-3.69l-.12-.19a9.46,9.46,0,0,0-2.85-1.64,3.71,3.71,0,0,1-.55-.3A2.22,2.22,0,0,0,240,41a4.84,4.84,0,0,0-2.27-.14l-.66.17a3.2,3.2,0,0,0-1.22,1.11.34.34,0,0,0-.07.15,1.58,1.58,0,0,0-.07,1,2.26,2.26,0,0,0,1.6,1.5,1.61,1.61,0,0,0,.5.13l1.39-.05a3.7,3.7,0,0,1,1.24.13,1.1,1.1,0,0,1,.29.12.89.89,0,0,1,.5.72,3,3,0,0,1-.15.52c-.16.33-.33.51-.5.52a9.28,9.28,0,0,1-2.56-.57,8.51,8.51,0,0,0-2.72-.54,2.35,2.35,0,0,0-.88.23,6.24,6.24,0,0,0-1,.53,12.7,12.7,0,0,0-.94,1,6.58,6.58,0,0,0-.95,1c0,.19-.07.32-.08.4a3.44,3.44,0,0,0,0,2.35,6.17,6.17,0,0,0,4.05,4.09,10,10,0,0,0,2.78.54,10.38,10.38,0,0,0,1.46,0,6.16,6.16,0,0,0,1.43-.27,7.19,7.19,0,0,0,2.11-1.19,5.33,5.33,0,0,0,1.52-1.88,5.87,5.87,0,0,0,.31-.83l.23-.7A9,9,0,0,0,246,47.12Zm-6.14,4.47a1.34,1.34,0,0,1-1.39.34l-.28-.11-.2-.07a1.79,1.79,0,0,1-.84-.79,1.35,1.35,0,0,1-.17-1.41,1.71,1.71,0,0,1,.82-.67,1.58,1.58,0,0,1,1-.2l.73.18q1.44.73,1.17,1.5A3,3,0,0,1,239.87,51.59Z"/><path class="cls-3" d="M255.66,60.06a3.65,3.65,0,0,0,.42-1.75,1.55,1.55,0,0,0-.87-1.45.56.56,0,0,0-.23-.06,1.54,1.54,0,0,0-1,.1l-.36.23c-.51.33-.88.45-1.09.34a.42.42,0,0,1-.18-.17c-.29-.45-.37-.78-.22-1a.61.61,0,0,1,.44-.23c.6,0,1,0,1.15,0a1.88,1.88,0,0,0,1.71-1.2,1.22,1.22,0,0,0-.56-1.74l-.54-.37a.66.66,0,0,1-.27-.55,1.29,1.29,0,0,1,.36-.73,5.85,5.85,0,0,0,.81-1.32,3.69,3.69,0,0,0,.24-.8,2.24,2.24,0,0,0,0-.79,2.55,2.55,0,0,0-.49-1.21,2.75,2.75,0,0,0-1-.58,1.59,1.59,0,0,0-1.1.11,2.4,2.4,0,0,0-.94.7l-.19.14-.14.11a10.3,10.3,0,0,0-.58,1,5.56,5.56,0,0,0-.31.88,6.83,6.83,0,0,1-.32.87,2.06,2.06,0,0,1-.46.63,2.17,2.17,0,0,0-2.36.14,1.14,1.14,0,0,1-.29.17,3.66,3.66,0,0,0-.45.95,1.28,1.28,0,0,0,.49,1.63,4.59,4.59,0,0,1,.76.55.69.69,0,0,1,.06.86c-.05.1-.13.24-.23.41s-.19.31-.24.41a3.14,3.14,0,0,0-.13,2.78,4.22,4.22,0,0,1,.19.52,7.52,7.52,0,0,0,1.57,1.44,6.16,6.16,0,0,0,1.49.83,5,5,0,0,0,2,.34,2.89,2.89,0,0,0,.84-.19,1.81,1.81,0,0,0,.7-.35l.63-.66c.16-.24.29-.43.39-.6A1.6,1.6,0,0,0,255.66,60.06Z"/></g></svg>