<svg id="Layer_1" data-name="Layer 1" xmlns="http://www.w3.org/2000/svg" viewBox="0 0 287 291.13"><defs><style>.cls-1,.cls-2{fill:none;}.cls-2{opacity:0.3;}.cls-3{font-size:15px;font-family:Bubblegums, bubblegums;}</style></defs><rect class="cls-1" x="-44" y="-44" width="375" height="375"/><circle class="cls-2" cx="143.5" cy="143.5" r="143.5"/><text class="cls-3" transform="matrix(0.67, 0.75, -0.75, 0.67, 32.19, 234.29)">r</text><text class="cls-3" transform="matrix(0.74, 0.68, -0.68, 0.74, 40.89, 244.1)">e</text><text class="cls-3" transform="translate(52.7 254.77) rotate(36.96)">l</text><text class="cls-3" transform="translate(62.41 262.15) rotate(31.37)">e</text><text class="cls-3" transform="translate(76.14 270.48) rotate(24.85)">a</text><text class="cls-3" transform="translate(91.06 277.24) rotate(19.09)">s</text><text class="cls-3" transform="matrix(0.97, 0.23, -0.23, 0.97, 102.69, 281.32)">e</text><text class="cls-3" transform="matrix(0.99, 0.15, -0.15, 0.99, 118.1, 284.81)"> </text><text class="cls-3" transform="matrix(1, 0.08, -0.08, 1, 126.04, 286.09)">t</text><text class="cls-3" transform="translate(139.49 287.15) rotate(-1.45)">h</text><text class="cls-3" transform="translate(155.72 286.69) rotate(-7.84)">e</text><text class="cls-3" transform="translate(171.38 284.34) rotate(-12.64)"> </text><text class="cls-3" transform="translate(179.19 282.64) rotate(-16.6)">b</text><text class="cls-3" transform="matrix(0.93, -0.38, 0.38, 0.93, 190.63, 279.3)">u</text><text class="cls-3" transform="translate(205.51 273.11) rotate(-28.18)">t</text><text class="cls-3" transform="translate(217.4 266.7) rotate(-33.57)">t</text><text class="cls-3" transform="translate(228.71 259.23) rotate(-39.46)">o</text><text class="cls-3" transform="translate(241.26 248.92) rotate(-46.35)">n</text></svg>