<svg id="Layer_1" data-name="Layer 1" xmlns="http://www.w3.org/2000/svg" viewBox="0 0 287 291.21"><defs><style>.cls-1,.cls-2{fill:none;}.cls-2{opacity:0.3;}.cls-3{font-size:15px;font-family:Bubblegums, bubblegums;}</style></defs><rect class="cls-1" x="-44" y="-44" width="375" height="375"/><circle class="cls-2" cx="143.5" cy="143.5" r="143.5"/><text class="cls-3" transform="matrix(0.67, 0.75, -0.75, 0.67, 32.18, 234.29)">t</text><text class="cls-3" transform="matrix(0.73, 0.68, -0.68, 0.73, 41.22, 244.34)">r</text><text class="cls-3" transform="matrix(0.79, 0.61, -0.61, 0.79, 50.76, 253.22)">y</text><text class="cls-3" transform="matrix(0.84, 0.55, -0.55, 0.84, 62.04, 261.71)"> </text><text class="cls-3" transform="matrix(0.88, 0.48, -0.48, 0.88, 68.74, 266.19)">P</text><text class="cls-3" transform="translate(81.01 272.86) rotate(23.34)">r</text><text class="cls-3" transform="translate(93.04 278.09) rotate(17.5)">e</text><text class="cls-3" transform="translate(108.28 282.77) rotate(11.82)">s</text><text class="cls-3" transform="matrix(0.99, 0.12, -0.12, 0.99, 120.23, 285.24)">s</text><text class="cls-3" transform="translate(132.25 286.62) rotate(2.88)">i</text><text class="cls-3" transform="translate(140.68 287.24) rotate(-2.36)">n</text><text class="cls-3" transform="matrix(0.99, -0.15, 0.15, 0.99, 159.15, 286.31)">g</text><text class="cls-3" transform="translate(172.91 284.03) rotate(-13.27)"> </text><text class="cls-3" transform="translate(180.71 282.25) rotate(-17.29)">L</text><text class="cls-3" transform="translate(192.39 278.67) rotate(-22.97)">o</text><text class="cls-3" transform="matrix(0.87, -0.5, 0.5, 0.87, 207.34, 272.36)">n</text><text class="cls-3" transform="matrix(0.8, -0.59, 0.59, 0.8, 223.27, 262.99)">g</text><text class="cls-3" transform="matrix(0.74, -0.67, 0.67, 0.74, 234.69, 254.57)">e</text><text class="cls-3" transform="matrix(0.67, -0.75, 0.75, 0.67, 246.39, 243.72)">r</text></svg>